M48
; DRILL file {KiCad 7.0.10} date Sat Jan 13 07:31:49 2024
; FORMAT={-:-/ absolute / inch / decimal}
; #@! TF.CreationDate,2024-01-13T07:31:49+01:00
; #@! TF.GenerationSoftware,Kicad,Pcbnew,7.0.10
; #@! TF.FileFunction,Plated,1,2,PTH
FMAT,2
INCH
; #@! TA.AperFunction,Plated,PTH,ViaDrill
T1C0.0157
; #@! TA.AperFunction,Plated,PTH,ComponentDrill
T2C0.0315
; #@! TA.AperFunction,Plated,PTH,ComponentDrill
T3C0.0354
; #@! TA.AperFunction,Plated,PTH,ComponentDrill
T4C0.0394
%
G90
G05
T1
X1.7548Y-3.4563
X1.8Y-4.5
X1.87Y-4.5292
X1.9094Y-4.5438
X1.9551Y-4.5291
X1.9602Y-3.1849
X1.9875Y-4.1954
X2.0646Y-4.7799
X2.1516Y-3.031
X2.2Y-4.54
X2.2291Y-5.1998
X2.243Y-3.6375
X2.2549Y-5.415
X2.2639Y-5.3745
X2.2676Y-4.9477
X2.3018Y-4.3098
X2.3054Y-5.4137
X2.3213Y-4.3893
X2.3421Y-4.6006
X2.3443Y-4.7735
X2.3448Y-5.4121
X2.3924Y-4.2671
X2.5277Y-4.1029
X2.5418Y-5.2894
X2.5581Y-4.0743
X2.6691Y-5.3592
X2.69Y-4.06
X2.7001Y-2.4978
X2.7069Y-3.0432
X2.7877Y-4.6176
X2.8115Y-3.0253
X2.8171Y-4.802
X2.8548Y-4.665
X2.8602Y-3.0533
X2.8698Y-5.3417
X2.8798Y-2.4967
X2.888Y-4.4081
X2.8953Y-3.3113
X2.8985Y-4.0282
X2.9221Y-3.5717
X2.9365Y-4.1485
X2.9556Y-3.8731
X2.9556Y-4.2123
X2.961Y-3.7301
X3.0032Y-3.6301
X3.0056Y-3.5606
X3.0253Y-3.3887
X3.0335Y-2.5567
X3.0377Y-5.2638
X3.04Y-4.31
X3.04Y-4.4557
X3.1107Y-3.3568
X3.264Y-5.3715
X3.2796Y-5.4156
X3.3547Y-5.3279
X3.3788Y-3.6091
X3.3798Y-3.841
X3.5188Y-4.1909
X3.5384Y-3.2503
X3.6197Y-3.2807
X3.6287Y-5.4117
X3.69Y-4.1279
X3.7498Y-4.2515
X3.8749Y-3.3093
X3.8941Y-3.0413
X3.9252Y-3.9452
X3.977Y-5.3115
X4.0535Y-4.0255
X4.0717Y-4.8313
X4.0773Y-4.7767
X4.0988Y-3.0733
X4.1435Y-4.1909
X4.1562Y-4.5691
X4.2358Y-3.5714
X4.2405Y-3.8155
X4.3349Y-3.6603
X4.3754Y-3.2784
X4.58Y-5.24
T2
X1.7996Y-3.6496
X1.7996Y-3.7496
X1.7996Y-3.8496
X1.7996Y-3.9496
X1.7996Y-4.0496
X1.7996Y-4.1496
X1.7996Y-4.2496
X1.7996Y-4.3496
X1.9157Y-3.5148
X1.95Y-2.5266
X1.95Y-2.7234
X2.0996Y-3.6496
X2.0996Y-3.7496
X2.0996Y-3.8496
X2.0996Y-3.9496
X2.0996Y-4.0496
X2.0996Y-4.1496
X2.0996Y-4.2496
X2.0996Y-4.3496
X2.1Y-3.2004
X2.1Y-3.3972
X2.1126Y-3.5148
X2.2Y-4.6498
X2.2Y-4.7498
X2.2Y-4.8498
X2.2Y-4.9498
X2.2Y-5.0498
X2.2Y-5.1498
X2.2Y-5.2498
X2.2502Y-3.2004
X2.2502Y-3.5004
X2.3031Y-4.5
X2.35Y-3.8
X2.35Y-3.9
X2.35Y-4.0
X2.35Y-4.1
X2.35Y-4.2
X2.3502Y-3.2004
X2.3502Y-3.5004
X2.45Y-3.7
X2.45Y-3.8
X2.45Y-3.9
X2.45Y-4.0
X2.45Y-4.1
X2.45Y-4.2
X2.45Y-4.3
X2.4502Y-3.2004
X2.4502Y-3.5004
X2.5Y-4.5
X2.5Y-4.6498
X2.5Y-4.7498
X2.5Y-4.8498
X2.5Y-4.9498
X2.5Y-5.0498
X2.5Y-5.1498
X2.5Y-5.2498
X2.55Y-3.7
X2.55Y-3.8
X2.55Y-4.2
X2.55Y-4.3
X2.5502Y-3.2004
X2.5502Y-3.5004
X2.65Y-3.7
X2.65Y-3.8
X2.65Y-4.2
X2.65Y-4.3
X2.65Y-4.6498
X2.65Y-4.7498
X2.65Y-4.8498
X2.65Y-4.9498
X2.65Y-5.0498
X2.65Y-5.1498
X2.65Y-5.2498
X2.6502Y-3.2004
X2.6502Y-3.5004
X2.75Y-3.7
X2.75Y-3.8
X2.75Y-3.9
X2.75Y-4.0
X2.75Y-4.1
X2.75Y-4.2
X2.75Y-4.3
X2.7502Y-3.2004
X2.7502Y-3.5004
X2.7531Y-4.5
X2.85Y-3.8
X2.85Y-3.9
X2.85Y-4.0
X2.85Y-4.1
X2.85Y-4.2
X2.8502Y-3.2004
X2.8502Y-3.5004
X2.95Y-4.5
X2.95Y-4.6498
X2.95Y-4.7498
X2.95Y-4.8498
X2.95Y-4.9498
X2.95Y-5.0498
X2.95Y-5.1498
X2.95Y-5.2498
X2.9502Y-3.2004
X2.9502Y-3.5004
X3.05Y-3.8616
X3.05Y-4.0584
X3.0502Y-3.2004
X3.0502Y-3.5004
X3.1Y-4.65
X3.1Y-4.75
X3.1Y-4.85
X3.1Y-4.95
X3.1Y-5.05
X3.1Y-5.15
X3.1Y-5.25
X3.1502Y-3.2004
X3.1502Y-3.5004
X3.19Y-3.6998
X3.19Y-4.2998
X3.2031Y-4.5
X3.2631Y-3.57
X3.29Y-3.6998
X3.29Y-4.2998
X3.39Y-3.6998
X3.39Y-4.2998
X3.4Y-4.5
X3.4Y-4.65
X3.4Y-4.75
X3.4Y-4.85
X3.4Y-4.95
X3.4Y-5.05
X3.4Y-5.15
X3.4Y-5.25
X3.44Y-3.1916
X3.44Y-3.3884
X3.46Y-3.57
X3.49Y-3.6998
X3.49Y-4.2998
X3.5496Y-4.5496
X3.5496Y-4.6496
X3.5496Y-4.7496
X3.5496Y-4.8496
X3.5496Y-4.9496
X3.5496Y-5.0496
X3.5496Y-5.1496
X3.5496Y-5.2496
X3.57Y-3.19
X3.57Y-3.49
X3.59Y-3.6998
X3.59Y-4.2998
X3.6531Y-4.425
X3.67Y-3.19
X3.67Y-3.49
X3.69Y-3.6998
X3.69Y-4.2998
X3.77Y-3.19
X3.77Y-3.49
X3.79Y-3.6998
X3.79Y-4.2998
X3.8496Y-4.5496
X3.8496Y-4.6496
X3.8496Y-4.7496
X3.8496Y-4.8496
X3.8496Y-4.9496
X3.8496Y-5.0496
X3.8496Y-5.1496
X3.8496Y-5.2496
X3.85Y-4.425
X3.87Y-3.19
X3.87Y-3.49
X3.89Y-3.6998
X3.89Y-4.2998
X3.97Y-3.19
X3.97Y-3.49
X3.99Y-3.6998
X3.99Y-4.2998
X4.0Y-4.55
X4.0Y-4.65
X4.0Y-4.75
X4.0Y-4.85
X4.0Y-4.95
X4.0Y-5.05
X4.0Y-5.15
X4.0Y-5.25
X4.07Y-3.19
X4.07Y-3.49
X4.09Y-3.6998
X4.09Y-4.2998
X4.1031Y-4.425
X4.17Y-3.19
X4.17Y-3.49
X4.19Y-3.6998
X4.19Y-4.2998
X4.27Y-3.19
X4.27Y-3.49
X4.29Y-3.6998
X4.29Y-4.2998
X4.3Y-4.425
X4.3Y-4.55
X4.3Y-4.65
X4.3Y-4.75
X4.3Y-4.85
X4.3Y-4.95
X4.3Y-5.05
X4.3Y-5.15
X4.3Y-5.25
X4.37Y-3.19
X4.37Y-3.49
X4.39Y-3.6998
X4.39Y-4.2998
X4.47Y-2.54
X4.47Y-2.84
X4.47Y-3.19
X4.47Y-3.49
X4.49Y-3.6998
X4.49Y-4.2998
X4.65Y-2.54
X4.65Y-2.84
X4.6581Y-3.69
X4.7566Y-3.69
T3
X4.3698Y-2.25
X4.4698Y-2.25
X4.6598Y-2.25
X4.7598Y-2.25
T4
X2.5354Y-2.3286
X2.5354Y-2.9286
X2.6354Y-2.3286
X2.6354Y-2.9286
X2.7354Y-2.3286
X2.7354Y-2.9286
X2.8354Y-2.3286
X2.8354Y-2.9286
X2.9354Y-2.3286
X2.9354Y-2.9286
X3.0354Y-2.3286
X3.0354Y-2.9286
X3.1354Y-2.3286
X3.1354Y-2.9286
X3.2354Y-2.3286
X3.2354Y-2.9286
X3.3354Y-2.3286
X3.3354Y-2.9286
X3.4354Y-2.3286
X3.4354Y-2.9286
X3.5354Y-2.3286
X3.5354Y-2.9286
X3.6354Y-2.3286
X3.6354Y-2.9286
X3.7354Y-2.3286
X3.7354Y-2.9286
X3.8354Y-2.3286
X3.8354Y-2.9286
X3.9354Y-2.3286
X3.9354Y-2.9286
X4.0354Y-2.3286
X4.0354Y-2.9286
M30
