%TF.GenerationSoftware,KiCad,Pcbnew,(6.0.9)*%
%TF.CreationDate,2023-10-12T08:19:30+02:00*%
%TF.ProjectId,p2000t-slot2-datacartridge,70323030-3074-42d7-936c-6f74322d6461,rev?*%
%TF.SameCoordinates,Original*%
%TF.FileFunction,Legend,Top*%
%TF.FilePolarity,Positive*%
%FSLAX46Y46*%
G04 Gerber Fmt 4.6, Leading zero omitted, Abs format (unit mm)*
G04 Created by KiCad (PCBNEW (6.0.9)) date 2023-10-12 08:19:30*
%MOMM*%
%LPD*%
G01*
G04 APERTURE LIST*
%ADD10C,0.120000*%
%ADD11C,0.150000*%
%ADD12C,0.300000*%
%ADD13C,0.250000*%
%ADD14C,0.200000*%
G04 APERTURE END LIST*
D10*
X112291100Y-137134600D02*
X109878100Y-137134600D01*
X112291100Y-140690600D02*
X112291100Y-137134600D01*
X109878100Y-140690600D02*
X112291100Y-140690600D01*
X54518800Y-138277600D02*
X54518800Y-140817600D01*
X109878100Y-137134600D02*
X109878100Y-140690600D01*
X74483200Y-140639800D02*
X88582500Y-140639800D01*
X54518800Y-140817600D02*
X56931800Y-140817600D01*
X56931800Y-138277600D02*
X54518800Y-138277600D01*
X56931800Y-140817600D02*
X56931800Y-138277600D01*
X58671700Y-140627100D02*
X72768700Y-140627100D01*
X78740000Y-99060000D02*
X111760000Y-99060000D01*
X111760000Y-99060000D02*
X111760000Y-104140000D01*
X111760000Y-104140000D02*
X78740000Y-104140000D01*
X78740000Y-104140000D02*
X78740000Y-99060000D01*
G36*
X78740000Y-99060000D02*
G01*
X111760000Y-99060000D01*
X111760000Y-104140000D01*
X78740000Y-104140000D01*
X78740000Y-99060000D01*
G37*
X114300000Y-107950000D02*
X119380000Y-107950000D01*
X119380000Y-107950000D02*
X119380000Y-113030000D01*
X119380000Y-113030000D02*
X114300000Y-113030000D01*
X114300000Y-113030000D02*
X114300000Y-107950000D01*
G36*
X114300000Y-107950000D02*
G01*
X119380000Y-107950000D01*
X119380000Y-113030000D01*
X114300000Y-113030000D01*
X114300000Y-107950000D01*
G37*
X114300000Y-114300000D02*
X119380000Y-114300000D01*
X119380000Y-114300000D02*
X119380000Y-119380000D01*
X119380000Y-119380000D02*
X114300000Y-119380000D01*
X114300000Y-119380000D02*
X114300000Y-114300000D01*
G36*
X114300000Y-114300000D02*
G01*
X119380000Y-114300000D01*
X119380000Y-119380000D01*
X114300000Y-119380000D01*
X114300000Y-114300000D01*
G37*
D11*
X110505242Y-142285980D02*
X109933814Y-142285980D01*
X110219528Y-142285980D02*
X110219528Y-141285980D01*
X110124290Y-141428838D01*
X110029052Y-141524076D01*
X109933814Y-141571695D01*
X111410004Y-141285980D02*
X110933814Y-141285980D01*
X110886195Y-141762171D01*
X110933814Y-141714552D01*
X111029052Y-141666933D01*
X111267147Y-141666933D01*
X111362385Y-141714552D01*
X111410004Y-141762171D01*
X111457623Y-141857409D01*
X111457623Y-142095504D01*
X111410004Y-142190742D01*
X111362385Y-142238361D01*
X111267147Y-142285980D01*
X111029052Y-142285980D01*
X110933814Y-142238361D01*
X110886195Y-142190742D01*
X111886195Y-142285980D02*
X111886195Y-141285980D01*
X111886195Y-141666933D02*
X111981433Y-141619314D01*
X112171909Y-141619314D01*
X112267147Y-141666933D01*
X112314766Y-141714552D01*
X112362385Y-141809790D01*
X112362385Y-142095504D01*
X112314766Y-142190742D01*
X112267147Y-142238361D01*
X112171909Y-142285980D01*
X111981433Y-142285980D01*
X111886195Y-142238361D01*
X82952580Y-141663752D02*
X82857342Y-141616133D01*
X82809723Y-141568514D01*
X82762104Y-141473276D01*
X82762104Y-141425657D01*
X82809723Y-141330419D01*
X82857342Y-141282800D01*
X82952580Y-141235180D01*
X83143057Y-141235180D01*
X83238295Y-141282800D01*
X83285914Y-141330419D01*
X83333533Y-141425657D01*
X83333533Y-141473276D01*
X83285914Y-141568514D01*
X83238295Y-141616133D01*
X83143057Y-141663752D01*
X82952580Y-141663752D01*
X82857342Y-141711371D01*
X82809723Y-141758990D01*
X82762104Y-141854228D01*
X82762104Y-142044704D01*
X82809723Y-142139942D01*
X82857342Y-142187561D01*
X82952580Y-142235180D01*
X83143057Y-142235180D01*
X83238295Y-142187561D01*
X83285914Y-142139942D01*
X83333533Y-142044704D01*
X83333533Y-141854228D01*
X83285914Y-141758990D01*
X83238295Y-141711371D01*
X83143057Y-141663752D01*
X83762104Y-142235180D02*
X83762104Y-141235180D01*
X83762104Y-141616133D02*
X83857342Y-141568514D01*
X84047819Y-141568514D01*
X84143057Y-141616133D01*
X84190676Y-141663752D01*
X84238295Y-141758990D01*
X84238295Y-142044704D01*
X84190676Y-142139942D01*
X84143057Y-142187561D01*
X84047819Y-142235180D01*
X83857342Y-142235180D01*
X83762104Y-142187561D01*
X75237295Y-141235180D02*
X75046819Y-141235180D01*
X74951580Y-141282800D01*
X74903961Y-141330419D01*
X74808723Y-141473276D01*
X74761104Y-141663752D01*
X74761104Y-142044704D01*
X74808723Y-142139942D01*
X74856342Y-142187561D01*
X74951580Y-142235180D01*
X75142057Y-142235180D01*
X75237295Y-142187561D01*
X75284914Y-142139942D01*
X75332533Y-142044704D01*
X75332533Y-141806609D01*
X75284914Y-141711371D01*
X75237295Y-141663752D01*
X75142057Y-141616133D01*
X74951580Y-141616133D01*
X74856342Y-141663752D01*
X74808723Y-141711371D01*
X74761104Y-141806609D01*
X75761104Y-142235180D02*
X75761104Y-141235180D01*
X75761104Y-141616133D02*
X75856342Y-141568514D01*
X76046819Y-141568514D01*
X76142057Y-141616133D01*
X76189676Y-141663752D01*
X76237295Y-141758990D01*
X76237295Y-142044704D01*
X76189676Y-142139942D01*
X76142057Y-142187561D01*
X76046819Y-142235180D01*
X75856342Y-142235180D01*
X75761104Y-142187561D01*
X78650485Y-141235180D02*
X79317152Y-141235180D01*
X78888580Y-142235180D01*
X79698104Y-142235180D02*
X79698104Y-141235180D01*
X79698104Y-141616133D02*
X79793342Y-141568514D01*
X79983819Y-141568514D01*
X80079057Y-141616133D01*
X80126676Y-141663752D01*
X80174295Y-141758990D01*
X80174295Y-142044704D01*
X80126676Y-142139942D01*
X80079057Y-142187561D01*
X79983819Y-142235180D01*
X79793342Y-142235180D01*
X79698104Y-142187561D01*
X55495133Y-142412980D02*
X54923704Y-142412980D01*
X55209419Y-142412980D02*
X55209419Y-141412980D01*
X55114180Y-141555838D01*
X55018942Y-141651076D01*
X54923704Y-141698695D01*
X55923704Y-142412980D02*
X55923704Y-141412980D01*
X55923704Y-141793933D02*
X56018942Y-141746314D01*
X56209419Y-141746314D01*
X56304657Y-141793933D01*
X56352276Y-141841552D01*
X56399895Y-141936790D01*
X56399895Y-142222504D01*
X56352276Y-142317742D01*
X56304657Y-142365361D01*
X56209419Y-142412980D01*
X56018942Y-142412980D01*
X55923704Y-142365361D01*
X90731342Y-142235180D02*
X90159914Y-142235180D01*
X90445628Y-142235180D02*
X90445628Y-141235180D01*
X90350390Y-141378038D01*
X90255152Y-141473276D01*
X90159914Y-141520895D01*
X91350390Y-141235180D02*
X91445628Y-141235180D01*
X91540866Y-141282800D01*
X91588485Y-141330419D01*
X91636104Y-141425657D01*
X91683723Y-141616133D01*
X91683723Y-141854228D01*
X91636104Y-142044704D01*
X91588485Y-142139942D01*
X91540866Y-142187561D01*
X91445628Y-142235180D01*
X91350390Y-142235180D01*
X91255152Y-142187561D01*
X91207533Y-142139942D01*
X91159914Y-142044704D01*
X91112295Y-141854228D01*
X91112295Y-141616133D01*
X91159914Y-141425657D01*
X91207533Y-141330419D01*
X91255152Y-141282800D01*
X91350390Y-141235180D01*
X92112295Y-142235180D02*
X92112295Y-141235180D01*
X92112295Y-141616133D02*
X92207533Y-141568514D01*
X92398009Y-141568514D01*
X92493247Y-141616133D01*
X92540866Y-141663752D01*
X92588485Y-141758990D01*
X92588485Y-142044704D01*
X92540866Y-142139942D01*
X92493247Y-142187561D01*
X92398009Y-142235180D01*
X92207533Y-142235180D01*
X92112295Y-142187561D01*
X71411414Y-141222480D02*
X70935223Y-141222480D01*
X70887604Y-141698671D01*
X70935223Y-141651052D01*
X71030461Y-141603433D01*
X71268557Y-141603433D01*
X71363795Y-141651052D01*
X71411414Y-141698671D01*
X71459033Y-141793909D01*
X71459033Y-142032004D01*
X71411414Y-142127242D01*
X71363795Y-142174861D01*
X71268557Y-142222480D01*
X71030461Y-142222480D01*
X70935223Y-142174861D01*
X70887604Y-142127242D01*
X71887604Y-142222480D02*
X71887604Y-141222480D01*
X71887604Y-141603433D02*
X71982842Y-141555814D01*
X72173319Y-141555814D01*
X72268557Y-141603433D01*
X72316176Y-141651052D01*
X72363795Y-141746290D01*
X72363795Y-142032004D01*
X72316176Y-142127242D01*
X72268557Y-142174861D01*
X72173319Y-142222480D01*
X71982842Y-142222480D01*
X71887604Y-142174861D01*
X62109080Y-139936480D02*
X62109080Y-138936480D01*
X62347176Y-138936480D01*
X62490033Y-138984100D01*
X62585271Y-139079338D01*
X62632890Y-139174576D01*
X62680509Y-139365052D01*
X62680509Y-139507909D01*
X62632890Y-139698385D01*
X62585271Y-139793623D01*
X62490033Y-139888861D01*
X62347176Y-139936480D01*
X62109080Y-139936480D01*
X63394795Y-140269814D02*
X63156700Y-140269814D01*
X63156700Y-138841242D01*
X63394795Y-138841242D01*
X64299557Y-139936480D02*
X63728128Y-139936480D01*
X64013842Y-139936480D02*
X64013842Y-138936480D01*
X63918604Y-139079338D01*
X63823366Y-139174576D01*
X63728128Y-139222195D01*
X64775747Y-139888861D02*
X64775747Y-139936480D01*
X64728128Y-140031719D01*
X64680509Y-140079338D01*
X65109080Y-138936480D02*
X65728128Y-138936480D01*
X65394795Y-139317433D01*
X65537652Y-139317433D01*
X65632890Y-139365052D01*
X65680509Y-139412671D01*
X65728128Y-139507909D01*
X65728128Y-139746004D01*
X65680509Y-139841242D01*
X65632890Y-139888861D01*
X65537652Y-139936480D01*
X65251938Y-139936480D01*
X65156700Y-139888861D01*
X65109080Y-139841242D01*
X66204319Y-139888861D02*
X66204319Y-139936480D01*
X66156700Y-140031719D01*
X66109080Y-140079338D01*
X67109080Y-138936480D02*
X66632890Y-138936480D01*
X66585271Y-139412671D01*
X66632890Y-139365052D01*
X66728128Y-139317433D01*
X66966223Y-139317433D01*
X67061461Y-139365052D01*
X67109080Y-139412671D01*
X67156700Y-139507909D01*
X67156700Y-139746004D01*
X67109080Y-139841242D01*
X67061461Y-139888861D01*
X66966223Y-139936480D01*
X66728128Y-139936480D01*
X66632890Y-139888861D01*
X66585271Y-139841242D01*
X67632890Y-139888861D02*
X67632890Y-139936480D01*
X67585271Y-140031719D01*
X67537652Y-140079338D01*
X67966223Y-138936480D02*
X68632890Y-138936480D01*
X68204319Y-139936480D01*
X68918604Y-140269814D02*
X69156700Y-140269814D01*
X69156700Y-138841242D01*
X68918604Y-138841242D01*
X55241180Y-139738076D02*
X55241180Y-140214266D01*
X55717371Y-140261885D01*
X55669752Y-140214266D01*
X55622133Y-140119028D01*
X55622133Y-139880933D01*
X55669752Y-139785695D01*
X55717371Y-139738076D01*
X55812609Y-139690457D01*
X56050704Y-139690457D01*
X56145942Y-139738076D01*
X56193561Y-139785695D01*
X56241180Y-139880933D01*
X56241180Y-140119028D01*
X56193561Y-140214266D01*
X56145942Y-140261885D01*
X55241180Y-139404742D02*
X56241180Y-139071409D01*
X55241180Y-138738076D01*
X78033290Y-139612666D02*
X78509480Y-139612666D01*
X77938052Y-139898380D02*
X78271385Y-138898380D01*
X78604719Y-139898380D01*
X79223766Y-140231714D02*
X78985671Y-140231714D01*
X78985671Y-138803142D01*
X79223766Y-138803142D01*
X80128528Y-139898380D02*
X79557100Y-139898380D01*
X79842814Y-139898380D02*
X79842814Y-138898380D01*
X79747576Y-139041238D01*
X79652338Y-139136476D01*
X79557100Y-139184095D01*
X80604719Y-139850761D02*
X80604719Y-139898380D01*
X80557100Y-139993619D01*
X80509480Y-140041238D01*
X80938052Y-138898380D02*
X81557100Y-138898380D01*
X81223766Y-139279333D01*
X81366623Y-139279333D01*
X81461861Y-139326952D01*
X81509480Y-139374571D01*
X81557100Y-139469809D01*
X81557100Y-139707904D01*
X81509480Y-139803142D01*
X81461861Y-139850761D01*
X81366623Y-139898380D01*
X81080909Y-139898380D01*
X80985671Y-139850761D01*
X80938052Y-139803142D01*
X82033290Y-139850761D02*
X82033290Y-139898380D01*
X81985671Y-139993619D01*
X81938052Y-140041238D01*
X82938052Y-138898380D02*
X82461861Y-138898380D01*
X82414242Y-139374571D01*
X82461861Y-139326952D01*
X82557100Y-139279333D01*
X82795195Y-139279333D01*
X82890433Y-139326952D01*
X82938052Y-139374571D01*
X82985671Y-139469809D01*
X82985671Y-139707904D01*
X82938052Y-139803142D01*
X82890433Y-139850761D01*
X82795195Y-139898380D01*
X82557100Y-139898380D01*
X82461861Y-139850761D01*
X82414242Y-139803142D01*
X83461861Y-139850761D02*
X83461861Y-139898380D01*
X83414242Y-139993619D01*
X83366623Y-140041238D01*
X83795195Y-138898380D02*
X84461861Y-138898380D01*
X84033290Y-139898380D01*
X84747576Y-140231714D02*
X84985671Y-140231714D01*
X84985671Y-138803142D01*
X84747576Y-138803142D01*
X110648100Y-139674504D02*
X110600480Y-139769742D01*
X110600480Y-139912600D01*
X110648100Y-140055457D01*
X110743338Y-140150695D01*
X110838576Y-140198314D01*
X111029052Y-140245933D01*
X111171909Y-140245933D01*
X111362385Y-140198314D01*
X111457623Y-140150695D01*
X111552861Y-140055457D01*
X111600480Y-139912600D01*
X111600480Y-139817361D01*
X111552861Y-139674504D01*
X111505242Y-139626885D01*
X111171909Y-139626885D01*
X111171909Y-139817361D01*
X111600480Y-139198314D02*
X110600480Y-139198314D01*
X111600480Y-138626885D01*
X110600480Y-138626885D01*
X111600480Y-138150695D02*
X110600480Y-138150695D01*
X110600480Y-137912600D01*
X110648100Y-137769742D01*
X110743338Y-137674504D01*
X110838576Y-137626885D01*
X111029052Y-137579266D01*
X111171909Y-137579266D01*
X111362385Y-137626885D01*
X111457623Y-137674504D01*
X111552861Y-137769742D01*
X111600480Y-137912600D01*
X111600480Y-138150695D01*
X58949604Y-141317719D02*
X58997223Y-141270100D01*
X59092461Y-141222480D01*
X59330557Y-141222480D01*
X59425795Y-141270100D01*
X59473414Y-141317719D01*
X59521033Y-141412957D01*
X59521033Y-141508195D01*
X59473414Y-141651052D01*
X58901985Y-142222480D01*
X59521033Y-142222480D01*
X59949604Y-142222480D02*
X59949604Y-141222480D01*
X59949604Y-141603433D02*
X60044842Y-141555814D01*
X60235319Y-141555814D01*
X60330557Y-141603433D01*
X60378176Y-141651052D01*
X60425795Y-141746290D01*
X60425795Y-142032004D01*
X60378176Y-142127242D01*
X60330557Y-142174861D01*
X60235319Y-142222480D01*
X60044842Y-142222480D01*
X59949604Y-142174861D01*
X67426795Y-141555814D02*
X67426795Y-142222480D01*
X67188700Y-141174861D02*
X66950604Y-141889147D01*
X67569652Y-141889147D01*
X67950604Y-142222480D02*
X67950604Y-141222480D01*
X67950604Y-141603433D02*
X68045842Y-141555814D01*
X68236319Y-141555814D01*
X68331557Y-141603433D01*
X68379176Y-141651052D01*
X68426795Y-141746290D01*
X68426795Y-142032004D01*
X68379176Y-142127242D01*
X68331557Y-142174861D01*
X68236319Y-142222480D01*
X68045842Y-142222480D01*
X67950604Y-142174861D01*
X94795342Y-142235180D02*
X94223914Y-142235180D01*
X94509628Y-142235180D02*
X94509628Y-141235180D01*
X94414390Y-141378038D01*
X94319152Y-141473276D01*
X94223914Y-141520895D01*
X95747723Y-142235180D02*
X95176295Y-142235180D01*
X95462009Y-142235180D02*
X95462009Y-141235180D01*
X95366771Y-141378038D01*
X95271533Y-141473276D01*
X95176295Y-141520895D01*
X96176295Y-142235180D02*
X96176295Y-141235180D01*
X96176295Y-141616133D02*
X96271533Y-141568514D01*
X96462009Y-141568514D01*
X96557247Y-141616133D01*
X96604866Y-141663752D01*
X96652485Y-141758990D01*
X96652485Y-142044704D01*
X96604866Y-142139942D01*
X96557247Y-142187561D01*
X96462009Y-142235180D01*
X96271533Y-142235180D01*
X96176295Y-142187561D01*
X86794342Y-142235180D02*
X86984819Y-142235180D01*
X87080057Y-142187561D01*
X87127676Y-142139942D01*
X87222914Y-141997085D01*
X87270533Y-141806609D01*
X87270533Y-141425657D01*
X87222914Y-141330419D01*
X87175295Y-141282800D01*
X87080057Y-141235180D01*
X86889580Y-141235180D01*
X86794342Y-141282800D01*
X86746723Y-141330419D01*
X86699104Y-141425657D01*
X86699104Y-141663752D01*
X86746723Y-141758990D01*
X86794342Y-141806609D01*
X86889580Y-141854228D01*
X87080057Y-141854228D01*
X87175295Y-141806609D01*
X87222914Y-141758990D01*
X87270533Y-141663752D01*
X87699104Y-142235180D02*
X87699104Y-141235180D01*
X87699104Y-141616133D02*
X87794342Y-141568514D01*
X87984819Y-141568514D01*
X88080057Y-141616133D01*
X88127676Y-141663752D01*
X88175295Y-141758990D01*
X88175295Y-142044704D01*
X88127676Y-142139942D01*
X88080057Y-142187561D01*
X87984819Y-142235180D01*
X87794342Y-142235180D01*
X87699104Y-142187561D01*
X98630742Y-142158980D02*
X98059314Y-142158980D01*
X98345028Y-142158980D02*
X98345028Y-141158980D01*
X98249790Y-141301838D01*
X98154552Y-141397076D01*
X98059314Y-141444695D01*
X99011695Y-141254219D02*
X99059314Y-141206600D01*
X99154552Y-141158980D01*
X99392647Y-141158980D01*
X99487885Y-141206600D01*
X99535504Y-141254219D01*
X99583123Y-141349457D01*
X99583123Y-141444695D01*
X99535504Y-141587552D01*
X98964076Y-142158980D01*
X99583123Y-142158980D01*
X100011695Y-142158980D02*
X100011695Y-141158980D01*
X100011695Y-141539933D02*
X100106933Y-141492314D01*
X100297409Y-141492314D01*
X100392647Y-141539933D01*
X100440266Y-141587552D01*
X100487885Y-141682790D01*
X100487885Y-141968504D01*
X100440266Y-142063742D01*
X100392647Y-142111361D01*
X100297409Y-142158980D01*
X100106933Y-142158980D01*
X100011695Y-142111361D01*
X62965985Y-141222480D02*
X63585033Y-141222480D01*
X63251700Y-141603433D01*
X63394557Y-141603433D01*
X63489795Y-141651052D01*
X63537414Y-141698671D01*
X63585033Y-141793909D01*
X63585033Y-142032004D01*
X63537414Y-142127242D01*
X63489795Y-142174861D01*
X63394557Y-142222480D01*
X63108842Y-142222480D01*
X63013604Y-142174861D01*
X62965985Y-142127242D01*
X64013604Y-142222480D02*
X64013604Y-141222480D01*
X64013604Y-141603433D02*
X64108842Y-141555814D01*
X64299319Y-141555814D01*
X64394557Y-141603433D01*
X64442176Y-141651052D01*
X64489795Y-141746290D01*
X64489795Y-142032004D01*
X64442176Y-142127242D01*
X64394557Y-142174861D01*
X64299319Y-142222480D01*
X64108842Y-142222480D01*
X64013604Y-142174861D01*
D12*
X98711700Y-139788785D02*
X98654557Y-139903071D01*
X98654557Y-140074500D01*
X98711700Y-140245928D01*
X98825985Y-140360214D01*
X98940271Y-140417357D01*
X99168842Y-140474500D01*
X99340271Y-140474500D01*
X99568842Y-140417357D01*
X99683128Y-140360214D01*
X99797414Y-140245928D01*
X99854557Y-140074500D01*
X99854557Y-139960214D01*
X99797414Y-139788785D01*
X99740271Y-139731642D01*
X99340271Y-139731642D01*
X99340271Y-139960214D01*
X99854557Y-139217357D02*
X98654557Y-139217357D01*
X99854557Y-138531642D01*
X98654557Y-138531642D01*
X99854557Y-137960214D02*
X98654557Y-137960214D01*
X98654557Y-137674500D01*
X98711700Y-137503071D01*
X98825985Y-137388785D01*
X98940271Y-137331642D01*
X99168842Y-137274500D01*
X99340271Y-137274500D01*
X99568842Y-137331642D01*
X99683128Y-137388785D01*
X99797414Y-137503071D01*
X99854557Y-137674500D01*
X99854557Y-137960214D01*
X95911207Y-140417356D02*
X94711207Y-140417356D01*
X95568350Y-140017356D01*
X94711207Y-139617356D01*
X95911207Y-139617356D01*
X95911207Y-138417356D02*
X95911207Y-139103070D01*
X95911207Y-138760213D02*
X94711207Y-138760213D01*
X94882635Y-138874499D01*
X94996921Y-138988785D01*
X95054064Y-139103070D01*
D11*
X106530142Y-142285980D02*
X105958714Y-142285980D01*
X106244428Y-142285980D02*
X106244428Y-141285980D01*
X106149190Y-141428838D01*
X106053952Y-141524076D01*
X105958714Y-141571695D01*
X107387285Y-141619314D02*
X107387285Y-142285980D01*
X107149190Y-141238361D02*
X106911095Y-141952647D01*
X107530142Y-141952647D01*
X107911095Y-142285980D02*
X107911095Y-141285980D01*
X107911095Y-141666933D02*
X108006333Y-141619314D01*
X108196809Y-141619314D01*
X108292047Y-141666933D01*
X108339666Y-141714552D01*
X108387285Y-141809790D01*
X108387285Y-142095504D01*
X108339666Y-142190742D01*
X108292047Y-142238361D01*
X108196809Y-142285980D01*
X108006333Y-142285980D01*
X107911095Y-142238361D01*
D12*
X106509500Y-140503114D02*
X106509500Y-139131685D01*
X106848357Y-140331685D02*
X108048357Y-140045971D01*
X107191214Y-139817400D01*
X108048357Y-139588828D01*
X106848357Y-139303114D01*
X106509500Y-139131685D02*
X106509500Y-137931685D01*
X108048357Y-138160257D02*
X107476928Y-138560257D01*
X108048357Y-138845971D02*
X106848357Y-138845971D01*
X106848357Y-138388828D01*
X106905500Y-138274542D01*
X106962642Y-138217400D01*
X107076928Y-138160257D01*
X107248357Y-138160257D01*
X107362642Y-138217400D01*
X107419785Y-138274542D01*
X107476928Y-138388828D01*
X107476928Y-138845971D01*
D11*
X121372380Y-121459047D02*
X122086666Y-121459047D01*
X122229523Y-121506666D01*
X122324761Y-121601904D01*
X122372380Y-121744761D01*
X122372380Y-121840000D01*
X122372380Y-120506666D02*
X122372380Y-120982857D01*
X121372380Y-120982857D01*
X122277142Y-119601904D02*
X122324761Y-119649523D01*
X122372380Y-119792380D01*
X122372380Y-119887619D01*
X122324761Y-120030476D01*
X122229523Y-120125714D01*
X122134285Y-120173333D01*
X121943809Y-120220952D01*
X121800952Y-120220952D01*
X121610476Y-120173333D01*
X121515238Y-120125714D01*
X121420000Y-120030476D01*
X121372380Y-119887619D01*
X121372380Y-119792380D01*
X121420000Y-119649523D01*
X121467619Y-119601904D01*
X121372380Y-118887619D02*
X122086666Y-118887619D01*
X122229523Y-118935238D01*
X122324761Y-119030476D01*
X122372380Y-119173333D01*
X122372380Y-119268571D01*
X122372380Y-117935238D02*
X122372380Y-118411428D01*
X121372380Y-118411428D01*
X122277142Y-117030476D02*
X122324761Y-117078095D01*
X122372380Y-117220952D01*
X122372380Y-117316190D01*
X122324761Y-117459047D01*
X122229523Y-117554285D01*
X122134285Y-117601904D01*
X121943809Y-117649523D01*
X121800952Y-117649523D01*
X121610476Y-117601904D01*
X121515238Y-117554285D01*
X121420000Y-117459047D01*
X121372380Y-117316190D01*
X121372380Y-117220952D01*
X121420000Y-117078095D01*
X121467619Y-117030476D01*
X121372380Y-116316190D02*
X122086666Y-116316190D01*
X122229523Y-116363809D01*
X122324761Y-116459047D01*
X122372380Y-116601904D01*
X122372380Y-116697142D01*
X122372380Y-115363809D02*
X122372380Y-115840000D01*
X121372380Y-115840000D01*
X122277142Y-114459047D02*
X122324761Y-114506666D01*
X122372380Y-114649523D01*
X122372380Y-114744761D01*
X122324761Y-114887619D01*
X122229523Y-114982857D01*
X122134285Y-115030476D01*
X121943809Y-115078095D01*
X121800952Y-115078095D01*
X121610476Y-115030476D01*
X121515238Y-114982857D01*
X121420000Y-114887619D01*
X121372380Y-114744761D01*
X121372380Y-114649523D01*
X121420000Y-114506666D01*
X121467619Y-114459047D01*
X121372380Y-113744761D02*
X122086666Y-113744761D01*
X122229523Y-113792380D01*
X122324761Y-113887619D01*
X122372380Y-114030476D01*
X122372380Y-114125714D01*
X122372380Y-112792380D02*
X122372380Y-113268571D01*
X121372380Y-113268571D01*
X122277142Y-111887619D02*
X122324761Y-111935238D01*
X122372380Y-112078095D01*
X122372380Y-112173333D01*
X122324761Y-112316190D01*
X122229523Y-112411428D01*
X122134285Y-112459047D01*
X121943809Y-112506666D01*
X121800952Y-112506666D01*
X121610476Y-112459047D01*
X121515238Y-112411428D01*
X121420000Y-112316190D01*
X121372380Y-112173333D01*
X121372380Y-112078095D01*
X121420000Y-111935238D01*
X121467619Y-111887619D01*
D12*
X90429000Y-140703071D02*
X90429000Y-139503071D01*
X91967857Y-139731643D02*
X91396428Y-140131643D01*
X91967857Y-140417357D02*
X90767857Y-140417357D01*
X90767857Y-139960214D01*
X90825000Y-139845928D01*
X90882142Y-139788786D01*
X90996428Y-139731643D01*
X91167857Y-139731643D01*
X91282142Y-139788786D01*
X91339285Y-139845928D01*
X91396428Y-139960214D01*
X91396428Y-140417357D01*
X90429000Y-139503071D02*
X90429000Y-138417357D01*
X91339285Y-139217357D02*
X91339285Y-138817357D01*
X91967857Y-138645928D02*
X91967857Y-139217357D01*
X90767857Y-139217357D01*
X90767857Y-138645928D01*
X90429000Y-138417357D02*
X90429000Y-137274500D01*
X91910714Y-138188786D02*
X91967857Y-138017357D01*
X91967857Y-137731643D01*
X91910714Y-137617357D01*
X91853571Y-137560214D01*
X91739285Y-137503071D01*
X91625000Y-137503071D01*
X91510714Y-137560214D01*
X91453571Y-137617357D01*
X91396428Y-137731643D01*
X91339285Y-137960214D01*
X91282142Y-138074500D01*
X91225000Y-138131643D01*
X91110714Y-138188786D01*
X90996428Y-138188786D01*
X90882142Y-138131643D01*
X90825000Y-138074500D01*
X90767857Y-137960214D01*
X90767857Y-137674500D01*
X90825000Y-137503071D01*
X45002071Y-138791757D02*
X45216357Y-138863185D01*
X45287785Y-138934614D01*
X45359214Y-139077471D01*
X45359214Y-139291757D01*
X45287785Y-139434614D01*
X45216357Y-139506042D01*
X45073500Y-139577471D01*
X44502071Y-139577471D01*
X44502071Y-138077471D01*
X45002071Y-138077471D01*
X45144928Y-138148900D01*
X45216357Y-138220328D01*
X45287785Y-138363185D01*
X45287785Y-138506042D01*
X45216357Y-138648900D01*
X45144928Y-138720328D01*
X45002071Y-138791757D01*
X44502071Y-138791757D01*
X46002071Y-139006042D02*
X47144928Y-139006042D01*
X47787785Y-139506042D02*
X48002071Y-139577471D01*
X48359214Y-139577471D01*
X48502071Y-139506042D01*
X48573500Y-139434614D01*
X48644928Y-139291757D01*
X48644928Y-139148900D01*
X48573500Y-139006042D01*
X48502071Y-138934614D01*
X48359214Y-138863185D01*
X48073500Y-138791757D01*
X47930642Y-138720328D01*
X47859214Y-138648900D01*
X47787785Y-138506042D01*
X47787785Y-138363185D01*
X47859214Y-138220328D01*
X47930642Y-138148900D01*
X48073500Y-138077471D01*
X48430642Y-138077471D01*
X48644928Y-138148900D01*
X49287785Y-139577471D02*
X49287785Y-138077471D01*
X50002071Y-139577471D02*
X50002071Y-138077471D01*
X50359214Y-138077471D01*
X50573500Y-138148900D01*
X50716357Y-138291757D01*
X50787785Y-138434614D01*
X50859214Y-138720328D01*
X50859214Y-138934614D01*
X50787785Y-139220328D01*
X50716357Y-139363185D01*
X50573500Y-139506042D01*
X50359214Y-139577471D01*
X50002071Y-139577471D01*
X51502071Y-138791757D02*
X52002071Y-138791757D01*
X52216357Y-139577471D02*
X51502071Y-139577471D01*
X51502071Y-138077471D01*
X52216357Y-138077471D01*
X45644928Y-141206757D02*
X45144928Y-141206757D01*
X45144928Y-141992471D02*
X45144928Y-140492471D01*
X45859214Y-140492471D01*
X47287785Y-141992471D02*
X46787785Y-141278185D01*
X46430642Y-141992471D02*
X46430642Y-140492471D01*
X47002071Y-140492471D01*
X47144928Y-140563900D01*
X47216357Y-140635328D01*
X47287785Y-140778185D01*
X47287785Y-140992471D01*
X47216357Y-141135328D01*
X47144928Y-141206757D01*
X47002071Y-141278185D01*
X46430642Y-141278185D01*
X48216357Y-140492471D02*
X48502071Y-140492471D01*
X48644928Y-140563900D01*
X48787785Y-140706757D01*
X48859214Y-140992471D01*
X48859214Y-141492471D01*
X48787785Y-141778185D01*
X48644928Y-141921042D01*
X48502071Y-141992471D01*
X48216357Y-141992471D01*
X48073500Y-141921042D01*
X47930642Y-141778185D01*
X47859214Y-141492471D01*
X47859214Y-140992471D01*
X47930642Y-140706757D01*
X48073500Y-140563900D01*
X48216357Y-140492471D01*
X49502071Y-141992471D02*
X49502071Y-140492471D01*
X50359214Y-141992471D01*
X50359214Y-140492471D01*
X50859214Y-140492471D02*
X51716357Y-140492471D01*
X51287785Y-141992471D02*
X51287785Y-140492471D01*
D13*
X93391071Y-96802380D02*
X93391071Y-95802380D01*
X93772023Y-95802380D01*
X93867261Y-95850000D01*
X93914880Y-95897619D01*
X93962500Y-95992857D01*
X93962500Y-96135714D01*
X93914880Y-96230952D01*
X93867261Y-96278571D01*
X93772023Y-96326190D01*
X93391071Y-96326190D01*
X94343452Y-95897619D02*
X94391071Y-95850000D01*
X94486309Y-95802380D01*
X94724404Y-95802380D01*
X94819642Y-95850000D01*
X94867261Y-95897619D01*
X94914880Y-95992857D01*
X94914880Y-96088095D01*
X94867261Y-96230952D01*
X94295833Y-96802380D01*
X94914880Y-96802380D01*
X95533928Y-95802380D02*
X95629166Y-95802380D01*
X95724404Y-95850000D01*
X95772023Y-95897619D01*
X95819642Y-95992857D01*
X95867261Y-96183333D01*
X95867261Y-96421428D01*
X95819642Y-96611904D01*
X95772023Y-96707142D01*
X95724404Y-96754761D01*
X95629166Y-96802380D01*
X95533928Y-96802380D01*
X95438690Y-96754761D01*
X95391071Y-96707142D01*
X95343452Y-96611904D01*
X95295833Y-96421428D01*
X95295833Y-96183333D01*
X95343452Y-95992857D01*
X95391071Y-95897619D01*
X95438690Y-95850000D01*
X95533928Y-95802380D01*
X96486309Y-95802380D02*
X96581547Y-95802380D01*
X96676785Y-95850000D01*
X96724404Y-95897619D01*
X96772023Y-95992857D01*
X96819642Y-96183333D01*
X96819642Y-96421428D01*
X96772023Y-96611904D01*
X96724404Y-96707142D01*
X96676785Y-96754761D01*
X96581547Y-96802380D01*
X96486309Y-96802380D01*
X96391071Y-96754761D01*
X96343452Y-96707142D01*
X96295833Y-96611904D01*
X96248214Y-96421428D01*
X96248214Y-96183333D01*
X96295833Y-95992857D01*
X96343452Y-95897619D01*
X96391071Y-95850000D01*
X96486309Y-95802380D01*
X97438690Y-95802380D02*
X97533928Y-95802380D01*
X97629166Y-95850000D01*
X97676785Y-95897619D01*
X97724404Y-95992857D01*
X97772023Y-96183333D01*
X97772023Y-96421428D01*
X97724404Y-96611904D01*
X97676785Y-96707142D01*
X97629166Y-96754761D01*
X97533928Y-96802380D01*
X97438690Y-96802380D01*
X97343452Y-96754761D01*
X97295833Y-96707142D01*
X97248214Y-96611904D01*
X97200595Y-96421428D01*
X97200595Y-96183333D01*
X97248214Y-95992857D01*
X97295833Y-95897619D01*
X97343452Y-95850000D01*
X97438690Y-95802380D01*
X98057738Y-95802380D02*
X98629166Y-95802380D01*
X98343452Y-96802380D02*
X98343452Y-95802380D01*
X99724404Y-96802380D02*
X99724404Y-95802380D01*
X99962500Y-95802380D01*
X100105357Y-95850000D01*
X100200595Y-95945238D01*
X100248214Y-96040476D01*
X100295833Y-96230952D01*
X100295833Y-96373809D01*
X100248214Y-96564285D01*
X100200595Y-96659523D01*
X100105357Y-96754761D01*
X99962500Y-96802380D01*
X99724404Y-96802380D01*
X100676785Y-96516666D02*
X101152976Y-96516666D01*
X100581547Y-96802380D02*
X100914880Y-95802380D01*
X101248214Y-96802380D01*
X101438690Y-95802380D02*
X102010119Y-95802380D01*
X101724404Y-96802380D02*
X101724404Y-95802380D01*
X102295833Y-96516666D02*
X102772023Y-96516666D01*
X102200595Y-96802380D02*
X102533928Y-95802380D01*
X102867261Y-96802380D01*
X103772023Y-96707142D02*
X103724404Y-96754761D01*
X103581547Y-96802380D01*
X103486309Y-96802380D01*
X103343452Y-96754761D01*
X103248214Y-96659523D01*
X103200595Y-96564285D01*
X103152976Y-96373809D01*
X103152976Y-96230952D01*
X103200595Y-96040476D01*
X103248214Y-95945238D01*
X103343452Y-95850000D01*
X103486309Y-95802380D01*
X103581547Y-95802380D01*
X103724404Y-95850000D01*
X103772023Y-95897619D01*
X104152976Y-96516666D02*
X104629166Y-96516666D01*
X104057738Y-96802380D02*
X104391071Y-95802380D01*
X104724404Y-96802380D01*
X105629166Y-96802380D02*
X105295833Y-96326190D01*
X105057738Y-96802380D02*
X105057738Y-95802380D01*
X105438690Y-95802380D01*
X105533928Y-95850000D01*
X105581547Y-95897619D01*
X105629166Y-95992857D01*
X105629166Y-96135714D01*
X105581547Y-96230952D01*
X105533928Y-96278571D01*
X105438690Y-96326190D01*
X105057738Y-96326190D01*
X105914880Y-95802380D02*
X106486309Y-95802380D01*
X106200595Y-96802380D02*
X106200595Y-95802380D01*
X107391071Y-96802380D02*
X107057738Y-96326190D01*
X106819642Y-96802380D02*
X106819642Y-95802380D01*
X107200595Y-95802380D01*
X107295833Y-95850000D01*
X107343452Y-95897619D01*
X107391071Y-95992857D01*
X107391071Y-96135714D01*
X107343452Y-96230952D01*
X107295833Y-96278571D01*
X107200595Y-96326190D01*
X106819642Y-96326190D01*
X107819642Y-96802380D02*
X107819642Y-95802380D01*
X108295833Y-96802380D02*
X108295833Y-95802380D01*
X108533928Y-95802380D01*
X108676785Y-95850000D01*
X108772023Y-95945238D01*
X108819642Y-96040476D01*
X108867261Y-96230952D01*
X108867261Y-96373809D01*
X108819642Y-96564285D01*
X108772023Y-96659523D01*
X108676785Y-96754761D01*
X108533928Y-96802380D01*
X108295833Y-96802380D01*
X109819642Y-95850000D02*
X109724404Y-95802380D01*
X109581547Y-95802380D01*
X109438690Y-95850000D01*
X109343452Y-95945238D01*
X109295833Y-96040476D01*
X109248214Y-96230952D01*
X109248214Y-96373809D01*
X109295833Y-96564285D01*
X109343452Y-96659523D01*
X109438690Y-96754761D01*
X109581547Y-96802380D01*
X109676785Y-96802380D01*
X109819642Y-96754761D01*
X109867261Y-96707142D01*
X109867261Y-96373809D01*
X109676785Y-96373809D01*
X110295833Y-96278571D02*
X110629166Y-96278571D01*
X110772023Y-96802380D02*
X110295833Y-96802380D01*
X110295833Y-95802380D01*
X110772023Y-95802380D01*
X108010119Y-98412380D02*
X108010119Y-97745714D01*
X108010119Y-97936190D02*
X108057738Y-97840952D01*
X108105357Y-97793333D01*
X108200595Y-97745714D01*
X108295833Y-97745714D01*
X109010119Y-98364761D02*
X108914880Y-98412380D01*
X108724404Y-98412380D01*
X108629166Y-98364761D01*
X108581547Y-98269523D01*
X108581547Y-97888571D01*
X108629166Y-97793333D01*
X108724404Y-97745714D01*
X108914880Y-97745714D01*
X109010119Y-97793333D01*
X109057738Y-97888571D01*
X109057738Y-97983809D01*
X108581547Y-98079047D01*
X109391071Y-97745714D02*
X109629166Y-98412380D01*
X109867261Y-97745714D01*
X110772023Y-98412380D02*
X110200595Y-98412380D01*
X110486309Y-98412380D02*
X110486309Y-97412380D01*
X110391071Y-97555238D01*
X110295833Y-97650476D01*
X110200595Y-97698095D01*
D14*
X94489047Y-105195714D02*
X94679523Y-105862380D01*
X94870000Y-105386190D01*
X95060476Y-105862380D01*
X95250952Y-105195714D01*
X95536666Y-105195714D02*
X95727142Y-105862380D01*
X95917619Y-105386190D01*
X96108095Y-105862380D01*
X96298571Y-105195714D01*
X96584285Y-105195714D02*
X96774761Y-105862380D01*
X96965238Y-105386190D01*
X97155714Y-105862380D01*
X97346190Y-105195714D01*
X97727142Y-105767142D02*
X97774761Y-105814761D01*
X97727142Y-105862380D01*
X97679523Y-105814761D01*
X97727142Y-105767142D01*
X97727142Y-105862380D01*
X98203333Y-105195714D02*
X98203333Y-106195714D01*
X98203333Y-105243333D02*
X98298571Y-105195714D01*
X98489047Y-105195714D01*
X98584285Y-105243333D01*
X98631904Y-105290952D01*
X98679523Y-105386190D01*
X98679523Y-105671904D01*
X98631904Y-105767142D01*
X98584285Y-105814761D01*
X98489047Y-105862380D01*
X98298571Y-105862380D01*
X98203333Y-105814761D01*
X99108095Y-105862380D02*
X99108095Y-104862380D01*
X99536666Y-105862380D02*
X99536666Y-105338571D01*
X99489047Y-105243333D01*
X99393809Y-105195714D01*
X99250952Y-105195714D01*
X99155714Y-105243333D01*
X99108095Y-105290952D01*
X100012857Y-105862380D02*
X100012857Y-105195714D01*
X100012857Y-104862380D02*
X99965238Y-104910000D01*
X100012857Y-104957619D01*
X100060476Y-104910000D01*
X100012857Y-104862380D01*
X100012857Y-104957619D01*
X100631904Y-105862380D02*
X100536666Y-105814761D01*
X100489047Y-105719523D01*
X100489047Y-104862380D01*
X101012857Y-105862380D02*
X101012857Y-105195714D01*
X101012857Y-104862380D02*
X100965238Y-104910000D01*
X101012857Y-104957619D01*
X101060476Y-104910000D01*
X101012857Y-104862380D01*
X101012857Y-104957619D01*
X101489047Y-105195714D02*
X101489047Y-106195714D01*
X101489047Y-105243333D02*
X101584285Y-105195714D01*
X101774761Y-105195714D01*
X101870000Y-105243333D01*
X101917619Y-105290952D01*
X101965238Y-105386190D01*
X101965238Y-105671904D01*
X101917619Y-105767142D01*
X101870000Y-105814761D01*
X101774761Y-105862380D01*
X101584285Y-105862380D01*
X101489047Y-105814761D01*
X102346190Y-105814761D02*
X102441428Y-105862380D01*
X102631904Y-105862380D01*
X102727142Y-105814761D01*
X102774761Y-105719523D01*
X102774761Y-105671904D01*
X102727142Y-105576666D01*
X102631904Y-105529047D01*
X102489047Y-105529047D01*
X102393809Y-105481428D01*
X102346190Y-105386190D01*
X102346190Y-105338571D01*
X102393809Y-105243333D01*
X102489047Y-105195714D01*
X102631904Y-105195714D01*
X102727142Y-105243333D01*
X103203333Y-105481428D02*
X103965238Y-105481428D01*
X104441428Y-105195714D02*
X104441428Y-106195714D01*
X104441428Y-105243333D02*
X104536666Y-105195714D01*
X104727142Y-105195714D01*
X104822380Y-105243333D01*
X104870000Y-105290952D01*
X104917619Y-105386190D01*
X104917619Y-105671904D01*
X104870000Y-105767142D01*
X104822380Y-105814761D01*
X104727142Y-105862380D01*
X104536666Y-105862380D01*
X104441428Y-105814761D01*
X105298571Y-104957619D02*
X105346190Y-104910000D01*
X105441428Y-104862380D01*
X105679523Y-104862380D01*
X105774761Y-104910000D01*
X105822380Y-104957619D01*
X105870000Y-105052857D01*
X105870000Y-105148095D01*
X105822380Y-105290952D01*
X105250952Y-105862380D01*
X105870000Y-105862380D01*
X106489047Y-104862380D02*
X106584285Y-104862380D01*
X106679523Y-104910000D01*
X106727142Y-104957619D01*
X106774761Y-105052857D01*
X106822380Y-105243333D01*
X106822380Y-105481428D01*
X106774761Y-105671904D01*
X106727142Y-105767142D01*
X106679523Y-105814761D01*
X106584285Y-105862380D01*
X106489047Y-105862380D01*
X106393809Y-105814761D01*
X106346190Y-105767142D01*
X106298571Y-105671904D01*
X106250952Y-105481428D01*
X106250952Y-105243333D01*
X106298571Y-105052857D01*
X106346190Y-104957619D01*
X106393809Y-104910000D01*
X106489047Y-104862380D01*
X107441428Y-104862380D02*
X107536666Y-104862380D01*
X107631904Y-104910000D01*
X107679523Y-104957619D01*
X107727142Y-105052857D01*
X107774761Y-105243333D01*
X107774761Y-105481428D01*
X107727142Y-105671904D01*
X107679523Y-105767142D01*
X107631904Y-105814761D01*
X107536666Y-105862380D01*
X107441428Y-105862380D01*
X107346190Y-105814761D01*
X107298571Y-105767142D01*
X107250952Y-105671904D01*
X107203333Y-105481428D01*
X107203333Y-105243333D01*
X107250952Y-105052857D01*
X107298571Y-104957619D01*
X107346190Y-104910000D01*
X107441428Y-104862380D01*
X108393809Y-104862380D02*
X108489047Y-104862380D01*
X108584285Y-104910000D01*
X108631904Y-104957619D01*
X108679523Y-105052857D01*
X108727142Y-105243333D01*
X108727142Y-105481428D01*
X108679523Y-105671904D01*
X108631904Y-105767142D01*
X108584285Y-105814761D01*
X108489047Y-105862380D01*
X108393809Y-105862380D01*
X108298571Y-105814761D01*
X108250952Y-105767142D01*
X108203333Y-105671904D01*
X108155714Y-105481428D01*
X108155714Y-105243333D01*
X108203333Y-105052857D01*
X108250952Y-104957619D01*
X108298571Y-104910000D01*
X108393809Y-104862380D01*
X109012857Y-105195714D02*
X109393809Y-105195714D01*
X109155714Y-104862380D02*
X109155714Y-105719523D01*
X109203333Y-105814761D01*
X109298571Y-105862380D01*
X109393809Y-105862380D01*
X109727142Y-105767142D02*
X109774761Y-105814761D01*
X109727142Y-105862380D01*
X109679523Y-105814761D01*
X109727142Y-105767142D01*
X109727142Y-105862380D01*
X110203333Y-105195714D02*
X110203333Y-105862380D01*
X110203333Y-105290952D02*
X110250952Y-105243333D01*
X110346190Y-105195714D01*
X110489047Y-105195714D01*
X110584285Y-105243333D01*
X110631904Y-105338571D01*
X110631904Y-105862380D01*
X111250952Y-105862380D02*
X111155714Y-105814761D01*
X111108095Y-105719523D01*
X111108095Y-104862380D01*
D11*
%TO.C,D2*%
X118895904Y-61666380D02*
X118895904Y-60666380D01*
X119134000Y-60666380D01*
X119276857Y-60714000D01*
X119372095Y-60809238D01*
X119419714Y-60904476D01*
X119467333Y-61094952D01*
X119467333Y-61237809D01*
X119419714Y-61428285D01*
X119372095Y-61523523D01*
X119276857Y-61618761D01*
X119134000Y-61666380D01*
X118895904Y-61666380D01*
X119848285Y-60761619D02*
X119895904Y-60714000D01*
X119991142Y-60666380D01*
X120229238Y-60666380D01*
X120324476Y-60714000D01*
X120372095Y-60761619D01*
X120419714Y-60856857D01*
X120419714Y-60952095D01*
X120372095Y-61094952D01*
X119800666Y-61666380D01*
X120419714Y-61666380D01*
X115657380Y-58078571D02*
X116657380Y-57840476D01*
X115943095Y-57650000D01*
X116657380Y-57459523D01*
X115657380Y-57221428D01*
X116657380Y-56269047D02*
X116181190Y-56602380D01*
X116657380Y-56840476D02*
X115657380Y-56840476D01*
X115657380Y-56459523D01*
X115705000Y-56364285D01*
X115752619Y-56316666D01*
X115847857Y-56269047D01*
X115990714Y-56269047D01*
X116085952Y-56316666D01*
X116133571Y-56364285D01*
X116181190Y-56459523D01*
X116181190Y-56840476D01*
%TO.C,R1*%
X114117380Y-68492666D02*
X113641190Y-68826000D01*
X114117380Y-69064095D02*
X113117380Y-69064095D01*
X113117380Y-68683142D01*
X113165000Y-68587904D01*
X113212619Y-68540285D01*
X113307857Y-68492666D01*
X113450714Y-68492666D01*
X113545952Y-68540285D01*
X113593571Y-68587904D01*
X113641190Y-68683142D01*
X113641190Y-69064095D01*
X114117380Y-67540285D02*
X114117380Y-68111714D01*
X114117380Y-67826000D02*
X113117380Y-67826000D01*
X113260238Y-67921238D01*
X113355476Y-68016476D01*
X113403095Y-68111714D01*
%TO.C,D1*%
X111524904Y-61666380D02*
X111524904Y-60666380D01*
X111763000Y-60666380D01*
X111905857Y-60714000D01*
X112001095Y-60809238D01*
X112048714Y-60904476D01*
X112096333Y-61094952D01*
X112096333Y-61237809D01*
X112048714Y-61428285D01*
X112001095Y-61523523D01*
X111905857Y-61618761D01*
X111763000Y-61666380D01*
X111524904Y-61666380D01*
X113048714Y-61666380D02*
X112477285Y-61666380D01*
X112763000Y-61666380D02*
X112763000Y-60666380D01*
X112667761Y-60809238D01*
X112572523Y-60904476D01*
X112477285Y-60952095D01*
X109037380Y-57340476D02*
X108561190Y-57673809D01*
X109037380Y-57911904D02*
X108037380Y-57911904D01*
X108037380Y-57530952D01*
X108085000Y-57435714D01*
X108132619Y-57388095D01*
X108227857Y-57340476D01*
X108370714Y-57340476D01*
X108465952Y-57388095D01*
X108513571Y-57435714D01*
X108561190Y-57530952D01*
X108561190Y-57911904D01*
X109037380Y-56911904D02*
X108037380Y-56911904D01*
X108037380Y-56673809D01*
X108085000Y-56530952D01*
X108180238Y-56435714D01*
X108275476Y-56388095D01*
X108465952Y-56340476D01*
X108608809Y-56340476D01*
X108799285Y-56388095D01*
X108894523Y-56435714D01*
X108989761Y-56530952D01*
X109037380Y-56673809D01*
X109037380Y-56911904D01*
%TO.C,R2*%
X118562380Y-68492666D02*
X118086190Y-68826000D01*
X118562380Y-69064095D02*
X117562380Y-69064095D01*
X117562380Y-68683142D01*
X117610000Y-68587904D01*
X117657619Y-68540285D01*
X117752857Y-68492666D01*
X117895714Y-68492666D01*
X117990952Y-68540285D01*
X118038571Y-68587904D01*
X118086190Y-68683142D01*
X118086190Y-69064095D01*
X117657619Y-68111714D02*
X117610000Y-68064095D01*
X117562380Y-67968857D01*
X117562380Y-67730761D01*
X117610000Y-67635523D01*
X117657619Y-67587904D01*
X117752857Y-67540285D01*
X117848095Y-67540285D01*
X117990952Y-67587904D01*
X118562380Y-68159333D01*
X118562380Y-67540285D01*
D10*
%TO.C,D2*%
X117069000Y-55605000D02*
X117069000Y-58695000D01*
X122619000Y-57150462D02*
G75*
G03*
X117069000Y-55605170I-2990000J462D01*
G01*
X117069000Y-58694830D02*
G75*
G03*
X122619000Y-57149538I2560000J1544830D01*
G01*
X122129000Y-57150000D02*
G75*
G03*
X122129000Y-57150000I-2500000J0D01*
G01*
%TO.C,R1*%
X112168000Y-65056000D02*
X112498000Y-65056000D01*
X112498000Y-71596000D02*
X112168000Y-71596000D01*
X114908000Y-71596000D02*
X114908000Y-65056000D01*
X112168000Y-71596000D02*
X112168000Y-65056000D01*
X114578000Y-71596000D02*
X114908000Y-71596000D01*
X114908000Y-65056000D02*
X114578000Y-65056000D01*
%TO.C,D1*%
X109703000Y-55605000D02*
X109703000Y-58695000D01*
X115253000Y-57150462D02*
G75*
G03*
X109703000Y-55605170I-2990000J462D01*
G01*
X109703000Y-58694830D02*
G75*
G03*
X115253000Y-57149538I2560000J1544830D01*
G01*
X114763000Y-57150000D02*
G75*
G03*
X114763000Y-57150000I-2500000J0D01*
G01*
%TO.C,R2*%
X116740000Y-71596000D02*
X116740000Y-65056000D01*
X116740000Y-65056000D02*
X117070000Y-65056000D01*
X117070000Y-71596000D02*
X116740000Y-71596000D01*
X119480000Y-65056000D02*
X119150000Y-65056000D01*
X119480000Y-71596000D02*
X119480000Y-65056000D01*
X119150000Y-71596000D02*
X119480000Y-71596000D01*
%TD*%
M02*
