%TF.GenerationSoftware,KiCad,Pcbnew,(6.0.9)*%
%TF.CreationDate,2023-11-22T21:03:57+01:00*%
%TF.ProjectId,p2000t-slot2-datacartridge,70323030-3074-42d7-936c-6f74322d6461,rev?*%
%TF.SameCoordinates,Original*%
%TF.FileFunction,Copper,L2,Bot*%
%TF.FilePolarity,Positive*%
%FSLAX46Y46*%
G04 Gerber Fmt 4.6, Leading zero omitted, Abs format (unit mm)*
G04 Created by KiCad (PCBNEW (6.0.9)) date 2023-11-22 21:03:57*
%MOMM*%
%LPD*%
G01*
G04 APERTURE LIST*
%TA.AperFunction,ComponentPad*%
%ADD10R,1.800000X1.800000*%
%TD*%
%TA.AperFunction,ComponentPad*%
%ADD11C,1.800000*%
%TD*%
%TA.AperFunction,ComponentPad*%
%ADD12C,1.600000*%
%TD*%
%TA.AperFunction,ComponentPad*%
%ADD13O,1.600000X1.600000*%
%TD*%
%TA.AperFunction,ComponentPad*%
%ADD14R,1.600000X1.600000*%
%TD*%
%TA.AperFunction,SMDPad,CuDef*%
%ADD15R,2.000000X10.000000*%
%TD*%
%TA.AperFunction,ComponentPad*%
%ADD16R,1.422400X1.422400*%
%TD*%
%TA.AperFunction,ComponentPad*%
%ADD17C,1.422400*%
%TD*%
%TA.AperFunction,ComponentPad*%
%ADD18R,1.440000X2.000000*%
%TD*%
%TA.AperFunction,ComponentPad*%
%ADD19O,1.440000X2.000000*%
%TD*%
%TA.AperFunction,ViaPad*%
%ADD20C,0.800000*%
%TD*%
%TA.AperFunction,Conductor*%
%ADD21C,0.250000*%
%TD*%
G04 APERTURE END LIST*
D10*
%TO.P,D2,1,K*%
%TO.N,GND*%
X118359000Y-57150000D03*
D11*
%TO.P,D2,2,A*%
%TO.N,Net-(D2-Pad2)*%
X120899000Y-57150000D03*
%TD*%
D12*
%TO.P,R1,1*%
%TO.N,Net-(R1-Pad1)*%
X113538000Y-72136000D03*
D13*
%TO.P,R1,2*%
%TO.N,Net-(D1-Pad2)*%
X113538000Y-64516000D03*
%TD*%
D10*
%TO.P,D1,1,K*%
%TO.N,GND*%
X110993000Y-57150000D03*
D11*
%TO.P,D1,2,A*%
%TO.N,Net-(D1-Pad2)*%
X113533000Y-57150000D03*
%TD*%
D12*
%TO.P,R2,1*%
%TO.N,Net-(R2-Pad1)*%
X118110000Y-72136000D03*
D13*
%TO.P,R2,2*%
%TO.N,Net-(D2-Pad2)*%
X118110000Y-64516000D03*
%TD*%
D14*
%TO.P,U3,1,A0*%
%TO.N,A0*%
X53330000Y-92700000D03*
D13*
%TO.P,U3,2,A1*%
%TO.N,A1*%
X53330000Y-95240000D03*
%TO.P,U3,3,A2*%
%TO.N,A2*%
X53330000Y-97780000D03*
%TO.P,U3,4,E1*%
%TO.N,Net-(U2-Pad6)*%
X53330000Y-100320000D03*
%TO.P,U3,5,E2*%
%TO.N,~{IORQ}*%
X53330000Y-102860000D03*
%TO.P,U3,6,E3*%
%TO.N,Net-(U3-Pad6)*%
X53330000Y-105400000D03*
%TO.P,U3,7,O7*%
%TO.N,unconnected-(U3-Pad7)*%
X53330000Y-107940000D03*
%TO.P,U3,8,GND*%
%TO.N,GND*%
X53330000Y-110480000D03*
%TO.P,U3,9,O6*%
%TO.N,SO6*%
X45710000Y-110480000D03*
%TO.P,U3,10,O5*%
%TO.N,SO5*%
X45710000Y-107940000D03*
%TO.P,U3,11,O4*%
%TO.N,SO4*%
X45710000Y-105400000D03*
%TO.P,U3,12,O3*%
%TO.N,Net-(U1-Pad11)*%
X45710000Y-102860000D03*
%TO.P,U3,13,O2*%
%TO.N,SO2*%
X45710000Y-100320000D03*
%TO.P,U3,14,O1*%
%TO.N,Net-(U1-Pad5)*%
X45710000Y-97780000D03*
%TO.P,U3,15,O0*%
%TO.N,Net-(U1-Pad2)*%
X45710000Y-95240000D03*
%TO.P,U3,16,VCC*%
%TO.N,VCC*%
X45710000Y-92700000D03*
%TD*%
D14*
%TO.P,U2,1*%
%TO.N,A7*%
X86360000Y-118110000D03*
D13*
%TO.P,U2,2*%
%TO.N,Net-(U2-Pad2)*%
X86360000Y-120650000D03*
%TO.P,U2,3*%
%TO.N,A4*%
X86360000Y-123190000D03*
%TO.P,U2,4*%
%TO.N,Net-(U2-Pad4)*%
X86360000Y-125730000D03*
%TO.P,U2,5*%
%TO.N,M1*%
X86360000Y-128270000D03*
%TO.P,U2,6*%
%TO.N,Net-(U2-Pad6)*%
X86360000Y-130810000D03*
%TO.P,U2,7,GND*%
%TO.N,GND*%
X86360000Y-133350000D03*
%TO.P,U2,8*%
%TO.N,Net-(U2-Pad8)*%
X78740000Y-133350000D03*
%TO.P,U2,9*%
%TO.N,~{RES}*%
X78740000Y-130810000D03*
%TO.P,U2,10*%
%TO.N,Net-(U2-Pad10)*%
X78740000Y-128270000D03*
%TO.P,U2,11*%
%TO.N,~{RES}*%
X78740000Y-125730000D03*
%TO.P,U2,12*%
%TO.N,N/C*%
X78740000Y-123190000D03*
%TO.P,U2,13*%
X78740000Y-120650000D03*
%TO.P,U2,14,VCC*%
%TO.N,VCC*%
X78740000Y-118110000D03*
%TD*%
D14*
%TO.P,U1,1*%
%TO.N,Net-(U1-Pad1)*%
X74930000Y-118105000D03*
D13*
%TO.P,U1,2*%
%TO.N,Net-(U1-Pad2)*%
X74930000Y-120645000D03*
%TO.P,U1,3*%
%TO.N,~{WR}*%
X74930000Y-123185000D03*
%TO.P,U1,4*%
%TO.N,Net-(U1-Pad4)*%
X74930000Y-125725000D03*
%TO.P,U1,5*%
%TO.N,Net-(U1-Pad5)*%
X74930000Y-128265000D03*
%TO.P,U1,6*%
%TO.N,~{WR}*%
X74930000Y-130805000D03*
%TO.P,U1,7,GND*%
%TO.N,GND*%
X74930000Y-133345000D03*
%TO.P,U1,8*%
%TO.N,SO6*%
X67310000Y-133345000D03*
%TO.P,U1,9*%
%TO.N,~{WR}*%
X67310000Y-130805000D03*
%TO.P,U1,10*%
%TO.N,Net-(U1-Pad10)*%
X67310000Y-128265000D03*
%TO.P,U1,11*%
%TO.N,Net-(U1-Pad11)*%
X67310000Y-125725000D03*
%TO.P,U1,12*%
%TO.N,~{WR}*%
X67310000Y-123185000D03*
%TO.P,U1,13*%
%TO.N,Net-(U1-Pad13)*%
X67310000Y-120645000D03*
%TO.P,U1,14,VCC*%
%TO.N,VCC*%
X67310000Y-118105000D03*
%TD*%
D14*
%TO.P,U4,1*%
%TO.N,Net-(U2-Pad4)*%
X63500000Y-118105000D03*
D13*
%TO.P,U4,2*%
%TO.N,A6*%
X63500000Y-120645000D03*
%TO.P,U4,3*%
%TO.N,N/C*%
X63500000Y-123185000D03*
%TO.P,U4,4*%
%TO.N,A5*%
X63500000Y-125725000D03*
%TO.P,U4,5*%
%TO.N,Net-(U2-Pad2)*%
X63500000Y-128265000D03*
%TO.P,U4,6*%
%TO.N,Net-(U3-Pad6)*%
X63500000Y-130805000D03*
%TO.P,U4,7,GND*%
%TO.N,GND*%
X63500000Y-133345000D03*
%TO.P,U4,8*%
%TO.N,unconnected-(U4-Pad8)*%
X55880000Y-133345000D03*
%TO.P,U4,9*%
%TO.N,GND*%
X55880000Y-130805000D03*
%TO.P,U4,10*%
X55880000Y-128265000D03*
%TO.P,U4,11*%
%TO.N,N/C*%
X55880000Y-125725000D03*
%TO.P,U4,12*%
%TO.N,GND*%
X55880000Y-123185000D03*
%TO.P,U4,13*%
X55880000Y-120645000D03*
%TO.P,U4,14,VCC*%
%TO.N,VCC*%
X55880000Y-118105000D03*
%TD*%
D14*
%TO.P,U5,1,~{Mr}*%
%TO.N,~{RES}*%
X87635000Y-81290000D03*
D13*
%TO.P,U5,2,Q0*%
%TO.N,CA8*%
X90175000Y-81290000D03*
%TO.P,U5,3,D0*%
%TO.N,D0*%
X92715000Y-81290000D03*
%TO.P,U5,4,D1*%
%TO.N,D1*%
X95255000Y-81290000D03*
%TO.P,U5,5,Q1*%
%TO.N,CA9*%
X97795000Y-81290000D03*
%TO.P,U5,6,Q2*%
%TO.N,CA10*%
X100335000Y-81290000D03*
%TO.P,U5,7,D2*%
%TO.N,D2*%
X102875000Y-81290000D03*
%TO.P,U5,8,D3*%
%TO.N,D3*%
X105415000Y-81290000D03*
%TO.P,U5,9,Q3*%
%TO.N,CA11*%
X107955000Y-81290000D03*
%TO.P,U5,10,GND*%
%TO.N,GND*%
X110495000Y-81290000D03*
%TO.P,U5,11,Cp*%
%TO.N,Net-(U1-Pad4)*%
X110495000Y-88910000D03*
%TO.P,U5,12,Q4*%
%TO.N,CA12*%
X107955000Y-88910000D03*
%TO.P,U5,13,D4*%
%TO.N,D4*%
X105415000Y-88910000D03*
%TO.P,U5,14,D5*%
%TO.N,D5*%
X102875000Y-88910000D03*
%TO.P,U5,15,Q5*%
%TO.N,CA13*%
X100335000Y-88910000D03*
%TO.P,U5,16,Q6*%
%TO.N,CA14*%
X97795000Y-88910000D03*
%TO.P,U5,17,D6*%
%TO.N,D6*%
X95255000Y-88910000D03*
%TO.P,U5,18,D7*%
%TO.N,D7*%
X92715000Y-88910000D03*
%TO.P,U5,19,Q7*%
%TO.N,CA15*%
X90175000Y-88910000D03*
%TO.P,U5,20,VCC*%
%TO.N,VCC*%
X87635000Y-88910000D03*
%TD*%
D15*
%TO.P,J1,1a,Pin_1a*%
%TO.N,unconnected-(J1-Pad1a)*%
X55742000Y-147828000D03*
%TO.P,J1,2a,Pin_2a*%
%TO.N,D0*%
X59702000Y-147828000D03*
%TO.P,J1,3a,Pin_3a*%
%TO.N,D2*%
X63662000Y-147828000D03*
%TO.P,J1,4a,Pin_4a*%
%TO.N,D4*%
X67622000Y-147828000D03*
%TO.P,J1,5a,Pin_5a*%
%TO.N,D6*%
X71582000Y-147828000D03*
%TO.P,J1,6a,Pin_6a*%
%TO.N,A0*%
X75542000Y-147828000D03*
%TO.P,J1,7a,Pin_7a*%
%TO.N,A2*%
X79502000Y-147828000D03*
%TO.P,J1,8a,Pin_8a*%
%TO.N,A4*%
X83462000Y-147828000D03*
%TO.P,J1,9a,Pin_9a*%
%TO.N,A6*%
X87422000Y-147828000D03*
%TO.P,J1,10a,Pin_10a*%
%TO.N,~{RD}*%
X91382000Y-147828000D03*
%TO.P,J1,11a,Pin_11a*%
%TO.N,~{IORQ}*%
X95342000Y-147828000D03*
%TO.P,J1,12a,Pin_12a*%
%TO.N,unconnected-(J1-Pad12a)*%
X99302000Y-147828000D03*
%TO.P,J1,15a,Pin_15a*%
%TO.N,GND*%
X111182000Y-147828000D03*
%TD*%
D14*
%TO.P,U6,1,~{Mr}*%
%TO.N,~{RES}*%
X57155000Y-81290000D03*
D13*
%TO.P,U6,2,Q0*%
%TO.N,CA0*%
X59695000Y-81290000D03*
%TO.P,U6,3,D0*%
%TO.N,D0*%
X62235000Y-81290000D03*
%TO.P,U6,4,D1*%
%TO.N,D1*%
X64775000Y-81290000D03*
%TO.P,U6,5,Q1*%
%TO.N,CA1*%
X67315000Y-81290000D03*
%TO.P,U6,6,Q2*%
%TO.N,CA2*%
X69855000Y-81290000D03*
%TO.P,U6,7,D2*%
%TO.N,D2*%
X72395000Y-81290000D03*
%TO.P,U6,8,D3*%
%TO.N,D3*%
X74935000Y-81290000D03*
%TO.P,U6,9,Q3*%
%TO.N,CA3*%
X77475000Y-81290000D03*
%TO.P,U6,10,GND*%
%TO.N,GND*%
X80015000Y-81290000D03*
%TO.P,U6,11,Cp*%
%TO.N,Net-(U1-Pad1)*%
X80015000Y-88910000D03*
%TO.P,U6,12,Q4*%
%TO.N,CA4*%
X77475000Y-88910000D03*
%TO.P,U6,13,D4*%
%TO.N,D4*%
X74935000Y-88910000D03*
%TO.P,U6,14,D5*%
%TO.N,D5*%
X72395000Y-88910000D03*
%TO.P,U6,15,Q5*%
%TO.N,CA5*%
X69855000Y-88910000D03*
%TO.P,U6,16,Q6*%
%TO.N,CA6*%
X67315000Y-88910000D03*
%TO.P,U6,17,D6*%
%TO.N,D6*%
X64775000Y-88910000D03*
%TO.P,U6,18,D7*%
%TO.N,D7*%
X62235000Y-88910000D03*
%TO.P,U6,19,Q7*%
%TO.N,CA7*%
X59695000Y-88910000D03*
%TO.P,U6,20,VCC*%
%TO.N,VCC*%
X57155000Y-88910000D03*
%TD*%
D12*
%TO.P,C1,1*%
%TO.N,VCC*%
X58500000Y-114300000D03*
%TO.P,C1,2*%
%TO.N,GND*%
X63500000Y-114300000D03*
%TD*%
%TO.P,C2,1*%
%TO.N,VCC*%
X69930000Y-114300000D03*
%TO.P,C2,2*%
%TO.N,GND*%
X74930000Y-114300000D03*
%TD*%
%TO.P,C3,1*%
%TO.N,VCC*%
X81360000Y-114300000D03*
%TO.P,C3,2*%
%TO.N,GND*%
X86360000Y-114300000D03*
%TD*%
%TO.P,C4,1*%
%TO.N,VCC*%
X104220000Y-112395000D03*
%TO.P,C4,2*%
%TO.N,GND*%
X109220000Y-112395000D03*
%TD*%
%TO.P,C5,1*%
%TO.N,VCC*%
X53340000Y-86290000D03*
%TO.P,C5,2*%
%TO.N,GND*%
X53340000Y-81290000D03*
%TD*%
%TO.P,C6,1*%
%TO.N,VCC*%
X48660000Y-89275000D03*
%TO.P,C6,2*%
%TO.N,GND*%
X53660000Y-89275000D03*
%TD*%
%TO.P,C8,1*%
%TO.N,VCC*%
X115570000Y-82550000D03*
%TO.P,C8,2*%
%TO.N,GND*%
X115570000Y-87550000D03*
%TD*%
%TO.P,C9,1*%
%TO.N,VCC*%
X49530000Y-69175000D03*
%TO.P,C9,2*%
%TO.N,GND*%
X49530000Y-64175000D03*
%TD*%
D16*
%TO.P,U8,1,A18*%
%TO.N,CA18*%
X64770000Y-96520000D03*
D17*
%TO.P,U8,2,A16*%
%TO.N,CA16*%
X67310000Y-93980000D03*
%TO.P,U8,3,A15*%
%TO.N,CA15*%
X67310000Y-96520000D03*
%TO.P,U8,4,A12*%
%TO.N,CA12*%
X69850000Y-93980000D03*
%TO.P,U8,5,A7*%
%TO.N,CA7*%
X72390000Y-96520000D03*
%TO.P,U8,6,A6*%
%TO.N,CA6*%
X69850000Y-96520000D03*
%TO.P,U8,7,A5*%
%TO.N,CA5*%
X72390000Y-99060000D03*
%TO.P,U8,8,A4*%
%TO.N,CA4*%
X69850000Y-99060000D03*
%TO.P,U8,9,A3*%
%TO.N,CA3*%
X72390000Y-101600000D03*
%TO.P,U8,10,A2*%
%TO.N,CA2*%
X69850000Y-101600000D03*
%TO.P,U8,11,A1*%
%TO.N,CA1*%
X72390000Y-104140000D03*
%TO.P,U8,12,A0*%
%TO.N,CA0*%
X69850000Y-104140000D03*
%TO.P,U8,13,D0*%
%TO.N,D0*%
X72390000Y-106680000D03*
%TO.P,U8,14,D1*%
%TO.N,D1*%
X69850000Y-109220000D03*
%TO.P,U8,15,D2*%
%TO.N,D2*%
X69850000Y-106680000D03*
%TO.P,U8,16,GND*%
%TO.N,GND*%
X67310000Y-109220000D03*
%TO.P,U8,17,D3*%
%TO.N,D3*%
X67310000Y-106680000D03*
%TO.P,U8,18,D4*%
%TO.N,D4*%
X64770000Y-109220000D03*
%TO.P,U8,19,D5*%
%TO.N,D5*%
X64770000Y-106680000D03*
%TO.P,U8,20,D6*%
%TO.N,D6*%
X62230000Y-109220000D03*
%TO.P,U8,21,D7*%
%TO.N,D7*%
X59690000Y-106680000D03*
%TO.P,U8,22,CE*%
%TO.N,SO2*%
X62230000Y-106680000D03*
%TO.P,U8,23,A10*%
%TO.N,CA10*%
X59690000Y-104140000D03*
%TO.P,U8,24,OE*%
%TO.N,~{RD}*%
X62230000Y-104140000D03*
%TO.P,U8,25,A11*%
%TO.N,CA11*%
X59690000Y-101600000D03*
%TO.P,U8,26,A9*%
%TO.N,CA9*%
X62230000Y-101600000D03*
%TO.P,U8,27,A8*%
%TO.N,CA8*%
X59690000Y-99060000D03*
%TO.P,U8,28,A13*%
%TO.N,CA13*%
X62230000Y-99060000D03*
%TO.P,U8,29,A14*%
%TO.N,CA14*%
X59690000Y-96520000D03*
%TO.P,U8,30,A17*%
%TO.N,CA17*%
X62230000Y-93980000D03*
%TO.P,U8,31,PGM*%
%TO.N,~{WR}*%
X62230000Y-96520000D03*
%TO.P,U8,32,VCC*%
%TO.N,VCC*%
X64770000Y-93980000D03*
%TD*%
D14*
%TO.P,U7,1,Oe1*%
%TO.N,GND*%
X109220000Y-115570000D03*
D13*
%TO.P,U7,2,Oe2*%
X109220000Y-118110000D03*
%TO.P,U7,3,Q0*%
%TO.N,CA16*%
X109220000Y-120650000D03*
%TO.P,U7,4,Q1*%
%TO.N,CA17*%
X109220000Y-123190000D03*
%TO.P,U7,5,Q2*%
%TO.N,CA18*%
X109220000Y-125730000D03*
%TO.P,U7,6,Q3*%
%TO.N,unconnected-(U7-Pad6)*%
X109220000Y-128270000D03*
%TO.P,U7,7,Cp*%
%TO.N,Net-(U1-Pad13)*%
X109220000Y-130810000D03*
%TO.P,U7,8,GND*%
%TO.N,GND*%
X109220000Y-133350000D03*
%TO.P,U7,9,E1*%
X101600000Y-133350000D03*
%TO.P,U7,10,E2*%
X101600000Y-130810000D03*
%TO.P,U7,11,D3*%
X101600000Y-128270000D03*
%TO.P,U7,12,D2*%
%TO.N,D2*%
X101600000Y-125730000D03*
%TO.P,U7,13,D1*%
%TO.N,D1*%
X101600000Y-123190000D03*
%TO.P,U7,14,D0*%
%TO.N,D0*%
X101600000Y-120650000D03*
%TO.P,U7,15,Mr*%
%TO.N,Net-(U2-Pad8)*%
X101600000Y-118110000D03*
%TO.P,U7,16,VCC*%
%TO.N,VCC*%
X101600000Y-115570000D03*
%TD*%
D12*
%TO.P,C7,1*%
%TO.N,VCC*%
X83820000Y-86280000D03*
%TO.P,C7,2*%
%TO.N,GND*%
X83820000Y-81280000D03*
%TD*%
%TO.P,C10,1*%
%TO.N,VCC*%
X92790000Y-112395000D03*
%TO.P,C10,2*%
%TO.N,GND*%
X97790000Y-112395000D03*
%TD*%
D14*
%TO.P,C11,1*%
%TO.N,VCC*%
X118618000Y-93726000D03*
D12*
%TO.P,C11,2*%
%TO.N,GND*%
X116118000Y-93726000D03*
%TD*%
D14*
%TO.P,U9,1,Oe1*%
%TO.N,GND*%
X97780000Y-115560000D03*
D13*
%TO.P,U9,2,Oe2*%
X97780000Y-118100000D03*
%TO.P,U9,3,Q0*%
%TO.N,Net-(R1-Pad1)*%
X97780000Y-120640000D03*
%TO.P,U9,4,Q1*%
%TO.N,Net-(R2-Pad1)*%
X97780000Y-123180000D03*
%TO.P,U9,5,Q2*%
%TO.N,unconnected-(U9-Pad5)*%
X97780000Y-125720000D03*
%TO.P,U9,6,Q3*%
%TO.N,unconnected-(U9-Pad6)*%
X97780000Y-128260000D03*
%TO.P,U9,7,Cp*%
%TO.N,Net-(U1-Pad10)*%
X97780000Y-130800000D03*
%TO.P,U9,8,GND*%
%TO.N,GND*%
X97780000Y-133340000D03*
%TO.P,U9,9,E1*%
X90160000Y-133340000D03*
%TO.P,U9,10,E2*%
X90160000Y-130800000D03*
%TO.P,U9,11,D3*%
%TO.N,D3*%
X90160000Y-128260000D03*
%TO.P,U9,12,D2*%
%TO.N,D2*%
X90160000Y-125720000D03*
%TO.P,U9,13,D1*%
%TO.N,D1*%
X90160000Y-123180000D03*
%TO.P,U9,14,D0*%
%TO.N,D0*%
X90160000Y-120640000D03*
%TO.P,U9,15,Mr*%
%TO.N,Net-(U2-Pad10)*%
X90160000Y-118100000D03*
%TO.P,U9,16,VCC*%
%TO.N,VCC*%
X90160000Y-115560000D03*
%TD*%
D18*
%TO.P,U10,1,A18*%
%TO.N,CA18*%
X64398000Y-59147500D03*
D19*
%TO.P,U10,2,A16*%
%TO.N,CA16*%
X66938000Y-59147500D03*
%TO.P,U10,3,A15*%
%TO.N,CA15*%
X69478000Y-59147500D03*
%TO.P,U10,4,A12*%
%TO.N,CA12*%
X72018000Y-59147500D03*
%TO.P,U10,5,A7*%
%TO.N,CA7*%
X74558000Y-59147500D03*
%TO.P,U10,6,A6*%
%TO.N,CA6*%
X77098000Y-59147500D03*
%TO.P,U10,7,A5*%
%TO.N,CA5*%
X79638000Y-59147500D03*
%TO.P,U10,8,A4*%
%TO.N,CA4*%
X82178000Y-59147500D03*
%TO.P,U10,9,A3*%
%TO.N,CA3*%
X84718000Y-59147500D03*
%TO.P,U10,10,A2*%
%TO.N,CA2*%
X87258000Y-59147500D03*
%TO.P,U10,11,A1*%
%TO.N,CA1*%
X89798000Y-59147500D03*
%TO.P,U10,12,A0*%
%TO.N,CA0*%
X92338000Y-59147500D03*
%TO.P,U10,13,D0*%
%TO.N,D0*%
X94878000Y-59147500D03*
%TO.P,U10,14,D1*%
%TO.N,D1*%
X97418000Y-59147500D03*
%TO.P,U10,15,D2*%
%TO.N,D2*%
X99958000Y-59147500D03*
%TO.P,U10,16,GND*%
%TO.N,GND*%
X102498000Y-59147500D03*
%TO.P,U10,17,D3*%
%TO.N,D3*%
X102498000Y-74387500D03*
%TO.P,U10,18,D4*%
%TO.N,D4*%
X99958000Y-74387500D03*
%TO.P,U10,19,D5*%
%TO.N,D5*%
X97418000Y-74387500D03*
%TO.P,U10,20,D6*%
%TO.N,D6*%
X94878000Y-74387500D03*
%TO.P,U10,21,D7*%
%TO.N,D7*%
X92338000Y-74387500D03*
%TO.P,U10,22,CE*%
%TO.N,SO5*%
X89798000Y-74387500D03*
%TO.P,U10,23,A10*%
%TO.N,CA10*%
X87258000Y-74387500D03*
%TO.P,U10,24,OE*%
%TO.N,~{RD}*%
X84718000Y-74387500D03*
%TO.P,U10,25,A11*%
%TO.N,CA11*%
X82178000Y-74387500D03*
%TO.P,U10,26,A9*%
%TO.N,CA9*%
X79638000Y-74387500D03*
%TO.P,U10,27,A8*%
%TO.N,CA8*%
X77098000Y-74387500D03*
%TO.P,U10,28,A13*%
%TO.N,CA13*%
X74558000Y-74387500D03*
%TO.P,U10,29,A14*%
%TO.N,CA14*%
X72018000Y-74387500D03*
%TO.P,U10,30,A17*%
%TO.N,CA17*%
X69478000Y-74387500D03*
%TO.P,U10,31,PGM*%
%TO.N,~{WR}*%
X66938000Y-74387500D03*
%TO.P,U10,32,VCC*%
%TO.N,VCC*%
X64398000Y-74387500D03*
%TD*%
D14*
%TO.P,U11,1,A14*%
%TO.N,CA14*%
X78725000Y-93975000D03*
D13*
%TO.P,U11,2,A12*%
%TO.N,CA12*%
X81265000Y-93975000D03*
%TO.P,U11,3,A7*%
%TO.N,CA7*%
X83805000Y-93975000D03*
%TO.P,U11,4,A6*%
%TO.N,CA6*%
X86345000Y-93975000D03*
%TO.P,U11,5,A5*%
%TO.N,CA5*%
X88885000Y-93975000D03*
%TO.P,U11,6,A4*%
%TO.N,CA4*%
X91425000Y-93975000D03*
%TO.P,U11,7,A3*%
%TO.N,CA3*%
X93965000Y-93975000D03*
%TO.P,U11,8,A2*%
%TO.N,CA2*%
X96505000Y-93975000D03*
%TO.P,U11,9,A1*%
%TO.N,CA1*%
X99045000Y-93975000D03*
%TO.P,U11,10,A0*%
%TO.N,CA0*%
X101585000Y-93975000D03*
%TO.P,U11,11,Q0*%
%TO.N,D0*%
X104125000Y-93975000D03*
%TO.P,U11,12,Q1*%
%TO.N,D1*%
X106665000Y-93975000D03*
%TO.P,U11,13,Q2*%
%TO.N,D2*%
X109205000Y-93975000D03*
%TO.P,U11,14,GND*%
%TO.N,GND*%
X111745000Y-93975000D03*
%TO.P,U11,15,Q3*%
%TO.N,D3*%
X111745000Y-109215000D03*
%TO.P,U11,16,Q4*%
%TO.N,D4*%
X109205000Y-109215000D03*
%TO.P,U11,17,Q5*%
%TO.N,D5*%
X106665000Y-109215000D03*
%TO.P,U11,18,Q6*%
%TO.N,D6*%
X104125000Y-109215000D03*
%TO.P,U11,19,Q7*%
%TO.N,D7*%
X101585000Y-109215000D03*
%TO.P,U11,20,~{CS}*%
%TO.N,SO4*%
X99045000Y-109215000D03*
%TO.P,U11,21,A10*%
%TO.N,CA10*%
X96505000Y-109215000D03*
%TO.P,U11,22,~{OE}*%
%TO.N,~{RD}*%
X93965000Y-109215000D03*
%TO.P,U11,23,A11*%
%TO.N,CA11*%
X91425000Y-109215000D03*
%TO.P,U11,24,A9*%
%TO.N,CA9*%
X88885000Y-109215000D03*
%TO.P,U11,25,A8*%
%TO.N,CA8*%
X86345000Y-109215000D03*
%TO.P,U11,26,A13*%
%TO.N,CA13*%
X83805000Y-109215000D03*
%TO.P,U11,27,~{WE}*%
%TO.N,~{WR}*%
X81265000Y-109215000D03*
%TO.P,U11,28,VCC*%
%TO.N,VCC*%
X78725000Y-109215000D03*
%TD*%
D20*
%TO.N,D0*%
X62088900Y-77386700D03*
X93528300Y-84246700D03*
X98753100Y-98934100D03*
%TO.N,D2*%
X61410900Y-118081600D03*
X59814400Y-136438700D03*
X77384800Y-116618000D03*
%TO.N,D4*%
X61324400Y-136527100D03*
X75685800Y-96683100D03*
%TO.N,D6*%
X62374700Y-136304900D03*
X62280100Y-113336000D03*
%TO.N,A0*%
X52468400Y-134550700D03*
X45246600Y-88999300D03*
%TO.N,A4*%
X80445900Y-136502200D03*
%TO.N,A6*%
X66000000Y-135661000D03*
%TO.N,~{RD}*%
X90216700Y-136165200D03*
X67134300Y-99397700D03*
X77565900Y-98328000D03*
%TO.N,~{IORQ}*%
X74418100Y-135229700D03*
X73210500Y-121295100D03*
%TO.N,~{RES}*%
X81226000Y-132758900D03*
X69080500Y-124485200D03*
%TO.N,A5*%
X65158700Y-130370700D03*
X73394100Y-132186000D03*
%TO.N,A1*%
X66170500Y-104669000D03*
%TO.N,D7*%
X74743000Y-112864700D03*
%TO.N,D5*%
X73349000Y-110221700D03*
X84228000Y-70771800D03*
%TO.N,D3*%
X95235000Y-110532200D03*
%TO.N,D1*%
X103587800Y-107044100D03*
X84869500Y-112435300D03*
%TO.N,Net-(U1-Pad1)*%
X76538900Y-108487600D03*
X76840600Y-103495400D03*
%TO.N,~{WR}*%
X83259300Y-123926700D03*
X60827600Y-75661000D03*
X57693200Y-95482500D03*
X96431000Y-126503200D03*
%TO.N,CA2*%
X97353500Y-98217700D03*
X98920400Y-87301500D03*
%TO.N,CA4*%
X81484700Y-71827600D03*
%TO.N,CA1*%
X67442300Y-77386700D03*
%TO.N,CA3*%
X81015700Y-101385600D03*
X83468500Y-71499200D03*
%TO.N,CA0*%
X98438700Y-95684800D03*
X84449700Y-78506100D03*
%TO.N,CA10*%
X76114800Y-106026200D03*
%TO.N,CA12*%
X91322200Y-72248100D03*
%TO.N,CA9*%
X82566900Y-103270100D03*
%TO.N,CA11*%
X88761600Y-78256000D03*
X79531200Y-102765300D03*
%TO.N,CA8*%
X81991800Y-99964200D03*
%TO.N,CA14*%
X81592900Y-84228800D03*
X62879500Y-86645800D03*
X71193000Y-84241300D03*
%TO.N,CA13*%
X99209600Y-79860400D03*
X84159000Y-103197800D03*
%TO.N,CA5*%
X74478300Y-95835900D03*
X74435800Y-90730800D03*
%TO.N,CA7*%
X60089800Y-76936400D03*
X73287600Y-90822800D03*
%TO.N,CA15*%
X87703000Y-92190500D03*
X63309600Y-70208700D03*
%TO.N,Net-(U1-Pad4)*%
X103085000Y-95855700D03*
X80152100Y-120835100D03*
X95832000Y-114800700D03*
%TO.N,Net-(R1-Pad1)*%
X118854500Y-109830100D03*
%TO.N,Net-(R2-Pad1)*%
X104337200Y-99806100D03*
%TO.N,Net-(U2-Pad2)*%
X80875500Y-122646800D03*
X73441300Y-129571500D03*
%TO.N,SO2*%
X54102400Y-104082800D03*
%TO.N,CA17*%
X117574200Y-115078200D03*
X62063600Y-76386300D03*
%TO.N,CA16*%
X100836600Y-104026400D03*
X105517900Y-98693500D03*
%TO.N,CA18*%
X121693200Y-100980300D03*
X56621600Y-95745000D03*
%TO.N,Net-(U3-Pad6)*%
X50555900Y-108900600D03*
%TO.N,Net-(U1-Pad5)*%
X49618900Y-102028700D03*
%TO.N,Net-(U1-Pad2)*%
X65456000Y-117943900D03*
%TO.N,Net-(U2-Pad8)*%
X84773900Y-123287800D03*
%TO.N,Net-(U2-Pad10)*%
X82288100Y-122529600D03*
%TD*%
D21*
%TO.N,GND*%
X85235000Y-134475000D02*
X76060000Y-134475000D01*
X61214000Y-114300000D02*
X59436000Y-112522000D01*
X49530000Y-64175000D02*
X49530000Y-60452000D01*
X59436000Y-112522000D02*
X55372000Y-112522000D01*
X101346000Y-55880000D02*
X102498000Y-57032000D01*
X64625000Y-134470000D02*
X63500000Y-133345000D01*
X63500000Y-133345000D02*
X58420000Y-133345000D01*
X85235000Y-113175000D02*
X86360000Y-114300000D01*
X63500000Y-114300000D02*
X61214000Y-114300000D01*
X76055000Y-113175000D02*
X85235000Y-113175000D01*
X109369700Y-81571400D02*
X107574700Y-83366400D01*
X111745000Y-93975000D02*
X115869000Y-93975000D01*
X101600000Y-133350000D02*
X105410000Y-133350000D01*
X102498000Y-57032000D02*
X102616000Y-57150000D01*
X102498000Y-57032000D02*
X102498000Y-59147500D01*
X86360000Y-133350000D02*
X85235000Y-134475000D01*
X64625000Y-113175000D02*
X73805000Y-113175000D01*
X115570000Y-93178000D02*
X116118000Y-93726000D01*
X97790000Y-112395000D02*
X98915000Y-111270000D01*
X112218000Y-55925000D02*
X117134000Y-55925000D01*
X110495000Y-81290000D02*
X109369700Y-81290000D01*
X89390000Y-111270000D02*
X96665000Y-111270000D01*
X108095000Y-111270000D02*
X109220000Y-112395000D01*
X101346000Y-55880000D02*
X102498000Y-57032000D01*
X109369700Y-81290000D02*
X109369700Y-81571400D01*
X55372000Y-112522000D02*
X53330000Y-110480000D01*
X73805000Y-134470000D02*
X64625000Y-134470000D01*
X90160000Y-133340000D02*
X97780000Y-133340000D01*
X74930000Y-114300000D02*
X76055000Y-113175000D01*
X76060000Y-134475000D02*
X74930000Y-133345000D01*
X110993000Y-57150000D02*
X112218000Y-55925000D01*
X90160000Y-133340000D02*
X86370000Y-133340000D01*
X102616000Y-57150000D02*
X110993000Y-57150000D01*
X86370000Y-133340000D02*
X86360000Y-133350000D01*
X74930000Y-133345000D02*
X73805000Y-134470000D01*
X115570000Y-87550000D02*
X115570000Y-93178000D01*
X105410000Y-133350000D02*
X109220000Y-133350000D01*
X115869000Y-93975000D02*
X116118000Y-93726000D01*
X111182000Y-139122000D02*
X111182000Y-147828000D01*
X54102000Y-55880000D02*
X101346000Y-55880000D01*
X63500000Y-114300000D02*
X64625000Y-113175000D01*
X98915000Y-111270000D02*
X108095000Y-111270000D01*
X86360000Y-114300000D02*
X89390000Y-111270000D01*
X101590000Y-133340000D02*
X101600000Y-133350000D01*
X107574700Y-83366400D02*
X85906400Y-83366400D01*
X73805000Y-113175000D02*
X74930000Y-114300000D01*
X49530000Y-60452000D02*
X54102000Y-55880000D01*
X85906400Y-83366400D02*
X83820000Y-81280000D01*
X96665000Y-111270000D02*
X97790000Y-112395000D01*
X117134000Y-55925000D02*
X118359000Y-57150000D01*
X97780000Y-133340000D02*
X101590000Y-133340000D01*
X105410000Y-133350000D02*
X111182000Y-139122000D01*
X67310000Y-109220000D02*
X64625000Y-111905000D01*
X64625000Y-111905000D02*
X64625000Y-113175000D01*
X58420000Y-133345000D02*
X55880000Y-130805000D01*
%TO.N,VCC*%
X72136000Y-114300000D02*
X73660000Y-115824000D01*
X47752000Y-67397000D02*
X49530000Y-69175000D01*
X59124200Y-90035300D02*
X60825300Y-90035300D01*
X115570000Y-78486000D02*
X122428000Y-71628000D01*
X115570000Y-82550000D02*
X115570000Y-78486000D01*
X103077000Y-113538000D02*
X104220000Y-112395000D01*
X76134400Y-88606600D02*
X76134400Y-90058000D01*
X74644200Y-91548200D02*
X67201800Y-91548200D01*
X118618000Y-93726000D02*
X118618000Y-85598000D01*
X76134400Y-90058000D02*
X74644200Y-91548200D01*
X104220000Y-112395000D02*
X105363000Y-113538000D01*
X121666000Y-54356000D02*
X52832000Y-54356000D01*
X67201800Y-91548200D02*
X64770000Y-93980000D01*
X68660000Y-115570000D02*
X69930000Y-114300000D01*
X79836000Y-115824000D02*
X81360000Y-114300000D01*
X118618000Y-108712000D02*
X118618000Y-93726000D01*
X57155000Y-87635000D02*
X57155000Y-88910000D01*
X69930000Y-114300000D02*
X72136000Y-114300000D01*
X47752000Y-59436000D02*
X47752000Y-67397000D01*
X105363000Y-113538000D02*
X113792000Y-113538000D01*
X78461000Y-86280000D02*
X76134400Y-88606600D01*
X83820000Y-86280000D02*
X78461000Y-86280000D01*
X58280300Y-88910000D02*
X58280300Y-89191400D01*
X122428000Y-71628000D02*
X122428000Y-55118000D01*
X113792000Y-113538000D02*
X118618000Y-108712000D01*
X73660000Y-115824000D02*
X79836000Y-115824000D01*
X58500000Y-114300000D02*
X60452000Y-114300000D01*
X122428000Y-55118000D02*
X121666000Y-54356000D01*
X60825300Y-90035300D02*
X64770000Y-93980000D01*
X53340000Y-86290000D02*
X55810000Y-86290000D01*
X61722000Y-115570000D02*
X68660000Y-115570000D01*
X52832000Y-54356000D02*
X47752000Y-59436000D01*
X57155000Y-88910000D02*
X58280300Y-88910000D01*
X60452000Y-114300000D02*
X61722000Y-115570000D01*
X82620000Y-115560000D02*
X81360000Y-114300000D01*
X58280300Y-89191400D02*
X59124200Y-90035300D01*
X90160000Y-115560000D02*
X82620000Y-115560000D01*
X93933000Y-113538000D02*
X103077000Y-113538000D01*
X92790000Y-112395000D02*
X93933000Y-113538000D01*
X118618000Y-85598000D02*
X115570000Y-82550000D01*
X55810000Y-86290000D02*
X57155000Y-87635000D01*
%TO.N,D0*%
X97288500Y-84246700D02*
X93528300Y-84246700D01*
X62088900Y-77386700D02*
X61813800Y-77661800D01*
X94281400Y-119514700D02*
X99339400Y-119514700D01*
X59702000Y-147828000D02*
X59702000Y-142502700D01*
X103650900Y-93975000D02*
X103176700Y-93975000D01*
X101570800Y-91894900D02*
X101570800Y-88529000D01*
X93156100Y-120640000D02*
X94281400Y-119514700D01*
X101600000Y-120650000D02*
X100474700Y-120650000D01*
X65508700Y-58759100D02*
X65508700Y-60237200D01*
X54680400Y-77661800D02*
X44044600Y-88297600D01*
X99339400Y-119514700D02*
X100474700Y-120650000D01*
X50503000Y-127977600D02*
X50503000Y-133674200D01*
X101570800Y-88529000D02*
X97288500Y-84246700D01*
X91285300Y-120640000D02*
X93156100Y-120640000D01*
X104125000Y-93975000D02*
X103650900Y-93975000D01*
X67842600Y-56425200D02*
X65508700Y-58759100D01*
X90160000Y-120640000D02*
X91285300Y-120640000D01*
X103176700Y-94510500D02*
X103176700Y-93975000D01*
X44044600Y-121519200D02*
X50503000Y-127977600D01*
X92155700Y-56425200D02*
X67842600Y-56425200D01*
X65508700Y-60237200D02*
X59343700Y-66402200D01*
X94878000Y-59147500D02*
X92155700Y-56425200D01*
X103650900Y-93975000D02*
X101570800Y-91894900D01*
X44044600Y-88297600D02*
X44044600Y-121519200D01*
X59343700Y-66402200D02*
X59343700Y-77661800D01*
X50503000Y-133674200D02*
X59331500Y-142502700D01*
X98753100Y-98934100D02*
X103176700Y-94510500D01*
X61813800Y-77661800D02*
X59343700Y-77661800D01*
X59331500Y-142502700D02*
X59702000Y-142502700D01*
X59343700Y-77661800D02*
X54680400Y-77661800D01*
%TO.N,D2*%
X90160000Y-125720000D02*
X91285300Y-125720000D01*
X72360700Y-116618000D02*
X71763100Y-116020400D01*
X96859200Y-127100800D02*
X99103900Y-127100800D01*
X77384800Y-116618000D02*
X72360700Y-116618000D01*
X71763100Y-116020400D02*
X63472100Y-116020400D01*
X63662000Y-140286300D02*
X63662000Y-147828000D01*
X92793800Y-127228500D02*
X96731500Y-127228500D01*
X96731500Y-127228500D02*
X96859200Y-127100800D01*
X59814400Y-136438700D02*
X63662000Y-140286300D01*
X63472100Y-116020400D02*
X61410900Y-118081600D01*
X91285300Y-125720000D02*
X92793800Y-127228500D01*
X101600000Y-125730000D02*
X100474700Y-125730000D01*
X99103900Y-127100800D02*
X100474700Y-125730000D01*
%TO.N,D4*%
X61324400Y-136527100D02*
X67300000Y-142502700D01*
X88119600Y-96683100D02*
X75685800Y-96683100D01*
X112116300Y-80599000D02*
X107809800Y-76292500D01*
X107206800Y-110369200D02*
X101104600Y-110369200D01*
X102614300Y-76292500D02*
X101003300Y-74681500D01*
X100388900Y-108952400D02*
X88119600Y-96683100D01*
X67622000Y-147828000D02*
X67622000Y-142502700D01*
X105415000Y-88910000D02*
X112116300Y-82208700D01*
X100388900Y-109653500D02*
X100388900Y-108952400D01*
X67300000Y-142502700D02*
X67622000Y-142502700D01*
X108079700Y-109215000D02*
X108079700Y-109496300D01*
X107809800Y-76292500D02*
X102614300Y-76292500D01*
X108079700Y-109496300D02*
X107206800Y-110369200D01*
X101003300Y-74681500D02*
X101003300Y-74387500D01*
X112116300Y-82208700D02*
X112116300Y-80599000D01*
X109205000Y-109215000D02*
X108079700Y-109215000D01*
X101104600Y-110369200D02*
X100388900Y-109653500D01*
X99958000Y-74387500D02*
X101003300Y-74387500D01*
%TO.N,D6*%
X62230000Y-113285900D02*
X62280100Y-113336000D01*
X64775000Y-88910000D02*
X65900300Y-88910000D01*
X87158300Y-87334400D02*
X92835500Y-87334400D01*
X95255000Y-88910000D02*
X95255000Y-90035300D01*
X103562400Y-108089700D02*
X102425500Y-106952800D01*
X98010200Y-98606300D02*
X98121700Y-98494800D01*
X98121700Y-97826200D02*
X97702800Y-97407300D01*
X84525700Y-84701800D02*
X87158300Y-87334400D01*
X65900300Y-88705500D02*
X69080500Y-85525300D01*
X92835500Y-87334400D02*
X94129700Y-88628600D01*
X102425500Y-103677800D02*
X98010200Y-99262500D01*
X97702800Y-97407300D02*
X97702800Y-92483100D01*
X94129700Y-88628600D02*
X94129700Y-88910000D01*
X68572500Y-142502700D02*
X62374700Y-136304900D01*
X65900300Y-88910000D02*
X65900300Y-88705500D01*
X102425500Y-106952800D02*
X102425500Y-103677800D01*
X77694100Y-84954100D02*
X82334900Y-84954100D01*
X71582000Y-147828000D02*
X71582000Y-142502700D01*
X82587200Y-84701800D02*
X84525700Y-84701800D01*
X82334900Y-84954100D02*
X82587200Y-84701800D01*
X104125000Y-108089700D02*
X103562400Y-108089700D01*
X69080500Y-85525300D02*
X77122900Y-85525300D01*
X98010200Y-99262500D02*
X98010200Y-98606300D01*
X62230000Y-109220000D02*
X62230000Y-113285900D01*
X95255000Y-88910000D02*
X94129700Y-88910000D01*
X97702800Y-92483100D02*
X95255000Y-90035300D01*
X77122900Y-85525300D02*
X77694100Y-84954100D01*
X98121700Y-98494800D02*
X98121700Y-97826200D01*
X104125000Y-109215000D02*
X104125000Y-108089700D01*
X71582000Y-142502700D02*
X68572500Y-142502700D01*
%TO.N,A0*%
X75542000Y-142502700D02*
X72070500Y-139031200D01*
X63036400Y-135579600D02*
X53497300Y-135579600D01*
X75542000Y-147828000D02*
X75542000Y-142502700D01*
X48947300Y-92700000D02*
X53330000Y-92700000D01*
X53497300Y-135579600D02*
X52468400Y-134550700D01*
X72070500Y-139031200D02*
X66488000Y-139031200D01*
X45246600Y-88999300D02*
X48947300Y-92700000D01*
X66488000Y-139031200D02*
X63036400Y-135579600D01*
%TO.N,A2*%
X44567300Y-110029900D02*
X45387200Y-109210000D01*
X79502000Y-142502700D02*
X73795800Y-136796500D01*
X45387200Y-109210000D02*
X46058700Y-109210000D01*
X59054300Y-134616200D02*
X56513100Y-132075000D01*
X56513100Y-132075000D02*
X55556200Y-132075000D01*
X53330000Y-97780000D02*
X52204700Y-97780000D01*
X48864500Y-101120200D02*
X52204700Y-97780000D01*
X79502000Y-147828000D02*
X79502000Y-142502700D01*
X44567300Y-121086100D02*
X44567300Y-110029900D01*
X55556200Y-132075000D02*
X44567300Y-121086100D01*
X46058700Y-109210000D02*
X48864500Y-106404200D01*
X63179600Y-134616200D02*
X59054300Y-134616200D01*
X48864500Y-106404200D02*
X48864500Y-101120200D01*
X65359900Y-136796500D02*
X63179600Y-134616200D01*
X73795800Y-136796500D02*
X65359900Y-136796500D01*
%TO.N,A4*%
X83462000Y-147828000D02*
X83462000Y-139518300D01*
X83462000Y-139518300D02*
X80445900Y-136502200D01*
%TO.N,A6*%
X80769700Y-135741400D02*
X80135400Y-135741400D01*
X87422000Y-147828000D02*
X87422000Y-142502700D01*
X79921800Y-135955000D02*
X66294000Y-135955000D01*
X66294000Y-135955000D02*
X66000000Y-135661000D01*
X80135400Y-135741400D02*
X79921800Y-135955000D01*
X87422000Y-142502700D02*
X87422000Y-142393700D01*
X87422000Y-142393700D02*
X80769700Y-135741400D01*
%TO.N,~{RD}*%
X91382000Y-147828000D02*
X91382000Y-137330500D01*
X93965000Y-109215000D02*
X92839700Y-109215000D01*
X77261400Y-98023500D02*
X77565900Y-98328000D01*
X77565900Y-98328000D02*
X82213400Y-98328000D01*
X91382000Y-137330500D02*
X90216700Y-136165200D01*
X67134300Y-99397700D02*
X68508500Y-98023500D01*
X92839700Y-108954300D02*
X92839700Y-109215000D01*
X68508500Y-98023500D02*
X77261400Y-98023500D01*
X82213400Y-98328000D02*
X92839700Y-108954300D01*
%TO.N,~{IORQ}*%
X57346800Y-115081600D02*
X61712100Y-119446900D01*
X53330000Y-103985300D02*
X53137200Y-103985300D01*
X71362300Y-119446900D02*
X73210500Y-121295100D01*
X53137200Y-103985300D02*
X52204700Y-104917800D01*
X95342000Y-140249000D02*
X90322700Y-135229700D01*
X52204700Y-104917800D02*
X52204700Y-110976500D01*
X53330000Y-102860000D02*
X53330000Y-103985300D01*
X56309800Y-115081600D02*
X57346800Y-115081600D01*
X52204700Y-110976500D02*
X56309800Y-115081600D01*
X61712100Y-119446900D02*
X71362300Y-119446900D01*
X95342000Y-147828000D02*
X95342000Y-140249000D01*
X90322700Y-135229700D02*
X74418100Y-135229700D01*
%TO.N,~{RES}*%
X57155000Y-81290000D02*
X58280300Y-81290000D01*
X79865300Y-131398200D02*
X81226000Y-132758900D01*
X84667300Y-79247800D02*
X86509700Y-81090200D01*
X76369900Y-124485200D02*
X77614700Y-125730000D01*
X58280300Y-81290000D02*
X58280300Y-81008700D01*
X78740000Y-130810000D02*
X79865300Y-130810000D01*
X79865300Y-130810000D02*
X79865300Y-131398200D01*
X78740000Y-125730000D02*
X77614700Y-125730000D01*
X60041200Y-79247800D02*
X84667300Y-79247800D01*
X87635000Y-81290000D02*
X86509700Y-81290000D01*
X58280300Y-81008700D02*
X60041200Y-79247800D01*
X69080500Y-124485200D02*
X76369900Y-124485200D01*
X86509700Y-81090200D02*
X86509700Y-81290000D01*
%TO.N,A5*%
X73394100Y-132186000D02*
X66974000Y-132186000D01*
X66974000Y-132186000D02*
X65158700Y-130370700D01*
%TO.N,A1*%
X53611400Y-96365300D02*
X54455300Y-97209200D01*
X53330000Y-96365300D02*
X53611400Y-96365300D01*
X54455300Y-97209200D02*
X54455300Y-97881700D01*
X59676900Y-103103300D02*
X63440900Y-103103300D01*
X54455300Y-97881700D02*
X59676900Y-103103300D01*
X53330000Y-95240000D02*
X53330000Y-96365300D01*
X65006600Y-104669000D02*
X66170500Y-104669000D01*
X63440900Y-103103300D02*
X65006600Y-104669000D01*
%TO.N,D7*%
X67415500Y-107790700D02*
X68580000Y-108955200D01*
X63733400Y-107167900D02*
X64356200Y-107790700D01*
X101585000Y-103506400D02*
X101585000Y-108089700D01*
X63733400Y-106698500D02*
X63733400Y-107167900D01*
X74411900Y-112533600D02*
X74743000Y-112864700D01*
X90745800Y-87784700D02*
X91589700Y-88628600D01*
X101585000Y-109215000D02*
X101585000Y-108089700D01*
X68585000Y-88535700D02*
X70025000Y-87095700D01*
X68580000Y-109443300D02*
X71670300Y-112533600D01*
X68585000Y-89285600D02*
X68585000Y-88535700D01*
X82521500Y-85404400D02*
X82773800Y-85152100D01*
X63360300Y-89191400D02*
X64204200Y-90035300D01*
X70025000Y-87095700D02*
X76414500Y-87095700D01*
X71670300Y-112533600D02*
X74411900Y-112533600D01*
X62235000Y-88910000D02*
X63360300Y-88910000D01*
X92715000Y-88910000D02*
X91589700Y-88910000D01*
X63360300Y-88910000D02*
X63360300Y-89191400D01*
X60741300Y-105628700D02*
X62663600Y-105628700D01*
X64204200Y-90035300D02*
X67835300Y-90035300D01*
X76414500Y-87095700D02*
X78105800Y-85404400D01*
X82773800Y-85152100D02*
X84339100Y-85152100D01*
X64356200Y-107790700D02*
X67415500Y-107790700D01*
X67835300Y-90035300D02*
X68585000Y-89285600D01*
X92715000Y-94636400D02*
X101585000Y-103506400D01*
X78105800Y-85404400D02*
X82521500Y-85404400D01*
X68580000Y-108955200D02*
X68580000Y-109443300D01*
X62663600Y-105628700D02*
X63733400Y-106698500D01*
X91589700Y-88628600D02*
X91589700Y-88910000D01*
X92715000Y-88910000D02*
X92715000Y-94636400D01*
X84339100Y-85152100D02*
X86971700Y-87784700D01*
X86971700Y-87784700D02*
X90745800Y-87784700D01*
X59690000Y-106680000D02*
X60741300Y-105628700D01*
%TO.N,D5*%
X111664900Y-80784500D02*
X111664900Y-81772900D01*
X88820200Y-70771800D02*
X91021800Y-72973400D01*
X71279300Y-106629800D02*
X71279300Y-108152000D01*
X91021800Y-72973400D02*
X95252600Y-72973400D01*
X71279300Y-108152000D02*
X73349000Y-110221700D01*
X96372700Y-74093500D02*
X96372700Y-74387500D01*
X98463300Y-74681500D02*
X102536200Y-78754400D01*
X64770000Y-106680000D02*
X65822200Y-106680000D01*
X97418000Y-74387500D02*
X96372700Y-74387500D01*
X95252600Y-72973400D02*
X96372700Y-74093500D01*
X102536200Y-78754400D02*
X109634800Y-78754400D01*
X65822200Y-106680000D02*
X66873700Y-105628500D01*
X104844200Y-87784700D02*
X104000300Y-88628600D01*
X105653100Y-87784700D02*
X104844200Y-87784700D01*
X102875000Y-88910000D02*
X104000300Y-88910000D01*
X97418000Y-74387500D02*
X98463300Y-74387500D01*
X66873700Y-105628500D02*
X70278000Y-105628500D01*
X98463300Y-74387500D02*
X98463300Y-74681500D01*
X84228000Y-70771800D02*
X88820200Y-70771800D01*
X70278000Y-105628500D02*
X71279300Y-106629800D01*
X111664900Y-81772900D02*
X105653100Y-87784700D01*
X104000300Y-88628600D02*
X104000300Y-88910000D01*
X109634800Y-78754400D02*
X111664900Y-80784500D01*
%TO.N,D3*%
X110619700Y-109496300D02*
X109296400Y-110819600D01*
X102945000Y-82916100D02*
X86493100Y-82916100D01*
X110619700Y-109215000D02*
X110619700Y-109496300D01*
X76920400Y-80148600D02*
X76060300Y-81008700D01*
X109296400Y-110819600D02*
X95522400Y-110819600D01*
X76060300Y-81008700D02*
X76060300Y-81290000D01*
X74935000Y-81290000D02*
X76060300Y-81290000D01*
X94976500Y-110790700D02*
X95235000Y-110532200D01*
X95522400Y-110819600D02*
X95235000Y-110532200D01*
X73379800Y-111283900D02*
X88293900Y-111283900D01*
X104289700Y-81290000D02*
X104289700Y-81571400D01*
X86493100Y-82916100D02*
X84982000Y-81405000D01*
X70205200Y-108109300D02*
X73379800Y-111283900D01*
X84294300Y-80148600D02*
X76920400Y-80148600D01*
X88787100Y-110790700D02*
X94976500Y-110790700D01*
X84982000Y-81405000D02*
X84982000Y-80836300D01*
X67310000Y-106680000D02*
X68739300Y-108109300D01*
X111745000Y-109215000D02*
X110619700Y-109215000D01*
X88293900Y-111283900D02*
X88787100Y-110790700D01*
X84982000Y-80836300D02*
X84294300Y-80148600D01*
X104289700Y-81571400D02*
X102945000Y-82916100D01*
X105415000Y-81290000D02*
X104289700Y-81290000D01*
X68739300Y-108109300D02*
X70205200Y-108109300D01*
%TO.N,D1*%
X96358300Y-124327800D02*
X95210500Y-123180000D01*
X72698000Y-112068000D02*
X69850000Y-109220000D01*
X85976000Y-81193400D02*
X84480800Y-79698200D01*
X67210800Y-79698200D02*
X65900300Y-81008700D01*
X64775000Y-81290000D02*
X65900300Y-81290000D01*
X84869500Y-112435300D02*
X84502200Y-112068000D01*
X84502200Y-112068000D02*
X72698000Y-112068000D01*
X86700200Y-82415400D02*
X85976000Y-81691200D01*
X101600000Y-123190000D02*
X100474700Y-123190000D01*
X95255000Y-81290000D02*
X94129700Y-81290000D01*
X103587800Y-98177500D02*
X103587800Y-107044100D01*
X94129700Y-81571300D02*
X93285600Y-82415400D01*
X85976000Y-81691200D02*
X85976000Y-81193400D01*
X100474700Y-123190000D02*
X99336900Y-124327800D01*
X106665000Y-95100300D02*
X103587800Y-98177500D01*
X94129700Y-81290000D02*
X94129700Y-81571300D01*
X106665000Y-93975000D02*
X106665000Y-95100300D01*
X65900300Y-81008700D02*
X65900300Y-81290000D01*
X84480800Y-79698200D02*
X67210800Y-79698200D01*
X99336900Y-124327800D02*
X96358300Y-124327800D01*
X95210500Y-123180000D02*
X90160000Y-123180000D01*
X93285600Y-82415400D02*
X86700200Y-82415400D01*
%TO.N,Net-(U1-Pad1)*%
X76840600Y-108185900D02*
X76538900Y-108487600D01*
X76840600Y-103495400D02*
X76840600Y-108185900D01*
%TO.N,~{WR}*%
X83259300Y-123926700D02*
X83856500Y-124523900D01*
X74930000Y-130805000D02*
X73804700Y-130805000D01*
X68435300Y-130805000D02*
X73804700Y-130805000D01*
X66938000Y-74387500D02*
X65892700Y-74387500D01*
X57693200Y-95482500D02*
X60665300Y-95482500D01*
X67310000Y-130805000D02*
X68435300Y-130805000D01*
X60665300Y-95482500D02*
X61702800Y-96520000D01*
X83856500Y-124523900D02*
X94451700Y-124523900D01*
X64851300Y-75722900D02*
X62426000Y-75722900D01*
X65892700Y-74387500D02*
X65892700Y-74681500D01*
X67310000Y-123185000D02*
X68435300Y-123185000D01*
X61702800Y-96520000D02*
X62230000Y-96520000D01*
X94451700Y-124523900D02*
X96431000Y-126503200D01*
X74930000Y-123185000D02*
X73804700Y-123185000D01*
X73804700Y-123185000D02*
X68435300Y-123185000D01*
X62426000Y-75722900D02*
X62364100Y-75661000D01*
X62364100Y-75661000D02*
X60827600Y-75661000D01*
X65892700Y-74681500D02*
X64851300Y-75722900D01*
%TO.N,CA2*%
X97049900Y-85431000D02*
X98920400Y-87301500D01*
X70980300Y-81290000D02*
X70980300Y-81571300D01*
X69855000Y-81290000D02*
X70980300Y-81290000D01*
X70980300Y-81571300D02*
X71946800Y-82537800D01*
X71946800Y-82537800D02*
X84275000Y-82537800D01*
X96505000Y-93975000D02*
X96505000Y-97369200D01*
X87168200Y-85431000D02*
X97049900Y-85431000D01*
X84275000Y-82537800D02*
X87168200Y-85431000D01*
X96505000Y-97369200D02*
X97353500Y-98217700D01*
%TO.N,CA4*%
X82178000Y-71134300D02*
X81484700Y-71827600D01*
X91425000Y-93975000D02*
X87485300Y-90035300D01*
X82178000Y-60472800D02*
X82178000Y-71134300D01*
X87485300Y-90035300D02*
X79444200Y-90035300D01*
X77475000Y-88910000D02*
X78600300Y-88910000D01*
X78600300Y-89191400D02*
X78600300Y-88910000D01*
X79444200Y-90035300D02*
X78600300Y-89191400D01*
X82178000Y-59147500D02*
X82178000Y-60472800D01*
%TO.N,CA1*%
X68440300Y-81571300D02*
X68440300Y-81290000D01*
X67315000Y-81290000D02*
X68440300Y-81290000D01*
X84216400Y-83116100D02*
X69985100Y-83116100D01*
X80908000Y-58640100D02*
X80908000Y-59797700D01*
X87714800Y-57815600D02*
X81732500Y-57815600D01*
X87231800Y-86131500D02*
X84216400Y-83116100D01*
X81732500Y-57815600D02*
X80908000Y-58640100D01*
X80908000Y-59797700D02*
X70655600Y-70050100D01*
X99045000Y-88510100D02*
X96666400Y-86131500D01*
X70655600Y-70050100D02*
X70655600Y-75017100D01*
X99045000Y-93975000D02*
X99045000Y-88510100D01*
X88752700Y-59147500D02*
X88752700Y-58853500D01*
X70655600Y-75017100D02*
X68286000Y-77386700D01*
X88752700Y-58853500D02*
X87714800Y-57815600D01*
X89798000Y-59147500D02*
X88752700Y-59147500D01*
X69985100Y-83116100D02*
X68440300Y-81571300D01*
X68286000Y-77386700D02*
X67442300Y-77386700D01*
X96666400Y-86131500D02*
X87231800Y-86131500D01*
%TO.N,CA3*%
X84718000Y-60472800D02*
X83468500Y-61722300D01*
X83468500Y-61722300D02*
X83468500Y-71499200D01*
X84718000Y-59147500D02*
X84718000Y-60472800D01*
X81015700Y-101385600D02*
X72604400Y-101385600D01*
X72604400Y-101385600D02*
X72390000Y-101600000D01*
%TO.N,CA0*%
X84393400Y-78562400D02*
X84449700Y-78506100D01*
X100459700Y-93975000D02*
X100459700Y-94256300D01*
X101585000Y-93975000D02*
X100459700Y-93975000D01*
X59695000Y-81290000D02*
X58569600Y-82415400D01*
X99031200Y-95684800D02*
X98438700Y-95684800D01*
X100459700Y-94256300D02*
X99031200Y-95684800D01*
X56029600Y-80291200D02*
X57758400Y-78562400D01*
X58569600Y-82415400D02*
X56181900Y-82415400D01*
X56029600Y-82263100D02*
X56029600Y-80291200D01*
X57758400Y-78562400D02*
X84393400Y-78562400D01*
X56181900Y-82415400D02*
X56029600Y-82263100D01*
%TO.N,CA10*%
X66687800Y-105177500D02*
X75266100Y-105177500D01*
X65870100Y-105394300D02*
X66471000Y-105394300D01*
X96815500Y-76440500D02*
X89311000Y-76440500D01*
X100335000Y-79960000D02*
X96815500Y-76440500D01*
X66471000Y-105394300D02*
X66687800Y-105177500D01*
X100335000Y-81290000D02*
X100335000Y-80164700D01*
X59690000Y-104140000D02*
X60727500Y-105177500D01*
X89311000Y-76440500D02*
X87258000Y-74387500D01*
X100335000Y-80164700D02*
X100335000Y-79960000D01*
X65653300Y-105177500D02*
X65870100Y-105394300D01*
X60727500Y-105177500D02*
X65653300Y-105177500D01*
X75266100Y-105177500D02*
X76114800Y-106026200D01*
%TO.N,CA12*%
X91322200Y-72248100D02*
X104449200Y-72248100D01*
X107955000Y-88910000D02*
X107955000Y-87784700D01*
X76552300Y-93980000D02*
X77682700Y-92849600D01*
X73063300Y-59147500D02*
X73063300Y-58853500D01*
X73063300Y-58853500D02*
X74591000Y-57325800D01*
X79663200Y-92849600D02*
X80139700Y-93326100D01*
X77682700Y-92849600D02*
X79663200Y-92849600D01*
X112624700Y-80423600D02*
X112624700Y-83115000D01*
X89777900Y-57325800D02*
X91068000Y-58615900D01*
X74591000Y-57325800D02*
X89777900Y-57325800D01*
X91068000Y-58615900D02*
X91068000Y-71993900D01*
X80139700Y-93326100D02*
X80139700Y-93975000D01*
X91068000Y-71993900D02*
X91322200Y-72248100D01*
X81265000Y-93975000D02*
X80139700Y-93975000D01*
X104449200Y-72248100D02*
X112624700Y-80423600D01*
X112624700Y-83115000D02*
X107955000Y-87784700D01*
X72018000Y-59147500D02*
X73063300Y-59147500D01*
X69850000Y-93980000D02*
X76552300Y-93980000D01*
%TO.N,CA9*%
X86916600Y-78981400D02*
X84777700Y-76842500D01*
X87759700Y-109215000D02*
X87759700Y-109457500D01*
X87759700Y-109457500D02*
X86842400Y-110374800D01*
X82566900Y-103270100D02*
X81182500Y-103270100D01*
X86842400Y-110374800D02*
X83327400Y-110374800D01*
X81182500Y-103270100D02*
X79923400Y-102011000D01*
X83327400Y-110374800D02*
X82566900Y-109614300D01*
X82844300Y-76842500D02*
X80683300Y-74681500D01*
X64421600Y-101600000D02*
X62230000Y-101600000D01*
X88885000Y-109215000D02*
X87759700Y-109215000D01*
X84777700Y-76842500D02*
X82844300Y-76842500D01*
X82566900Y-109614300D02*
X82566900Y-103270100D01*
X65474500Y-102652900D02*
X64421600Y-101600000D01*
X73715100Y-102011000D02*
X73073200Y-102652900D01*
X79638000Y-74387500D02*
X80683300Y-74387500D01*
X97795000Y-81290000D02*
X96669700Y-81290000D01*
X96669700Y-81290000D02*
X96669700Y-81085700D01*
X96669700Y-81085700D02*
X94565400Y-78981400D01*
X80683300Y-74681500D02*
X80683300Y-74387500D01*
X94565400Y-78981400D02*
X86916600Y-78981400D01*
X79923400Y-102011000D02*
X73715100Y-102011000D01*
X73073200Y-102652900D02*
X65474500Y-102652900D01*
%TO.N,CA11*%
X76453200Y-102765300D02*
X79531200Y-102765300D01*
X86828100Y-78256000D02*
X83223300Y-74651200D01*
X101605000Y-81665200D02*
X100854800Y-82415400D01*
X106829700Y-81290000D02*
X106829700Y-81008600D01*
X59690000Y-101600000D02*
X60742900Y-102652900D01*
X76115200Y-103103300D02*
X76453200Y-102765300D01*
X91425000Y-109215000D02*
X90299700Y-109215000D01*
X83223300Y-74651200D02*
X83223300Y-74387500D01*
X88107400Y-110833500D02*
X81236000Y-110833500D01*
X96358500Y-78256000D02*
X88761600Y-78256000D01*
X81236000Y-110833500D02*
X79995000Y-109592500D01*
X99834200Y-82415400D02*
X99065000Y-81646200D01*
X79995000Y-103229100D02*
X79531200Y-102765300D01*
X82178000Y-74387500D02*
X83223300Y-74387500D01*
X99065000Y-80962500D02*
X96358500Y-78256000D01*
X102355100Y-80164700D02*
X101605000Y-80914800D01*
X99065000Y-81646200D02*
X99065000Y-80962500D01*
X64814600Y-103103300D02*
X76115200Y-103103300D01*
X88761600Y-78256000D02*
X86828100Y-78256000D01*
X101605000Y-80914800D02*
X101605000Y-81665200D01*
X90299700Y-109215000D02*
X90299700Y-109496400D01*
X64364200Y-102652900D02*
X64814600Y-103103300D01*
X88600600Y-110340300D02*
X88107400Y-110833500D01*
X106829700Y-81008600D02*
X105985800Y-80164700D01*
X100854800Y-82415400D02*
X99834200Y-82415400D01*
X107955000Y-81290000D02*
X106829700Y-81290000D01*
X79995000Y-109592500D02*
X79995000Y-103229100D01*
X60742900Y-102652900D02*
X64364200Y-102652900D01*
X89455800Y-110340300D02*
X88600600Y-110340300D01*
X90299700Y-109496400D02*
X89455800Y-110340300D01*
X105985800Y-80164700D02*
X102355100Y-80164700D01*
%TO.N,CA8*%
X89049700Y-81290000D02*
X89049700Y-80586600D01*
X59690000Y-99060000D02*
X60743100Y-98006900D01*
X67434800Y-100123000D02*
X67461200Y-100096600D01*
X88627800Y-80164700D02*
X87398200Y-80164700D01*
X86345000Y-109215000D02*
X86345000Y-104317400D01*
X78143300Y-74681500D02*
X78143300Y-74387500D01*
X81859400Y-100096600D02*
X81991800Y-99964200D01*
X67461200Y-100096600D02*
X81859400Y-100096600D01*
X87398200Y-80164700D02*
X84611000Y-77377500D01*
X60743100Y-98006900D02*
X64717800Y-98006900D01*
X77098000Y-74387500D02*
X78143300Y-74387500D01*
X90175000Y-81290000D02*
X89049700Y-81290000D01*
X64717800Y-98006900D02*
X66833900Y-100123000D01*
X86345000Y-104317400D02*
X81991800Y-99964200D01*
X89049700Y-80586600D02*
X88627800Y-80164700D01*
X84611000Y-77377500D02*
X80839300Y-77377500D01*
X66833900Y-100123000D02*
X67434800Y-100123000D01*
X80839300Y-77377500D02*
X78143300Y-74681500D01*
%TO.N,CA14*%
X94545900Y-86581900D02*
X96669700Y-88705700D01*
X81592900Y-84241300D02*
X81592900Y-84228800D01*
X96669700Y-88705700D02*
X96669700Y-88910000D01*
X84702100Y-84241300D02*
X87042700Y-86581900D01*
X81592900Y-84241300D02*
X84702100Y-84241300D01*
X71193000Y-84241300D02*
X65284000Y-84241300D01*
X87042700Y-86581900D02*
X94545900Y-86581900D01*
X97795000Y-88910000D02*
X96669700Y-88910000D01*
X81592900Y-84241300D02*
X71193000Y-84241300D01*
X65284000Y-84241300D02*
X62879500Y-86645800D01*
%TO.N,CA13*%
X76658600Y-73059600D02*
X85185500Y-73059600D01*
X83805000Y-103149100D02*
X83805000Y-103197800D01*
X63743300Y-100573300D02*
X67621400Y-100573300D01*
X85988000Y-74966500D02*
X88552200Y-77530700D01*
X83805000Y-103197800D02*
X84159000Y-103197800D01*
X96879900Y-77530700D02*
X99209600Y-79860400D01*
X75603300Y-74387500D02*
X75603300Y-74114900D01*
X75603300Y-74114900D02*
X76658600Y-73059600D01*
X88552200Y-77530700D02*
X96879900Y-77530700D01*
X67631300Y-100563400D02*
X81219300Y-100563400D01*
X85185500Y-73059600D02*
X85988000Y-73862100D01*
X83805000Y-109215000D02*
X83805000Y-103197800D01*
X74558000Y-74387500D02*
X75603300Y-74387500D01*
X62230000Y-99060000D02*
X63743300Y-100573300D01*
X81219300Y-100563400D02*
X83805000Y-103149100D01*
X85988000Y-73862100D02*
X85988000Y-74966500D01*
X67621400Y-100573300D02*
X67631300Y-100563400D01*
%TO.N,CA5*%
X71824200Y-90035300D02*
X73740300Y-90035300D01*
X86180100Y-95835900D02*
X74478300Y-95835900D01*
X88885000Y-93975000D02*
X87759700Y-93975000D01*
X70980300Y-89191400D02*
X71824200Y-90035300D01*
X70980300Y-88910000D02*
X70980300Y-89191400D01*
X87759700Y-93975000D02*
X87759700Y-94256300D01*
X69855000Y-88910000D02*
X70980300Y-88910000D01*
X87759700Y-94256300D02*
X86180100Y-95835900D01*
X73740300Y-90035300D02*
X74435800Y-90730800D01*
%TO.N,CA7*%
X82679700Y-94256400D02*
X81835800Y-95100300D01*
X73809700Y-95100300D02*
X72390000Y-96520000D01*
X74558000Y-59147500D02*
X74558000Y-60472800D01*
X74558000Y-60472800D02*
X60089800Y-74941000D01*
X59695000Y-88910000D02*
X60820300Y-88910000D01*
X60820300Y-88910000D02*
X60820300Y-89102800D01*
X81835800Y-95100300D02*
X73809700Y-95100300D01*
X82679700Y-93975000D02*
X82679700Y-94256400D01*
X60089800Y-74941000D02*
X60089800Y-76936400D01*
X60820300Y-89102800D02*
X62540300Y-90822800D01*
X83805000Y-93975000D02*
X82679700Y-93975000D01*
X62540300Y-90822800D02*
X73287600Y-90822800D01*
%TO.N,CA6*%
X68805600Y-93548500D02*
X69434800Y-92919300D01*
X76968000Y-92399300D02*
X83925300Y-92399300D01*
X76448000Y-92919300D02*
X76968000Y-92399300D01*
X69434800Y-92919300D02*
X76448000Y-92919300D01*
X85219700Y-93693700D02*
X85219700Y-93975000D01*
X69850000Y-96520000D02*
X68805600Y-95475600D01*
X83925300Y-92399300D02*
X85219700Y-93693700D01*
X86345000Y-93975000D02*
X85219700Y-93975000D01*
X68805600Y-95475600D02*
X68805600Y-93548500D01*
%TO.N,CA15*%
X68355200Y-93362000D02*
X69268400Y-92448800D01*
X76581100Y-91949000D02*
X87461500Y-91949000D01*
X63309600Y-65315900D02*
X69478000Y-59147500D01*
X87461500Y-91949000D02*
X87703000Y-92190500D01*
X67310000Y-96520000D02*
X68355200Y-95474800D01*
X68355200Y-95474800D02*
X68355200Y-93362000D01*
X63309600Y-70208700D02*
X63309600Y-65315900D01*
X69268400Y-92448800D02*
X76081300Y-92448800D01*
X76081300Y-92448800D02*
X76581100Y-91949000D01*
%TO.N,Net-(U1-Pad4)*%
X109369700Y-89630300D02*
X105395000Y-93605000D01*
X105395000Y-94308300D02*
X103847600Y-95855700D01*
X109369700Y-88910000D02*
X109369700Y-89630300D01*
X93669100Y-116963600D02*
X95832000Y-114800700D01*
X105395000Y-93605000D02*
X105395000Y-94308300D01*
X84023600Y-116963600D02*
X93669100Y-116963600D01*
X103847600Y-95855700D02*
X103085000Y-95855700D01*
X110495000Y-88910000D02*
X109369700Y-88910000D01*
X80152100Y-120835100D02*
X84023600Y-116963600D01*
%TO.N,SO6*%
X65059400Y-132219700D02*
X66184700Y-133345000D01*
X45710000Y-114656200D02*
X55508800Y-124455000D01*
X57604000Y-125832900D02*
X57604000Y-126506500D01*
X57604000Y-126506500D02*
X63317200Y-132219700D01*
X55508800Y-124455000D02*
X56226100Y-124455000D01*
X56226100Y-124455000D02*
X57604000Y-125832900D01*
X45710000Y-110480000D02*
X45710000Y-114656200D01*
X67310000Y-133345000D02*
X66184700Y-133345000D01*
X63317200Y-132219700D02*
X65059400Y-132219700D01*
%TO.N,Net-(U1-Pad13)*%
X67310000Y-120645000D02*
X68435300Y-120645000D01*
X69810700Y-122020400D02*
X75921000Y-122020400D01*
X78372700Y-124472100D02*
X79292100Y-124472100D01*
X68435300Y-120645000D02*
X69810700Y-122020400D01*
X75921000Y-122020400D02*
X78372700Y-124472100D01*
X109220000Y-130810000D02*
X108094700Y-130810000D01*
X106690700Y-129406000D02*
X108094700Y-130810000D01*
X84226000Y-129406000D02*
X106690700Y-129406000D01*
X79292100Y-124472100D02*
X84226000Y-129406000D01*
%TO.N,Net-(D2-Pad2)*%
X118110000Y-64516000D02*
X118110000Y-63390700D01*
X118110000Y-63390700D02*
X120899000Y-60601700D01*
X120899000Y-60601700D02*
X120899000Y-57150000D01*
%TO.N,Net-(R1-Pad1)*%
X97780000Y-120640000D02*
X98905300Y-120640000D01*
X118854500Y-109830100D02*
X111989200Y-116695400D01*
X100054700Y-121789400D02*
X98905300Y-120640000D01*
X103790100Y-121789400D02*
X100054700Y-121789400D01*
X108884100Y-116695400D02*
X103790100Y-121789400D01*
X111989200Y-116695400D02*
X108884100Y-116695400D01*
%TO.N,Net-(R2-Pad1)*%
X110619600Y-92043300D02*
X110619600Y-94657100D01*
X118110000Y-72136000D02*
X114444600Y-75801400D01*
X114444600Y-88218300D02*
X110619600Y-92043300D01*
X110619600Y-94657100D02*
X105470600Y-99806100D01*
X105470600Y-99806100D02*
X104337200Y-99806100D01*
X114444600Y-75801400D02*
X114444600Y-88218300D01*
%TO.N,Net-(U2-Pad2)*%
X80875500Y-122646800D02*
X81483600Y-123254900D01*
X82629800Y-123254900D02*
X85234700Y-120650000D01*
X86360000Y-120650000D02*
X85234700Y-120650000D01*
X65931800Y-129571500D02*
X73441300Y-129571500D01*
X81483600Y-123254900D02*
X82629800Y-123254900D01*
X64625300Y-128265000D02*
X65931800Y-129571500D01*
X63500000Y-128265000D02*
X64625300Y-128265000D01*
%TO.N,SO5*%
X88752700Y-74093500D02*
X87212200Y-72553000D01*
X73151900Y-75074200D02*
X70114000Y-78112100D01*
X74576900Y-72553000D02*
X73151900Y-73978000D01*
X70114000Y-78112100D02*
X54922800Y-78112100D01*
X44495000Y-88539900D02*
X44495000Y-105881000D01*
X45428700Y-106814700D02*
X45710000Y-106814700D01*
X54922800Y-78112100D02*
X44495000Y-88539900D01*
X88752700Y-74387500D02*
X88752700Y-74093500D01*
X44495000Y-105881000D02*
X45428700Y-106814700D01*
X73151900Y-73978000D02*
X73151900Y-75074200D01*
X87212200Y-72553000D02*
X74576900Y-72553000D01*
X89798000Y-74387500D02*
X88752700Y-74387500D01*
X45710000Y-107940000D02*
X45710000Y-106814700D01*
%TO.N,SO4*%
X99045000Y-109215000D02*
X97919700Y-109215000D01*
X61297100Y-95257400D02*
X65426300Y-95257400D01*
X45710000Y-104274700D02*
X45991400Y-104274700D01*
X60144100Y-94104400D02*
X61297100Y-95257400D01*
X86559100Y-97573100D02*
X97919700Y-108933700D01*
X65837200Y-96618100D02*
X66792200Y-97573100D01*
X97919700Y-108933700D02*
X97919700Y-109215000D01*
X65837200Y-95668300D02*
X65837200Y-96618100D01*
X65426300Y-95257400D02*
X65837200Y-95668300D01*
X46835300Y-103430800D02*
X46835300Y-100140500D01*
X46835300Y-100140500D02*
X52871400Y-94104400D01*
X45991400Y-104274700D02*
X46835300Y-103430800D01*
X52871400Y-94104400D02*
X60144100Y-94104400D01*
X45710000Y-105400000D02*
X45710000Y-104274700D01*
X66792200Y-97573100D02*
X86559100Y-97573100D01*
%TO.N,SO2*%
X62230000Y-106680000D02*
X61179200Y-107730800D01*
X61179200Y-107730800D02*
X57750400Y-107730800D01*
X57750400Y-107730800D02*
X54102400Y-104082800D01*
%TO.N,CA17*%
X69478000Y-74387500D02*
X68432700Y-74387500D01*
X109220000Y-123190000D02*
X109462400Y-123190000D01*
X68432700Y-74387500D02*
X68432700Y-74681500D01*
X68432700Y-74681500D02*
X66727900Y-76386300D01*
X66727900Y-76386300D02*
X62063600Y-76386300D01*
X109462400Y-123190000D02*
X117574200Y-115078200D01*
%TO.N,CA16*%
X66938000Y-59147500D02*
X67983300Y-59147500D01*
X93448700Y-59571900D02*
X93448700Y-58496900D01*
X91827300Y-56875500D02*
X69961300Y-56875500D01*
X113133700Y-79256900D02*
X93448700Y-59571900D01*
X90155000Y-93587100D02*
X90155000Y-94322700D01*
X76429000Y-91464100D02*
X88032000Y-91464100D01*
X107861100Y-96350300D02*
X107861100Y-93150100D01*
X67310000Y-93770300D02*
X69081800Y-91998500D01*
X69961300Y-56875500D02*
X67983300Y-58853500D01*
X69081800Y-91998500D02*
X75894600Y-91998500D01*
X105517900Y-98693500D02*
X107861100Y-96350300D01*
X107861100Y-93150100D02*
X113133700Y-87877500D01*
X99858700Y-104026400D02*
X100836600Y-104026400D01*
X75894600Y-91998500D02*
X76429000Y-91464100D01*
X67310000Y-93980000D02*
X67310000Y-93770300D01*
X113133700Y-87877500D02*
X113133700Y-79256900D01*
X88032000Y-91464100D02*
X90155000Y-93587100D01*
X93448700Y-58496900D02*
X91827300Y-56875500D01*
X90155000Y-94322700D02*
X99858700Y-104026400D01*
X67983300Y-58853500D02*
X67983300Y-59147500D01*
%TO.N,CA18*%
X56621600Y-95745000D02*
X58433100Y-97556500D01*
X64770000Y-96520000D02*
X63733500Y-96520000D01*
X109220000Y-125730000D02*
X109220000Y-124604700D01*
X62697000Y-97556500D02*
X63733500Y-96520000D01*
X58433100Y-97556500D02*
X62697000Y-97556500D01*
X121693200Y-100980300D02*
X121693200Y-112412800D01*
X121693200Y-112412800D02*
X109501300Y-124604700D01*
X109501300Y-124604700D02*
X109220000Y-124604700D01*
%TO.N,Net-(U3-Pad6)*%
X63218700Y-129679700D02*
X60583800Y-127044800D01*
X55988900Y-116591800D02*
X55909300Y-116591800D01*
X60583800Y-121186700D02*
X55988900Y-116591800D01*
X63500000Y-129679700D02*
X63218700Y-129679700D01*
X60583800Y-127044800D02*
X60583800Y-121186700D01*
X55909300Y-116591800D02*
X50555900Y-111238400D01*
X63500000Y-130805000D02*
X63500000Y-129679700D01*
X50555900Y-111238400D02*
X50555900Y-108900600D01*
%TO.N,Net-(U2-Pad4)*%
X69728000Y-116529300D02*
X72669200Y-119470500D01*
X79080300Y-121920000D02*
X82890300Y-125730000D01*
X64625300Y-117748900D02*
X65844900Y-116529300D01*
X63500000Y-118105000D02*
X64625300Y-118105000D01*
X64625300Y-118105000D02*
X64625300Y-117748900D01*
X75356000Y-119470500D02*
X77805500Y-121920000D01*
X77805500Y-121920000D02*
X79080300Y-121920000D01*
X72669200Y-119470500D02*
X75356000Y-119470500D01*
X82890300Y-125730000D02*
X86360000Y-125730000D01*
X65844900Y-116529300D02*
X69728000Y-116529300D01*
%TO.N,Net-(U1-Pad10)*%
X81688800Y-129466000D02*
X84194000Y-131971200D01*
X67310000Y-128265000D02*
X68435300Y-128265000D01*
X74375100Y-129466000D02*
X81688800Y-129466000D01*
X97780000Y-130800000D02*
X96654700Y-130800000D01*
X73624500Y-128715400D02*
X74375100Y-129466000D01*
X95483500Y-131971200D02*
X96654700Y-130800000D01*
X68435300Y-128265000D02*
X68885700Y-128715400D01*
X84194000Y-131971200D02*
X95483500Y-131971200D01*
X68885700Y-128715400D02*
X73624500Y-128715400D01*
%TO.N,Net-(U1-Pad5)*%
X61193100Y-122491200D02*
X61193100Y-121159100D01*
X64428400Y-124455000D02*
X63156900Y-124455000D01*
X73804700Y-128265000D02*
X70411900Y-128265000D01*
X51285800Y-103695600D02*
X49618900Y-102028700D01*
X55936600Y-115982200D02*
X51285800Y-111331400D01*
X69141900Y-126995000D02*
X66968400Y-126995000D01*
X70411900Y-128265000D02*
X69141900Y-126995000D01*
X51285800Y-111331400D02*
X51285800Y-103695600D01*
X66968400Y-126995000D02*
X64428400Y-124455000D01*
X61193100Y-121159100D02*
X56016200Y-115982200D01*
X63156900Y-124455000D02*
X61193100Y-122491200D01*
X74930000Y-128265000D02*
X73804700Y-128265000D01*
X56016200Y-115982200D02*
X55936600Y-115982200D01*
%TO.N,Net-(U1-Pad2)*%
X66420300Y-116979600D02*
X65456000Y-117943900D01*
X73804700Y-120645000D02*
X73650300Y-120490600D01*
X73052400Y-120490600D02*
X69541400Y-116979600D01*
X69541400Y-116979600D02*
X66420300Y-116979600D01*
X73650300Y-120490600D02*
X73052400Y-120490600D01*
X74930000Y-120645000D02*
X73804700Y-120645000D01*
%TO.N,Net-(U2-Pad6)*%
X51754400Y-111163100D02*
X51754400Y-102739500D01*
X51754400Y-102739500D02*
X53048600Y-101445300D01*
X86360000Y-130810000D02*
X84157700Y-130810000D01*
X70378300Y-126995000D02*
X67838300Y-124455000D01*
X53330000Y-100320000D02*
X53330000Y-101445300D01*
X56202800Y-115531900D02*
X56123200Y-115531900D01*
X64283800Y-121770400D02*
X62441300Y-121770400D01*
X56123200Y-115531900D02*
X51754400Y-111163100D01*
X66968400Y-124455000D02*
X64283800Y-121770400D01*
X80342700Y-126995000D02*
X70378300Y-126995000D01*
X53048600Y-101445300D02*
X53330000Y-101445300D01*
X67838300Y-124455000D02*
X66968400Y-124455000D01*
X84157700Y-130810000D02*
X80342700Y-126995000D01*
X62441300Y-121770400D02*
X56202800Y-115531900D01*
%TO.N,Net-(U2-Pad8)*%
X86154800Y-121775400D02*
X84773900Y-123156300D01*
X100474700Y-118110000D02*
X99323300Y-116958600D01*
X94772100Y-116958600D02*
X92360700Y-119370000D01*
X101600000Y-118110000D02*
X100474700Y-118110000D01*
X99323300Y-116958600D02*
X94772100Y-116958600D01*
X92360700Y-119370000D02*
X89828300Y-119370000D01*
X84773900Y-123156300D02*
X84773900Y-123287800D01*
X89828300Y-119370000D02*
X87422900Y-121775400D01*
X87422900Y-121775400D02*
X86154800Y-121775400D01*
%TO.N,Net-(U2-Pad10)*%
X90160000Y-118100000D02*
X89034700Y-118100000D01*
X85293100Y-119524600D02*
X87610100Y-119524600D01*
X82288100Y-122529600D02*
X85293100Y-119524600D01*
X87610100Y-119524600D02*
X89034700Y-118100000D01*
%TD*%
M02*
