M48
; DRILL file {KiCad (6.0.9)} date Sun Oct 29 11:26:54 2023
; FORMAT={-:-/ absolute / inch / decimal}
; #@! TF.CreationDate,2023-10-29T11:26:54+01:00
; #@! TF.GenerationSoftware,Kicad,Pcbnew,(6.0.9)
; #@! TF.FileFunction,Plated,1,2,PTH
FMAT,2
INCH
; #@! TA.AperFunction,Plated,PTH,ViaDrill
T1C0.0157
; #@! TA.AperFunction,Plated,PTH,ComponentDrill
T2C0.0315
; #@! TA.AperFunction,Plated,PTH,ComponentDrill
T3C0.0354
; #@! TA.AperFunction,Plated,PTH,ComponentDrill
T4C0.0394
%
G90
G05
T1
X1.7814Y-3.5039
X1.9535Y-4.0169
X1.9904Y-4.2874
X2.0657Y-5.2973
X2.13Y-4.0977
X2.2292Y-3.7695
X2.2714Y-3.7592
X2.3549Y-5.3716
X2.3657Y-3.029
X2.3948Y-2.9788
X2.4143Y-5.3751
X2.4178Y-4.6489
X2.4434Y-3.0073
X2.4444Y-3.0467
X2.452Y-4.462
X2.4557Y-5.3663
X2.4756Y-3.4113
X2.4925Y-2.7641
X2.5653Y-5.1327
X2.577Y-4.6435
X2.5984Y-5.341
X2.6051Y-4.1208
X2.6431Y-3.9133
X2.6552Y-3.0467
X2.7197Y-4.901
X2.8029Y-3.3166
X2.8823Y-4.7754
X2.8853Y-3.5757
X2.8878Y-4.3394
X2.8895Y-5.2042
X2.8914Y-5.1012
X2.9298Y-5.324
X2.9305Y-3.5721
X2.9322Y-3.7731
X2.9426Y-4.4435
X2.9798Y-3.8064
X2.9966Y-4.1743
X3.0133Y-4.2712
X3.0252Y-4.0746
X3.0466Y-4.5913
X3.0538Y-3.8712
X3.1311Y-4.0459
X3.1556Y-4.7573
X3.1672Y-5.3741
X3.1841Y-4.8286
X3.1896Y-3.9916
X3.1979Y-5.2267
X3.2081Y-2.8279
X3.2123Y-3.3161
X3.228Y-3.9356
X3.2397Y-4.824
X3.2507Y-4.0658
X3.2779Y-4.879
X3.2862Y-2.8149
X3.3133Y-4.0629
X3.3161Y-2.7863
X3.3248Y-3.0908
X3.3376Y-4.8539
X3.3413Y-4.4266
X3.4529Y-3.6295
X3.4946Y-3.0809
X3.5518Y-5.3608
X3.5954Y-2.8444
X3.6822Y-3.3168
X3.7494Y-4.3517
X3.7729Y-4.5197
X3.7965Y-4.9804
X3.8328Y-3.8668
X3.8755Y-3.7671
X3.8879Y-3.895
X3.8945Y-3.4371
X3.9059Y-3.1441
X3.9699Y-4.0955
X4.0585Y-3.7738
X4.0783Y-4.2143
X4.1078Y-3.9294
X4.1542Y-3.8856
X4.6289Y-4.5306
X4.6793Y-4.324
X4.7911Y-3.9756
T2
X1.7996Y-3.6496
X1.7996Y-3.7496
X1.7996Y-3.8496
X1.7996Y-3.9496
X1.7996Y-4.0496
X1.7996Y-4.1496
X1.7996Y-4.2496
X1.7996Y-4.3496
X1.9157Y-3.5148
X1.95Y-2.5266
X1.95Y-2.7234
X2.0996Y-3.6496
X2.0996Y-3.7496
X2.0996Y-3.8496
X2.0996Y-3.9496
X2.0996Y-4.0496
X2.0996Y-4.1496
X2.0996Y-4.2496
X2.0996Y-4.3496
X2.1Y-3.2004
X2.1Y-3.3972
X2.1126Y-3.5148
X2.2Y-4.6498
X2.2Y-4.7498
X2.2Y-4.8498
X2.2Y-4.9498
X2.2Y-5.0498
X2.2Y-5.1498
X2.2Y-5.2498
X2.2502Y-3.2004
X2.2502Y-3.5004
X2.3031Y-4.5
X2.35Y-3.8
X2.35Y-3.9
X2.35Y-4.0
X2.35Y-4.1
X2.35Y-4.2
X2.3502Y-3.2004
X2.3502Y-3.5004
X2.45Y-3.7
X2.45Y-3.8
X2.45Y-3.9
X2.45Y-4.0
X2.45Y-4.1
X2.45Y-4.2
X2.45Y-4.3
X2.4502Y-3.2004
X2.4502Y-3.5004
X2.5Y-4.5
X2.5Y-4.6498
X2.5Y-4.7498
X2.5Y-4.8498
X2.5Y-4.9498
X2.5Y-5.0498
X2.5Y-5.1498
X2.5Y-5.2498
X2.55Y-3.7
X2.55Y-3.8
X2.55Y-4.2
X2.55Y-4.3
X2.5502Y-3.2004
X2.5502Y-3.5004
X2.65Y-3.7
X2.65Y-3.8
X2.65Y-4.2
X2.65Y-4.3
X2.65Y-4.6498
X2.65Y-4.7498
X2.65Y-4.8498
X2.65Y-4.9498
X2.65Y-5.0498
X2.65Y-5.1498
X2.65Y-5.2498
X2.6502Y-3.2004
X2.6502Y-3.5004
X2.75Y-3.7
X2.75Y-3.8
X2.75Y-3.9
X2.75Y-4.0
X2.75Y-4.1
X2.75Y-4.2
X2.75Y-4.3
X2.7502Y-3.2004
X2.7502Y-3.5004
X2.7531Y-4.5
X2.85Y-3.8
X2.85Y-3.9
X2.85Y-4.0
X2.85Y-4.1
X2.85Y-4.2
X2.8502Y-3.2004
X2.8502Y-3.5004
X2.95Y-4.5
X2.95Y-4.6498
X2.95Y-4.7498
X2.95Y-4.8498
X2.95Y-4.9498
X2.95Y-5.0498
X2.95Y-5.1498
X2.95Y-5.2498
X2.9502Y-3.2004
X2.9502Y-3.5004
X3.0502Y-3.2004
X3.0502Y-3.5004
X3.0994Y-3.6998
X3.0994Y-4.2998
X3.1Y-4.65
X3.1Y-4.75
X3.1Y-4.85
X3.1Y-4.95
X3.1Y-5.05
X3.1Y-5.15
X3.1Y-5.25
X3.1502Y-3.2004
X3.1502Y-3.5004
X3.1994Y-3.6998
X3.1994Y-4.2998
X3.2031Y-4.5
X3.2994Y-3.6998
X3.2994Y-4.2998
X3.3Y-3.2
X3.3Y-3.3969
X3.3994Y-3.6998
X3.3994Y-4.2998
X3.4Y-4.5
X3.4Y-4.65
X3.4Y-4.75
X3.4Y-4.85
X3.4Y-4.95
X3.4Y-5.05
X3.4Y-5.15
X3.4Y-5.25
X3.4502Y-3.2004
X3.4502Y-3.5004
X3.4994Y-3.6998
X3.4994Y-4.2998
X3.5496Y-4.5496
X3.5496Y-4.6496
X3.5496Y-4.7496
X3.5496Y-4.8496
X3.5496Y-4.9496
X3.5496Y-5.0496
X3.5496Y-5.1496
X3.5496Y-5.2496
X3.5502Y-3.2004
X3.5502Y-3.5004
X3.5994Y-3.6998
X3.5994Y-4.2998
X3.6502Y-3.2004
X3.6502Y-3.5004
X3.6531Y-4.425
X3.6994Y-3.6998
X3.6994Y-4.2998
X3.7502Y-3.2004
X3.7502Y-3.5004
X3.7994Y-3.6998
X3.7994Y-4.2998
X3.8496Y-4.5496
X3.8496Y-4.6496
X3.8496Y-4.7496
X3.8496Y-4.8496
X3.8496Y-4.9496
X3.8496Y-5.0496
X3.8496Y-5.1496
X3.8496Y-5.2496
X3.85Y-4.425
X3.8502Y-3.2004
X3.8502Y-3.5004
X3.8994Y-3.6998
X3.8994Y-4.2998
X3.9502Y-3.2004
X3.9502Y-3.5004
X3.9994Y-3.6998
X3.9994Y-4.2998
X4.0Y-4.55
X4.0Y-4.65
X4.0Y-4.75
X4.0Y-4.85
X4.0Y-4.95
X4.0Y-5.05
X4.0Y-5.15
X4.0Y-5.25
X4.0502Y-3.2004
X4.0502Y-3.5004
X4.0994Y-3.6998
X4.0994Y-4.2998
X4.1031Y-4.425
X4.1502Y-3.2004
X4.1502Y-3.5004
X4.1994Y-3.6998
X4.1994Y-4.2998
X4.2502Y-3.2004
X4.2502Y-3.5004
X4.2994Y-3.6998
X4.2994Y-4.2998
X4.3Y-4.425
X4.3Y-4.55
X4.3Y-4.65
X4.3Y-4.75
X4.3Y-4.85
X4.3Y-4.95
X4.3Y-5.05
X4.3Y-5.15
X4.3Y-5.25
X4.3502Y-3.2004
X4.3502Y-3.5004
X4.3994Y-3.6998
X4.3994Y-4.2998
X4.47Y-2.54
X4.47Y-2.84
X4.55Y-3.25
X4.55Y-3.4469
X4.5716Y-3.69
X4.65Y-2.54
X4.65Y-2.84
X4.67Y-3.69
T3
X4.3698Y-2.25
X4.4698Y-2.25
X4.6598Y-2.25
X4.7598Y-2.25
T4
X2.5354Y-2.3286
X2.5354Y-2.9286
X2.6354Y-2.3286
X2.6354Y-2.9286
X2.7354Y-2.3286
X2.7354Y-2.9286
X2.8354Y-2.3286
X2.8354Y-2.9286
X2.9354Y-2.3286
X2.9354Y-2.9286
X3.0354Y-2.3286
X3.0354Y-2.9286
X3.1354Y-2.3286
X3.1354Y-2.9286
X3.2354Y-2.3286
X3.2354Y-2.9286
X3.3354Y-2.3286
X3.3354Y-2.9286
X3.4354Y-2.3286
X3.4354Y-2.9286
X3.5354Y-2.3286
X3.5354Y-2.9286
X3.6354Y-2.3286
X3.6354Y-2.9286
X3.7354Y-2.3286
X3.7354Y-2.9286
X3.8354Y-2.3286
X3.8354Y-2.9286
X3.9354Y-2.3286
X3.9354Y-2.9286
X4.0354Y-2.3286
X4.0354Y-2.9286
T0
M30
