%TF.GenerationSoftware,KiCad,Pcbnew,(6.0.9)*%
%TF.CreationDate,2023-10-11T10:49:30+02:00*%
%TF.ProjectId,p2000t-slot2-datacartridge,70323030-3074-42d7-936c-6f74322d6461,rev?*%
%TF.SameCoordinates,Original*%
%TF.FileFunction,Copper,L2,Bot*%
%TF.FilePolarity,Positive*%
%FSLAX46Y46*%
G04 Gerber Fmt 4.6, Leading zero omitted, Abs format (unit mm)*
G04 Created by KiCad (PCBNEW (6.0.9)) date 2023-10-11 10:49:30*
%MOMM*%
%LPD*%
G01*
G04 APERTURE LIST*
%TA.AperFunction,ComponentPad*%
%ADD10C,1.600000*%
%TD*%
%TA.AperFunction,ComponentPad*%
%ADD11R,1.600000X1.600000*%
%TD*%
%TA.AperFunction,ComponentPad*%
%ADD12O,1.600000X1.600000*%
%TD*%
%TA.AperFunction,ComponentPad*%
%ADD13R,1.440000X2.000000*%
%TD*%
%TA.AperFunction,ComponentPad*%
%ADD14O,1.440000X2.000000*%
%TD*%
%TA.AperFunction,ComponentPad*%
%ADD15R,1.422400X1.422400*%
%TD*%
%TA.AperFunction,ComponentPad*%
%ADD16C,1.422400*%
%TD*%
%TA.AperFunction,ComponentPad*%
%ADD17R,1.800000X1.800000*%
%TD*%
%TA.AperFunction,ComponentPad*%
%ADD18C,1.800000*%
%TD*%
%TA.AperFunction,SMDPad,CuDef*%
%ADD19R,2.000000X10.000000*%
%TD*%
%TA.AperFunction,ViaPad*%
%ADD20C,0.800000*%
%TD*%
%TA.AperFunction,Conductor*%
%ADD21C,0.250000*%
%TD*%
%TA.AperFunction,Conductor*%
%ADD22C,0.500000*%
%TD*%
G04 APERTURE END LIST*
D10*
%TO.P,C4,1*%
%TO.N,VCC*%
X104220000Y-112395000D03*
%TO.P,C4,2*%
%TO.N,GND*%
X109220000Y-112395000D03*
%TD*%
%TO.P,C10,1*%
%TO.N,VCC*%
X92790000Y-112395000D03*
%TO.P,C10,2*%
%TO.N,GND*%
X97790000Y-112395000D03*
%TD*%
%TO.P,C3,1*%
%TO.N,VCC*%
X81360000Y-114300000D03*
%TO.P,C3,2*%
%TO.N,GND*%
X86360000Y-114300000D03*
%TD*%
%TO.P,C2,1*%
%TO.N,VCC*%
X69930000Y-114300000D03*
%TO.P,C2,2*%
%TO.N,GND*%
X74930000Y-114300000D03*
%TD*%
%TO.P,C1,1*%
%TO.N,VCC*%
X58500000Y-114300000D03*
%TO.P,C1,2*%
%TO.N,GND*%
X63500000Y-114300000D03*
%TD*%
%TO.P,C6,1*%
%TO.N,VCC*%
X48660000Y-89275000D03*
%TO.P,C6,2*%
%TO.N,GND*%
X53660000Y-89275000D03*
%TD*%
%TO.P,C8,1*%
%TO.N,VCC*%
X115570000Y-82550000D03*
%TO.P,C8,2*%
%TO.N,GND*%
X115570000Y-87550000D03*
%TD*%
%TO.P,C7,1*%
%TO.N,VCC*%
X83820000Y-86280000D03*
%TO.P,C7,2*%
%TO.N,GND*%
X83820000Y-81280000D03*
%TD*%
%TO.P,C5,1*%
%TO.N,VCC*%
X53340000Y-86290000D03*
%TO.P,C5,2*%
%TO.N,GND*%
X53340000Y-81290000D03*
%TD*%
%TO.P,C9,1*%
%TO.N,VCC*%
X49530000Y-69175000D03*
%TO.P,C9,2*%
%TO.N,GND*%
X49530000Y-64175000D03*
%TD*%
D11*
%TO.P,U5,1,~{Mr}*%
%TO.N,~{RES}*%
X87635000Y-81290000D03*
D12*
%TO.P,U5,2,Q0*%
%TO.N,CA8*%
X90175000Y-81290000D03*
%TO.P,U5,3,D0*%
%TO.N,D0*%
X92715000Y-81290000D03*
%TO.P,U5,4,D1*%
%TO.N,D1*%
X95255000Y-81290000D03*
%TO.P,U5,5,Q1*%
%TO.N,CA9*%
X97795000Y-81290000D03*
%TO.P,U5,6,Q2*%
%TO.N,CA10*%
X100335000Y-81290000D03*
%TO.P,U5,7,D2*%
%TO.N,D2*%
X102875000Y-81290000D03*
%TO.P,U5,8,D3*%
%TO.N,D3*%
X105415000Y-81290000D03*
%TO.P,U5,9,Q3*%
%TO.N,CA11*%
X107955000Y-81290000D03*
%TO.P,U5,10,GND*%
%TO.N,GND*%
X110495000Y-81290000D03*
%TO.P,U5,11,Cp*%
%TO.N,Net-(U1-Pad4)*%
X110495000Y-88910000D03*
%TO.P,U5,12,Q4*%
%TO.N,CA12*%
X107955000Y-88910000D03*
%TO.P,U5,13,D4*%
%TO.N,D4*%
X105415000Y-88910000D03*
%TO.P,U5,14,D5*%
%TO.N,D5*%
X102875000Y-88910000D03*
%TO.P,U5,15,Q5*%
%TO.N,CA13*%
X100335000Y-88910000D03*
%TO.P,U5,16,Q6*%
%TO.N,CA14*%
X97795000Y-88910000D03*
%TO.P,U5,17,D6*%
%TO.N,D6*%
X95255000Y-88910000D03*
%TO.P,U5,18,D7*%
%TO.N,D7*%
X92715000Y-88910000D03*
%TO.P,U5,19,Q7*%
%TO.N,CA15*%
X90175000Y-88910000D03*
%TO.P,U5,20,VCC*%
%TO.N,VCC*%
X87635000Y-88910000D03*
%TD*%
D11*
%TO.P,U6,1,~{Mr}*%
%TO.N,~{RES}*%
X57155000Y-81290000D03*
D12*
%TO.P,U6,2,Q0*%
%TO.N,CA0*%
X59695000Y-81290000D03*
%TO.P,U6,3,D0*%
%TO.N,D0*%
X62235000Y-81290000D03*
%TO.P,U6,4,D1*%
%TO.N,D1*%
X64775000Y-81290000D03*
%TO.P,U6,5,Q1*%
%TO.N,CA1*%
X67315000Y-81290000D03*
%TO.P,U6,6,Q2*%
%TO.N,CA2*%
X69855000Y-81290000D03*
%TO.P,U6,7,D2*%
%TO.N,D2*%
X72395000Y-81290000D03*
%TO.P,U6,8,D3*%
%TO.N,D3*%
X74935000Y-81290000D03*
%TO.P,U6,9,Q3*%
%TO.N,CA3*%
X77475000Y-81290000D03*
%TO.P,U6,10,GND*%
%TO.N,GND*%
X80015000Y-81290000D03*
%TO.P,U6,11,Cp*%
%TO.N,Net-(U1-Pad1)*%
X80015000Y-88910000D03*
%TO.P,U6,12,Q4*%
%TO.N,CA4*%
X77475000Y-88910000D03*
%TO.P,U6,13,D4*%
%TO.N,D4*%
X74935000Y-88910000D03*
%TO.P,U6,14,D5*%
%TO.N,D5*%
X72395000Y-88910000D03*
%TO.P,U6,15,Q5*%
%TO.N,CA5*%
X69855000Y-88910000D03*
%TO.P,U6,16,Q6*%
%TO.N,CA6*%
X67315000Y-88910000D03*
%TO.P,U6,17,D6*%
%TO.N,D6*%
X64775000Y-88910000D03*
%TO.P,U6,18,D7*%
%TO.N,D7*%
X62235000Y-88910000D03*
%TO.P,U6,19,Q7*%
%TO.N,CA7*%
X59695000Y-88910000D03*
%TO.P,U6,20,VCC*%
%TO.N,VCC*%
X57155000Y-88910000D03*
%TD*%
D13*
%TO.P,U10,1,A18*%
%TO.N,CA18*%
X64398000Y-59147500D03*
D14*
%TO.P,U10,2,A16*%
%TO.N,CA16*%
X66938000Y-59147500D03*
%TO.P,U10,3,A15*%
%TO.N,CA15*%
X69478000Y-59147500D03*
%TO.P,U10,4,A12*%
%TO.N,CA12*%
X72018000Y-59147500D03*
%TO.P,U10,5,A7*%
%TO.N,CA7*%
X74558000Y-59147500D03*
%TO.P,U10,6,A6*%
%TO.N,CA6*%
X77098000Y-59147500D03*
%TO.P,U10,7,A5*%
%TO.N,CA5*%
X79638000Y-59147500D03*
%TO.P,U10,8,A4*%
%TO.N,CA4*%
X82178000Y-59147500D03*
%TO.P,U10,9,A3*%
%TO.N,CA3*%
X84718000Y-59147500D03*
%TO.P,U10,10,A2*%
%TO.N,CA2*%
X87258000Y-59147500D03*
%TO.P,U10,11,A1*%
%TO.N,CA1*%
X89798000Y-59147500D03*
%TO.P,U10,12,A0*%
%TO.N,CA0*%
X92338000Y-59147500D03*
%TO.P,U10,13,D0*%
%TO.N,D0*%
X94878000Y-59147500D03*
%TO.P,U10,14,D1*%
%TO.N,D1*%
X97418000Y-59147500D03*
%TO.P,U10,15,D2*%
%TO.N,D2*%
X99958000Y-59147500D03*
%TO.P,U10,16,GND*%
%TO.N,GND*%
X102498000Y-59147500D03*
%TO.P,U10,17,D3*%
%TO.N,D3*%
X102498000Y-74387500D03*
%TO.P,U10,18,D4*%
%TO.N,D4*%
X99958000Y-74387500D03*
%TO.P,U10,19,D5*%
%TO.N,D5*%
X97418000Y-74387500D03*
%TO.P,U10,20,D6*%
%TO.N,D6*%
X94878000Y-74387500D03*
%TO.P,U10,21,D7*%
%TO.N,D7*%
X92338000Y-74387500D03*
%TO.P,U10,22,CE*%
%TO.N,SO5*%
X89798000Y-74387500D03*
%TO.P,U10,23,A10*%
%TO.N,CA10*%
X87258000Y-74387500D03*
%TO.P,U10,24,OE*%
%TO.N,~{RD}*%
X84718000Y-74387500D03*
%TO.P,U10,25,A11*%
%TO.N,CA11*%
X82178000Y-74387500D03*
%TO.P,U10,26,A9*%
%TO.N,CA9*%
X79638000Y-74387500D03*
%TO.P,U10,27,A8*%
%TO.N,CA8*%
X77098000Y-74387500D03*
%TO.P,U10,28,A13*%
%TO.N,CA13*%
X74558000Y-74387500D03*
%TO.P,U10,29,A14*%
%TO.N,CA14*%
X72018000Y-74387500D03*
%TO.P,U10,30,A17*%
%TO.N,CA17*%
X69478000Y-74387500D03*
%TO.P,U10,31,PGM*%
%TO.N,~{WR}*%
X66938000Y-74387500D03*
%TO.P,U10,32,VCC*%
%TO.N,VCC*%
X64398000Y-74387500D03*
%TD*%
D11*
%TO.P,U7,1,Oe1*%
%TO.N,GND*%
X109220000Y-115570000D03*
D12*
%TO.P,U7,2,Oe2*%
X109220000Y-118110000D03*
%TO.P,U7,3,Q0*%
%TO.N,CA16*%
X109220000Y-120650000D03*
%TO.P,U7,4,Q1*%
%TO.N,CA17*%
X109220000Y-123190000D03*
%TO.P,U7,5,Q2*%
%TO.N,CA18*%
X109220000Y-125730000D03*
%TO.P,U7,6,Q3*%
%TO.N,unconnected-(U7-Pad6)*%
X109220000Y-128270000D03*
%TO.P,U7,7,Cp*%
%TO.N,Net-(U7-Pad7)*%
X109220000Y-130810000D03*
%TO.P,U7,8,GND*%
%TO.N,GND*%
X109220000Y-133350000D03*
%TO.P,U7,9,E1*%
X101600000Y-133350000D03*
%TO.P,U7,10,E2*%
X101600000Y-130810000D03*
%TO.P,U7,11,D3*%
X101600000Y-128270000D03*
%TO.P,U7,12,D2*%
%TO.N,D2*%
X101600000Y-125730000D03*
%TO.P,U7,13,D1*%
%TO.N,D1*%
X101600000Y-123190000D03*
%TO.P,U7,14,D0*%
%TO.N,D0*%
X101600000Y-120650000D03*
%TO.P,U7,15,Mr*%
%TO.N,Net-(U2-Pad8)*%
X101600000Y-118110000D03*
%TO.P,U7,16,VCC*%
%TO.N,VCC*%
X101600000Y-115570000D03*
%TD*%
D11*
%TO.P,U3,1,A0*%
%TO.N,A0*%
X97790000Y-115570000D03*
D12*
%TO.P,U3,2,A1*%
%TO.N,A1*%
X97790000Y-118110000D03*
%TO.P,U3,3,A2*%
%TO.N,A2*%
X97790000Y-120650000D03*
%TO.P,U3,4,E1*%
%TO.N,Net-(U2-Pad6)*%
X97790000Y-123190000D03*
%TO.P,U3,5,E2*%
%TO.N,~{IORQ}*%
X97790000Y-125730000D03*
%TO.P,U3,6,E3*%
%TO.N,Net-(U3-Pad6)*%
X97790000Y-128270000D03*
%TO.P,U3,7,O7*%
%TO.N,unconnected-(U3-Pad7)*%
X97790000Y-130810000D03*
%TO.P,U3,8,GND*%
%TO.N,GND*%
X97790000Y-133350000D03*
%TO.P,U3,9,O6*%
%TO.N,SO6*%
X90170000Y-133350000D03*
%TO.P,U3,10,O5*%
%TO.N,SO5*%
X90170000Y-130810000D03*
%TO.P,U3,11,O4*%
%TO.N,SO4*%
X90170000Y-128270000D03*
%TO.P,U3,12,O3*%
%TO.N,Net-(U3-Pad12)*%
X90170000Y-125730000D03*
%TO.P,U3,13,O2*%
%TO.N,SO2*%
X90170000Y-123190000D03*
%TO.P,U3,14,O1*%
%TO.N,Net-(U3-Pad14)*%
X90170000Y-120650000D03*
%TO.P,U3,15,O0*%
%TO.N,Net-(U3-Pad15)*%
X90170000Y-118110000D03*
%TO.P,U3,16,VCC*%
%TO.N,VCC*%
X90170000Y-115570000D03*
%TD*%
D11*
%TO.P,U2,1*%
%TO.N,A7*%
X86360000Y-118110000D03*
D12*
%TO.P,U2,2*%
%TO.N,Net-(U2-Pad2)*%
X86360000Y-120650000D03*
%TO.P,U2,3*%
%TO.N,A4*%
X86360000Y-123190000D03*
%TO.P,U2,4*%
%TO.N,Net-(U2-Pad4)*%
X86360000Y-125730000D03*
%TO.P,U2,5*%
%TO.N,M1*%
X86360000Y-128270000D03*
%TO.P,U2,6*%
%TO.N,Net-(U2-Pad6)*%
X86360000Y-130810000D03*
%TO.P,U2,7,GND*%
%TO.N,GND*%
X86360000Y-133350000D03*
%TO.P,U2,8*%
%TO.N,Net-(U2-Pad8)*%
X78740000Y-133350000D03*
%TO.P,U2,9*%
%TO.N,~{RES}*%
X78740000Y-130810000D03*
%TO.P,U2,10*%
%TO.N,unconnected-(U2-Pad10)*%
X78740000Y-128270000D03*
%TO.P,U2,11*%
%TO.N,VCC*%
X78740000Y-125730000D03*
%TO.P,U2,12*%
%TO.N,N/C*%
X78740000Y-123190000D03*
%TO.P,U2,13*%
X78740000Y-120650000D03*
%TO.P,U2,14,VCC*%
%TO.N,VCC*%
X78740000Y-118110000D03*
%TD*%
D11*
%TO.P,U1,1*%
%TO.N,Net-(U1-Pad1)*%
X74930000Y-118105000D03*
D12*
%TO.P,U1,2*%
%TO.N,Net-(U3-Pad15)*%
X74930000Y-120645000D03*
%TO.P,U1,3*%
%TO.N,~{WR}*%
X74930000Y-123185000D03*
%TO.P,U1,4*%
%TO.N,Net-(U1-Pad4)*%
X74930000Y-125725000D03*
%TO.P,U1,5*%
%TO.N,Net-(U3-Pad14)*%
X74930000Y-128265000D03*
%TO.P,U1,6*%
%TO.N,~{WR}*%
X74930000Y-130805000D03*
%TO.P,U1,7,GND*%
%TO.N,GND*%
X74930000Y-133345000D03*
%TO.P,U1,8*%
%TO.N,SO6*%
X67310000Y-133345000D03*
%TO.P,U1,9*%
%TO.N,~{WR}*%
X67310000Y-130805000D03*
%TO.P,U1,10*%
%TO.N,Net-(U9-Pad7)*%
X67310000Y-128265000D03*
%TO.P,U1,11*%
%TO.N,Net-(U3-Pad12)*%
X67310000Y-125725000D03*
%TO.P,U1,12*%
%TO.N,~{WR}*%
X67310000Y-123185000D03*
%TO.P,U1,13*%
%TO.N,Net-(U7-Pad7)*%
X67310000Y-120645000D03*
%TO.P,U1,14,VCC*%
%TO.N,VCC*%
X67310000Y-118105000D03*
%TD*%
D11*
%TO.P,U4,1*%
%TO.N,Net-(U2-Pad4)*%
X63500000Y-118105000D03*
D12*
%TO.P,U4,2*%
%TO.N,A6*%
X63500000Y-120645000D03*
%TO.P,U4,3*%
%TO.N,N/C*%
X63500000Y-123185000D03*
%TO.P,U4,4*%
%TO.N,A5*%
X63500000Y-125725000D03*
%TO.P,U4,5*%
%TO.N,Net-(U2-Pad2)*%
X63500000Y-128265000D03*
%TO.P,U4,6*%
%TO.N,Net-(U3-Pad6)*%
X63500000Y-130805000D03*
%TO.P,U4,7,GND*%
%TO.N,GND*%
X63500000Y-133345000D03*
%TO.P,U4,8*%
%TO.N,unconnected-(U4-Pad8)*%
X55880000Y-133345000D03*
%TO.P,U4,9*%
%TO.N,GND*%
X55880000Y-130805000D03*
%TO.P,U4,10*%
X55880000Y-128265000D03*
%TO.P,U4,11*%
%TO.N,N/C*%
X55880000Y-125725000D03*
%TO.P,U4,12*%
%TO.N,GND*%
X55880000Y-123185000D03*
%TO.P,U4,13*%
X55880000Y-120645000D03*
%TO.P,U4,14,VCC*%
%TO.N,VCC*%
X55880000Y-118105000D03*
%TD*%
D11*
%TO.P,U9,1,Oe1*%
%TO.N,GND*%
X53730000Y-93075000D03*
D12*
%TO.P,U9,2,Oe2*%
X53730000Y-95615000D03*
%TO.P,U9,3,Q0*%
%TO.N,Net-(R1-Pad1)*%
X53730000Y-98155000D03*
%TO.P,U9,4,Q1*%
%TO.N,Net-(R2-Pad1)*%
X53730000Y-100695000D03*
%TO.P,U9,5,Q2*%
%TO.N,unconnected-(U9-Pad5)*%
X53730000Y-103235000D03*
%TO.P,U9,6,Q3*%
%TO.N,unconnected-(U9-Pad6)*%
X53730000Y-105775000D03*
%TO.P,U9,7,Cp*%
%TO.N,Net-(U9-Pad7)*%
X53730000Y-108315000D03*
%TO.P,U9,8,GND*%
%TO.N,GND*%
X53730000Y-110855000D03*
%TO.P,U9,9,E1*%
X46110000Y-110855000D03*
%TO.P,U9,10,E2*%
X46110000Y-108315000D03*
%TO.P,U9,11,D3*%
%TO.N,D3*%
X46110000Y-105775000D03*
%TO.P,U9,12,D2*%
%TO.N,D2*%
X46110000Y-103235000D03*
%TO.P,U9,13,D1*%
%TO.N,D1*%
X46110000Y-100695000D03*
%TO.P,U9,14,D0*%
%TO.N,D0*%
X46110000Y-98155000D03*
%TO.P,U9,15,Mr*%
%TO.N,~{RES}*%
X46110000Y-95615000D03*
%TO.P,U9,16,VCC*%
%TO.N,VCC*%
X46110000Y-93075000D03*
%TD*%
D15*
%TO.P,U8,1,A18*%
%TO.N,CA18*%
X64770000Y-96520000D03*
D16*
%TO.P,U8,2,A16*%
%TO.N,CA16*%
X67310000Y-93980000D03*
%TO.P,U8,3,A15*%
%TO.N,CA15*%
X67310000Y-96520000D03*
%TO.P,U8,4,A12*%
%TO.N,CA12*%
X69850000Y-93980000D03*
%TO.P,U8,5,A7*%
%TO.N,CA7*%
X72390000Y-96520000D03*
%TO.P,U8,6,A6*%
%TO.N,CA6*%
X69850000Y-96520000D03*
%TO.P,U8,7,A5*%
%TO.N,CA5*%
X72390000Y-99060000D03*
%TO.P,U8,8,A4*%
%TO.N,CA4*%
X69850000Y-99060000D03*
%TO.P,U8,9,A3*%
%TO.N,CA3*%
X72390000Y-101600000D03*
%TO.P,U8,10,A2*%
%TO.N,CA2*%
X69850000Y-101600000D03*
%TO.P,U8,11,A1*%
%TO.N,CA1*%
X72390000Y-104140000D03*
%TO.P,U8,12,A0*%
%TO.N,CA0*%
X69850000Y-104140000D03*
%TO.P,U8,13,D0*%
%TO.N,D0*%
X72390000Y-106680000D03*
%TO.P,U8,14,D1*%
%TO.N,D1*%
X69850000Y-109220000D03*
%TO.P,U8,15,D2*%
%TO.N,D2*%
X69850000Y-106680000D03*
%TO.P,U8,16,GND*%
%TO.N,GND*%
X67310000Y-109220000D03*
%TO.P,U8,17,D3*%
%TO.N,D3*%
X67310000Y-106680000D03*
%TO.P,U8,18,D4*%
%TO.N,D4*%
X64770000Y-109220000D03*
%TO.P,U8,19,D5*%
%TO.N,D5*%
X64770000Y-106680000D03*
%TO.P,U8,20,D6*%
%TO.N,D6*%
X62230000Y-109220000D03*
%TO.P,U8,21,D7*%
%TO.N,D7*%
X59690000Y-106680000D03*
%TO.P,U8,22,CE*%
%TO.N,SO2*%
X62230000Y-106680000D03*
%TO.P,U8,23,A10*%
%TO.N,CA10*%
X59690000Y-104140000D03*
%TO.P,U8,24,OE*%
%TO.N,~{RD}*%
X62230000Y-104140000D03*
%TO.P,U8,25,A11*%
%TO.N,CA11*%
X59690000Y-101600000D03*
%TO.P,U8,26,A9*%
%TO.N,CA9*%
X62230000Y-101600000D03*
%TO.P,U8,27,A8*%
%TO.N,CA8*%
X59690000Y-99060000D03*
%TO.P,U8,28,A13*%
%TO.N,CA13*%
X62230000Y-99060000D03*
%TO.P,U8,29,A14*%
%TO.N,CA14*%
X59690000Y-96520000D03*
%TO.P,U8,30,A17*%
%TO.N,CA17*%
X62230000Y-93980000D03*
%TO.P,U8,31,PGM*%
%TO.N,~{WR}*%
X62230000Y-96520000D03*
%TO.P,U8,32,VCC*%
%TO.N,VCC*%
X64770000Y-93980000D03*
%TD*%
D17*
%TO.P,D2,1,K*%
%TO.N,GND*%
X118359000Y-57150000D03*
D18*
%TO.P,D2,2,A*%
%TO.N,Net-(D2-Pad2)*%
X120899000Y-57150000D03*
%TD*%
D10*
%TO.P,R1,1*%
%TO.N,Net-(R1-Pad1)*%
X113538000Y-72136000D03*
D12*
%TO.P,R1,2*%
%TO.N,Net-(D1-Pad2)*%
X113538000Y-64516000D03*
%TD*%
D17*
%TO.P,D1,1,K*%
%TO.N,GND*%
X110993000Y-57150000D03*
D18*
%TO.P,D1,2,A*%
%TO.N,Net-(D1-Pad2)*%
X113533000Y-57150000D03*
%TD*%
D10*
%TO.P,R2,1*%
%TO.N,Net-(R2-Pad1)*%
X118110000Y-72136000D03*
D12*
%TO.P,R2,2*%
%TO.N,Net-(D2-Pad2)*%
X118110000Y-64516000D03*
%TD*%
D19*
%TO.P,J1,1a,Pin_1a*%
%TO.N,unconnected-(J1-Pad1a)*%
X55742000Y-147828000D03*
%TO.P,J1,2a,Pin_2a*%
%TO.N,D0*%
X59702000Y-147828000D03*
%TO.P,J1,3a,Pin_3a*%
%TO.N,D2*%
X63662000Y-147828000D03*
%TO.P,J1,4a,Pin_4a*%
%TO.N,D4*%
X67622000Y-147828000D03*
%TO.P,J1,5a,Pin_5a*%
%TO.N,D6*%
X71582000Y-147828000D03*
%TO.P,J1,6a,Pin_6a*%
%TO.N,A0*%
X75542000Y-147828000D03*
%TO.P,J1,7a,Pin_7a*%
%TO.N,A2*%
X79502000Y-147828000D03*
%TO.P,J1,8a,Pin_8a*%
%TO.N,A4*%
X83462000Y-147828000D03*
%TO.P,J1,9a,Pin_9a*%
%TO.N,A6*%
X87422000Y-147828000D03*
%TO.P,J1,10a,Pin_10a*%
%TO.N,~{RD}*%
X91382000Y-147828000D03*
%TO.P,J1,11a,Pin_11a*%
%TO.N,~{IORQ}*%
X95342000Y-147828000D03*
%TO.P,J1,12a,Pin_12a*%
%TO.N,unconnected-(J1-Pad12a)*%
X99302000Y-147828000D03*
%TO.P,J1,15a,Pin_15a*%
%TO.N,GND*%
X111182000Y-147828000D03*
%TD*%
D11*
%TO.P,C11,1*%
%TO.N,VCC*%
X118618000Y-93726000D03*
D10*
%TO.P,C11,2*%
%TO.N,GND*%
X116118000Y-93726000D03*
%TD*%
D11*
%TO.P,U11,1,A14*%
%TO.N,CA14*%
X78725000Y-93975000D03*
D12*
%TO.P,U11,2,A12*%
%TO.N,CA12*%
X81265000Y-93975000D03*
%TO.P,U11,3,A7*%
%TO.N,CA7*%
X83805000Y-93975000D03*
%TO.P,U11,4,A6*%
%TO.N,CA6*%
X86345000Y-93975000D03*
%TO.P,U11,5,A5*%
%TO.N,CA5*%
X88885000Y-93975000D03*
%TO.P,U11,6,A4*%
%TO.N,CA4*%
X91425000Y-93975000D03*
%TO.P,U11,7,A3*%
%TO.N,CA3*%
X93965000Y-93975000D03*
%TO.P,U11,8,A2*%
%TO.N,CA2*%
X96505000Y-93975000D03*
%TO.P,U11,9,A1*%
%TO.N,CA1*%
X99045000Y-93975000D03*
%TO.P,U11,10,A0*%
%TO.N,CA0*%
X101585000Y-93975000D03*
%TO.P,U11,11,Q0*%
%TO.N,D0*%
X104125000Y-93975000D03*
%TO.P,U11,12,Q1*%
%TO.N,D1*%
X106665000Y-93975000D03*
%TO.P,U11,13,Q2*%
%TO.N,D2*%
X109205000Y-93975000D03*
%TO.P,U11,14,GND*%
%TO.N,GND*%
X111745000Y-93975000D03*
%TO.P,U11,15,Q3*%
%TO.N,D3*%
X111745000Y-109215000D03*
%TO.P,U11,16,Q4*%
%TO.N,D4*%
X109205000Y-109215000D03*
%TO.P,U11,17,Q5*%
%TO.N,D5*%
X106665000Y-109215000D03*
%TO.P,U11,18,Q6*%
%TO.N,D6*%
X104125000Y-109215000D03*
%TO.P,U11,19,Q7*%
%TO.N,D7*%
X101585000Y-109215000D03*
%TO.P,U11,20,~{CS}*%
%TO.N,SO4*%
X99045000Y-109215000D03*
%TO.P,U11,21,A10*%
%TO.N,CA10*%
X96505000Y-109215000D03*
%TO.P,U11,22,~{OE}*%
%TO.N,~{RD}*%
X93965000Y-109215000D03*
%TO.P,U11,23,A11*%
%TO.N,CA11*%
X91425000Y-109215000D03*
%TO.P,U11,24,A9*%
%TO.N,CA9*%
X88885000Y-109215000D03*
%TO.P,U11,25,A8*%
%TO.N,CA8*%
X86345000Y-109215000D03*
%TO.P,U11,26,A13*%
%TO.N,CA13*%
X83805000Y-109215000D03*
%TO.P,U11,27,~{WE}*%
%TO.N,~{WR}*%
X81265000Y-109215000D03*
%TO.P,U11,28,VCC*%
%TO.N,VCC*%
X78725000Y-109215000D03*
%TD*%
D20*
%TO.N,Net-(U2-Pad4)*%
X83941400Y-121858400D03*
%TO.N,Net-(U3-Pad6)*%
X60838800Y-131403300D03*
X95467200Y-137200800D03*
%TO.N,CA18*%
X58770200Y-95550900D03*
%TO.N,CA16*%
X85751100Y-87453000D03*
X85789300Y-69879600D03*
X67251800Y-65277400D03*
%TO.N,CA17*%
X57097800Y-78581300D03*
X56363100Y-90133500D03*
%TO.N,SO4*%
X94278100Y-111891000D03*
%TO.N,Net-(U7-Pad7)*%
X91470300Y-132234100D03*
X84209100Y-118717400D03*
X67708300Y-113749800D03*
%TO.N,Net-(U9-Pad7)*%
X65871200Y-115032100D03*
%TO.N,Net-(U1-Pad4)*%
X110495000Y-92186900D03*
X76056900Y-106129200D03*
%TO.N,CA15*%
X63391900Y-79209300D03*
X66182300Y-82948500D03*
X67189000Y-92253100D03*
X90175000Y-91633900D03*
%TO.N,CA6*%
X69263000Y-90473400D03*
%TO.N,CA7*%
X82684200Y-85431700D03*
%TO.N,CA13*%
X96578900Y-79977800D03*
X82925700Y-96253700D03*
X91701000Y-106068300D03*
%TO.N,CA14*%
X71721400Y-92634900D03*
%TO.N,CA8*%
X85292100Y-78808700D03*
X85021800Y-99171100D03*
%TO.N,CA11*%
X90870800Y-82646900D03*
X79118300Y-76694700D03*
X55855700Y-79300700D03*
X56936400Y-98908900D03*
%TO.N,CA12*%
X79855900Y-78482800D03*
X65107500Y-77896400D03*
%TO.N,CA0*%
X59939700Y-63440600D03*
X105583900Y-78451200D03*
%TO.N,CA3*%
X78801100Y-98453100D03*
%TO.N,CA1*%
X72678900Y-79881800D03*
X78843700Y-100768800D03*
%TO.N,CA4*%
X77216800Y-98353400D03*
%TO.N,CA2*%
X77778000Y-62949000D03*
%TO.N,~{WR}*%
X58756900Y-112196100D03*
X68864200Y-136743100D03*
X104187300Y-139718000D03*
%TO.N,D1*%
X72219100Y-111589100D03*
X50285600Y-84385100D03*
X99193100Y-90723500D03*
X47988600Y-64245700D03*
%TO.N,D3*%
X74935000Y-85183400D03*
X48730200Y-86084000D03*
X61036900Y-134689200D03*
%TO.N,D7*%
X92715000Y-101955900D03*
X70273400Y-118424600D03*
X79910000Y-105863100D03*
X76390300Y-117496900D03*
%TO.N,A1*%
X81888700Y-127751900D03*
%TO.N,A5*%
X73324700Y-135030300D03*
%TO.N,~{RES}*%
X72775000Y-120542500D03*
X49186200Y-105691200D03*
X85635900Y-132080000D03*
%TO.N,~{IORQ}*%
X96038500Y-138361300D03*
%TO.N,~{RD}*%
X82833400Y-110992100D03*
X95287800Y-139713200D03*
%TO.N,A6*%
X65757300Y-137995600D03*
%TO.N,A4*%
X91575300Y-139728800D03*
%TO.N,A2*%
X91663700Y-138724200D03*
X93531600Y-125338900D03*
%TO.N,A0*%
X92666300Y-138596400D03*
%TO.N,D6*%
X71048500Y-139541400D03*
X70999400Y-117648400D03*
X95255400Y-101957300D03*
%TO.N,D4*%
X66543300Y-139227800D03*
%TO.N,D2*%
X67679400Y-105348200D03*
X104385000Y-82649800D03*
%TO.N,D0*%
X98276000Y-107113500D03*
X59681400Y-93827400D03*
X93647700Y-86266700D03*
%TO.N,VCC*%
X118618000Y-101092000D03*
X118110000Y-133350000D03*
X55880000Y-135890000D03*
%TO.N,GND*%
X116205000Y-135255000D03*
%TD*%
D21*
%TO.N,Net-(U2-Pad8)*%
X101600000Y-118110000D02*
X101600000Y-119236900D01*
X78740000Y-133350000D02*
X79866900Y-133350000D01*
X101378200Y-119236900D02*
X101600000Y-119236900D01*
X98921300Y-121693800D02*
X101378200Y-119236900D01*
X98921300Y-123656300D02*
X98921300Y-121693800D01*
X98117600Y-124460000D02*
X98921300Y-123656300D01*
X97462500Y-124460000D02*
X98117600Y-124460000D01*
X94785200Y-127137300D02*
X97462500Y-124460000D01*
X94785200Y-127852500D02*
X94785200Y-127137300D01*
X90557600Y-132080100D02*
X94785200Y-127852500D01*
X89257300Y-132080100D02*
X90557600Y-132080100D01*
X86840100Y-134497300D02*
X89257300Y-132080100D01*
X81014200Y-134497300D02*
X86840100Y-134497300D01*
X79866900Y-133350000D02*
X81014200Y-134497300D01*
%TO.N,Net-(U2-Pad6)*%
X86360000Y-130810000D02*
X87486900Y-130810000D01*
X96663100Y-123423500D02*
X96663100Y-123190000D01*
X90403500Y-129683100D02*
X96663100Y-123423500D01*
X88613800Y-129683100D02*
X90403500Y-129683100D01*
X87486900Y-130810000D02*
X88613800Y-129683100D01*
X97790000Y-123190000D02*
X96663100Y-123190000D01*
%TO.N,Net-(U3-Pad15)*%
X90170000Y-118110000D02*
X89043100Y-118110000D01*
X74930000Y-120645000D02*
X76056900Y-120645000D01*
X87708800Y-119444300D02*
X89043100Y-118110000D01*
X77257600Y-119444300D02*
X87708800Y-119444300D01*
X76056900Y-120645000D02*
X77257600Y-119444300D01*
%TO.N,Net-(U3-Pad14)*%
X87773100Y-121920000D02*
X89043100Y-120650000D01*
X85827100Y-121920000D02*
X87773100Y-121920000D01*
X80609000Y-127138100D02*
X85827100Y-121920000D01*
X77183800Y-127138100D02*
X80609000Y-127138100D01*
X76056900Y-128265000D02*
X77183800Y-127138100D01*
X74930000Y-128265000D02*
X76056900Y-128265000D01*
X90170000Y-120650000D02*
X89043100Y-120650000D01*
%TO.N,Net-(U3-Pad12)*%
X90170000Y-125730000D02*
X89043100Y-125730000D01*
X67310000Y-125725000D02*
X68436900Y-125725000D01*
X72167300Y-129455400D02*
X68436900Y-125725000D01*
X82448600Y-129455400D02*
X72167300Y-129455400D01*
X85047100Y-126856900D02*
X82448600Y-129455400D01*
X87916200Y-126856900D02*
X85047100Y-126856900D01*
X89043100Y-125730000D02*
X87916200Y-126856900D01*
%TO.N,Net-(U2-Pad4)*%
X63500000Y-118105000D02*
X64626900Y-118105000D01*
X70967200Y-121858400D02*
X83941400Y-121858400D01*
X68340700Y-119231900D02*
X70967200Y-121858400D01*
X65753800Y-119231900D02*
X68340700Y-119231900D01*
X64626900Y-118105000D02*
X65753800Y-119231900D01*
%TO.N,Net-(U3-Pad6)*%
X95331500Y-137065100D02*
X95467200Y-137200800D01*
X78715700Y-137065100D02*
X95331500Y-137065100D01*
X78237100Y-137543700D02*
X78715700Y-137065100D01*
X68636600Y-137543700D02*
X78237100Y-137543700D01*
X68336100Y-137243200D02*
X68636600Y-137543700D01*
X56153100Y-137243200D02*
X68336100Y-137243200D01*
X55148100Y-136238200D02*
X56153100Y-137243200D01*
X55148100Y-135576400D02*
X55148100Y-136238200D01*
X55824100Y-134900400D02*
X55148100Y-135576400D01*
X57341700Y-134900400D02*
X55824100Y-134900400D01*
X60838800Y-131403300D02*
X57341700Y-134900400D01*
%TO.N,CA18*%
X64770000Y-96520000D02*
X63731900Y-96520000D01*
X58628400Y-95692700D02*
X58770200Y-95550900D01*
X58628400Y-96953200D02*
X58628400Y-95692700D01*
X59233300Y-97558100D02*
X58628400Y-96953200D01*
X62693800Y-97558100D02*
X59233300Y-97558100D01*
X63731900Y-96520000D02*
X62693800Y-97558100D01*
%TO.N,CA16*%
X109220000Y-120650000D02*
X110346900Y-120650000D01*
X63601600Y-90271600D02*
X67310000Y-93980000D01*
X63601600Y-88481900D02*
X63601600Y-90271600D01*
X64630500Y-87453000D02*
X63601600Y-88481900D01*
X85751100Y-87453000D02*
X64630500Y-87453000D01*
X112921500Y-69879600D02*
X85789300Y-69879600D01*
X116696900Y-73655000D02*
X112921500Y-69879600D01*
X116696900Y-88694800D02*
X116696900Y-73655000D01*
X120346400Y-92344300D02*
X116696900Y-88694800D01*
X120346400Y-110650500D02*
X120346400Y-92344300D01*
X110346900Y-120650000D02*
X120346400Y-110650500D01*
X81187100Y-65277400D02*
X67251800Y-65277400D01*
X85789300Y-69879600D02*
X81187100Y-65277400D01*
%TO.N,CA17*%
X60654300Y-92404300D02*
X62230000Y-93980000D01*
X58633900Y-92404300D02*
X60654300Y-92404300D01*
X56363100Y-90133500D02*
X58633900Y-92404300D01*
X109220000Y-123190000D02*
X109220000Y-122063100D01*
X69478000Y-74387500D02*
X70524900Y-74387500D01*
X108938300Y-122063100D02*
X109220000Y-122063100D01*
X108059000Y-121183800D02*
X108938300Y-122063100D01*
X108059000Y-120209200D02*
X108059000Y-121183800D01*
X108888200Y-119380000D02*
X108059000Y-120209200D01*
X109551100Y-119380000D02*
X108888200Y-119380000D01*
X119861200Y-109069900D02*
X109551100Y-119380000D01*
X119861200Y-99062800D02*
X119861200Y-109069900D01*
X114120000Y-93321600D02*
X119861200Y-99062800D01*
X114120000Y-81938900D02*
X114120000Y-93321600D01*
X104304300Y-72123200D02*
X114120000Y-81938900D01*
X72521500Y-72123200D02*
X104304300Y-72123200D01*
X70524900Y-74119800D02*
X72521500Y-72123200D01*
X70524900Y-74387500D02*
X70524900Y-74119800D01*
X67601900Y-76263600D02*
X69478000Y-74387500D01*
X59415500Y-76263600D02*
X67601900Y-76263600D01*
X57097800Y-78581300D02*
X59415500Y-76263600D01*
%TO.N,SO2*%
X90170000Y-123190000D02*
X90170000Y-122063100D01*
X90403500Y-122063100D02*
X90170000Y-122063100D01*
X91316300Y-121150300D02*
X90403500Y-122063100D01*
X91316300Y-117644800D02*
X91316300Y-121150300D01*
X90511500Y-116840000D02*
X91316300Y-117644800D01*
X82306400Y-116840000D02*
X90511500Y-116840000D01*
X78142600Y-112676200D02*
X82306400Y-116840000D01*
X66741200Y-112676200D02*
X78142600Y-112676200D01*
X63500000Y-109435000D02*
X66741200Y-112676200D01*
X63500000Y-107950000D02*
X63500000Y-109435000D01*
X62230000Y-106680000D02*
X63500000Y-107950000D01*
%TO.N,SO4*%
X95523800Y-111891000D02*
X94278100Y-111891000D01*
X97918100Y-109496700D02*
X95523800Y-111891000D01*
X97918100Y-109215000D02*
X97918100Y-109496700D01*
X99045000Y-109215000D02*
X97918100Y-109215000D01*
%TO.N,Net-(U2-Pad2)*%
X63500000Y-128265000D02*
X63500000Y-127138100D01*
X86360000Y-120650000D02*
X85233100Y-120650000D01*
X64296800Y-127138100D02*
X63500000Y-127138100D01*
X66974900Y-124460000D02*
X64296800Y-127138100D01*
X82384800Y-124460000D02*
X66974900Y-124460000D01*
X85233100Y-121611700D02*
X82384800Y-124460000D01*
X85233100Y-120650000D02*
X85233100Y-121611700D01*
%TO.N,Net-(R1-Pad1)*%
X51333100Y-96885000D02*
X52603100Y-98155000D01*
X45771200Y-96885000D02*
X51333100Y-96885000D01*
X44973200Y-96087000D02*
X45771200Y-96885000D01*
X44973200Y-86715800D02*
X44973200Y-96087000D01*
X55926800Y-75762200D02*
X44973200Y-86715800D01*
X67361600Y-75762200D02*
X55926800Y-75762200D01*
X68367300Y-74756500D02*
X67361600Y-75762200D01*
X68367300Y-73712000D02*
X68367300Y-74756500D01*
X70434400Y-71644900D02*
X68367300Y-73712000D01*
X113046900Y-71644900D02*
X70434400Y-71644900D01*
X113538000Y-72136000D02*
X113046900Y-71644900D01*
X53730000Y-98155000D02*
X52603100Y-98155000D01*
%TO.N,Net-(U7-Pad7)*%
X68303900Y-113154200D02*
X67708300Y-113749800D01*
X75757500Y-113154200D02*
X68303900Y-113154200D01*
X81320700Y-118717400D02*
X75757500Y-113154200D01*
X84209100Y-118717400D02*
X81320700Y-118717400D01*
X109220000Y-130810000D02*
X108093100Y-130810000D01*
X91767500Y-131936900D02*
X91470300Y-132234100D01*
X106966200Y-131936900D02*
X91767500Y-131936900D01*
X108093100Y-130810000D02*
X106966200Y-131936900D01*
%TO.N,Net-(U9-Pad7)*%
X59154100Y-108315000D02*
X53730000Y-108315000D01*
X65871200Y-115032100D02*
X59154100Y-108315000D01*
%TO.N,SO6*%
X90170000Y-133350000D02*
X89043100Y-133350000D01*
X87422000Y-134971100D02*
X89043100Y-133350000D01*
X74617900Y-134971100D02*
X87422000Y-134971100D01*
X72991800Y-133345000D02*
X74617900Y-134971100D01*
X67310000Y-133345000D02*
X72991800Y-133345000D01*
%TO.N,Net-(U1-Pad4)*%
X110495000Y-94316500D02*
X110495000Y-92186900D01*
X104339700Y-100471800D02*
X110495000Y-94316500D01*
X81590000Y-100471800D02*
X104339700Y-100471800D01*
X76056900Y-106004900D02*
X81590000Y-100471800D01*
X76056900Y-106129200D02*
X76056900Y-106004900D01*
%TO.N,CA15*%
X66182300Y-81096200D02*
X66182300Y-82948500D01*
X64295400Y-79209300D02*
X66182300Y-81096200D01*
X63391900Y-79209300D02*
X64295400Y-79209300D01*
X67559500Y-91882600D02*
X67189000Y-92253100D01*
X89926300Y-91882600D02*
X67559500Y-91882600D01*
X90175000Y-91633900D02*
X89926300Y-91882600D01*
%TO.N,CA6*%
X86345000Y-93975000D02*
X85218100Y-93975000D01*
X68441900Y-89652300D02*
X68441900Y-88910000D01*
X69263000Y-90473400D02*
X68441900Y-89652300D01*
X67315000Y-88910000D02*
X68441900Y-88910000D01*
X70898300Y-97568300D02*
X69850000Y-96520000D01*
X74387000Y-97568300D02*
X70898300Y-97568300D01*
X75589400Y-96365900D02*
X74387000Y-97568300D01*
X81231500Y-96365900D02*
X75589400Y-96365900D01*
X82199400Y-95398000D02*
X81231500Y-96365900D01*
X84003800Y-95398000D02*
X82199400Y-95398000D01*
X85218100Y-94183700D02*
X84003800Y-95398000D01*
X85218100Y-93975000D02*
X85218100Y-94183700D01*
%TO.N,CA7*%
X83805000Y-93975000D02*
X82678100Y-93975000D01*
X82205500Y-85910400D02*
X82684200Y-85431700D01*
X62694600Y-85910400D02*
X82205500Y-85910400D01*
X59695000Y-88910000D02*
X62694600Y-85910400D01*
X73335400Y-95574600D02*
X72390000Y-96520000D01*
X81259100Y-95574600D02*
X73335400Y-95574600D01*
X82678100Y-94155600D02*
X81259100Y-95574600D01*
X82678100Y-93975000D02*
X82678100Y-94155600D01*
%TO.N,CA5*%
X88885000Y-93975000D02*
X87758100Y-93975000D01*
X75130800Y-99060000D02*
X72390000Y-99060000D01*
X76919300Y-97271500D02*
X75130800Y-99060000D01*
X82981800Y-97271500D02*
X76919300Y-97271500D01*
X85151400Y-95101900D02*
X82981800Y-97271500D01*
X86913000Y-95101900D02*
X85151400Y-95101900D01*
X87758100Y-94256800D02*
X86913000Y-95101900D01*
X87758100Y-93975000D02*
X87758100Y-94256800D01*
%TO.N,CA13*%
X74558000Y-74387500D02*
X75604900Y-74387500D01*
X93608000Y-77006900D02*
X96578900Y-79977800D01*
X93608000Y-73885700D02*
X93608000Y-77006900D01*
X92311500Y-72589200D02*
X93608000Y-73885700D01*
X77108700Y-72589200D02*
X92311500Y-72589200D01*
X75604900Y-74093000D02*
X77108700Y-72589200D01*
X75604900Y-74387500D02*
X75604900Y-74093000D01*
X82360800Y-96818600D02*
X82925700Y-96253700D01*
X76094000Y-96818600D02*
X82360800Y-96818600D01*
X74890700Y-98021900D02*
X76094000Y-96818600D01*
X63268100Y-98021900D02*
X74890700Y-98021900D01*
X62230000Y-99060000D02*
X63268100Y-98021900D01*
X87796900Y-106068300D02*
X91701000Y-106068300D01*
X84931900Y-108933300D02*
X87796900Y-106068300D01*
X84931900Y-109215000D02*
X84931900Y-108933300D01*
X83805000Y-109215000D02*
X84931900Y-109215000D01*
%TO.N,CA14*%
X97795000Y-88910000D02*
X96668100Y-88910000D01*
X96668100Y-89145700D02*
X96668100Y-88910000D01*
X93419300Y-92394500D02*
X96668100Y-89145700D01*
X80305500Y-92394500D02*
X93419300Y-92394500D01*
X78725000Y-93975000D02*
X80305500Y-92394500D01*
X78725000Y-93975000D02*
X77598100Y-93975000D01*
X71721400Y-92902000D02*
X71721400Y-92634900D01*
X76525100Y-92902000D02*
X71721400Y-92902000D01*
X77598100Y-93975000D02*
X76525100Y-92902000D01*
X60960000Y-95250000D02*
X59690000Y-96520000D01*
X67552000Y-95250000D02*
X60960000Y-95250000D01*
X68580000Y-94222000D02*
X67552000Y-95250000D01*
X68580000Y-93745300D02*
X68580000Y-94222000D01*
X69423300Y-92902000D02*
X68580000Y-93745300D01*
X71721400Y-92902000D02*
X69423300Y-92902000D01*
%TO.N,CA8*%
X90175000Y-81290000D02*
X89048100Y-81290000D01*
X77098000Y-74387500D02*
X78144900Y-74387500D01*
X85971600Y-79488200D02*
X85292100Y-78808700D01*
X87960800Y-79488200D02*
X85971600Y-79488200D01*
X89048100Y-80575500D02*
X87960800Y-79488200D01*
X89048100Y-81290000D02*
X89048100Y-80575500D01*
X78144900Y-74682000D02*
X78144900Y-74387500D01*
X82012500Y-78549600D02*
X78144900Y-74682000D01*
X85033000Y-78549600D02*
X82012500Y-78549600D01*
X85292100Y-78808700D02*
X85033000Y-78549600D01*
X84624900Y-99568000D02*
X85021800Y-99171100D01*
X81072500Y-99568000D02*
X84624900Y-99568000D01*
X76043100Y-104597400D02*
X81072500Y-99568000D01*
X73493500Y-104597400D02*
X76043100Y-104597400D01*
X72910400Y-105180500D02*
X73493500Y-104597400D01*
X71920100Y-105180500D02*
X72910400Y-105180500D01*
X71120000Y-104380400D02*
X71920100Y-105180500D01*
X71120000Y-103858100D02*
X71120000Y-104380400D01*
X70131900Y-102870000D02*
X71120000Y-103858100D01*
X68476200Y-102870000D02*
X70131900Y-102870000D01*
X65707900Y-100101700D02*
X68476200Y-102870000D01*
X60731700Y-100101700D02*
X65707900Y-100101700D01*
X59690000Y-99060000D02*
X60731700Y-100101700D01*
%TO.N,CA11*%
X82178000Y-74387500D02*
X83224900Y-74387500D01*
X107695800Y-81290000D02*
X107695900Y-81290000D01*
X107695800Y-81290000D02*
X106828100Y-81290000D01*
X107955000Y-81290000D02*
X107695900Y-81290000D01*
X83224900Y-74682000D02*
X83224900Y-74387500D01*
X86901200Y-78358300D02*
X83224900Y-74682000D01*
X88876500Y-78358300D02*
X86901200Y-78358300D01*
X91329800Y-80811600D02*
X88876500Y-78358300D01*
X91329800Y-82533500D02*
X91329800Y-80811600D01*
X91673300Y-82877000D02*
X91329800Y-82533500D01*
X100374500Y-82877000D02*
X91673300Y-82877000D01*
X101605000Y-81646500D02*
X100374500Y-82877000D01*
X101605000Y-80919400D02*
X101605000Y-81646500D01*
X102392100Y-80132300D02*
X101605000Y-80919400D01*
X105903400Y-80132300D02*
X102392100Y-80132300D01*
X106828100Y-81057000D02*
X105903400Y-80132300D01*
X106828100Y-81290000D02*
X106828100Y-81057000D01*
X90984200Y-82533500D02*
X90870800Y-82646900D01*
X91329800Y-82533500D02*
X90984200Y-82533500D01*
X59627500Y-101600000D02*
X56936400Y-98908900D01*
X59690000Y-101600000D02*
X59627500Y-101600000D01*
X78648500Y-77164500D02*
X79118300Y-76694700D01*
X59973600Y-77164500D02*
X78648500Y-77164500D01*
X57829800Y-79308300D02*
X59973600Y-77164500D01*
X55863300Y-79308300D02*
X57829800Y-79308300D01*
X55855700Y-79300700D02*
X55863300Y-79308300D01*
%TO.N,CA9*%
X97795000Y-81290000D02*
X96668100Y-81290000D01*
X79638000Y-74387500D02*
X80684900Y-74387500D01*
X96668100Y-81094900D02*
X96668100Y-81290000D01*
X91068000Y-75494800D02*
X96668100Y-81094900D01*
X91068000Y-73874500D02*
X91068000Y-75494800D01*
X90248200Y-73054700D02*
X91068000Y-73874500D01*
X81750000Y-73054700D02*
X90248200Y-73054700D01*
X80684900Y-74119800D02*
X81750000Y-73054700D01*
X80684900Y-74387500D02*
X80684900Y-74119800D01*
X88885000Y-109215000D02*
X87758100Y-109215000D01*
X87758100Y-109496800D02*
X87758100Y-109215000D01*
X86913000Y-110341900D02*
X87758100Y-109496800D01*
X83211200Y-110341900D02*
X86913000Y-110341900D01*
X83134500Y-110265200D02*
X83211200Y-110341900D01*
X82532400Y-110265200D02*
X83134500Y-110265200D01*
X81971900Y-110825700D02*
X82532400Y-110265200D01*
X78042500Y-110825700D02*
X81971900Y-110825700D01*
X75166800Y-107950000D02*
X78042500Y-110825700D01*
X69599600Y-107950000D02*
X75166800Y-107950000D01*
X68580000Y-106930400D02*
X69599600Y-107950000D01*
X68580000Y-105220800D02*
X68580000Y-106930400D01*
X64959200Y-101600000D02*
X68580000Y-105220800D01*
X62230000Y-101600000D02*
X64959200Y-101600000D01*
%TO.N,CA12*%
X107955000Y-88910000D02*
X106828100Y-88910000D01*
X70971900Y-95101900D02*
X69850000Y-93980000D01*
X79715600Y-95101900D02*
X70971900Y-95101900D01*
X80138100Y-94679400D02*
X79715600Y-95101900D01*
X80138100Y-93975000D02*
X80138100Y-94679400D01*
X81265000Y-93975000D02*
X80138100Y-93975000D01*
X65693900Y-78482800D02*
X65107500Y-77896400D01*
X79855900Y-78482800D02*
X65693900Y-78482800D01*
X82393600Y-92846400D02*
X81265000Y-93975000D01*
X96028100Y-92846400D02*
X82393600Y-92846400D01*
X98906100Y-89968400D02*
X96028100Y-92846400D01*
X99671000Y-89968400D02*
X98906100Y-89968400D01*
X99752500Y-90049900D02*
X99671000Y-89968400D01*
X105921700Y-90049900D02*
X99752500Y-90049900D01*
X106828100Y-89143500D02*
X105921700Y-90049900D01*
X106828100Y-88910000D02*
X106828100Y-89143500D01*
%TO.N,CA10*%
X100335000Y-81290000D02*
X99208100Y-81290000D01*
X87258000Y-74387500D02*
X88304900Y-74387500D01*
X99109100Y-81389000D02*
X99208100Y-81290000D01*
X99109000Y-81389000D02*
X99109100Y-81389000D01*
X99109000Y-81569800D02*
X99109000Y-81389000D01*
X98261800Y-82417000D02*
X99109000Y-81569800D01*
X94788300Y-82417000D02*
X98261800Y-82417000D01*
X94128100Y-81756800D02*
X94788300Y-82417000D01*
X94128100Y-80550000D02*
X94128100Y-81756800D01*
X88304900Y-74726800D02*
X94128100Y-80550000D01*
X88304900Y-74387500D02*
X88304900Y-74726800D01*
X60960000Y-105410000D02*
X59690000Y-104140000D01*
X62490000Y-105410000D02*
X60960000Y-105410000D01*
X63500000Y-106420000D02*
X62490000Y-105410000D01*
X63500000Y-106885900D02*
X63500000Y-106420000D01*
X64564100Y-107950000D02*
X63500000Y-106885900D01*
X65020400Y-107950000D02*
X64564100Y-107950000D01*
X66040000Y-108969600D02*
X65020400Y-107950000D01*
X66040000Y-109499800D02*
X66040000Y-108969600D01*
X67375900Y-110835700D02*
X66040000Y-109499800D01*
X76144600Y-110835700D02*
X67375900Y-110835700D01*
X77048600Y-111739700D02*
X76144600Y-110835700D01*
X90485800Y-111739700D02*
X77048600Y-111739700D01*
X91397700Y-110827800D02*
X90485800Y-111739700D01*
X94047000Y-110827800D02*
X91397700Y-110827800D01*
X95378100Y-109496700D02*
X94047000Y-110827800D01*
X95378100Y-109215000D02*
X95378100Y-109496700D01*
X96505000Y-109215000D02*
X95378100Y-109215000D01*
%TO.N,CA0*%
X101021600Y-93975000D02*
X100458100Y-93975000D01*
X92338000Y-59147500D02*
X91291100Y-59147500D01*
X60175000Y-63675900D02*
X59939700Y-63440600D01*
X87057100Y-63675900D02*
X60175000Y-63675900D01*
X91291100Y-59441900D02*
X87057100Y-63675900D01*
X91291100Y-59147500D02*
X91291100Y-59441900D01*
X100458100Y-94256800D02*
X100458100Y-93975000D01*
X94695000Y-100019900D02*
X100458100Y-94256800D01*
X81357100Y-100019900D02*
X94695000Y-100019900D01*
X76028500Y-105348500D02*
X81357100Y-100019900D01*
X73474200Y-105348500D02*
X76028500Y-105348500D01*
X73186500Y-105636200D02*
X73474200Y-105348500D01*
X71346200Y-105636200D02*
X73186500Y-105636200D01*
X69850000Y-104140000D02*
X71346200Y-105636200D01*
X101585000Y-93975000D02*
X101021600Y-93975000D01*
X109301100Y-78451200D02*
X105583900Y-78451200D01*
X111662800Y-80812900D02*
X109301100Y-78451200D01*
X111662800Y-89891300D02*
X111662800Y-80812900D01*
X107935000Y-93619100D02*
X111662800Y-89891300D01*
X107935000Y-94369100D02*
X107935000Y-93619100D01*
X106666100Y-95638000D02*
X107935000Y-94369100D01*
X103248000Y-95638000D02*
X106666100Y-95638000D01*
X101585000Y-93975000D02*
X103248000Y-95638000D01*
%TO.N,CA3*%
X75654200Y-101600000D02*
X78801100Y-98453100D01*
X72390000Y-101600000D02*
X75654200Y-101600000D01*
X93965000Y-93975000D02*
X92838100Y-93975000D01*
X79062100Y-98192100D02*
X78801100Y-98453100D01*
X83694400Y-98192100D02*
X79062100Y-98192100D01*
X84348600Y-97537900D02*
X83694400Y-98192100D01*
X89508700Y-97537900D02*
X84348600Y-97537900D01*
X92838100Y-94208500D02*
X89508700Y-97537900D01*
X92838100Y-93975000D02*
X92838100Y-94208500D01*
%TO.N,CA1*%
X67315000Y-81290000D02*
X68441900Y-81290000D01*
X69568400Y-79881800D02*
X72678900Y-79881800D01*
X68441900Y-81008300D02*
X69568400Y-79881800D01*
X68441900Y-81290000D02*
X68441900Y-81008300D01*
X99045000Y-93975000D02*
X97918100Y-93975000D01*
X75472500Y-104140000D02*
X78843700Y-100768800D01*
X72390000Y-104140000D02*
X75472500Y-104140000D01*
X80498800Y-99113700D02*
X78843700Y-100768800D01*
X84051000Y-99113700D02*
X80498800Y-99113700D01*
X84722900Y-98441800D02*
X84051000Y-99113700D01*
X93733000Y-98441800D02*
X84722900Y-98441800D01*
X97918100Y-94256700D02*
X93733000Y-98441800D01*
X97918100Y-93975000D02*
X97918100Y-94256700D01*
%TO.N,CA4*%
X91425000Y-93975000D02*
X90298100Y-93975000D01*
X75468500Y-100101700D02*
X77216800Y-98353400D01*
X70891700Y-100101700D02*
X75468500Y-100101700D01*
X69850000Y-99060000D02*
X70891700Y-100101700D01*
X77845600Y-97724600D02*
X77216800Y-98353400D01*
X83522800Y-97724600D02*
X77845600Y-97724600D01*
X84161900Y-97085500D02*
X83522800Y-97724600D01*
X87469400Y-97085500D02*
X84161900Y-97085500D01*
X90298100Y-94256800D02*
X87469400Y-97085500D01*
X90298100Y-93975000D02*
X90298100Y-94256800D01*
%TO.N,CA2*%
X96505000Y-93975000D02*
X95378100Y-93975000D01*
X87258000Y-59147500D02*
X86211100Y-59147500D01*
X86211100Y-59460300D02*
X86211100Y-59147500D01*
X82722400Y-62949000D02*
X86211100Y-59460300D01*
X77778000Y-62949000D02*
X82722400Y-62949000D01*
X70903800Y-102653800D02*
X69850000Y-101600000D01*
X75930800Y-102653800D02*
X70903800Y-102653800D01*
X79925100Y-98659500D02*
X75930800Y-102653800D01*
X83866100Y-98659500D02*
X79925100Y-98659500D01*
X84535700Y-97989900D02*
X83866100Y-98659500D01*
X91566000Y-97989900D02*
X84535700Y-97989900D01*
X95378100Y-94177800D02*
X91566000Y-97989900D01*
X95378100Y-93975000D02*
X95378100Y-94177800D01*
%TO.N,~{WR}*%
X74930000Y-123185000D02*
X67310000Y-123185000D01*
X67310000Y-123185000D02*
X66183100Y-123185000D01*
X57360000Y-113593000D02*
X58756900Y-112196100D01*
X57360000Y-116197100D02*
X57360000Y-113593000D01*
X62934800Y-121771900D02*
X57360000Y-116197100D01*
X64770000Y-121771900D02*
X62934800Y-121771900D01*
X66183100Y-123185000D02*
X64770000Y-121771900D01*
X67310000Y-130805000D02*
X74930000Y-130805000D01*
X69133400Y-136473900D02*
X68864200Y-136743100D01*
X100943200Y-136473900D02*
X69133400Y-136473900D01*
X104187300Y-139718000D02*
X100943200Y-136473900D01*
%TO.N,D1*%
X72837300Y-112207300D02*
X72219100Y-111589100D01*
X90697300Y-112207300D02*
X72837300Y-112207300D01*
X95186900Y-116696900D02*
X90697300Y-112207300D01*
X101834700Y-116696900D02*
X95186900Y-116696900D01*
X102766100Y-117628300D02*
X101834700Y-116696900D01*
X102766100Y-121178700D02*
X102766100Y-117628300D01*
X101881700Y-122063100D02*
X102766100Y-121178700D01*
X101600000Y-122063100D02*
X101881700Y-122063100D01*
X101600000Y-123190000D02*
X101600000Y-122063100D01*
X50285600Y-82717100D02*
X50285600Y-84385100D01*
X52840400Y-80162300D02*
X50285600Y-82717100D01*
X53806000Y-80162300D02*
X52840400Y-80162300D01*
X56109800Y-82466100D02*
X53806000Y-80162300D01*
X62753700Y-82466100D02*
X56109800Y-82466100D01*
X63648100Y-81571700D02*
X62753700Y-82466100D01*
X63648100Y-81290000D02*
X63648100Y-81571700D01*
X64775000Y-81290000D02*
X63648100Y-81290000D01*
X99985600Y-90723500D02*
X99193100Y-90723500D01*
X102855000Y-93592900D02*
X99985600Y-90723500D01*
X102855000Y-94357600D02*
X102855000Y-93592900D01*
X103631900Y-95134500D02*
X102855000Y-94357600D01*
X104660300Y-95134500D02*
X103631900Y-95134500D01*
X105538100Y-94256700D02*
X104660300Y-95134500D01*
X105538100Y-93975000D02*
X105538100Y-94256700D01*
X106665000Y-93975000D02*
X105538100Y-93975000D01*
X96371100Y-58879800D02*
X96371100Y-59147500D01*
X95296300Y-57805000D02*
X96371100Y-58879800D01*
X54216700Y-57805000D02*
X95296300Y-57805000D01*
X47988600Y-64033100D02*
X54216700Y-57805000D01*
X47988600Y-64245700D02*
X47988600Y-64033100D01*
X97418000Y-59147500D02*
X96371100Y-59147500D01*
%TO.N,D3*%
X74935000Y-81290000D02*
X76061900Y-81290000D01*
X105415000Y-81290000D02*
X105415000Y-82416900D01*
X63731600Y-103101600D02*
X67310000Y-106680000D01*
X56959800Y-103101600D02*
X63731600Y-103101600D01*
X55565100Y-104496300D02*
X56959800Y-103101600D01*
X48515600Y-104496300D02*
X55565100Y-104496300D01*
X47236900Y-105775000D02*
X48515600Y-104496300D01*
X105415000Y-82651000D02*
X105415000Y-82416900D01*
X104240300Y-83825700D02*
X105415000Y-82651000D01*
X87404400Y-83825700D02*
X104240300Y-83825700D01*
X85301400Y-81722700D02*
X87404400Y-83825700D01*
X85301400Y-81167600D02*
X85301400Y-81722700D01*
X84285200Y-80151400D02*
X85301400Y-81167600D01*
X77003700Y-80151400D02*
X84285200Y-80151400D01*
X76061900Y-81093200D02*
X77003700Y-80151400D01*
X76061900Y-81290000D02*
X76061900Y-81093200D01*
X74870300Y-85118700D02*
X74935000Y-85183400D01*
X49695500Y-85118700D02*
X74870300Y-85118700D01*
X48730200Y-86084000D02*
X49695500Y-85118700D01*
X46110000Y-105775000D02*
X46673500Y-105775000D01*
X46673500Y-105775000D02*
X47236900Y-105775000D01*
X61565800Y-134160300D02*
X61036900Y-134689200D01*
X61565800Y-127200600D02*
X61565800Y-134160300D01*
X56280200Y-121915000D02*
X61565800Y-127200600D01*
X55555000Y-121915000D02*
X56280200Y-121915000D01*
X44979800Y-111339800D02*
X55555000Y-121915000D01*
X44979800Y-107468700D02*
X44979800Y-111339800D01*
X46673500Y-105775000D02*
X44979800Y-107468700D01*
%TO.N,D5*%
X106665000Y-109215000D02*
X107791900Y-109215000D01*
X97418000Y-74387500D02*
X98464900Y-74387500D01*
X73521900Y-89143500D02*
X73521900Y-88910000D01*
X74932600Y-90554200D02*
X73521900Y-89143500D01*
X88360000Y-90554200D02*
X74932600Y-90554200D01*
X88594300Y-90319900D02*
X88360000Y-90554200D01*
X90410800Y-90319900D02*
X88594300Y-90319900D01*
X91445000Y-89285700D02*
X90410800Y-90319900D01*
X91445000Y-88536100D02*
X91445000Y-89285700D01*
X92220200Y-87760900D02*
X91445000Y-88536100D01*
X100880700Y-87760900D02*
X92220200Y-87760900D01*
X101748100Y-88628300D02*
X100880700Y-87760900D01*
X101748100Y-88910000D02*
X101748100Y-88628300D01*
X102875000Y-88910000D02*
X101748100Y-88910000D01*
X72395000Y-88910000D02*
X73521900Y-88910000D01*
X98464900Y-74655200D02*
X98464900Y-74387500D01*
X100973000Y-77163300D02*
X98464900Y-74655200D01*
X108705300Y-77163300D02*
X100973000Y-77163300D01*
X113027800Y-81485800D02*
X108705300Y-77163300D01*
X113027800Y-93676200D02*
X113027800Y-81485800D01*
X119377500Y-100025900D02*
X113027800Y-93676200D01*
X119377500Y-101361800D02*
X119377500Y-100025900D01*
X112651200Y-108088100D02*
X119377500Y-101361800D01*
X108637000Y-108088100D02*
X112651200Y-108088100D01*
X107791900Y-108933200D02*
X108637000Y-108088100D01*
X107791900Y-109215000D02*
X107791900Y-108933200D01*
%TO.N,D7*%
X101585000Y-109215000D02*
X100458100Y-109215000D01*
X75871500Y-116978100D02*
X76390300Y-117496900D01*
X73588600Y-116978100D02*
X75871500Y-116978100D01*
X72142100Y-118424600D02*
X73588600Y-116978100D01*
X70273400Y-118424600D02*
X72142100Y-118424600D01*
X59690000Y-108148000D02*
X59690000Y-106680000D01*
X62446800Y-110904800D02*
X59690000Y-108148000D01*
X62845500Y-110904800D02*
X62446800Y-110904800D01*
X70273400Y-118332700D02*
X62845500Y-110904800D01*
X70273400Y-118424600D02*
X70273400Y-118332700D01*
X83817200Y-101955900D02*
X79910000Y-105863100D01*
X92715000Y-101955900D02*
X83817200Y-101955900D01*
X100458100Y-108223100D02*
X100458100Y-109215000D01*
X94190900Y-101955900D02*
X100458100Y-108223100D01*
X92715000Y-101955900D02*
X94190900Y-101955900D01*
%TO.N,A1*%
X97790000Y-118110000D02*
X96663100Y-118110000D01*
X96663000Y-118110000D02*
X96663100Y-118110000D01*
X96663000Y-118305400D02*
X96663000Y-118110000D01*
X90508400Y-124460000D02*
X96663000Y-118305400D01*
X85180600Y-124460000D02*
X90508400Y-124460000D01*
X81888700Y-127751900D02*
X85180600Y-124460000D01*
%TO.N,A5*%
X62371700Y-126853300D02*
X63500000Y-125725000D01*
X62371700Y-133859300D02*
X62371700Y-126853300D01*
X63542700Y-135030300D02*
X62371700Y-133859300D01*
X73324700Y-135030300D02*
X63542700Y-135030300D01*
%TO.N,~{RES}*%
X57155000Y-81290000D02*
X58281900Y-81290000D01*
X46110000Y-95615000D02*
X46110000Y-94488100D01*
X57155000Y-81290000D02*
X56028100Y-81290000D01*
X87635000Y-81290000D02*
X86508100Y-81290000D01*
X84365900Y-130810000D02*
X85635900Y-132080000D01*
X78740000Y-130810000D02*
X84365900Y-130810000D01*
X71339100Y-120542500D02*
X72775000Y-120542500D01*
X69537600Y-118741000D02*
X71339100Y-120542500D01*
X69537600Y-118664900D02*
X69537600Y-118741000D01*
X66783300Y-115910600D02*
X69537600Y-118664900D01*
X63508100Y-115910600D02*
X66783300Y-115910600D01*
X57184000Y-109586500D02*
X63508100Y-115910600D01*
X53081500Y-109586500D02*
X57184000Y-109586500D01*
X49186200Y-105691200D02*
X53081500Y-109586500D01*
X86508100Y-81096100D02*
X86508100Y-81290000D01*
X84659600Y-79247600D02*
X86508100Y-81096100D01*
X79592800Y-79247600D02*
X84659600Y-79247600D01*
X79303300Y-78958100D02*
X79592800Y-79247600D01*
X64982300Y-78958100D02*
X79303300Y-78958100D01*
X64506600Y-78482400D02*
X64982300Y-78958100D01*
X60887900Y-78482400D02*
X64506600Y-78482400D01*
X58281900Y-81088400D02*
X60887900Y-78482400D01*
X58281900Y-81290000D02*
X58281900Y-81088400D01*
X54446300Y-79708200D02*
X56028100Y-81290000D01*
X52621900Y-79708200D02*
X54446300Y-79708200D01*
X47236900Y-85093200D02*
X52621900Y-79708200D01*
X47236900Y-93643000D02*
X47236900Y-85093200D01*
X46391800Y-94488100D02*
X47236900Y-93643000D01*
X46110000Y-94488100D02*
X46391800Y-94488100D01*
%TO.N,~{IORQ}*%
X95342000Y-147828000D02*
X95342000Y-142501100D01*
X96038500Y-141804600D02*
X96038500Y-138361300D01*
X95342000Y-142501100D02*
X96038500Y-141804600D01*
%TO.N,~{RD}*%
X93965000Y-109215000D02*
X92838100Y-109215000D01*
X87591900Y-110992100D02*
X82833400Y-110992100D01*
X88208100Y-110375900D02*
X87591900Y-110992100D01*
X91908400Y-110375900D02*
X88208100Y-110375900D01*
X92838100Y-109446200D02*
X91908400Y-110375900D01*
X92838100Y-109215000D02*
X92838100Y-109446200D01*
X63719400Y-104140000D02*
X62230000Y-104140000D01*
X66040000Y-106460600D02*
X63719400Y-104140000D01*
X66040000Y-106917600D02*
X66040000Y-106460600D01*
X67297500Y-108175100D02*
X66040000Y-106917600D01*
X67818500Y-108175100D02*
X67297500Y-108175100D01*
X68580000Y-108936600D02*
X67818500Y-108175100D01*
X68580000Y-109431600D02*
X68580000Y-108936600D01*
X69414100Y-110265700D02*
X68580000Y-109431600D01*
X76843400Y-110265700D02*
X69414100Y-110265700D01*
X77860100Y-111282400D02*
X76843400Y-110265700D01*
X82543100Y-111282400D02*
X77860100Y-111282400D01*
X82833400Y-110992100D02*
X82543100Y-111282400D01*
X91382000Y-147828000D02*
X91382000Y-142501100D01*
X92499900Y-142501100D02*
X95287800Y-139713200D01*
X91382000Y-142501100D02*
X92499900Y-142501100D01*
%TO.N,A6*%
X87422000Y-147828000D02*
X87422000Y-142501100D01*
X87952600Y-137995600D02*
X65757300Y-137995600D01*
X88404600Y-137543600D02*
X87952600Y-137995600D01*
X92708800Y-137543600D02*
X88404600Y-137543600D01*
X93466200Y-138301000D02*
X92708800Y-137543600D01*
X93466200Y-138898600D02*
X93466200Y-138301000D01*
X89863700Y-142501100D02*
X93466200Y-138898600D01*
X87422000Y-142501100D02*
X89863700Y-142501100D01*
%TO.N,A4*%
X89254900Y-142049200D02*
X91575300Y-139728800D01*
X83913900Y-142049200D02*
X89254900Y-142049200D01*
X83462000Y-142501100D02*
X83913900Y-142049200D01*
X83462000Y-147828000D02*
X83462000Y-142501100D01*
%TO.N,A2*%
X97093600Y-121776900D02*
X97790000Y-121776900D01*
X93531600Y-125338900D02*
X97093600Y-121776900D01*
X97790000Y-120650000D02*
X97790000Y-121776900D01*
X79502000Y-147828000D02*
X79502000Y-142501100D01*
X91552000Y-138724200D02*
X91663700Y-138724200D01*
X90997500Y-139278700D02*
X91552000Y-138724200D01*
X82724400Y-139278700D02*
X90997500Y-139278700D01*
X79502000Y-142501100D02*
X82724400Y-139278700D01*
%TO.N,A0*%
X92067100Y-137997200D02*
X92666300Y-138596400D01*
X91163600Y-137997200D02*
X92067100Y-137997200D01*
X90388200Y-138772600D02*
X91163600Y-137997200D01*
X79270500Y-138772600D02*
X90388200Y-138772600D01*
X75542000Y-142501100D02*
X79270500Y-138772600D01*
X75542000Y-147828000D02*
X75542000Y-142501100D01*
%TO.N,D6*%
X71582000Y-140074900D02*
X71048500Y-139541400D01*
X71582000Y-147828000D02*
X71582000Y-140074900D01*
X104125000Y-109215000D02*
X102998100Y-109215000D01*
X70579000Y-117648400D02*
X70999400Y-117648400D01*
X62230000Y-109299400D02*
X70579000Y-117648400D01*
X62230000Y-109220000D02*
X62230000Y-109299400D01*
X95255000Y-88910000D02*
X94128100Y-88910000D01*
X64775000Y-88910000D02*
X65901900Y-88910000D01*
X94128100Y-89191700D02*
X94128100Y-88910000D01*
X92412800Y-90907000D02*
X94128100Y-89191700D01*
X88646300Y-90907000D02*
X92412800Y-90907000D01*
X88346900Y-91206400D02*
X88646300Y-90907000D01*
X67964800Y-91206400D02*
X88346900Y-91206400D01*
X65901900Y-89143500D02*
X67964800Y-91206400D01*
X65901900Y-88910000D02*
X65901900Y-89143500D01*
X96022100Y-101957300D02*
X95255400Y-101957300D01*
X102998100Y-108933300D02*
X96022100Y-101957300D01*
X102998100Y-109215000D02*
X102998100Y-108933300D01*
%TO.N,D4*%
X105415000Y-88910000D02*
X104288100Y-88910000D01*
X74935000Y-88910000D02*
X76061900Y-88910000D01*
X67622000Y-140306500D02*
X67622000Y-147828000D01*
X66543300Y-139227800D02*
X67622000Y-140306500D01*
X104288100Y-88628300D02*
X104288100Y-88910000D01*
X102946600Y-87286800D02*
X104288100Y-88628300D01*
X90204500Y-87286800D02*
X102946600Y-87286800D01*
X88905000Y-88586300D02*
X90204500Y-87286800D01*
X88905000Y-89291700D02*
X88905000Y-88586300D01*
X88143700Y-90053000D02*
X88905000Y-89291700D01*
X76973500Y-90053000D02*
X88143700Y-90053000D01*
X76061900Y-89141400D02*
X76973500Y-90053000D01*
X76061900Y-88910000D02*
X76061900Y-89141400D01*
%TO.N,D2*%
X102875000Y-81290000D02*
X104001900Y-81290000D01*
X72395000Y-81290000D02*
X73521900Y-81290000D01*
X46110000Y-103235000D02*
X46110000Y-104361900D01*
X63662000Y-147828000D02*
X63662000Y-142501100D01*
X46110000Y-103235000D02*
X47236900Y-103235000D01*
X64974400Y-102643200D02*
X67679400Y-105348200D01*
X57074300Y-102643200D02*
X64974400Y-102643200D01*
X56480900Y-102049800D02*
X57074300Y-102643200D01*
X48422100Y-102049800D02*
X56480900Y-102049800D01*
X47236900Y-103235000D02*
X48422100Y-102049800D01*
X104261200Y-82649800D02*
X104001900Y-82390500D01*
X104385000Y-82649800D02*
X104261200Y-82649800D01*
X103018600Y-83373800D02*
X104001900Y-82390500D01*
X87639100Y-83373800D02*
X103018600Y-83373800D01*
X85912600Y-81647300D02*
X87639100Y-83373800D01*
X85912600Y-81139700D02*
X85912600Y-81647300D01*
X84472400Y-79699500D02*
X85912600Y-81139700D01*
X74901300Y-79699500D02*
X84472400Y-79699500D01*
X73521900Y-81078900D02*
X74901300Y-79699500D01*
X73521900Y-81290000D02*
X73521900Y-81078900D01*
X104001900Y-82390500D02*
X104001900Y-81290000D01*
X60717700Y-142501100D02*
X63662000Y-142501100D01*
X54494900Y-136278300D02*
X60717700Y-142501100D01*
X54494900Y-121626700D02*
X54494900Y-136278300D01*
X44524500Y-111656300D02*
X54494900Y-121626700D01*
X44524500Y-105726800D02*
X44524500Y-111656300D01*
X45889400Y-104361900D02*
X44524500Y-105726800D01*
X46110000Y-104361900D02*
X45889400Y-104361900D01*
%TO.N,D0*%
X59702000Y-147828000D02*
X59702000Y-142501100D01*
X46110000Y-98155000D02*
X46110000Y-99281900D01*
X59461400Y-93827400D02*
X59681400Y-93827400D01*
X57971000Y-95317800D02*
X59461400Y-93827400D01*
X57971000Y-98182000D02*
X57971000Y-95317800D01*
X57971000Y-98811900D02*
X57971000Y-98182000D01*
X59716600Y-100557500D02*
X57971000Y-98811900D01*
X64799500Y-100557500D02*
X59716600Y-100557500D01*
X69811300Y-105569300D02*
X64799500Y-100557500D01*
X70207400Y-105569300D02*
X69811300Y-105569300D01*
X71318100Y-106680000D02*
X70207400Y-105569300D01*
X72390000Y-106680000D02*
X71318100Y-106680000D01*
X55535500Y-99281900D02*
X46110000Y-99281900D01*
X56635400Y-98182000D02*
X55535500Y-99281900D01*
X57971000Y-98182000D02*
X56635400Y-98182000D01*
X49788500Y-132587600D02*
X59702000Y-142501100D01*
X49788500Y-120315500D02*
X49788500Y-132587600D01*
X44071100Y-114598100D02*
X49788500Y-120315500D01*
X44071100Y-101087300D02*
X44071100Y-114598100D01*
X45876500Y-99281900D02*
X44071100Y-101087300D01*
X46110000Y-99281900D02*
X45876500Y-99281900D01*
X74535900Y-106680000D02*
X72390000Y-106680000D01*
X78217100Y-110361200D02*
X74535900Y-106680000D01*
X81716500Y-110361200D02*
X78217100Y-110361200D01*
X82395200Y-109682500D02*
X81716500Y-110361200D01*
X82395200Y-109020200D02*
X82395200Y-109682500D01*
X86106800Y-105308600D02*
X82395200Y-109020200D01*
X96471100Y-105308600D02*
X86106800Y-105308600D01*
X98276000Y-107113500D02*
X96471100Y-105308600D01*
X106989000Y-86266700D02*
X93647700Y-86266700D01*
X109085100Y-88362800D02*
X106989000Y-86266700D01*
X109085100Y-89401200D02*
X109085100Y-88362800D01*
X104511300Y-93975000D02*
X109085100Y-89401200D01*
X104125000Y-93975000D02*
X104511300Y-93975000D01*
%TO.N,VCC*%
X64398000Y-70113000D02*
X64398000Y-74387500D01*
X63460000Y-69175000D02*
X64398000Y-70113000D01*
X49530000Y-69175000D02*
X63460000Y-69175000D01*
X57155000Y-87000000D02*
X57155000Y-88910000D01*
X56445000Y-86290000D02*
X57155000Y-87000000D01*
X53340000Y-86290000D02*
X56445000Y-86290000D01*
D22*
X114935000Y-133350000D02*
X118110000Y-133350000D01*
X112395000Y-135890000D02*
X114935000Y-133350000D01*
X55880000Y-135890000D02*
X112395000Y-135890000D01*
D21*
X67310000Y-118105000D02*
X66183100Y-118105000D01*
D22*
X81788000Y-101092000D02*
X118618000Y-101092000D01*
X78725000Y-104155000D02*
X81788000Y-101092000D01*
X78725000Y-109215000D02*
X78725000Y-104155000D01*
D21*
X87635000Y-87635000D02*
X87635000Y-88910000D01*
X86280000Y-86280000D02*
X87635000Y-87635000D01*
X83820000Y-86280000D02*
X86280000Y-86280000D01*
X64605700Y-116527600D02*
X66183100Y-118105000D01*
X60727600Y-116527600D02*
X64605700Y-116527600D01*
X58500000Y-114300000D02*
X60727600Y-116527600D01*
X78740000Y-118110000D02*
X77613100Y-118110000D01*
X77613100Y-117662700D02*
X77613100Y-118110000D01*
X76029800Y-116079400D02*
X77613100Y-117662700D01*
X71709400Y-116079400D02*
X76029800Y-116079400D01*
X69930000Y-114300000D02*
X71709400Y-116079400D01*
X101600000Y-115570000D02*
X100473100Y-115570000D01*
X94386200Y-113991200D02*
X92790000Y-112395000D01*
X98894300Y-113991200D02*
X94386200Y-113991200D01*
X100473100Y-115570000D02*
X98894300Y-113991200D01*
X61595000Y-90805000D02*
X60965000Y-90805000D01*
X64770000Y-93980000D02*
X61595000Y-90805000D01*
X57150000Y-88915000D02*
X57155000Y-88910000D01*
X57150000Y-90170000D02*
X57150000Y-88915000D01*
X57785000Y-90805000D02*
X57150000Y-90170000D01*
X60965000Y-90805000D02*
X57785000Y-90805000D01*
X82630000Y-115570000D02*
X81360000Y-114300000D01*
X90170000Y-115570000D02*
X82630000Y-115570000D01*
X83184900Y-86915100D02*
X83820000Y-86280000D01*
X62630900Y-86915100D02*
X83184900Y-86915100D01*
X60965000Y-88581000D02*
X62630900Y-86915100D01*
X60965000Y-90805000D02*
X60965000Y-88581000D01*
D22*
%TO.N,GND*%
X111182000Y-140278000D02*
X116205000Y-135255000D01*
X111182000Y-147828000D02*
X111182000Y-140278000D01*
D21*
X86360000Y-133350000D02*
X85233100Y-133350000D01*
X74930000Y-133345000D02*
X76056900Y-133345000D01*
X97790000Y-133350000D02*
X101600000Y-133350000D01*
X80015000Y-83815000D02*
X80015000Y-81290000D01*
X79375000Y-84455000D02*
X80015000Y-83815000D01*
X55245000Y-84455000D02*
X79375000Y-84455000D01*
X53340000Y-82550000D02*
X55245000Y-84455000D01*
X53340000Y-81290000D02*
X53340000Y-82550000D01*
X110993000Y-57150000D02*
X112219900Y-57150000D01*
X118359000Y-57150000D02*
X117132100Y-57150000D01*
X77211600Y-132190300D02*
X76056900Y-133345000D01*
X84073400Y-132190300D02*
X77211600Y-132190300D01*
X85233100Y-133350000D02*
X84073400Y-132190300D01*
X83820000Y-82550000D02*
X83820000Y-81915000D01*
X86360000Y-85090000D02*
X83820000Y-82550000D01*
X109855000Y-85090000D02*
X86360000Y-85090000D01*
X110495000Y-84450000D02*
X109855000Y-85090000D01*
X110495000Y-81290000D02*
X110495000Y-84450000D01*
X83820000Y-81915000D02*
X83820000Y-81280000D01*
X81766900Y-81915000D02*
X81141900Y-81290000D01*
X83820000Y-81915000D02*
X81766900Y-81915000D01*
X80015000Y-81290000D02*
X81141900Y-81290000D01*
X102498000Y-63237000D02*
X102498000Y-61192200D01*
X101560000Y-64175000D02*
X102498000Y-63237000D01*
X49530000Y-64175000D02*
X101560000Y-64175000D01*
X102498000Y-61192200D02*
X102498000Y-59147500D01*
X105723900Y-61192200D02*
X109766100Y-57150000D01*
X102498000Y-61192200D02*
X105723900Y-61192200D01*
X110993000Y-57150000D02*
X109766100Y-57150000D01*
X115905200Y-55923100D02*
X117132100Y-57150000D01*
X112986700Y-55923100D02*
X115905200Y-55923100D01*
X112219900Y-56689900D02*
X112986700Y-55923100D01*
X112219900Y-57150000D02*
X112219900Y-56689900D01*
X72663700Y-132205600D02*
X73803100Y-133345000D01*
X65766300Y-132205600D02*
X72663700Y-132205600D01*
X64626900Y-133345000D02*
X65766300Y-132205600D01*
X63500000Y-133345000D02*
X64626900Y-133345000D01*
X74930000Y-133345000D02*
X73803100Y-133345000D01*
X46110000Y-110855000D02*
X47236900Y-110855000D01*
X53730000Y-110855000D02*
X47236900Y-110855000D01*
X53730000Y-117649800D02*
X53730000Y-110855000D01*
X55598300Y-119518100D02*
X53730000Y-117649800D01*
X55880000Y-119518100D02*
X55598300Y-119518100D01*
X55880000Y-120645000D02*
X55880000Y-119518100D01*
%TD*%
M02*
