%TF.GenerationSoftware,KiCad,Pcbnew,7.0.10*%
%TF.CreationDate,2024-01-21T16:19:02+01:00*%
%TF.ProjectId,p2000t-slot2-datacartridge,70323030-3074-42d7-936c-6f74322d6461,rev?*%
%TF.SameCoordinates,Original*%
%TF.FileFunction,Legend,Top*%
%TF.FilePolarity,Positive*%
%FSLAX46Y46*%
G04 Gerber Fmt 4.6, Leading zero omitted, Abs format (unit mm)*
G04 Created by KiCad (PCBNEW 7.0.10) date 2024-01-21 16:19:02*
%MOMM*%
%LPD*%
G01*
G04 APERTURE LIST*
%ADD10C,0.120000*%
%ADD11C,0.150000*%
%ADD12C,0.300000*%
%ADD13C,0.200000*%
G04 APERTURE END LIST*
D10*
X112291100Y-137134600D02*
X109878100Y-137134600D01*
X112291100Y-140690600D02*
X112291100Y-137134600D01*
X109878100Y-140690600D02*
X112291100Y-140690600D01*
X54518800Y-138277600D02*
X54518800Y-140817600D01*
X109878100Y-137134600D02*
X109878100Y-140690600D01*
X74483200Y-140639800D02*
X88582500Y-140639800D01*
X54518800Y-140817600D02*
X56931800Y-140817600D01*
X56931800Y-138277600D02*
X54518800Y-138277600D01*
X56931800Y-140817600D02*
X56931800Y-138277600D01*
X58671700Y-140627100D02*
X72768700Y-140627100D01*
X81026000Y-99060000D02*
X114046000Y-99060000D01*
X114046000Y-104140000D01*
X81026000Y-104140000D01*
X81026000Y-99060000D01*
G36*
X81026000Y-99060000D02*
G01*
X114046000Y-99060000D01*
X114046000Y-104140000D01*
X81026000Y-104140000D01*
X81026000Y-99060000D01*
G37*
X117094000Y-108204000D02*
X122174000Y-108204000D01*
X122174000Y-113284000D01*
X117094000Y-113284000D01*
X117094000Y-108204000D01*
G36*
X117094000Y-108204000D02*
G01*
X122174000Y-108204000D01*
X122174000Y-113284000D01*
X117094000Y-113284000D01*
X117094000Y-108204000D01*
G37*
X117094000Y-114554000D02*
X122174000Y-114554000D01*
X122174000Y-119634000D01*
X117094000Y-119634000D01*
X117094000Y-114554000D01*
G36*
X117094000Y-114554000D02*
G01*
X122174000Y-114554000D01*
X122174000Y-119634000D01*
X117094000Y-119634000D01*
X117094000Y-114554000D01*
G37*
D11*
X110505242Y-142288419D02*
X109933814Y-142288419D01*
X110219528Y-142288419D02*
X110219528Y-141288419D01*
X110219528Y-141288419D02*
X110124290Y-141431276D01*
X110124290Y-141431276D02*
X110029052Y-141526514D01*
X110029052Y-141526514D02*
X109933814Y-141574133D01*
X111410004Y-141288419D02*
X110933814Y-141288419D01*
X110933814Y-141288419D02*
X110886195Y-141764609D01*
X110886195Y-141764609D02*
X110933814Y-141716990D01*
X110933814Y-141716990D02*
X111029052Y-141669371D01*
X111029052Y-141669371D02*
X111267147Y-141669371D01*
X111267147Y-141669371D02*
X111362385Y-141716990D01*
X111362385Y-141716990D02*
X111410004Y-141764609D01*
X111410004Y-141764609D02*
X111457623Y-141859847D01*
X111457623Y-141859847D02*
X111457623Y-142097942D01*
X111457623Y-142097942D02*
X111410004Y-142193180D01*
X111410004Y-142193180D02*
X111362385Y-142240800D01*
X111362385Y-142240800D02*
X111267147Y-142288419D01*
X111267147Y-142288419D02*
X111029052Y-142288419D01*
X111029052Y-142288419D02*
X110933814Y-142240800D01*
X110933814Y-142240800D02*
X110886195Y-142193180D01*
X111886195Y-142288419D02*
X111886195Y-141288419D01*
X111886195Y-141669371D02*
X111981433Y-141621752D01*
X111981433Y-141621752D02*
X112171909Y-141621752D01*
X112171909Y-141621752D02*
X112267147Y-141669371D01*
X112267147Y-141669371D02*
X112314766Y-141716990D01*
X112314766Y-141716990D02*
X112362385Y-141812228D01*
X112362385Y-141812228D02*
X112362385Y-142097942D01*
X112362385Y-142097942D02*
X112314766Y-142193180D01*
X112314766Y-142193180D02*
X112267147Y-142240800D01*
X112267147Y-142240800D02*
X112171909Y-142288419D01*
X112171909Y-142288419D02*
X111981433Y-142288419D01*
X111981433Y-142288419D02*
X111886195Y-142240800D01*
X82952581Y-141666190D02*
X82857343Y-141618571D01*
X82857343Y-141618571D02*
X82809724Y-141570952D01*
X82809724Y-141570952D02*
X82762105Y-141475714D01*
X82762105Y-141475714D02*
X82762105Y-141428095D01*
X82762105Y-141428095D02*
X82809724Y-141332857D01*
X82809724Y-141332857D02*
X82857343Y-141285238D01*
X82857343Y-141285238D02*
X82952581Y-141237619D01*
X82952581Y-141237619D02*
X83143057Y-141237619D01*
X83143057Y-141237619D02*
X83238295Y-141285238D01*
X83238295Y-141285238D02*
X83285914Y-141332857D01*
X83285914Y-141332857D02*
X83333533Y-141428095D01*
X83333533Y-141428095D02*
X83333533Y-141475714D01*
X83333533Y-141475714D02*
X83285914Y-141570952D01*
X83285914Y-141570952D02*
X83238295Y-141618571D01*
X83238295Y-141618571D02*
X83143057Y-141666190D01*
X83143057Y-141666190D02*
X82952581Y-141666190D01*
X82952581Y-141666190D02*
X82857343Y-141713809D01*
X82857343Y-141713809D02*
X82809724Y-141761428D01*
X82809724Y-141761428D02*
X82762105Y-141856666D01*
X82762105Y-141856666D02*
X82762105Y-142047142D01*
X82762105Y-142047142D02*
X82809724Y-142142380D01*
X82809724Y-142142380D02*
X82857343Y-142190000D01*
X82857343Y-142190000D02*
X82952581Y-142237619D01*
X82952581Y-142237619D02*
X83143057Y-142237619D01*
X83143057Y-142237619D02*
X83238295Y-142190000D01*
X83238295Y-142190000D02*
X83285914Y-142142380D01*
X83285914Y-142142380D02*
X83333533Y-142047142D01*
X83333533Y-142047142D02*
X83333533Y-141856666D01*
X83333533Y-141856666D02*
X83285914Y-141761428D01*
X83285914Y-141761428D02*
X83238295Y-141713809D01*
X83238295Y-141713809D02*
X83143057Y-141666190D01*
X83762105Y-142237619D02*
X83762105Y-141237619D01*
X83762105Y-141618571D02*
X83857343Y-141570952D01*
X83857343Y-141570952D02*
X84047819Y-141570952D01*
X84047819Y-141570952D02*
X84143057Y-141618571D01*
X84143057Y-141618571D02*
X84190676Y-141666190D01*
X84190676Y-141666190D02*
X84238295Y-141761428D01*
X84238295Y-141761428D02*
X84238295Y-142047142D01*
X84238295Y-142047142D02*
X84190676Y-142142380D01*
X84190676Y-142142380D02*
X84143057Y-142190000D01*
X84143057Y-142190000D02*
X84047819Y-142237619D01*
X84047819Y-142237619D02*
X83857343Y-142237619D01*
X83857343Y-142237619D02*
X83762105Y-142190000D01*
X75237295Y-141237619D02*
X75046819Y-141237619D01*
X75046819Y-141237619D02*
X74951581Y-141285238D01*
X74951581Y-141285238D02*
X74903962Y-141332857D01*
X74903962Y-141332857D02*
X74808724Y-141475714D01*
X74808724Y-141475714D02*
X74761105Y-141666190D01*
X74761105Y-141666190D02*
X74761105Y-142047142D01*
X74761105Y-142047142D02*
X74808724Y-142142380D01*
X74808724Y-142142380D02*
X74856343Y-142190000D01*
X74856343Y-142190000D02*
X74951581Y-142237619D01*
X74951581Y-142237619D02*
X75142057Y-142237619D01*
X75142057Y-142237619D02*
X75237295Y-142190000D01*
X75237295Y-142190000D02*
X75284914Y-142142380D01*
X75284914Y-142142380D02*
X75332533Y-142047142D01*
X75332533Y-142047142D02*
X75332533Y-141809047D01*
X75332533Y-141809047D02*
X75284914Y-141713809D01*
X75284914Y-141713809D02*
X75237295Y-141666190D01*
X75237295Y-141666190D02*
X75142057Y-141618571D01*
X75142057Y-141618571D02*
X74951581Y-141618571D01*
X74951581Y-141618571D02*
X74856343Y-141666190D01*
X74856343Y-141666190D02*
X74808724Y-141713809D01*
X74808724Y-141713809D02*
X74761105Y-141809047D01*
X75761105Y-142237619D02*
X75761105Y-141237619D01*
X75761105Y-141618571D02*
X75856343Y-141570952D01*
X75856343Y-141570952D02*
X76046819Y-141570952D01*
X76046819Y-141570952D02*
X76142057Y-141618571D01*
X76142057Y-141618571D02*
X76189676Y-141666190D01*
X76189676Y-141666190D02*
X76237295Y-141761428D01*
X76237295Y-141761428D02*
X76237295Y-142047142D01*
X76237295Y-142047142D02*
X76189676Y-142142380D01*
X76189676Y-142142380D02*
X76142057Y-142190000D01*
X76142057Y-142190000D02*
X76046819Y-142237619D01*
X76046819Y-142237619D02*
X75856343Y-142237619D01*
X75856343Y-142237619D02*
X75761105Y-142190000D01*
X78650486Y-141237619D02*
X79317152Y-141237619D01*
X79317152Y-141237619D02*
X78888581Y-142237619D01*
X79698105Y-142237619D02*
X79698105Y-141237619D01*
X79698105Y-141618571D02*
X79793343Y-141570952D01*
X79793343Y-141570952D02*
X79983819Y-141570952D01*
X79983819Y-141570952D02*
X80079057Y-141618571D01*
X80079057Y-141618571D02*
X80126676Y-141666190D01*
X80126676Y-141666190D02*
X80174295Y-141761428D01*
X80174295Y-141761428D02*
X80174295Y-142047142D01*
X80174295Y-142047142D02*
X80126676Y-142142380D01*
X80126676Y-142142380D02*
X80079057Y-142190000D01*
X80079057Y-142190000D02*
X79983819Y-142237619D01*
X79983819Y-142237619D02*
X79793343Y-142237619D01*
X79793343Y-142237619D02*
X79698105Y-142190000D01*
X55495133Y-142415419D02*
X54923705Y-142415419D01*
X55209419Y-142415419D02*
X55209419Y-141415419D01*
X55209419Y-141415419D02*
X55114181Y-141558276D01*
X55114181Y-141558276D02*
X55018943Y-141653514D01*
X55018943Y-141653514D02*
X54923705Y-141701133D01*
X55923705Y-142415419D02*
X55923705Y-141415419D01*
X55923705Y-141796371D02*
X56018943Y-141748752D01*
X56018943Y-141748752D02*
X56209419Y-141748752D01*
X56209419Y-141748752D02*
X56304657Y-141796371D01*
X56304657Y-141796371D02*
X56352276Y-141843990D01*
X56352276Y-141843990D02*
X56399895Y-141939228D01*
X56399895Y-141939228D02*
X56399895Y-142224942D01*
X56399895Y-142224942D02*
X56352276Y-142320180D01*
X56352276Y-142320180D02*
X56304657Y-142367800D01*
X56304657Y-142367800D02*
X56209419Y-142415419D01*
X56209419Y-142415419D02*
X56018943Y-142415419D01*
X56018943Y-142415419D02*
X55923705Y-142367800D01*
X90731342Y-142237619D02*
X90159914Y-142237619D01*
X90445628Y-142237619D02*
X90445628Y-141237619D01*
X90445628Y-141237619D02*
X90350390Y-141380476D01*
X90350390Y-141380476D02*
X90255152Y-141475714D01*
X90255152Y-141475714D02*
X90159914Y-141523333D01*
X91350390Y-141237619D02*
X91445628Y-141237619D01*
X91445628Y-141237619D02*
X91540866Y-141285238D01*
X91540866Y-141285238D02*
X91588485Y-141332857D01*
X91588485Y-141332857D02*
X91636104Y-141428095D01*
X91636104Y-141428095D02*
X91683723Y-141618571D01*
X91683723Y-141618571D02*
X91683723Y-141856666D01*
X91683723Y-141856666D02*
X91636104Y-142047142D01*
X91636104Y-142047142D02*
X91588485Y-142142380D01*
X91588485Y-142142380D02*
X91540866Y-142190000D01*
X91540866Y-142190000D02*
X91445628Y-142237619D01*
X91445628Y-142237619D02*
X91350390Y-142237619D01*
X91350390Y-142237619D02*
X91255152Y-142190000D01*
X91255152Y-142190000D02*
X91207533Y-142142380D01*
X91207533Y-142142380D02*
X91159914Y-142047142D01*
X91159914Y-142047142D02*
X91112295Y-141856666D01*
X91112295Y-141856666D02*
X91112295Y-141618571D01*
X91112295Y-141618571D02*
X91159914Y-141428095D01*
X91159914Y-141428095D02*
X91207533Y-141332857D01*
X91207533Y-141332857D02*
X91255152Y-141285238D01*
X91255152Y-141285238D02*
X91350390Y-141237619D01*
X92112295Y-142237619D02*
X92112295Y-141237619D01*
X92112295Y-141618571D02*
X92207533Y-141570952D01*
X92207533Y-141570952D02*
X92398009Y-141570952D01*
X92398009Y-141570952D02*
X92493247Y-141618571D01*
X92493247Y-141618571D02*
X92540866Y-141666190D01*
X92540866Y-141666190D02*
X92588485Y-141761428D01*
X92588485Y-141761428D02*
X92588485Y-142047142D01*
X92588485Y-142047142D02*
X92540866Y-142142380D01*
X92540866Y-142142380D02*
X92493247Y-142190000D01*
X92493247Y-142190000D02*
X92398009Y-142237619D01*
X92398009Y-142237619D02*
X92207533Y-142237619D01*
X92207533Y-142237619D02*
X92112295Y-142190000D01*
X71411414Y-141224919D02*
X70935224Y-141224919D01*
X70935224Y-141224919D02*
X70887605Y-141701109D01*
X70887605Y-141701109D02*
X70935224Y-141653490D01*
X70935224Y-141653490D02*
X71030462Y-141605871D01*
X71030462Y-141605871D02*
X71268557Y-141605871D01*
X71268557Y-141605871D02*
X71363795Y-141653490D01*
X71363795Y-141653490D02*
X71411414Y-141701109D01*
X71411414Y-141701109D02*
X71459033Y-141796347D01*
X71459033Y-141796347D02*
X71459033Y-142034442D01*
X71459033Y-142034442D02*
X71411414Y-142129680D01*
X71411414Y-142129680D02*
X71363795Y-142177300D01*
X71363795Y-142177300D02*
X71268557Y-142224919D01*
X71268557Y-142224919D02*
X71030462Y-142224919D01*
X71030462Y-142224919D02*
X70935224Y-142177300D01*
X70935224Y-142177300D02*
X70887605Y-142129680D01*
X71887605Y-142224919D02*
X71887605Y-141224919D01*
X71887605Y-141605871D02*
X71982843Y-141558252D01*
X71982843Y-141558252D02*
X72173319Y-141558252D01*
X72173319Y-141558252D02*
X72268557Y-141605871D01*
X72268557Y-141605871D02*
X72316176Y-141653490D01*
X72316176Y-141653490D02*
X72363795Y-141748728D01*
X72363795Y-141748728D02*
X72363795Y-142034442D01*
X72363795Y-142034442D02*
X72316176Y-142129680D01*
X72316176Y-142129680D02*
X72268557Y-142177300D01*
X72268557Y-142177300D02*
X72173319Y-142224919D01*
X72173319Y-142224919D02*
X71982843Y-142224919D01*
X71982843Y-142224919D02*
X71887605Y-142177300D01*
X62109081Y-139938919D02*
X62109081Y-138938919D01*
X62109081Y-138938919D02*
X62347176Y-138938919D01*
X62347176Y-138938919D02*
X62490033Y-138986538D01*
X62490033Y-138986538D02*
X62585271Y-139081776D01*
X62585271Y-139081776D02*
X62632890Y-139177014D01*
X62632890Y-139177014D02*
X62680509Y-139367490D01*
X62680509Y-139367490D02*
X62680509Y-139510347D01*
X62680509Y-139510347D02*
X62632890Y-139700823D01*
X62632890Y-139700823D02*
X62585271Y-139796061D01*
X62585271Y-139796061D02*
X62490033Y-139891300D01*
X62490033Y-139891300D02*
X62347176Y-139938919D01*
X62347176Y-139938919D02*
X62109081Y-139938919D01*
X63394795Y-140272252D02*
X63156700Y-140272252D01*
X63156700Y-140272252D02*
X63156700Y-138843680D01*
X63156700Y-138843680D02*
X63394795Y-138843680D01*
X64299557Y-139938919D02*
X63728129Y-139938919D01*
X64013843Y-139938919D02*
X64013843Y-138938919D01*
X64013843Y-138938919D02*
X63918605Y-139081776D01*
X63918605Y-139081776D02*
X63823367Y-139177014D01*
X63823367Y-139177014D02*
X63728129Y-139224633D01*
X64775748Y-139891300D02*
X64775748Y-139938919D01*
X64775748Y-139938919D02*
X64728129Y-140034157D01*
X64728129Y-140034157D02*
X64680510Y-140081776D01*
X65109081Y-138938919D02*
X65728128Y-138938919D01*
X65728128Y-138938919D02*
X65394795Y-139319871D01*
X65394795Y-139319871D02*
X65537652Y-139319871D01*
X65537652Y-139319871D02*
X65632890Y-139367490D01*
X65632890Y-139367490D02*
X65680509Y-139415109D01*
X65680509Y-139415109D02*
X65728128Y-139510347D01*
X65728128Y-139510347D02*
X65728128Y-139748442D01*
X65728128Y-139748442D02*
X65680509Y-139843680D01*
X65680509Y-139843680D02*
X65632890Y-139891300D01*
X65632890Y-139891300D02*
X65537652Y-139938919D01*
X65537652Y-139938919D02*
X65251938Y-139938919D01*
X65251938Y-139938919D02*
X65156700Y-139891300D01*
X65156700Y-139891300D02*
X65109081Y-139843680D01*
X66204319Y-139891300D02*
X66204319Y-139938919D01*
X66204319Y-139938919D02*
X66156700Y-140034157D01*
X66156700Y-140034157D02*
X66109081Y-140081776D01*
X67109080Y-138938919D02*
X66632890Y-138938919D01*
X66632890Y-138938919D02*
X66585271Y-139415109D01*
X66585271Y-139415109D02*
X66632890Y-139367490D01*
X66632890Y-139367490D02*
X66728128Y-139319871D01*
X66728128Y-139319871D02*
X66966223Y-139319871D01*
X66966223Y-139319871D02*
X67061461Y-139367490D01*
X67061461Y-139367490D02*
X67109080Y-139415109D01*
X67109080Y-139415109D02*
X67156699Y-139510347D01*
X67156699Y-139510347D02*
X67156699Y-139748442D01*
X67156699Y-139748442D02*
X67109080Y-139843680D01*
X67109080Y-139843680D02*
X67061461Y-139891300D01*
X67061461Y-139891300D02*
X66966223Y-139938919D01*
X66966223Y-139938919D02*
X66728128Y-139938919D01*
X66728128Y-139938919D02*
X66632890Y-139891300D01*
X66632890Y-139891300D02*
X66585271Y-139843680D01*
X67632890Y-139891300D02*
X67632890Y-139938919D01*
X67632890Y-139938919D02*
X67585271Y-140034157D01*
X67585271Y-140034157D02*
X67537652Y-140081776D01*
X67966223Y-138938919D02*
X68632889Y-138938919D01*
X68632889Y-138938919D02*
X68204318Y-139938919D01*
X68918604Y-140272252D02*
X69156699Y-140272252D01*
X69156699Y-140272252D02*
X69156699Y-138843680D01*
X69156699Y-138843680D02*
X68918604Y-138843680D01*
X55243619Y-139738076D02*
X55243619Y-140214266D01*
X55243619Y-140214266D02*
X55719809Y-140261885D01*
X55719809Y-140261885D02*
X55672190Y-140214266D01*
X55672190Y-140214266D02*
X55624571Y-140119028D01*
X55624571Y-140119028D02*
X55624571Y-139880933D01*
X55624571Y-139880933D02*
X55672190Y-139785695D01*
X55672190Y-139785695D02*
X55719809Y-139738076D01*
X55719809Y-139738076D02*
X55815047Y-139690457D01*
X55815047Y-139690457D02*
X56053142Y-139690457D01*
X56053142Y-139690457D02*
X56148380Y-139738076D01*
X56148380Y-139738076D02*
X56196000Y-139785695D01*
X56196000Y-139785695D02*
X56243619Y-139880933D01*
X56243619Y-139880933D02*
X56243619Y-140119028D01*
X56243619Y-140119028D02*
X56196000Y-140214266D01*
X56196000Y-140214266D02*
X56148380Y-140261885D01*
X55243619Y-139404742D02*
X56243619Y-139071409D01*
X56243619Y-139071409D02*
X55243619Y-138738076D01*
X78033291Y-139615104D02*
X78509481Y-139615104D01*
X77938053Y-139900819D02*
X78271386Y-138900819D01*
X78271386Y-138900819D02*
X78604719Y-139900819D01*
X79223767Y-140234152D02*
X78985672Y-140234152D01*
X78985672Y-140234152D02*
X78985672Y-138805580D01*
X78985672Y-138805580D02*
X79223767Y-138805580D01*
X80128529Y-139900819D02*
X79557101Y-139900819D01*
X79842815Y-139900819D02*
X79842815Y-138900819D01*
X79842815Y-138900819D02*
X79747577Y-139043676D01*
X79747577Y-139043676D02*
X79652339Y-139138914D01*
X79652339Y-139138914D02*
X79557101Y-139186533D01*
X80604720Y-139853200D02*
X80604720Y-139900819D01*
X80604720Y-139900819D02*
X80557101Y-139996057D01*
X80557101Y-139996057D02*
X80509482Y-140043676D01*
X80938053Y-138900819D02*
X81557100Y-138900819D01*
X81557100Y-138900819D02*
X81223767Y-139281771D01*
X81223767Y-139281771D02*
X81366624Y-139281771D01*
X81366624Y-139281771D02*
X81461862Y-139329390D01*
X81461862Y-139329390D02*
X81509481Y-139377009D01*
X81509481Y-139377009D02*
X81557100Y-139472247D01*
X81557100Y-139472247D02*
X81557100Y-139710342D01*
X81557100Y-139710342D02*
X81509481Y-139805580D01*
X81509481Y-139805580D02*
X81461862Y-139853200D01*
X81461862Y-139853200D02*
X81366624Y-139900819D01*
X81366624Y-139900819D02*
X81080910Y-139900819D01*
X81080910Y-139900819D02*
X80985672Y-139853200D01*
X80985672Y-139853200D02*
X80938053Y-139805580D01*
X82033291Y-139853200D02*
X82033291Y-139900819D01*
X82033291Y-139900819D02*
X81985672Y-139996057D01*
X81985672Y-139996057D02*
X81938053Y-140043676D01*
X82938052Y-138900819D02*
X82461862Y-138900819D01*
X82461862Y-138900819D02*
X82414243Y-139377009D01*
X82414243Y-139377009D02*
X82461862Y-139329390D01*
X82461862Y-139329390D02*
X82557100Y-139281771D01*
X82557100Y-139281771D02*
X82795195Y-139281771D01*
X82795195Y-139281771D02*
X82890433Y-139329390D01*
X82890433Y-139329390D02*
X82938052Y-139377009D01*
X82938052Y-139377009D02*
X82985671Y-139472247D01*
X82985671Y-139472247D02*
X82985671Y-139710342D01*
X82985671Y-139710342D02*
X82938052Y-139805580D01*
X82938052Y-139805580D02*
X82890433Y-139853200D01*
X82890433Y-139853200D02*
X82795195Y-139900819D01*
X82795195Y-139900819D02*
X82557100Y-139900819D01*
X82557100Y-139900819D02*
X82461862Y-139853200D01*
X82461862Y-139853200D02*
X82414243Y-139805580D01*
X83461862Y-139853200D02*
X83461862Y-139900819D01*
X83461862Y-139900819D02*
X83414243Y-139996057D01*
X83414243Y-139996057D02*
X83366624Y-140043676D01*
X83795195Y-138900819D02*
X84461861Y-138900819D01*
X84461861Y-138900819D02*
X84033290Y-139900819D01*
X84747576Y-140234152D02*
X84985671Y-140234152D01*
X84985671Y-140234152D02*
X84985671Y-138805580D01*
X84985671Y-138805580D02*
X84747576Y-138805580D01*
X110650538Y-139674504D02*
X110602919Y-139769742D01*
X110602919Y-139769742D02*
X110602919Y-139912599D01*
X110602919Y-139912599D02*
X110650538Y-140055456D01*
X110650538Y-140055456D02*
X110745776Y-140150694D01*
X110745776Y-140150694D02*
X110841014Y-140198313D01*
X110841014Y-140198313D02*
X111031490Y-140245932D01*
X111031490Y-140245932D02*
X111174347Y-140245932D01*
X111174347Y-140245932D02*
X111364823Y-140198313D01*
X111364823Y-140198313D02*
X111460061Y-140150694D01*
X111460061Y-140150694D02*
X111555300Y-140055456D01*
X111555300Y-140055456D02*
X111602919Y-139912599D01*
X111602919Y-139912599D02*
X111602919Y-139817361D01*
X111602919Y-139817361D02*
X111555300Y-139674504D01*
X111555300Y-139674504D02*
X111507680Y-139626885D01*
X111507680Y-139626885D02*
X111174347Y-139626885D01*
X111174347Y-139626885D02*
X111174347Y-139817361D01*
X111602919Y-139198313D02*
X110602919Y-139198313D01*
X110602919Y-139198313D02*
X111602919Y-138626885D01*
X111602919Y-138626885D02*
X110602919Y-138626885D01*
X111602919Y-138150694D02*
X110602919Y-138150694D01*
X110602919Y-138150694D02*
X110602919Y-137912599D01*
X110602919Y-137912599D02*
X110650538Y-137769742D01*
X110650538Y-137769742D02*
X110745776Y-137674504D01*
X110745776Y-137674504D02*
X110841014Y-137626885D01*
X110841014Y-137626885D02*
X111031490Y-137579266D01*
X111031490Y-137579266D02*
X111174347Y-137579266D01*
X111174347Y-137579266D02*
X111364823Y-137626885D01*
X111364823Y-137626885D02*
X111460061Y-137674504D01*
X111460061Y-137674504D02*
X111555300Y-137769742D01*
X111555300Y-137769742D02*
X111602919Y-137912599D01*
X111602919Y-137912599D02*
X111602919Y-138150694D01*
X58949605Y-141320157D02*
X58997224Y-141272538D01*
X58997224Y-141272538D02*
X59092462Y-141224919D01*
X59092462Y-141224919D02*
X59330557Y-141224919D01*
X59330557Y-141224919D02*
X59425795Y-141272538D01*
X59425795Y-141272538D02*
X59473414Y-141320157D01*
X59473414Y-141320157D02*
X59521033Y-141415395D01*
X59521033Y-141415395D02*
X59521033Y-141510633D01*
X59521033Y-141510633D02*
X59473414Y-141653490D01*
X59473414Y-141653490D02*
X58901986Y-142224919D01*
X58901986Y-142224919D02*
X59521033Y-142224919D01*
X59949605Y-142224919D02*
X59949605Y-141224919D01*
X59949605Y-141605871D02*
X60044843Y-141558252D01*
X60044843Y-141558252D02*
X60235319Y-141558252D01*
X60235319Y-141558252D02*
X60330557Y-141605871D01*
X60330557Y-141605871D02*
X60378176Y-141653490D01*
X60378176Y-141653490D02*
X60425795Y-141748728D01*
X60425795Y-141748728D02*
X60425795Y-142034442D01*
X60425795Y-142034442D02*
X60378176Y-142129680D01*
X60378176Y-142129680D02*
X60330557Y-142177300D01*
X60330557Y-142177300D02*
X60235319Y-142224919D01*
X60235319Y-142224919D02*
X60044843Y-142224919D01*
X60044843Y-142224919D02*
X59949605Y-142177300D01*
X67426795Y-141558252D02*
X67426795Y-142224919D01*
X67188700Y-141177300D02*
X66950605Y-141891585D01*
X66950605Y-141891585D02*
X67569652Y-141891585D01*
X67950605Y-142224919D02*
X67950605Y-141224919D01*
X67950605Y-141605871D02*
X68045843Y-141558252D01*
X68045843Y-141558252D02*
X68236319Y-141558252D01*
X68236319Y-141558252D02*
X68331557Y-141605871D01*
X68331557Y-141605871D02*
X68379176Y-141653490D01*
X68379176Y-141653490D02*
X68426795Y-141748728D01*
X68426795Y-141748728D02*
X68426795Y-142034442D01*
X68426795Y-142034442D02*
X68379176Y-142129680D01*
X68379176Y-142129680D02*
X68331557Y-142177300D01*
X68331557Y-142177300D02*
X68236319Y-142224919D01*
X68236319Y-142224919D02*
X68045843Y-142224919D01*
X68045843Y-142224919D02*
X67950605Y-142177300D01*
X94795342Y-142237619D02*
X94223914Y-142237619D01*
X94509628Y-142237619D02*
X94509628Y-141237619D01*
X94509628Y-141237619D02*
X94414390Y-141380476D01*
X94414390Y-141380476D02*
X94319152Y-141475714D01*
X94319152Y-141475714D02*
X94223914Y-141523333D01*
X95747723Y-142237619D02*
X95176295Y-142237619D01*
X95462009Y-142237619D02*
X95462009Y-141237619D01*
X95462009Y-141237619D02*
X95366771Y-141380476D01*
X95366771Y-141380476D02*
X95271533Y-141475714D01*
X95271533Y-141475714D02*
X95176295Y-141523333D01*
X96176295Y-142237619D02*
X96176295Y-141237619D01*
X96176295Y-141618571D02*
X96271533Y-141570952D01*
X96271533Y-141570952D02*
X96462009Y-141570952D01*
X96462009Y-141570952D02*
X96557247Y-141618571D01*
X96557247Y-141618571D02*
X96604866Y-141666190D01*
X96604866Y-141666190D02*
X96652485Y-141761428D01*
X96652485Y-141761428D02*
X96652485Y-142047142D01*
X96652485Y-142047142D02*
X96604866Y-142142380D01*
X96604866Y-142142380D02*
X96557247Y-142190000D01*
X96557247Y-142190000D02*
X96462009Y-142237619D01*
X96462009Y-142237619D02*
X96271533Y-142237619D01*
X96271533Y-142237619D02*
X96176295Y-142190000D01*
X86794343Y-142237619D02*
X86984819Y-142237619D01*
X86984819Y-142237619D02*
X87080057Y-142190000D01*
X87080057Y-142190000D02*
X87127676Y-142142380D01*
X87127676Y-142142380D02*
X87222914Y-141999523D01*
X87222914Y-141999523D02*
X87270533Y-141809047D01*
X87270533Y-141809047D02*
X87270533Y-141428095D01*
X87270533Y-141428095D02*
X87222914Y-141332857D01*
X87222914Y-141332857D02*
X87175295Y-141285238D01*
X87175295Y-141285238D02*
X87080057Y-141237619D01*
X87080057Y-141237619D02*
X86889581Y-141237619D01*
X86889581Y-141237619D02*
X86794343Y-141285238D01*
X86794343Y-141285238D02*
X86746724Y-141332857D01*
X86746724Y-141332857D02*
X86699105Y-141428095D01*
X86699105Y-141428095D02*
X86699105Y-141666190D01*
X86699105Y-141666190D02*
X86746724Y-141761428D01*
X86746724Y-141761428D02*
X86794343Y-141809047D01*
X86794343Y-141809047D02*
X86889581Y-141856666D01*
X86889581Y-141856666D02*
X87080057Y-141856666D01*
X87080057Y-141856666D02*
X87175295Y-141809047D01*
X87175295Y-141809047D02*
X87222914Y-141761428D01*
X87222914Y-141761428D02*
X87270533Y-141666190D01*
X87699105Y-142237619D02*
X87699105Y-141237619D01*
X87699105Y-141618571D02*
X87794343Y-141570952D01*
X87794343Y-141570952D02*
X87984819Y-141570952D01*
X87984819Y-141570952D02*
X88080057Y-141618571D01*
X88080057Y-141618571D02*
X88127676Y-141666190D01*
X88127676Y-141666190D02*
X88175295Y-141761428D01*
X88175295Y-141761428D02*
X88175295Y-142047142D01*
X88175295Y-142047142D02*
X88127676Y-142142380D01*
X88127676Y-142142380D02*
X88080057Y-142190000D01*
X88080057Y-142190000D02*
X87984819Y-142237619D01*
X87984819Y-142237619D02*
X87794343Y-142237619D01*
X87794343Y-142237619D02*
X87699105Y-142190000D01*
X98630742Y-142161419D02*
X98059314Y-142161419D01*
X98345028Y-142161419D02*
X98345028Y-141161419D01*
X98345028Y-141161419D02*
X98249790Y-141304276D01*
X98249790Y-141304276D02*
X98154552Y-141399514D01*
X98154552Y-141399514D02*
X98059314Y-141447133D01*
X99011695Y-141256657D02*
X99059314Y-141209038D01*
X99059314Y-141209038D02*
X99154552Y-141161419D01*
X99154552Y-141161419D02*
X99392647Y-141161419D01*
X99392647Y-141161419D02*
X99487885Y-141209038D01*
X99487885Y-141209038D02*
X99535504Y-141256657D01*
X99535504Y-141256657D02*
X99583123Y-141351895D01*
X99583123Y-141351895D02*
X99583123Y-141447133D01*
X99583123Y-141447133D02*
X99535504Y-141589990D01*
X99535504Y-141589990D02*
X98964076Y-142161419D01*
X98964076Y-142161419D02*
X99583123Y-142161419D01*
X100011695Y-142161419D02*
X100011695Y-141161419D01*
X100011695Y-141542371D02*
X100106933Y-141494752D01*
X100106933Y-141494752D02*
X100297409Y-141494752D01*
X100297409Y-141494752D02*
X100392647Y-141542371D01*
X100392647Y-141542371D02*
X100440266Y-141589990D01*
X100440266Y-141589990D02*
X100487885Y-141685228D01*
X100487885Y-141685228D02*
X100487885Y-141970942D01*
X100487885Y-141970942D02*
X100440266Y-142066180D01*
X100440266Y-142066180D02*
X100392647Y-142113800D01*
X100392647Y-142113800D02*
X100297409Y-142161419D01*
X100297409Y-142161419D02*
X100106933Y-142161419D01*
X100106933Y-142161419D02*
X100011695Y-142113800D01*
X62965986Y-141224919D02*
X63585033Y-141224919D01*
X63585033Y-141224919D02*
X63251700Y-141605871D01*
X63251700Y-141605871D02*
X63394557Y-141605871D01*
X63394557Y-141605871D02*
X63489795Y-141653490D01*
X63489795Y-141653490D02*
X63537414Y-141701109D01*
X63537414Y-141701109D02*
X63585033Y-141796347D01*
X63585033Y-141796347D02*
X63585033Y-142034442D01*
X63585033Y-142034442D02*
X63537414Y-142129680D01*
X63537414Y-142129680D02*
X63489795Y-142177300D01*
X63489795Y-142177300D02*
X63394557Y-142224919D01*
X63394557Y-142224919D02*
X63108843Y-142224919D01*
X63108843Y-142224919D02*
X63013605Y-142177300D01*
X63013605Y-142177300D02*
X62965986Y-142129680D01*
X64013605Y-142224919D02*
X64013605Y-141224919D01*
X64013605Y-141605871D02*
X64108843Y-141558252D01*
X64108843Y-141558252D02*
X64299319Y-141558252D01*
X64299319Y-141558252D02*
X64394557Y-141605871D01*
X64394557Y-141605871D02*
X64442176Y-141653490D01*
X64442176Y-141653490D02*
X64489795Y-141748728D01*
X64489795Y-141748728D02*
X64489795Y-142034442D01*
X64489795Y-142034442D02*
X64442176Y-142129680D01*
X64442176Y-142129680D02*
X64394557Y-142177300D01*
X64394557Y-142177300D02*
X64299319Y-142224919D01*
X64299319Y-142224919D02*
X64108843Y-142224919D01*
X64108843Y-142224919D02*
X64013605Y-142177300D01*
D12*
X98708385Y-139788785D02*
X98651242Y-139903071D01*
X98651242Y-139903071D02*
X98651242Y-140074499D01*
X98651242Y-140074499D02*
X98708385Y-140245928D01*
X98708385Y-140245928D02*
X98822671Y-140360213D01*
X98822671Y-140360213D02*
X98936957Y-140417356D01*
X98936957Y-140417356D02*
X99165528Y-140474499D01*
X99165528Y-140474499D02*
X99336957Y-140474499D01*
X99336957Y-140474499D02*
X99565528Y-140417356D01*
X99565528Y-140417356D02*
X99679814Y-140360213D01*
X99679814Y-140360213D02*
X99794100Y-140245928D01*
X99794100Y-140245928D02*
X99851242Y-140074499D01*
X99851242Y-140074499D02*
X99851242Y-139960213D01*
X99851242Y-139960213D02*
X99794100Y-139788785D01*
X99794100Y-139788785D02*
X99736957Y-139731642D01*
X99736957Y-139731642D02*
X99336957Y-139731642D01*
X99336957Y-139731642D02*
X99336957Y-139960213D01*
X99851242Y-139217356D02*
X98651242Y-139217356D01*
X98651242Y-139217356D02*
X99851242Y-138531642D01*
X99851242Y-138531642D02*
X98651242Y-138531642D01*
X99851242Y-137960213D02*
X98651242Y-137960213D01*
X98651242Y-137960213D02*
X98651242Y-137674499D01*
X98651242Y-137674499D02*
X98708385Y-137503070D01*
X98708385Y-137503070D02*
X98822671Y-137388785D01*
X98822671Y-137388785D02*
X98936957Y-137331642D01*
X98936957Y-137331642D02*
X99165528Y-137274499D01*
X99165528Y-137274499D02*
X99336957Y-137274499D01*
X99336957Y-137274499D02*
X99565528Y-137331642D01*
X99565528Y-137331642D02*
X99679814Y-137388785D01*
X99679814Y-137388785D02*
X99794100Y-137503070D01*
X99794100Y-137503070D02*
X99851242Y-137674499D01*
X99851242Y-137674499D02*
X99851242Y-137960213D01*
X95907892Y-140417356D02*
X94707892Y-140417356D01*
X94707892Y-140417356D02*
X95565035Y-140017356D01*
X95565035Y-140017356D02*
X94707892Y-139617356D01*
X94707892Y-139617356D02*
X95907892Y-139617356D01*
X95907892Y-138417356D02*
X95907892Y-139103070D01*
X95907892Y-138760213D02*
X94707892Y-138760213D01*
X94707892Y-138760213D02*
X94879321Y-138874499D01*
X94879321Y-138874499D02*
X94993607Y-138988784D01*
X94993607Y-138988784D02*
X95050750Y-139103070D01*
D11*
X106530142Y-142288419D02*
X105958714Y-142288419D01*
X106244428Y-142288419D02*
X106244428Y-141288419D01*
X106244428Y-141288419D02*
X106149190Y-141431276D01*
X106149190Y-141431276D02*
X106053952Y-141526514D01*
X106053952Y-141526514D02*
X105958714Y-141574133D01*
X107387285Y-141621752D02*
X107387285Y-142288419D01*
X107149190Y-141240800D02*
X106911095Y-141955085D01*
X106911095Y-141955085D02*
X107530142Y-141955085D01*
X107911095Y-142288419D02*
X107911095Y-141288419D01*
X107911095Y-141669371D02*
X108006333Y-141621752D01*
X108006333Y-141621752D02*
X108196809Y-141621752D01*
X108196809Y-141621752D02*
X108292047Y-141669371D01*
X108292047Y-141669371D02*
X108339666Y-141716990D01*
X108339666Y-141716990D02*
X108387285Y-141812228D01*
X108387285Y-141812228D02*
X108387285Y-142097942D01*
X108387285Y-142097942D02*
X108339666Y-142193180D01*
X108339666Y-142193180D02*
X108292047Y-142240800D01*
X108292047Y-142240800D02*
X108196809Y-142288419D01*
X108196809Y-142288419D02*
X108006333Y-142288419D01*
X108006333Y-142288419D02*
X107911095Y-142240800D01*
D12*
X106845042Y-140331685D02*
X108045042Y-140045971D01*
X108045042Y-140045971D02*
X107187900Y-139817399D01*
X107187900Y-139817399D02*
X108045042Y-139588828D01*
X108045042Y-139588828D02*
X106845042Y-139303114D01*
X108045042Y-138160256D02*
X107473614Y-138560256D01*
X108045042Y-138845970D02*
X106845042Y-138845970D01*
X106845042Y-138845970D02*
X106845042Y-138388827D01*
X106845042Y-138388827D02*
X106902185Y-138274542D01*
X106902185Y-138274542D02*
X106959328Y-138217399D01*
X106959328Y-138217399D02*
X107073614Y-138160256D01*
X107073614Y-138160256D02*
X107245042Y-138160256D01*
X107245042Y-138160256D02*
X107359328Y-138217399D01*
X107359328Y-138217399D02*
X107416471Y-138274542D01*
X107416471Y-138274542D02*
X107473614Y-138388827D01*
X107473614Y-138388827D02*
X107473614Y-138845970D01*
X106511900Y-140383114D02*
X106511900Y-138051685D01*
D11*
X78946951Y-66764819D02*
X78946951Y-67479104D01*
X78946951Y-67479104D02*
X78899332Y-67621961D01*
X78899332Y-67621961D02*
X78804094Y-67717200D01*
X78804094Y-67717200D02*
X78661237Y-67764819D01*
X78661237Y-67764819D02*
X78565999Y-67764819D01*
X79899332Y-67764819D02*
X79423142Y-67764819D01*
X79423142Y-67764819D02*
X79423142Y-66764819D01*
X80804094Y-67669580D02*
X80756475Y-67717200D01*
X80756475Y-67717200D02*
X80613618Y-67764819D01*
X80613618Y-67764819D02*
X80518380Y-67764819D01*
X80518380Y-67764819D02*
X80375523Y-67717200D01*
X80375523Y-67717200D02*
X80280285Y-67621961D01*
X80280285Y-67621961D02*
X80232666Y-67526723D01*
X80232666Y-67526723D02*
X80185047Y-67336247D01*
X80185047Y-67336247D02*
X80185047Y-67193390D01*
X80185047Y-67193390D02*
X80232666Y-67002914D01*
X80232666Y-67002914D02*
X80280285Y-66907676D01*
X80280285Y-66907676D02*
X80375523Y-66812438D01*
X80375523Y-66812438D02*
X80518380Y-66764819D01*
X80518380Y-66764819D02*
X80613618Y-66764819D01*
X80613618Y-66764819D02*
X80756475Y-66812438D01*
X80756475Y-66812438D02*
X80804094Y-66860057D01*
X81518380Y-66764819D02*
X81518380Y-67479104D01*
X81518380Y-67479104D02*
X81470761Y-67621961D01*
X81470761Y-67621961D02*
X81375523Y-67717200D01*
X81375523Y-67717200D02*
X81232666Y-67764819D01*
X81232666Y-67764819D02*
X81137428Y-67764819D01*
X82470761Y-67764819D02*
X81994571Y-67764819D01*
X81994571Y-67764819D02*
X81994571Y-66764819D01*
X83375523Y-67669580D02*
X83327904Y-67717200D01*
X83327904Y-67717200D02*
X83185047Y-67764819D01*
X83185047Y-67764819D02*
X83089809Y-67764819D01*
X83089809Y-67764819D02*
X82946952Y-67717200D01*
X82946952Y-67717200D02*
X82851714Y-67621961D01*
X82851714Y-67621961D02*
X82804095Y-67526723D01*
X82804095Y-67526723D02*
X82756476Y-67336247D01*
X82756476Y-67336247D02*
X82756476Y-67193390D01*
X82756476Y-67193390D02*
X82804095Y-67002914D01*
X82804095Y-67002914D02*
X82851714Y-66907676D01*
X82851714Y-66907676D02*
X82946952Y-66812438D01*
X82946952Y-66812438D02*
X83089809Y-66764819D01*
X83089809Y-66764819D02*
X83185047Y-66764819D01*
X83185047Y-66764819D02*
X83327904Y-66812438D01*
X83327904Y-66812438D02*
X83375523Y-66860057D01*
X84089809Y-66764819D02*
X84089809Y-67479104D01*
X84089809Y-67479104D02*
X84042190Y-67621961D01*
X84042190Y-67621961D02*
X83946952Y-67717200D01*
X83946952Y-67717200D02*
X83804095Y-67764819D01*
X83804095Y-67764819D02*
X83708857Y-67764819D01*
X85042190Y-67764819D02*
X84566000Y-67764819D01*
X84566000Y-67764819D02*
X84566000Y-66764819D01*
X85946952Y-67669580D02*
X85899333Y-67717200D01*
X85899333Y-67717200D02*
X85756476Y-67764819D01*
X85756476Y-67764819D02*
X85661238Y-67764819D01*
X85661238Y-67764819D02*
X85518381Y-67717200D01*
X85518381Y-67717200D02*
X85423143Y-67621961D01*
X85423143Y-67621961D02*
X85375524Y-67526723D01*
X85375524Y-67526723D02*
X85327905Y-67336247D01*
X85327905Y-67336247D02*
X85327905Y-67193390D01*
X85327905Y-67193390D02*
X85375524Y-67002914D01*
X85375524Y-67002914D02*
X85423143Y-66907676D01*
X85423143Y-66907676D02*
X85518381Y-66812438D01*
X85518381Y-66812438D02*
X85661238Y-66764819D01*
X85661238Y-66764819D02*
X85756476Y-66764819D01*
X85756476Y-66764819D02*
X85899333Y-66812438D01*
X85899333Y-66812438D02*
X85946952Y-66860057D01*
X86661238Y-66764819D02*
X86661238Y-67479104D01*
X86661238Y-67479104D02*
X86613619Y-67621961D01*
X86613619Y-67621961D02*
X86518381Y-67717200D01*
X86518381Y-67717200D02*
X86375524Y-67764819D01*
X86375524Y-67764819D02*
X86280286Y-67764819D01*
X87613619Y-67764819D02*
X87137429Y-67764819D01*
X87137429Y-67764819D02*
X87137429Y-66764819D01*
X88518381Y-67669580D02*
X88470762Y-67717200D01*
X88470762Y-67717200D02*
X88327905Y-67764819D01*
X88327905Y-67764819D02*
X88232667Y-67764819D01*
X88232667Y-67764819D02*
X88089810Y-67717200D01*
X88089810Y-67717200D02*
X87994572Y-67621961D01*
X87994572Y-67621961D02*
X87946953Y-67526723D01*
X87946953Y-67526723D02*
X87899334Y-67336247D01*
X87899334Y-67336247D02*
X87899334Y-67193390D01*
X87899334Y-67193390D02*
X87946953Y-67002914D01*
X87946953Y-67002914D02*
X87994572Y-66907676D01*
X87994572Y-66907676D02*
X88089810Y-66812438D01*
X88089810Y-66812438D02*
X88232667Y-66764819D01*
X88232667Y-66764819D02*
X88327905Y-66764819D01*
X88327905Y-66764819D02*
X88470762Y-66812438D01*
X88470762Y-66812438D02*
X88518381Y-66860057D01*
D12*
X91964542Y-139731642D02*
X91393114Y-140131642D01*
X91964542Y-140417356D02*
X90764542Y-140417356D01*
X90764542Y-140417356D02*
X90764542Y-139960213D01*
X90764542Y-139960213D02*
X90821685Y-139845928D01*
X90821685Y-139845928D02*
X90878828Y-139788785D01*
X90878828Y-139788785D02*
X90993114Y-139731642D01*
X90993114Y-139731642D02*
X91164542Y-139731642D01*
X91164542Y-139731642D02*
X91278828Y-139788785D01*
X91278828Y-139788785D02*
X91335971Y-139845928D01*
X91335971Y-139845928D02*
X91393114Y-139960213D01*
X91393114Y-139960213D02*
X91393114Y-140417356D01*
X91335971Y-139217356D02*
X91335971Y-138817356D01*
X91964542Y-138645928D02*
X91964542Y-139217356D01*
X91964542Y-139217356D02*
X90764542Y-139217356D01*
X90764542Y-139217356D02*
X90764542Y-138645928D01*
X91907400Y-138188785D02*
X91964542Y-138017357D01*
X91964542Y-138017357D02*
X91964542Y-137731642D01*
X91964542Y-137731642D02*
X91907400Y-137617357D01*
X91907400Y-137617357D02*
X91850257Y-137560214D01*
X91850257Y-137560214D02*
X91735971Y-137503071D01*
X91735971Y-137503071D02*
X91621685Y-137503071D01*
X91621685Y-137503071D02*
X91507400Y-137560214D01*
X91507400Y-137560214D02*
X91450257Y-137617357D01*
X91450257Y-137617357D02*
X91393114Y-137731642D01*
X91393114Y-137731642D02*
X91335971Y-137960214D01*
X91335971Y-137960214D02*
X91278828Y-138074499D01*
X91278828Y-138074499D02*
X91221685Y-138131642D01*
X91221685Y-138131642D02*
X91107400Y-138188785D01*
X91107400Y-138188785D02*
X90993114Y-138188785D01*
X90993114Y-138188785D02*
X90878828Y-138131642D01*
X90878828Y-138131642D02*
X90821685Y-138074499D01*
X90821685Y-138074499D02*
X90764542Y-137960214D01*
X90764542Y-137960214D02*
X90764542Y-137674499D01*
X90764542Y-137674499D02*
X90821685Y-137503071D01*
X90431400Y-140583071D02*
X90431400Y-137394500D01*
X45002071Y-138791514D02*
X45216357Y-138862942D01*
X45216357Y-138862942D02*
X45287786Y-138934371D01*
X45287786Y-138934371D02*
X45359214Y-139077228D01*
X45359214Y-139077228D02*
X45359214Y-139291514D01*
X45359214Y-139291514D02*
X45287786Y-139434371D01*
X45287786Y-139434371D02*
X45216357Y-139505800D01*
X45216357Y-139505800D02*
X45073500Y-139577228D01*
X45073500Y-139577228D02*
X44502071Y-139577228D01*
X44502071Y-139577228D02*
X44502071Y-138077228D01*
X44502071Y-138077228D02*
X45002071Y-138077228D01*
X45002071Y-138077228D02*
X45144929Y-138148657D01*
X45144929Y-138148657D02*
X45216357Y-138220085D01*
X45216357Y-138220085D02*
X45287786Y-138362942D01*
X45287786Y-138362942D02*
X45287786Y-138505800D01*
X45287786Y-138505800D02*
X45216357Y-138648657D01*
X45216357Y-138648657D02*
X45144929Y-138720085D01*
X45144929Y-138720085D02*
X45002071Y-138791514D01*
X45002071Y-138791514D02*
X44502071Y-138791514D01*
X46002071Y-139005800D02*
X47144929Y-139005800D01*
X47787786Y-139505800D02*
X48002072Y-139577228D01*
X48002072Y-139577228D02*
X48359214Y-139577228D01*
X48359214Y-139577228D02*
X48502072Y-139505800D01*
X48502072Y-139505800D02*
X48573500Y-139434371D01*
X48573500Y-139434371D02*
X48644929Y-139291514D01*
X48644929Y-139291514D02*
X48644929Y-139148657D01*
X48644929Y-139148657D02*
X48573500Y-139005800D01*
X48573500Y-139005800D02*
X48502072Y-138934371D01*
X48502072Y-138934371D02*
X48359214Y-138862942D01*
X48359214Y-138862942D02*
X48073500Y-138791514D01*
X48073500Y-138791514D02*
X47930643Y-138720085D01*
X47930643Y-138720085D02*
X47859214Y-138648657D01*
X47859214Y-138648657D02*
X47787786Y-138505800D01*
X47787786Y-138505800D02*
X47787786Y-138362942D01*
X47787786Y-138362942D02*
X47859214Y-138220085D01*
X47859214Y-138220085D02*
X47930643Y-138148657D01*
X47930643Y-138148657D02*
X48073500Y-138077228D01*
X48073500Y-138077228D02*
X48430643Y-138077228D01*
X48430643Y-138077228D02*
X48644929Y-138148657D01*
X49287785Y-139577228D02*
X49287785Y-138077228D01*
X50002071Y-139577228D02*
X50002071Y-138077228D01*
X50002071Y-138077228D02*
X50359214Y-138077228D01*
X50359214Y-138077228D02*
X50573500Y-138148657D01*
X50573500Y-138148657D02*
X50716357Y-138291514D01*
X50716357Y-138291514D02*
X50787786Y-138434371D01*
X50787786Y-138434371D02*
X50859214Y-138720085D01*
X50859214Y-138720085D02*
X50859214Y-138934371D01*
X50859214Y-138934371D02*
X50787786Y-139220085D01*
X50787786Y-139220085D02*
X50716357Y-139362942D01*
X50716357Y-139362942D02*
X50573500Y-139505800D01*
X50573500Y-139505800D02*
X50359214Y-139577228D01*
X50359214Y-139577228D02*
X50002071Y-139577228D01*
X51502071Y-138791514D02*
X52002071Y-138791514D01*
X52216357Y-139577228D02*
X51502071Y-139577228D01*
X51502071Y-139577228D02*
X51502071Y-138077228D01*
X51502071Y-138077228D02*
X52216357Y-138077228D01*
X45644928Y-141206514D02*
X45144928Y-141206514D01*
X45144928Y-141992228D02*
X45144928Y-140492228D01*
X45144928Y-140492228D02*
X45859214Y-140492228D01*
X47287785Y-141992228D02*
X46787785Y-141277942D01*
X46430642Y-141992228D02*
X46430642Y-140492228D01*
X46430642Y-140492228D02*
X47002071Y-140492228D01*
X47002071Y-140492228D02*
X47144928Y-140563657D01*
X47144928Y-140563657D02*
X47216357Y-140635085D01*
X47216357Y-140635085D02*
X47287785Y-140777942D01*
X47287785Y-140777942D02*
X47287785Y-140992228D01*
X47287785Y-140992228D02*
X47216357Y-141135085D01*
X47216357Y-141135085D02*
X47144928Y-141206514D01*
X47144928Y-141206514D02*
X47002071Y-141277942D01*
X47002071Y-141277942D02*
X46430642Y-141277942D01*
X48216357Y-140492228D02*
X48502071Y-140492228D01*
X48502071Y-140492228D02*
X48644928Y-140563657D01*
X48644928Y-140563657D02*
X48787785Y-140706514D01*
X48787785Y-140706514D02*
X48859214Y-140992228D01*
X48859214Y-140992228D02*
X48859214Y-141492228D01*
X48859214Y-141492228D02*
X48787785Y-141777942D01*
X48787785Y-141777942D02*
X48644928Y-141920800D01*
X48644928Y-141920800D02*
X48502071Y-141992228D01*
X48502071Y-141992228D02*
X48216357Y-141992228D01*
X48216357Y-141992228D02*
X48073500Y-141920800D01*
X48073500Y-141920800D02*
X47930642Y-141777942D01*
X47930642Y-141777942D02*
X47859214Y-141492228D01*
X47859214Y-141492228D02*
X47859214Y-140992228D01*
X47859214Y-140992228D02*
X47930642Y-140706514D01*
X47930642Y-140706514D02*
X48073500Y-140563657D01*
X48073500Y-140563657D02*
X48216357Y-140492228D01*
X49502071Y-141992228D02*
X49502071Y-140492228D01*
X49502071Y-140492228D02*
X50359214Y-141992228D01*
X50359214Y-141992228D02*
X50359214Y-140492228D01*
X50859215Y-140492228D02*
X51716358Y-140492228D01*
X51287786Y-141992228D02*
X51287786Y-140492228D01*
D11*
X81389886Y-96804819D02*
X81389886Y-95804819D01*
X81389886Y-95804819D02*
X81770838Y-95804819D01*
X81770838Y-95804819D02*
X81866076Y-95852438D01*
X81866076Y-95852438D02*
X81913695Y-95900057D01*
X81913695Y-95900057D02*
X81961314Y-95995295D01*
X81961314Y-95995295D02*
X81961314Y-96138152D01*
X81961314Y-96138152D02*
X81913695Y-96233390D01*
X81913695Y-96233390D02*
X81866076Y-96281009D01*
X81866076Y-96281009D02*
X81770838Y-96328628D01*
X81770838Y-96328628D02*
X81389886Y-96328628D01*
X82342267Y-95900057D02*
X82389886Y-95852438D01*
X82389886Y-95852438D02*
X82485124Y-95804819D01*
X82485124Y-95804819D02*
X82723219Y-95804819D01*
X82723219Y-95804819D02*
X82818457Y-95852438D01*
X82818457Y-95852438D02*
X82866076Y-95900057D01*
X82866076Y-95900057D02*
X82913695Y-95995295D01*
X82913695Y-95995295D02*
X82913695Y-96090533D01*
X82913695Y-96090533D02*
X82866076Y-96233390D01*
X82866076Y-96233390D02*
X82294648Y-96804819D01*
X82294648Y-96804819D02*
X82913695Y-96804819D01*
X83532743Y-95804819D02*
X83627981Y-95804819D01*
X83627981Y-95804819D02*
X83723219Y-95852438D01*
X83723219Y-95852438D02*
X83770838Y-95900057D01*
X83770838Y-95900057D02*
X83818457Y-95995295D01*
X83818457Y-95995295D02*
X83866076Y-96185771D01*
X83866076Y-96185771D02*
X83866076Y-96423866D01*
X83866076Y-96423866D02*
X83818457Y-96614342D01*
X83818457Y-96614342D02*
X83770838Y-96709580D01*
X83770838Y-96709580D02*
X83723219Y-96757200D01*
X83723219Y-96757200D02*
X83627981Y-96804819D01*
X83627981Y-96804819D02*
X83532743Y-96804819D01*
X83532743Y-96804819D02*
X83437505Y-96757200D01*
X83437505Y-96757200D02*
X83389886Y-96709580D01*
X83389886Y-96709580D02*
X83342267Y-96614342D01*
X83342267Y-96614342D02*
X83294648Y-96423866D01*
X83294648Y-96423866D02*
X83294648Y-96185771D01*
X83294648Y-96185771D02*
X83342267Y-95995295D01*
X83342267Y-95995295D02*
X83389886Y-95900057D01*
X83389886Y-95900057D02*
X83437505Y-95852438D01*
X83437505Y-95852438D02*
X83532743Y-95804819D01*
X84485124Y-95804819D02*
X84580362Y-95804819D01*
X84580362Y-95804819D02*
X84675600Y-95852438D01*
X84675600Y-95852438D02*
X84723219Y-95900057D01*
X84723219Y-95900057D02*
X84770838Y-95995295D01*
X84770838Y-95995295D02*
X84818457Y-96185771D01*
X84818457Y-96185771D02*
X84818457Y-96423866D01*
X84818457Y-96423866D02*
X84770838Y-96614342D01*
X84770838Y-96614342D02*
X84723219Y-96709580D01*
X84723219Y-96709580D02*
X84675600Y-96757200D01*
X84675600Y-96757200D02*
X84580362Y-96804819D01*
X84580362Y-96804819D02*
X84485124Y-96804819D01*
X84485124Y-96804819D02*
X84389886Y-96757200D01*
X84389886Y-96757200D02*
X84342267Y-96709580D01*
X84342267Y-96709580D02*
X84294648Y-96614342D01*
X84294648Y-96614342D02*
X84247029Y-96423866D01*
X84247029Y-96423866D02*
X84247029Y-96185771D01*
X84247029Y-96185771D02*
X84294648Y-95995295D01*
X84294648Y-95995295D02*
X84342267Y-95900057D01*
X84342267Y-95900057D02*
X84389886Y-95852438D01*
X84389886Y-95852438D02*
X84485124Y-95804819D01*
X85437505Y-95804819D02*
X85532743Y-95804819D01*
X85532743Y-95804819D02*
X85627981Y-95852438D01*
X85627981Y-95852438D02*
X85675600Y-95900057D01*
X85675600Y-95900057D02*
X85723219Y-95995295D01*
X85723219Y-95995295D02*
X85770838Y-96185771D01*
X85770838Y-96185771D02*
X85770838Y-96423866D01*
X85770838Y-96423866D02*
X85723219Y-96614342D01*
X85723219Y-96614342D02*
X85675600Y-96709580D01*
X85675600Y-96709580D02*
X85627981Y-96757200D01*
X85627981Y-96757200D02*
X85532743Y-96804819D01*
X85532743Y-96804819D02*
X85437505Y-96804819D01*
X85437505Y-96804819D02*
X85342267Y-96757200D01*
X85342267Y-96757200D02*
X85294648Y-96709580D01*
X85294648Y-96709580D02*
X85247029Y-96614342D01*
X85247029Y-96614342D02*
X85199410Y-96423866D01*
X85199410Y-96423866D02*
X85199410Y-96185771D01*
X85199410Y-96185771D02*
X85247029Y-95995295D01*
X85247029Y-95995295D02*
X85294648Y-95900057D01*
X85294648Y-95900057D02*
X85342267Y-95852438D01*
X85342267Y-95852438D02*
X85437505Y-95804819D01*
X86056553Y-95804819D02*
X86627981Y-95804819D01*
X86342267Y-96804819D02*
X86342267Y-95804819D01*
X87723220Y-96804819D02*
X87723220Y-95804819D01*
X87723220Y-95804819D02*
X87961315Y-95804819D01*
X87961315Y-95804819D02*
X88104172Y-95852438D01*
X88104172Y-95852438D02*
X88199410Y-95947676D01*
X88199410Y-95947676D02*
X88247029Y-96042914D01*
X88247029Y-96042914D02*
X88294648Y-96233390D01*
X88294648Y-96233390D02*
X88294648Y-96376247D01*
X88294648Y-96376247D02*
X88247029Y-96566723D01*
X88247029Y-96566723D02*
X88199410Y-96661961D01*
X88199410Y-96661961D02*
X88104172Y-96757200D01*
X88104172Y-96757200D02*
X87961315Y-96804819D01*
X87961315Y-96804819D02*
X87723220Y-96804819D01*
X88675601Y-96519104D02*
X89151791Y-96519104D01*
X88580363Y-96804819D02*
X88913696Y-95804819D01*
X88913696Y-95804819D02*
X89247029Y-96804819D01*
X89437506Y-95804819D02*
X90008934Y-95804819D01*
X89723220Y-96804819D02*
X89723220Y-95804819D01*
X90294649Y-96519104D02*
X90770839Y-96519104D01*
X90199411Y-96804819D02*
X90532744Y-95804819D01*
X90532744Y-95804819D02*
X90866077Y-96804819D01*
X91770839Y-96709580D02*
X91723220Y-96757200D01*
X91723220Y-96757200D02*
X91580363Y-96804819D01*
X91580363Y-96804819D02*
X91485125Y-96804819D01*
X91485125Y-96804819D02*
X91342268Y-96757200D01*
X91342268Y-96757200D02*
X91247030Y-96661961D01*
X91247030Y-96661961D02*
X91199411Y-96566723D01*
X91199411Y-96566723D02*
X91151792Y-96376247D01*
X91151792Y-96376247D02*
X91151792Y-96233390D01*
X91151792Y-96233390D02*
X91199411Y-96042914D01*
X91199411Y-96042914D02*
X91247030Y-95947676D01*
X91247030Y-95947676D02*
X91342268Y-95852438D01*
X91342268Y-95852438D02*
X91485125Y-95804819D01*
X91485125Y-95804819D02*
X91580363Y-95804819D01*
X91580363Y-95804819D02*
X91723220Y-95852438D01*
X91723220Y-95852438D02*
X91770839Y-95900057D01*
X92151792Y-96519104D02*
X92627982Y-96519104D01*
X92056554Y-96804819D02*
X92389887Y-95804819D01*
X92389887Y-95804819D02*
X92723220Y-96804819D01*
X93627982Y-96804819D02*
X93294649Y-96328628D01*
X93056554Y-96804819D02*
X93056554Y-95804819D01*
X93056554Y-95804819D02*
X93437506Y-95804819D01*
X93437506Y-95804819D02*
X93532744Y-95852438D01*
X93532744Y-95852438D02*
X93580363Y-95900057D01*
X93580363Y-95900057D02*
X93627982Y-95995295D01*
X93627982Y-95995295D02*
X93627982Y-96138152D01*
X93627982Y-96138152D02*
X93580363Y-96233390D01*
X93580363Y-96233390D02*
X93532744Y-96281009D01*
X93532744Y-96281009D02*
X93437506Y-96328628D01*
X93437506Y-96328628D02*
X93056554Y-96328628D01*
X93913697Y-95804819D02*
X94485125Y-95804819D01*
X94199411Y-96804819D02*
X94199411Y-95804819D01*
X95389887Y-96804819D02*
X95056554Y-96328628D01*
X94818459Y-96804819D02*
X94818459Y-95804819D01*
X94818459Y-95804819D02*
X95199411Y-95804819D01*
X95199411Y-95804819D02*
X95294649Y-95852438D01*
X95294649Y-95852438D02*
X95342268Y-95900057D01*
X95342268Y-95900057D02*
X95389887Y-95995295D01*
X95389887Y-95995295D02*
X95389887Y-96138152D01*
X95389887Y-96138152D02*
X95342268Y-96233390D01*
X95342268Y-96233390D02*
X95294649Y-96281009D01*
X95294649Y-96281009D02*
X95199411Y-96328628D01*
X95199411Y-96328628D02*
X94818459Y-96328628D01*
X95818459Y-96804819D02*
X95818459Y-95804819D01*
X96294649Y-96804819D02*
X96294649Y-95804819D01*
X96294649Y-95804819D02*
X96532744Y-95804819D01*
X96532744Y-95804819D02*
X96675601Y-95852438D01*
X96675601Y-95852438D02*
X96770839Y-95947676D01*
X96770839Y-95947676D02*
X96818458Y-96042914D01*
X96818458Y-96042914D02*
X96866077Y-96233390D01*
X96866077Y-96233390D02*
X96866077Y-96376247D01*
X96866077Y-96376247D02*
X96818458Y-96566723D01*
X96818458Y-96566723D02*
X96770839Y-96661961D01*
X96770839Y-96661961D02*
X96675601Y-96757200D01*
X96675601Y-96757200D02*
X96532744Y-96804819D01*
X96532744Y-96804819D02*
X96294649Y-96804819D01*
X97818458Y-95852438D02*
X97723220Y-95804819D01*
X97723220Y-95804819D02*
X97580363Y-95804819D01*
X97580363Y-95804819D02*
X97437506Y-95852438D01*
X97437506Y-95852438D02*
X97342268Y-95947676D01*
X97342268Y-95947676D02*
X97294649Y-96042914D01*
X97294649Y-96042914D02*
X97247030Y-96233390D01*
X97247030Y-96233390D02*
X97247030Y-96376247D01*
X97247030Y-96376247D02*
X97294649Y-96566723D01*
X97294649Y-96566723D02*
X97342268Y-96661961D01*
X97342268Y-96661961D02*
X97437506Y-96757200D01*
X97437506Y-96757200D02*
X97580363Y-96804819D01*
X97580363Y-96804819D02*
X97675601Y-96804819D01*
X97675601Y-96804819D02*
X97818458Y-96757200D01*
X97818458Y-96757200D02*
X97866077Y-96709580D01*
X97866077Y-96709580D02*
X97866077Y-96376247D01*
X97866077Y-96376247D02*
X97675601Y-96376247D01*
X98294649Y-96281009D02*
X98627982Y-96281009D01*
X98770839Y-96804819D02*
X98294649Y-96804819D01*
X98294649Y-96804819D02*
X98294649Y-95804819D01*
X98294649Y-95804819D02*
X98770839Y-95804819D01*
X84437505Y-98414819D02*
X84437505Y-97748152D01*
X84437505Y-97938628D02*
X84485124Y-97843390D01*
X84485124Y-97843390D02*
X84532743Y-97795771D01*
X84532743Y-97795771D02*
X84627981Y-97748152D01*
X84627981Y-97748152D02*
X84723219Y-97748152D01*
X85437505Y-98367200D02*
X85342267Y-98414819D01*
X85342267Y-98414819D02*
X85151791Y-98414819D01*
X85151791Y-98414819D02*
X85056553Y-98367200D01*
X85056553Y-98367200D02*
X85008934Y-98271961D01*
X85008934Y-98271961D02*
X85008934Y-97891009D01*
X85008934Y-97891009D02*
X85056553Y-97795771D01*
X85056553Y-97795771D02*
X85151791Y-97748152D01*
X85151791Y-97748152D02*
X85342267Y-97748152D01*
X85342267Y-97748152D02*
X85437505Y-97795771D01*
X85437505Y-97795771D02*
X85485124Y-97891009D01*
X85485124Y-97891009D02*
X85485124Y-97986247D01*
X85485124Y-97986247D02*
X85008934Y-98081485D01*
X85818458Y-97748152D02*
X86056553Y-98414819D01*
X86056553Y-98414819D02*
X86294648Y-97748152D01*
X87104172Y-97748152D02*
X87104172Y-98414819D01*
X86866077Y-97367200D02*
X86627982Y-98081485D01*
X86627982Y-98081485D02*
X87247029Y-98081485D01*
X89008934Y-97938628D02*
X88961315Y-97891009D01*
X88961315Y-97891009D02*
X88866077Y-97843390D01*
X88866077Y-97843390D02*
X88770839Y-97843390D01*
X88770839Y-97843390D02*
X88675601Y-97891009D01*
X88675601Y-97891009D02*
X88627982Y-97938628D01*
X88627982Y-97938628D02*
X88580363Y-98033866D01*
X88580363Y-98033866D02*
X88580363Y-98129104D01*
X88580363Y-98129104D02*
X88627982Y-98224342D01*
X88627982Y-98224342D02*
X88675601Y-98271961D01*
X88675601Y-98271961D02*
X88770839Y-98319580D01*
X88770839Y-98319580D02*
X88866077Y-98319580D01*
X88866077Y-98319580D02*
X88961315Y-98271961D01*
X88961315Y-98271961D02*
X89008934Y-98224342D01*
X89008934Y-97843390D02*
X89008934Y-98224342D01*
X89008934Y-98224342D02*
X89056553Y-98271961D01*
X89056553Y-98271961D02*
X89104172Y-98271961D01*
X89104172Y-98271961D02*
X89199411Y-98224342D01*
X89199411Y-98224342D02*
X89247030Y-98129104D01*
X89247030Y-98129104D02*
X89247030Y-97891009D01*
X89247030Y-97891009D02*
X89151792Y-97748152D01*
X89151792Y-97748152D02*
X89008934Y-97652914D01*
X89008934Y-97652914D02*
X88818458Y-97605295D01*
X88818458Y-97605295D02*
X88627982Y-97652914D01*
X88627982Y-97652914D02*
X88485125Y-97748152D01*
X88485125Y-97748152D02*
X88389887Y-97891009D01*
X88389887Y-97891009D02*
X88342268Y-98081485D01*
X88342268Y-98081485D02*
X88389887Y-98271961D01*
X88389887Y-98271961D02*
X88485125Y-98414819D01*
X88485125Y-98414819D02*
X88627982Y-98510057D01*
X88627982Y-98510057D02*
X88818458Y-98557676D01*
X88818458Y-98557676D02*
X89008934Y-98510057D01*
X89008934Y-98510057D02*
X89151792Y-98414819D01*
X90389887Y-97510057D02*
X90437506Y-97462438D01*
X90437506Y-97462438D02*
X90532744Y-97414819D01*
X90532744Y-97414819D02*
X90770839Y-97414819D01*
X90770839Y-97414819D02*
X90866077Y-97462438D01*
X90866077Y-97462438D02*
X90913696Y-97510057D01*
X90913696Y-97510057D02*
X90961315Y-97605295D01*
X90961315Y-97605295D02*
X90961315Y-97700533D01*
X90961315Y-97700533D02*
X90913696Y-97843390D01*
X90913696Y-97843390D02*
X90342268Y-98414819D01*
X90342268Y-98414819D02*
X90961315Y-98414819D01*
X91580363Y-97414819D02*
X91675601Y-97414819D01*
X91675601Y-97414819D02*
X91770839Y-97462438D01*
X91770839Y-97462438D02*
X91818458Y-97510057D01*
X91818458Y-97510057D02*
X91866077Y-97605295D01*
X91866077Y-97605295D02*
X91913696Y-97795771D01*
X91913696Y-97795771D02*
X91913696Y-98033866D01*
X91913696Y-98033866D02*
X91866077Y-98224342D01*
X91866077Y-98224342D02*
X91818458Y-98319580D01*
X91818458Y-98319580D02*
X91770839Y-98367200D01*
X91770839Y-98367200D02*
X91675601Y-98414819D01*
X91675601Y-98414819D02*
X91580363Y-98414819D01*
X91580363Y-98414819D02*
X91485125Y-98367200D01*
X91485125Y-98367200D02*
X91437506Y-98319580D01*
X91437506Y-98319580D02*
X91389887Y-98224342D01*
X91389887Y-98224342D02*
X91342268Y-98033866D01*
X91342268Y-98033866D02*
X91342268Y-97795771D01*
X91342268Y-97795771D02*
X91389887Y-97605295D01*
X91389887Y-97605295D02*
X91437506Y-97510057D01*
X91437506Y-97510057D02*
X91485125Y-97462438D01*
X91485125Y-97462438D02*
X91580363Y-97414819D01*
X92294649Y-97510057D02*
X92342268Y-97462438D01*
X92342268Y-97462438D02*
X92437506Y-97414819D01*
X92437506Y-97414819D02*
X92675601Y-97414819D01*
X92675601Y-97414819D02*
X92770839Y-97462438D01*
X92770839Y-97462438D02*
X92818458Y-97510057D01*
X92818458Y-97510057D02*
X92866077Y-97605295D01*
X92866077Y-97605295D02*
X92866077Y-97700533D01*
X92866077Y-97700533D02*
X92818458Y-97843390D01*
X92818458Y-97843390D02*
X92247030Y-98414819D01*
X92247030Y-98414819D02*
X92866077Y-98414819D01*
X93723220Y-97748152D02*
X93723220Y-98414819D01*
X93485125Y-97367200D02*
X93247030Y-98081485D01*
X93247030Y-98081485D02*
X93866077Y-98081485D01*
X94961315Y-97367200D02*
X94104173Y-98652914D01*
X95818458Y-98414819D02*
X95247030Y-98414819D01*
X95532744Y-98414819D02*
X95532744Y-97414819D01*
X95532744Y-97414819D02*
X95437506Y-97557676D01*
X95437506Y-97557676D02*
X95342268Y-97652914D01*
X95342268Y-97652914D02*
X95247030Y-97700533D01*
X96961315Y-97367200D02*
X96104173Y-98652914D01*
X97247030Y-97510057D02*
X97294649Y-97462438D01*
X97294649Y-97462438D02*
X97389887Y-97414819D01*
X97389887Y-97414819D02*
X97627982Y-97414819D01*
X97627982Y-97414819D02*
X97723220Y-97462438D01*
X97723220Y-97462438D02*
X97770839Y-97510057D01*
X97770839Y-97510057D02*
X97818458Y-97605295D01*
X97818458Y-97605295D02*
X97818458Y-97700533D01*
X97818458Y-97700533D02*
X97770839Y-97843390D01*
X97770839Y-97843390D02*
X97199411Y-98414819D01*
X97199411Y-98414819D02*
X97818458Y-98414819D01*
X98770839Y-98414819D02*
X98199411Y-98414819D01*
X98485125Y-98414819D02*
X98485125Y-97414819D01*
X98485125Y-97414819D02*
X98389887Y-97557676D01*
X98389887Y-97557676D02*
X98294649Y-97652914D01*
X98294649Y-97652914D02*
X98199411Y-97700533D01*
D13*
X96775048Y-105195552D02*
X96965524Y-105862219D01*
X96965524Y-105862219D02*
X97156000Y-105386028D01*
X97156000Y-105386028D02*
X97346476Y-105862219D01*
X97346476Y-105862219D02*
X97536952Y-105195552D01*
X97822667Y-105195552D02*
X98013143Y-105862219D01*
X98013143Y-105862219D02*
X98203619Y-105386028D01*
X98203619Y-105386028D02*
X98394095Y-105862219D01*
X98394095Y-105862219D02*
X98584571Y-105195552D01*
X98870286Y-105195552D02*
X99060762Y-105862219D01*
X99060762Y-105862219D02*
X99251238Y-105386028D01*
X99251238Y-105386028D02*
X99441714Y-105862219D01*
X99441714Y-105862219D02*
X99632190Y-105195552D01*
X100013143Y-105766980D02*
X100060762Y-105814600D01*
X100060762Y-105814600D02*
X100013143Y-105862219D01*
X100013143Y-105862219D02*
X99965524Y-105814600D01*
X99965524Y-105814600D02*
X100013143Y-105766980D01*
X100013143Y-105766980D02*
X100013143Y-105862219D01*
X100489333Y-105195552D02*
X100489333Y-106195552D01*
X100489333Y-105243171D02*
X100584571Y-105195552D01*
X100584571Y-105195552D02*
X100775047Y-105195552D01*
X100775047Y-105195552D02*
X100870285Y-105243171D01*
X100870285Y-105243171D02*
X100917904Y-105290790D01*
X100917904Y-105290790D02*
X100965523Y-105386028D01*
X100965523Y-105386028D02*
X100965523Y-105671742D01*
X100965523Y-105671742D02*
X100917904Y-105766980D01*
X100917904Y-105766980D02*
X100870285Y-105814600D01*
X100870285Y-105814600D02*
X100775047Y-105862219D01*
X100775047Y-105862219D02*
X100584571Y-105862219D01*
X100584571Y-105862219D02*
X100489333Y-105814600D01*
X101394095Y-105862219D02*
X101394095Y-104862219D01*
X101822666Y-105862219D02*
X101822666Y-105338409D01*
X101822666Y-105338409D02*
X101775047Y-105243171D01*
X101775047Y-105243171D02*
X101679809Y-105195552D01*
X101679809Y-105195552D02*
X101536952Y-105195552D01*
X101536952Y-105195552D02*
X101441714Y-105243171D01*
X101441714Y-105243171D02*
X101394095Y-105290790D01*
X102298857Y-105862219D02*
X102298857Y-105195552D01*
X102298857Y-104862219D02*
X102251238Y-104909838D01*
X102251238Y-104909838D02*
X102298857Y-104957457D01*
X102298857Y-104957457D02*
X102346476Y-104909838D01*
X102346476Y-104909838D02*
X102298857Y-104862219D01*
X102298857Y-104862219D02*
X102298857Y-104957457D01*
X102917904Y-105862219D02*
X102822666Y-105814600D01*
X102822666Y-105814600D02*
X102775047Y-105719361D01*
X102775047Y-105719361D02*
X102775047Y-104862219D01*
X103298857Y-105862219D02*
X103298857Y-105195552D01*
X103298857Y-104862219D02*
X103251238Y-104909838D01*
X103251238Y-104909838D02*
X103298857Y-104957457D01*
X103298857Y-104957457D02*
X103346476Y-104909838D01*
X103346476Y-104909838D02*
X103298857Y-104862219D01*
X103298857Y-104862219D02*
X103298857Y-104957457D01*
X103775047Y-105195552D02*
X103775047Y-106195552D01*
X103775047Y-105243171D02*
X103870285Y-105195552D01*
X103870285Y-105195552D02*
X104060761Y-105195552D01*
X104060761Y-105195552D02*
X104155999Y-105243171D01*
X104155999Y-105243171D02*
X104203618Y-105290790D01*
X104203618Y-105290790D02*
X104251237Y-105386028D01*
X104251237Y-105386028D02*
X104251237Y-105671742D01*
X104251237Y-105671742D02*
X104203618Y-105766980D01*
X104203618Y-105766980D02*
X104155999Y-105814600D01*
X104155999Y-105814600D02*
X104060761Y-105862219D01*
X104060761Y-105862219D02*
X103870285Y-105862219D01*
X103870285Y-105862219D02*
X103775047Y-105814600D01*
X104632190Y-105814600D02*
X104727428Y-105862219D01*
X104727428Y-105862219D02*
X104917904Y-105862219D01*
X104917904Y-105862219D02*
X105013142Y-105814600D01*
X105013142Y-105814600D02*
X105060761Y-105719361D01*
X105060761Y-105719361D02*
X105060761Y-105671742D01*
X105060761Y-105671742D02*
X105013142Y-105576504D01*
X105013142Y-105576504D02*
X104917904Y-105528885D01*
X104917904Y-105528885D02*
X104775047Y-105528885D01*
X104775047Y-105528885D02*
X104679809Y-105481266D01*
X104679809Y-105481266D02*
X104632190Y-105386028D01*
X104632190Y-105386028D02*
X104632190Y-105338409D01*
X104632190Y-105338409D02*
X104679809Y-105243171D01*
X104679809Y-105243171D02*
X104775047Y-105195552D01*
X104775047Y-105195552D02*
X104917904Y-105195552D01*
X104917904Y-105195552D02*
X105013142Y-105243171D01*
X105489333Y-105481266D02*
X106251238Y-105481266D01*
X106727428Y-105195552D02*
X106727428Y-106195552D01*
X106727428Y-105243171D02*
X106822666Y-105195552D01*
X106822666Y-105195552D02*
X107013142Y-105195552D01*
X107013142Y-105195552D02*
X107108380Y-105243171D01*
X107108380Y-105243171D02*
X107155999Y-105290790D01*
X107155999Y-105290790D02*
X107203618Y-105386028D01*
X107203618Y-105386028D02*
X107203618Y-105671742D01*
X107203618Y-105671742D02*
X107155999Y-105766980D01*
X107155999Y-105766980D02*
X107108380Y-105814600D01*
X107108380Y-105814600D02*
X107013142Y-105862219D01*
X107013142Y-105862219D02*
X106822666Y-105862219D01*
X106822666Y-105862219D02*
X106727428Y-105814600D01*
X107584571Y-104957457D02*
X107632190Y-104909838D01*
X107632190Y-104909838D02*
X107727428Y-104862219D01*
X107727428Y-104862219D02*
X107965523Y-104862219D01*
X107965523Y-104862219D02*
X108060761Y-104909838D01*
X108060761Y-104909838D02*
X108108380Y-104957457D01*
X108108380Y-104957457D02*
X108155999Y-105052695D01*
X108155999Y-105052695D02*
X108155999Y-105147933D01*
X108155999Y-105147933D02*
X108108380Y-105290790D01*
X108108380Y-105290790D02*
X107536952Y-105862219D01*
X107536952Y-105862219D02*
X108155999Y-105862219D01*
X108775047Y-104862219D02*
X108870285Y-104862219D01*
X108870285Y-104862219D02*
X108965523Y-104909838D01*
X108965523Y-104909838D02*
X109013142Y-104957457D01*
X109013142Y-104957457D02*
X109060761Y-105052695D01*
X109060761Y-105052695D02*
X109108380Y-105243171D01*
X109108380Y-105243171D02*
X109108380Y-105481266D01*
X109108380Y-105481266D02*
X109060761Y-105671742D01*
X109060761Y-105671742D02*
X109013142Y-105766980D01*
X109013142Y-105766980D02*
X108965523Y-105814600D01*
X108965523Y-105814600D02*
X108870285Y-105862219D01*
X108870285Y-105862219D02*
X108775047Y-105862219D01*
X108775047Y-105862219D02*
X108679809Y-105814600D01*
X108679809Y-105814600D02*
X108632190Y-105766980D01*
X108632190Y-105766980D02*
X108584571Y-105671742D01*
X108584571Y-105671742D02*
X108536952Y-105481266D01*
X108536952Y-105481266D02*
X108536952Y-105243171D01*
X108536952Y-105243171D02*
X108584571Y-105052695D01*
X108584571Y-105052695D02*
X108632190Y-104957457D01*
X108632190Y-104957457D02*
X108679809Y-104909838D01*
X108679809Y-104909838D02*
X108775047Y-104862219D01*
X109727428Y-104862219D02*
X109822666Y-104862219D01*
X109822666Y-104862219D02*
X109917904Y-104909838D01*
X109917904Y-104909838D02*
X109965523Y-104957457D01*
X109965523Y-104957457D02*
X110013142Y-105052695D01*
X110013142Y-105052695D02*
X110060761Y-105243171D01*
X110060761Y-105243171D02*
X110060761Y-105481266D01*
X110060761Y-105481266D02*
X110013142Y-105671742D01*
X110013142Y-105671742D02*
X109965523Y-105766980D01*
X109965523Y-105766980D02*
X109917904Y-105814600D01*
X109917904Y-105814600D02*
X109822666Y-105862219D01*
X109822666Y-105862219D02*
X109727428Y-105862219D01*
X109727428Y-105862219D02*
X109632190Y-105814600D01*
X109632190Y-105814600D02*
X109584571Y-105766980D01*
X109584571Y-105766980D02*
X109536952Y-105671742D01*
X109536952Y-105671742D02*
X109489333Y-105481266D01*
X109489333Y-105481266D02*
X109489333Y-105243171D01*
X109489333Y-105243171D02*
X109536952Y-105052695D01*
X109536952Y-105052695D02*
X109584571Y-104957457D01*
X109584571Y-104957457D02*
X109632190Y-104909838D01*
X109632190Y-104909838D02*
X109727428Y-104862219D01*
X110679809Y-104862219D02*
X110775047Y-104862219D01*
X110775047Y-104862219D02*
X110870285Y-104909838D01*
X110870285Y-104909838D02*
X110917904Y-104957457D01*
X110917904Y-104957457D02*
X110965523Y-105052695D01*
X110965523Y-105052695D02*
X111013142Y-105243171D01*
X111013142Y-105243171D02*
X111013142Y-105481266D01*
X111013142Y-105481266D02*
X110965523Y-105671742D01*
X110965523Y-105671742D02*
X110917904Y-105766980D01*
X110917904Y-105766980D02*
X110870285Y-105814600D01*
X110870285Y-105814600D02*
X110775047Y-105862219D01*
X110775047Y-105862219D02*
X110679809Y-105862219D01*
X110679809Y-105862219D02*
X110584571Y-105814600D01*
X110584571Y-105814600D02*
X110536952Y-105766980D01*
X110536952Y-105766980D02*
X110489333Y-105671742D01*
X110489333Y-105671742D02*
X110441714Y-105481266D01*
X110441714Y-105481266D02*
X110441714Y-105243171D01*
X110441714Y-105243171D02*
X110489333Y-105052695D01*
X110489333Y-105052695D02*
X110536952Y-104957457D01*
X110536952Y-104957457D02*
X110584571Y-104909838D01*
X110584571Y-104909838D02*
X110679809Y-104862219D01*
X111298857Y-105195552D02*
X111679809Y-105195552D01*
X111441714Y-104862219D02*
X111441714Y-105719361D01*
X111441714Y-105719361D02*
X111489333Y-105814600D01*
X111489333Y-105814600D02*
X111584571Y-105862219D01*
X111584571Y-105862219D02*
X111679809Y-105862219D01*
X112013143Y-105766980D02*
X112060762Y-105814600D01*
X112060762Y-105814600D02*
X112013143Y-105862219D01*
X112013143Y-105862219D02*
X111965524Y-105814600D01*
X111965524Y-105814600D02*
X112013143Y-105766980D01*
X112013143Y-105766980D02*
X112013143Y-105862219D01*
X112489333Y-105195552D02*
X112489333Y-105862219D01*
X112489333Y-105290790D02*
X112536952Y-105243171D01*
X112536952Y-105243171D02*
X112632190Y-105195552D01*
X112632190Y-105195552D02*
X112775047Y-105195552D01*
X112775047Y-105195552D02*
X112870285Y-105243171D01*
X112870285Y-105243171D02*
X112917904Y-105338409D01*
X112917904Y-105338409D02*
X112917904Y-105862219D01*
X113536952Y-105862219D02*
X113441714Y-105814600D01*
X113441714Y-105814600D02*
X113394095Y-105719361D01*
X113394095Y-105719361D02*
X113394095Y-104862219D01*
D11*
X118895905Y-61668819D02*
X118895905Y-60668819D01*
X118895905Y-60668819D02*
X119134000Y-60668819D01*
X119134000Y-60668819D02*
X119276857Y-60716438D01*
X119276857Y-60716438D02*
X119372095Y-60811676D01*
X119372095Y-60811676D02*
X119419714Y-60906914D01*
X119419714Y-60906914D02*
X119467333Y-61097390D01*
X119467333Y-61097390D02*
X119467333Y-61240247D01*
X119467333Y-61240247D02*
X119419714Y-61430723D01*
X119419714Y-61430723D02*
X119372095Y-61525961D01*
X119372095Y-61525961D02*
X119276857Y-61621200D01*
X119276857Y-61621200D02*
X119134000Y-61668819D01*
X119134000Y-61668819D02*
X118895905Y-61668819D01*
X119848286Y-60764057D02*
X119895905Y-60716438D01*
X119895905Y-60716438D02*
X119991143Y-60668819D01*
X119991143Y-60668819D02*
X120229238Y-60668819D01*
X120229238Y-60668819D02*
X120324476Y-60716438D01*
X120324476Y-60716438D02*
X120372095Y-60764057D01*
X120372095Y-60764057D02*
X120419714Y-60859295D01*
X120419714Y-60859295D02*
X120419714Y-60954533D01*
X120419714Y-60954533D02*
X120372095Y-61097390D01*
X120372095Y-61097390D02*
X119800667Y-61668819D01*
X119800667Y-61668819D02*
X120419714Y-61668819D01*
X115659819Y-58078570D02*
X116659819Y-57840475D01*
X116659819Y-57840475D02*
X115945533Y-57649999D01*
X115945533Y-57649999D02*
X116659819Y-57459523D01*
X116659819Y-57459523D02*
X115659819Y-57221428D01*
X116659819Y-56269047D02*
X116183628Y-56602380D01*
X116659819Y-56840475D02*
X115659819Y-56840475D01*
X115659819Y-56840475D02*
X115659819Y-56459523D01*
X115659819Y-56459523D02*
X115707438Y-56364285D01*
X115707438Y-56364285D02*
X115755057Y-56316666D01*
X115755057Y-56316666D02*
X115850295Y-56269047D01*
X115850295Y-56269047D02*
X115993152Y-56269047D01*
X115993152Y-56269047D02*
X116088390Y-56316666D01*
X116088390Y-56316666D02*
X116136009Y-56364285D01*
X116136009Y-56364285D02*
X116183628Y-56459523D01*
X116183628Y-56459523D02*
X116183628Y-56840475D01*
X113498333Y-74622819D02*
X113165000Y-74146628D01*
X112926905Y-74622819D02*
X112926905Y-73622819D01*
X112926905Y-73622819D02*
X113307857Y-73622819D01*
X113307857Y-73622819D02*
X113403095Y-73670438D01*
X113403095Y-73670438D02*
X113450714Y-73718057D01*
X113450714Y-73718057D02*
X113498333Y-73813295D01*
X113498333Y-73813295D02*
X113498333Y-73956152D01*
X113498333Y-73956152D02*
X113450714Y-74051390D01*
X113450714Y-74051390D02*
X113403095Y-74099009D01*
X113403095Y-74099009D02*
X113307857Y-74146628D01*
X113307857Y-74146628D02*
X112926905Y-74146628D01*
X114450714Y-74622819D02*
X113879286Y-74622819D01*
X114165000Y-74622819D02*
X114165000Y-73622819D01*
X114165000Y-73622819D02*
X114069762Y-73765676D01*
X114069762Y-73765676D02*
X113974524Y-73860914D01*
X113974524Y-73860914D02*
X113879286Y-73908533D01*
X111524905Y-61668819D02*
X111524905Y-60668819D01*
X111524905Y-60668819D02*
X111763000Y-60668819D01*
X111763000Y-60668819D02*
X111905857Y-60716438D01*
X111905857Y-60716438D02*
X112001095Y-60811676D01*
X112001095Y-60811676D02*
X112048714Y-60906914D01*
X112048714Y-60906914D02*
X112096333Y-61097390D01*
X112096333Y-61097390D02*
X112096333Y-61240247D01*
X112096333Y-61240247D02*
X112048714Y-61430723D01*
X112048714Y-61430723D02*
X112001095Y-61525961D01*
X112001095Y-61525961D02*
X111905857Y-61621200D01*
X111905857Y-61621200D02*
X111763000Y-61668819D01*
X111763000Y-61668819D02*
X111524905Y-61668819D01*
X113048714Y-61668819D02*
X112477286Y-61668819D01*
X112763000Y-61668819D02*
X112763000Y-60668819D01*
X112763000Y-60668819D02*
X112667762Y-60811676D01*
X112667762Y-60811676D02*
X112572524Y-60906914D01*
X112572524Y-60906914D02*
X112477286Y-60954533D01*
X109039819Y-57340476D02*
X108563628Y-57673809D01*
X109039819Y-57911904D02*
X108039819Y-57911904D01*
X108039819Y-57911904D02*
X108039819Y-57530952D01*
X108039819Y-57530952D02*
X108087438Y-57435714D01*
X108087438Y-57435714D02*
X108135057Y-57388095D01*
X108135057Y-57388095D02*
X108230295Y-57340476D01*
X108230295Y-57340476D02*
X108373152Y-57340476D01*
X108373152Y-57340476D02*
X108468390Y-57388095D01*
X108468390Y-57388095D02*
X108516009Y-57435714D01*
X108516009Y-57435714D02*
X108563628Y-57530952D01*
X108563628Y-57530952D02*
X108563628Y-57911904D01*
X109039819Y-56911904D02*
X108039819Y-56911904D01*
X108039819Y-56911904D02*
X108039819Y-56673809D01*
X108039819Y-56673809D02*
X108087438Y-56530952D01*
X108087438Y-56530952D02*
X108182676Y-56435714D01*
X108182676Y-56435714D02*
X108277914Y-56388095D01*
X108277914Y-56388095D02*
X108468390Y-56340476D01*
X108468390Y-56340476D02*
X108611247Y-56340476D01*
X108611247Y-56340476D02*
X108801723Y-56388095D01*
X108801723Y-56388095D02*
X108896961Y-56435714D01*
X108896961Y-56435714D02*
X108992200Y-56530952D01*
X108992200Y-56530952D02*
X109039819Y-56673809D01*
X109039819Y-56673809D02*
X109039819Y-56911904D01*
X117943333Y-74622819D02*
X117610000Y-74146628D01*
X117371905Y-74622819D02*
X117371905Y-73622819D01*
X117371905Y-73622819D02*
X117752857Y-73622819D01*
X117752857Y-73622819D02*
X117848095Y-73670438D01*
X117848095Y-73670438D02*
X117895714Y-73718057D01*
X117895714Y-73718057D02*
X117943333Y-73813295D01*
X117943333Y-73813295D02*
X117943333Y-73956152D01*
X117943333Y-73956152D02*
X117895714Y-74051390D01*
X117895714Y-74051390D02*
X117848095Y-74099009D01*
X117848095Y-74099009D02*
X117752857Y-74146628D01*
X117752857Y-74146628D02*
X117371905Y-74146628D01*
X118324286Y-73718057D02*
X118371905Y-73670438D01*
X118371905Y-73670438D02*
X118467143Y-73622819D01*
X118467143Y-73622819D02*
X118705238Y-73622819D01*
X118705238Y-73622819D02*
X118800476Y-73670438D01*
X118800476Y-73670438D02*
X118848095Y-73718057D01*
X118848095Y-73718057D02*
X118895714Y-73813295D01*
X118895714Y-73813295D02*
X118895714Y-73908533D01*
X118895714Y-73908533D02*
X118848095Y-74051390D01*
X118848095Y-74051390D02*
X118276667Y-74622819D01*
X118276667Y-74622819D02*
X118895714Y-74622819D01*
D10*
%TO.C,D2*%
X117069000Y-55605000D02*
X117069000Y-58695000D01*
X122618999Y-57150462D02*
G75*
G03*
X117069001Y-55605170I-2989999J462D01*
G01*
X117069000Y-58694830D02*
G75*
G03*
X122619000Y-57149538I2560000J1544830D01*
G01*
X122129000Y-57150000D02*
G75*
G03*
X117129000Y-57150000I-2500000J0D01*
G01*
X117129000Y-57150000D02*
G75*
G03*
X122129000Y-57150000I2500000J0D01*
G01*
%TO.C,R1*%
X112168000Y-71596000D02*
X112168000Y-65056000D01*
X112498000Y-71596000D02*
X112168000Y-71596000D01*
X114578000Y-71596000D02*
X114908000Y-71596000D01*
X114908000Y-71596000D02*
X114908000Y-65056000D01*
X112168000Y-65056000D02*
X112498000Y-65056000D01*
X114908000Y-65056000D02*
X114578000Y-65056000D01*
%TO.C,D1*%
X109703000Y-55605000D02*
X109703000Y-58695000D01*
X115252999Y-57150462D02*
G75*
G03*
X109703001Y-55605170I-2989999J462D01*
G01*
X109703000Y-58694830D02*
G75*
G03*
X115253000Y-57149538I2560000J1544830D01*
G01*
X114763000Y-57150000D02*
G75*
G03*
X109763000Y-57150000I-2500000J0D01*
G01*
X109763000Y-57150000D02*
G75*
G03*
X114763000Y-57150000I2500000J0D01*
G01*
%TO.C,R2*%
X116740000Y-71596000D02*
X116740000Y-65056000D01*
X117070000Y-71596000D02*
X116740000Y-71596000D01*
X119150000Y-71596000D02*
X119480000Y-71596000D01*
X119480000Y-71596000D02*
X119480000Y-65056000D01*
X116740000Y-65056000D02*
X117070000Y-65056000D01*
X119480000Y-65056000D02*
X119150000Y-65056000D01*
%TD*%
M02*
