%TF.GenerationSoftware,KiCad,Pcbnew,7.0.10*%
%TF.CreationDate,2024-01-21T16:19:02+01:00*%
%TF.ProjectId,p2000t-slot2-datacartridge,70323030-3074-42d7-936c-6f74322d6461,rev?*%
%TF.SameCoordinates,Original*%
%TF.FileFunction,Soldermask,Bot*%
%TF.FilePolarity,Negative*%
%FSLAX46Y46*%
G04 Gerber Fmt 4.6, Leading zero omitted, Abs format (unit mm)*
G04 Created by KiCad (PCBNEW 7.0.10) date 2024-01-21 16:19:02*
%MOMM*%
%LPD*%
G01*
G04 APERTURE LIST*
%ADD10R,1.800000X1.800000*%
%ADD11C,1.800000*%
%ADD12C,1.600000*%
%ADD13O,1.600000X1.600000*%
%ADD14R,1.600000X1.600000*%
%ADD15R,2.000000X10.000000*%
%ADD16R,1.422400X1.422400*%
%ADD17C,1.422400*%
%ADD18R,1.440000X2.000000*%
%ADD19O,1.440000X2.000000*%
G04 APERTURE END LIST*
D10*
%TO.C,D2*%
X118359000Y-57150000D03*
D11*
X120899000Y-57150000D03*
%TD*%
D12*
%TO.C,R1*%
X113538000Y-72136000D03*
D13*
X113538000Y-64516000D03*
%TD*%
D10*
%TO.C,D1*%
X110993000Y-57150000D03*
D11*
X113533000Y-57150000D03*
%TD*%
D12*
%TO.C,R2*%
X118110000Y-72136000D03*
D13*
X118110000Y-64516000D03*
%TD*%
D14*
%TO.C,U3*%
X53330000Y-92700000D03*
D13*
X53330000Y-95240000D03*
X53330000Y-97780000D03*
X53330000Y-100320000D03*
X53330000Y-102860000D03*
X53330000Y-105400000D03*
X53330000Y-107940000D03*
X53330000Y-110480000D03*
X45710000Y-110480000D03*
X45710000Y-107940000D03*
X45710000Y-105400000D03*
X45710000Y-102860000D03*
X45710000Y-100320000D03*
X45710000Y-97780000D03*
X45710000Y-95240000D03*
X45710000Y-92700000D03*
%TD*%
D14*
%TO.C,U2*%
X86360000Y-118110000D03*
D13*
X86360000Y-120650000D03*
X86360000Y-123190000D03*
X86360000Y-125730000D03*
X86360000Y-128270000D03*
X86360000Y-130810000D03*
X86360000Y-133350000D03*
X78740000Y-133350000D03*
X78740000Y-130810000D03*
X78740000Y-128270000D03*
X78740000Y-125730000D03*
X78740000Y-123190000D03*
X78740000Y-120650000D03*
X78740000Y-118110000D03*
%TD*%
D14*
%TO.C,U1*%
X74930000Y-118105000D03*
D13*
X74930000Y-120645000D03*
X74930000Y-123185000D03*
X74930000Y-125725000D03*
X74930000Y-128265000D03*
X74930000Y-130805000D03*
X74930000Y-133345000D03*
X67310000Y-133345000D03*
X67310000Y-130805000D03*
X67310000Y-128265000D03*
X67310000Y-125725000D03*
X67310000Y-123185000D03*
X67310000Y-120645000D03*
X67310000Y-118105000D03*
%TD*%
D14*
%TO.C,U4*%
X63500000Y-118105000D03*
D13*
X63500000Y-120645000D03*
X63500000Y-123185000D03*
X63500000Y-125725000D03*
X63500000Y-128265000D03*
X63500000Y-130805000D03*
X63500000Y-133345000D03*
X55880000Y-133345000D03*
X55880000Y-130805000D03*
X55880000Y-128265000D03*
X55880000Y-125725000D03*
X55880000Y-123185000D03*
X55880000Y-120645000D03*
X55880000Y-118105000D03*
%TD*%
D14*
%TO.C,U5*%
X90678000Y-81026000D03*
D13*
X93218000Y-81026000D03*
X95758000Y-81026000D03*
X98298000Y-81026000D03*
X100838000Y-81026000D03*
X103378000Y-81026000D03*
X105918000Y-81026000D03*
X108458000Y-81026000D03*
X110998000Y-81026000D03*
X113538000Y-81026000D03*
X113538000Y-88646000D03*
X110998000Y-88646000D03*
X108458000Y-88646000D03*
X105918000Y-88646000D03*
X103378000Y-88646000D03*
X100838000Y-88646000D03*
X98298000Y-88646000D03*
X95758000Y-88646000D03*
X93218000Y-88646000D03*
X90678000Y-88646000D03*
%TD*%
D15*
%TO.C,J1*%
X55742000Y-147828000D03*
X59702000Y-147828000D03*
X63662000Y-147828000D03*
X67622000Y-147828000D03*
X71582000Y-147828000D03*
X75542000Y-147828000D03*
X79502000Y-147828000D03*
X83462000Y-147828000D03*
X87422000Y-147828000D03*
X91382000Y-147828000D03*
X95342000Y-147828000D03*
X99302000Y-147828000D03*
X111182000Y-147828000D03*
%TD*%
D14*
%TO.C,U6*%
X57155000Y-81290000D03*
D13*
X59695000Y-81290000D03*
X62235000Y-81290000D03*
X64775000Y-81290000D03*
X67315000Y-81290000D03*
X69855000Y-81290000D03*
X72395000Y-81290000D03*
X74935000Y-81290000D03*
X77475000Y-81290000D03*
X80015000Y-81290000D03*
X80015000Y-88910000D03*
X77475000Y-88910000D03*
X74935000Y-88910000D03*
X72395000Y-88910000D03*
X69855000Y-88910000D03*
X67315000Y-88910000D03*
X64775000Y-88910000D03*
X62235000Y-88910000D03*
X59695000Y-88910000D03*
X57155000Y-88910000D03*
%TD*%
D12*
%TO.C,C1*%
X58500000Y-114300000D03*
X63500000Y-114300000D03*
%TD*%
%TO.C,C2*%
X69930000Y-114300000D03*
X74930000Y-114300000D03*
%TD*%
%TO.C,C3*%
X81360000Y-114300000D03*
X86360000Y-114300000D03*
%TD*%
%TO.C,C4*%
X104220000Y-112395000D03*
X109220000Y-112395000D03*
%TD*%
%TO.C,C5*%
X53340000Y-86290000D03*
X53340000Y-81290000D03*
%TD*%
%TO.C,C6*%
X48660000Y-89275000D03*
X53660000Y-89275000D03*
%TD*%
%TO.C,C8*%
X82884000Y-90678000D03*
X87884000Y-90678000D03*
%TD*%
%TO.C,C9*%
X49530000Y-69175000D03*
X49530000Y-64175000D03*
%TD*%
D16*
%TO.C,U8*%
X64770000Y-96520000D03*
D17*
X67310000Y-93980000D03*
X67310000Y-96520000D03*
X69850000Y-93980000D03*
X72390000Y-96520000D03*
X69850000Y-96520000D03*
X72390000Y-99060000D03*
X69850000Y-99060000D03*
X72390000Y-101600000D03*
X69850000Y-101600000D03*
X72390000Y-104140000D03*
X69850000Y-104140000D03*
X72390000Y-106680000D03*
X69850000Y-109220000D03*
X69850000Y-106680000D03*
X67310000Y-109220000D03*
X67310000Y-106680000D03*
X64770000Y-109220000D03*
X64770000Y-106680000D03*
X62230000Y-109220000D03*
X59690000Y-106680000D03*
X62230000Y-106680000D03*
X59690000Y-104140000D03*
X62230000Y-104140000D03*
X59690000Y-101600000D03*
X62230000Y-101600000D03*
X59690000Y-99060000D03*
X62230000Y-99060000D03*
X59690000Y-96520000D03*
X62230000Y-93980000D03*
X62230000Y-96520000D03*
X64770000Y-93980000D03*
%TD*%
D14*
%TO.C,U7*%
X109220000Y-115570000D03*
D13*
X109220000Y-118110000D03*
X109220000Y-120650000D03*
X109220000Y-123190000D03*
X109220000Y-125730000D03*
X109220000Y-128270000D03*
X109220000Y-130810000D03*
X109220000Y-133350000D03*
X101600000Y-133350000D03*
X101600000Y-130810000D03*
X101600000Y-128270000D03*
X101600000Y-125730000D03*
X101600000Y-123190000D03*
X101600000Y-120650000D03*
X101600000Y-118110000D03*
X101600000Y-115570000D03*
%TD*%
D12*
%TO.C,C7*%
X87376000Y-86066000D03*
X87376000Y-81066000D03*
%TD*%
%TO.C,C10*%
X92790000Y-112395000D03*
X97790000Y-112395000D03*
%TD*%
D14*
%TO.C,C11*%
X120816400Y-93726000D03*
D12*
X118316400Y-93726000D03*
%TD*%
D14*
%TO.C,U9*%
X97780000Y-115560000D03*
D13*
X97780000Y-118100000D03*
X97780000Y-120640000D03*
X97780000Y-123180000D03*
X97780000Y-125720000D03*
X97780000Y-128260000D03*
X97780000Y-130800000D03*
X97780000Y-133340000D03*
X90160000Y-133340000D03*
X90160000Y-130800000D03*
X90160000Y-128260000D03*
X90160000Y-125720000D03*
X90160000Y-123180000D03*
X90160000Y-120640000D03*
X90160000Y-118100000D03*
X90160000Y-115560000D03*
%TD*%
D18*
%TO.C,U10*%
X64398000Y-59147500D03*
D19*
X66938000Y-59147500D03*
X69478000Y-59147500D03*
X72018000Y-59147500D03*
X74558000Y-59147500D03*
X77098000Y-59147500D03*
X79638000Y-59147500D03*
X82178000Y-59147500D03*
X84718000Y-59147500D03*
X87258000Y-59147500D03*
X89798000Y-59147500D03*
X92338000Y-59147500D03*
X94878000Y-59147500D03*
X97418000Y-59147500D03*
X99958000Y-59147500D03*
X102498000Y-59147500D03*
X102498000Y-74387500D03*
X99958000Y-74387500D03*
X97418000Y-74387500D03*
X94878000Y-74387500D03*
X92338000Y-74387500D03*
X89798000Y-74387500D03*
X87258000Y-74387500D03*
X84718000Y-74387500D03*
X82178000Y-74387500D03*
X79638000Y-74387500D03*
X77098000Y-74387500D03*
X74558000Y-74387500D03*
X72018000Y-74387500D03*
X69478000Y-74387500D03*
X66938000Y-74387500D03*
X64398000Y-74387500D03*
%TD*%
D12*
%TO.C,C12*%
X77470000Y-98084000D03*
X77470000Y-103084000D03*
%TD*%
D14*
%TO.C,U11*%
X81026000Y-93975000D03*
D13*
X83566000Y-93975000D03*
X86106000Y-93975000D03*
X88646000Y-93975000D03*
X91186000Y-93975000D03*
X93726000Y-93975000D03*
X96266000Y-93975000D03*
X98806000Y-93975000D03*
X101346000Y-93975000D03*
X103886000Y-93975000D03*
X106426000Y-93975000D03*
X108966000Y-93975000D03*
X111506000Y-93975000D03*
X114046000Y-93975000D03*
X114046000Y-109215000D03*
X111506000Y-109215000D03*
X108966000Y-109215000D03*
X106426000Y-109215000D03*
X103886000Y-109215000D03*
X101346000Y-109215000D03*
X98806000Y-109215000D03*
X96266000Y-109215000D03*
X93726000Y-109215000D03*
X91186000Y-109215000D03*
X88646000Y-109215000D03*
X86106000Y-109215000D03*
X83566000Y-109215000D03*
X81026000Y-109215000D03*
%TD*%
M02*
