%TF.GenerationSoftware,KiCad,Pcbnew,(6.0.9)*%
%TF.CreationDate,2023-08-23T21:36:40+02:00*%
%TF.ProjectId,p2000t-slot2-datacartridge,70323030-3074-42d7-936c-6f74322d6461,rev?*%
%TF.SameCoordinates,Original*%
%TF.FileFunction,Drillmap*%
%TF.FilePolarity,Positive*%
%FSLAX45Y45*%
G04 Gerber Fmt 4.5, Leading zero omitted, Abs format (unit mm)*
G04 Created by KiCad (PCBNEW (6.0.9)) date 2023-08-23 21:36:40*
%MOMM*%
%LPD*%
G01*
G04 APERTURE LIST*
%ADD10C,0.050000*%
%ADD11C,0.200000*%
%ADD12C,0.040000*%
%ADD13C,0.080000*%
%ADD14C,0.090000*%
%ADD15C,0.100000*%
G04 APERTURE END LIST*
D10*
X11518900Y-14290800D02*
X11552800Y-14290800D01*
X4352800Y-11790800D02*
X4352800Y-12240800D01*
X12352800Y-12440800D02*
G75*
G03*
X12352800Y-13340800I0J-450000D01*
G01*
X4352800Y-5290800D02*
X4352800Y-6790800D01*
X8352800Y-5290800D02*
X12352800Y-5290800D01*
X4352800Y-14290800D02*
X4352800Y-13590800D01*
X12352800Y-7440800D02*
G75*
G03*
X12352800Y-8340800I0J-450000D01*
G01*
X12352800Y-9220800D02*
X12352800Y-10360800D01*
X4352800Y-11790800D02*
X4352800Y-8340800D01*
X12352800Y-9220800D02*
X12352800Y-8660800D01*
X12352800Y-8350800D02*
X12352800Y-8660800D01*
X4352800Y-13590800D02*
X4352800Y-13340800D01*
X12352800Y-14290800D02*
X12352800Y-13590800D01*
X12352800Y-7220800D02*
X12352800Y-6660800D01*
X12352800Y-11880800D02*
X12352800Y-10922000D01*
X4352800Y-7240800D02*
X4352800Y-6790800D01*
X5181600Y-14290800D02*
X5152800Y-14290800D01*
X11518900Y-15290800D02*
X5181600Y-15290800D01*
X12352800Y-12440800D02*
X12352800Y-11880800D01*
X12352800Y-8350800D02*
X12352800Y-8340800D01*
X4352800Y-7440800D02*
X4352800Y-7240800D01*
X5181600Y-15290800D02*
X5181600Y-14290800D01*
X4352800Y-12440800D02*
X4352800Y-12290800D01*
X11552800Y-14290800D02*
X12352800Y-14290800D01*
X12352800Y-10922000D02*
X12352800Y-10360800D01*
X12352800Y-7440800D02*
X12352800Y-7220800D01*
X12352800Y-13590800D02*
X12352800Y-13340800D01*
X4352800Y-12290800D02*
X4352800Y-12240800D01*
X4352800Y-8340800D02*
G75*
G03*
X4352800Y-7440800I0J450000D01*
G01*
X8352800Y-5290800D02*
X4352800Y-5290800D01*
X5152800Y-14290800D02*
X4352800Y-14290800D01*
X11518900Y-15290800D02*
X11518900Y-14290800D01*
X12352800Y-6490800D02*
X12352800Y-5290800D01*
X4352800Y-13340800D02*
G75*
G03*
X4352800Y-12440800I0J450000D01*
G01*
X12352800Y-6490800D02*
X12352800Y-6660800D01*
D11*
D12*
X5277580Y-13493170D02*
X5317580Y-13533170D01*
X5317580Y-13493170D02*
X5277580Y-13533170D01*
X5822000Y-13569000D02*
X5862000Y-13609000D01*
X5862000Y-13569000D02*
X5822000Y-13609000D01*
X5958685Y-9177815D02*
X5998685Y-9217815D01*
X5998685Y-9177815D02*
X5958685Y-9217815D01*
X6076000Y-13569000D02*
X6116000Y-13609000D01*
X6116000Y-13569000D02*
X6076000Y-13609000D01*
X6402630Y-10171720D02*
X6442630Y-10211720D01*
X6442630Y-10171720D02*
X6402630Y-10211720D01*
X6718910Y-13532430D02*
X6758910Y-13572430D01*
X6758910Y-13532430D02*
X6718910Y-13572430D01*
X6904570Y-13111520D02*
X6944570Y-13151520D01*
X6944570Y-13111520D02*
X6904570Y-13151520D01*
X6922340Y-13571260D02*
X6962340Y-13611260D01*
X6962340Y-13571260D02*
X6922340Y-13611260D01*
X6979560Y-12843870D02*
X7019560Y-12883870D01*
X7019560Y-12843870D02*
X6979560Y-12883870D01*
X7085910Y-11971340D02*
X7125910Y-12011340D01*
X7125910Y-11971340D02*
X7085910Y-12011340D01*
X7346500Y-9107840D02*
X7386500Y-9147840D01*
X7386500Y-9107840D02*
X7346500Y-9147840D01*
X7610070Y-13571820D02*
X7650070Y-13611820D01*
X7650070Y-13571820D02*
X7610070Y-13611820D01*
X7663500Y-11211370D02*
X7703500Y-11251370D01*
X7703500Y-11211370D02*
X7663500Y-11251370D01*
X7780267Y-13512076D02*
X7820267Y-13552076D01*
X7820267Y-13512076D02*
X7780267Y-13552076D01*
X8362000Y-11558530D02*
X8402000Y-11598530D01*
X8402000Y-11558530D02*
X8362000Y-11598530D01*
X8402090Y-13315000D02*
X8442090Y-13355000D01*
X8442090Y-13315000D02*
X8402090Y-13355000D01*
X8475280Y-7677220D02*
X8515280Y-7717220D01*
X8515280Y-7677220D02*
X8475280Y-7717220D01*
X8553710Y-13568830D02*
X8593710Y-13608830D01*
X8593710Y-13568830D02*
X8553710Y-13608830D01*
X8578770Y-8432690D02*
X8618770Y-8472690D01*
X8618770Y-8432690D02*
X8578770Y-8472690D01*
X8743000Y-8679500D02*
X8783000Y-8719500D01*
X8783000Y-8679500D02*
X8743000Y-8719500D01*
X8770910Y-13548260D02*
X8810910Y-13588260D01*
X8810910Y-13548260D02*
X8770910Y-13588260D01*
X9045750Y-13569000D02*
X9085750Y-13609000D01*
X9085750Y-13569000D02*
X9045750Y-13609000D01*
X10043880Y-13570510D02*
X10083880Y-13610510D01*
X10083880Y-13570510D02*
X10043880Y-13610510D01*
X10203500Y-6965000D02*
X10243500Y-7005000D01*
X10243500Y-6965000D02*
X10203500Y-7005000D01*
X11068320Y-13513750D02*
X11108320Y-13553750D01*
X11108320Y-13513750D02*
X11068320Y-13553750D01*
D13*
X4666880Y-9240020D02*
G75*
G03*
X4666880Y-9240020I-40000J0D01*
G01*
X4666880Y-9494020D02*
G75*
G03*
X4666880Y-9494020I-40000J0D01*
G01*
X4666880Y-9748020D02*
G75*
G03*
X4666880Y-9748020I-40000J0D01*
G01*
X4666880Y-10002020D02*
G75*
G03*
X4666880Y-10002020I-40000J0D01*
G01*
X4666880Y-10256020D02*
G75*
G03*
X4666880Y-10256020I-40000J0D01*
G01*
X4666880Y-10510020D02*
G75*
G03*
X4666880Y-10510020I-40000J0D01*
G01*
X4666880Y-10764020D02*
G75*
G03*
X4666880Y-10764020I-40000J0D01*
G01*
X4928880Y-8890000D02*
G75*
G03*
X4928880Y-8890000I-40000J0D01*
G01*
X4993000Y-6417500D02*
G75*
G03*
X4993000Y-6417500I-40000J0D01*
G01*
X4993000Y-6917500D02*
G75*
G03*
X4993000Y-6917500I-40000J0D01*
G01*
X5374000Y-8129000D02*
G75*
G03*
X5374000Y-8129000I-40000J0D01*
G01*
X5374000Y-8629000D02*
G75*
G03*
X5374000Y-8629000I-40000J0D01*
G01*
X5428880Y-8890000D02*
G75*
G03*
X5428880Y-8890000I-40000J0D01*
G01*
X5428880Y-9240020D02*
G75*
G03*
X5428880Y-9240020I-40000J0D01*
G01*
X5428880Y-9494020D02*
G75*
G03*
X5428880Y-9494020I-40000J0D01*
G01*
X5428880Y-9748020D02*
G75*
G03*
X5428880Y-9748020I-40000J0D01*
G01*
X5428880Y-10002020D02*
G75*
G03*
X5428880Y-10002020I-40000J0D01*
G01*
X5428880Y-10256020D02*
G75*
G03*
X5428880Y-10256020I-40000J0D01*
G01*
X5428880Y-10510020D02*
G75*
G03*
X5428880Y-10510020I-40000J0D01*
G01*
X5428880Y-10764020D02*
G75*
G03*
X5428880Y-10764020I-40000J0D01*
G01*
X5628000Y-11810500D02*
G75*
G03*
X5628000Y-11810500I-40000J0D01*
G01*
X5628000Y-12064500D02*
G75*
G03*
X5628000Y-12064500I-40000J0D01*
G01*
X5628000Y-12318500D02*
G75*
G03*
X5628000Y-12318500I-40000J0D01*
G01*
X5628000Y-12572500D02*
G75*
G03*
X5628000Y-12572500I-40000J0D01*
G01*
X5628000Y-12826500D02*
G75*
G03*
X5628000Y-12826500I-40000J0D01*
G01*
X5628000Y-13080500D02*
G75*
G03*
X5628000Y-13080500I-40000J0D01*
G01*
X5628000Y-13334500D02*
G75*
G03*
X5628000Y-13334500I-40000J0D01*
G01*
X5755500Y-8129000D02*
G75*
G03*
X5755500Y-8129000I-40000J0D01*
G01*
X5755500Y-8891000D02*
G75*
G03*
X5755500Y-8891000I-40000J0D01*
G01*
X5890000Y-11430000D02*
G75*
G03*
X5890000Y-11430000I-40000J0D01*
G01*
X6009000Y-9652000D02*
G75*
G03*
X6009000Y-9652000I-40000J0D01*
G01*
X6009000Y-9906000D02*
G75*
G03*
X6009000Y-9906000I-40000J0D01*
G01*
X6009000Y-10160000D02*
G75*
G03*
X6009000Y-10160000I-40000J0D01*
G01*
X6009000Y-10414000D02*
G75*
G03*
X6009000Y-10414000I-40000J0D01*
G01*
X6009000Y-10668000D02*
G75*
G03*
X6009000Y-10668000I-40000J0D01*
G01*
X6009500Y-8129000D02*
G75*
G03*
X6009500Y-8129000I-40000J0D01*
G01*
X6009500Y-8891000D02*
G75*
G03*
X6009500Y-8891000I-40000J0D01*
G01*
X6263000Y-9398000D02*
G75*
G03*
X6263000Y-9398000I-40000J0D01*
G01*
X6263000Y-9652000D02*
G75*
G03*
X6263000Y-9652000I-40000J0D01*
G01*
X6263000Y-9906000D02*
G75*
G03*
X6263000Y-9906000I-40000J0D01*
G01*
X6263000Y-10160000D02*
G75*
G03*
X6263000Y-10160000I-40000J0D01*
G01*
X6263000Y-10414000D02*
G75*
G03*
X6263000Y-10414000I-40000J0D01*
G01*
X6263000Y-10668000D02*
G75*
G03*
X6263000Y-10668000I-40000J0D01*
G01*
X6263000Y-10922000D02*
G75*
G03*
X6263000Y-10922000I-40000J0D01*
G01*
X6263500Y-8129000D02*
G75*
G03*
X6263500Y-8129000I-40000J0D01*
G01*
X6263500Y-8891000D02*
G75*
G03*
X6263500Y-8891000I-40000J0D01*
G01*
X6390000Y-11430000D02*
G75*
G03*
X6390000Y-11430000I-40000J0D01*
G01*
X6390000Y-11810500D02*
G75*
G03*
X6390000Y-11810500I-40000J0D01*
G01*
X6390000Y-12064500D02*
G75*
G03*
X6390000Y-12064500I-40000J0D01*
G01*
X6390000Y-12318500D02*
G75*
G03*
X6390000Y-12318500I-40000J0D01*
G01*
X6390000Y-12572500D02*
G75*
G03*
X6390000Y-12572500I-40000J0D01*
G01*
X6390000Y-12826500D02*
G75*
G03*
X6390000Y-12826500I-40000J0D01*
G01*
X6390000Y-13080500D02*
G75*
G03*
X6390000Y-13080500I-40000J0D01*
G01*
X6390000Y-13334500D02*
G75*
G03*
X6390000Y-13334500I-40000J0D01*
G01*
X6517000Y-9398000D02*
G75*
G03*
X6517000Y-9398000I-40000J0D01*
G01*
X6517000Y-9652000D02*
G75*
G03*
X6517000Y-9652000I-40000J0D01*
G01*
X6517000Y-10668000D02*
G75*
G03*
X6517000Y-10668000I-40000J0D01*
G01*
X6517000Y-10922000D02*
G75*
G03*
X6517000Y-10922000I-40000J0D01*
G01*
X6517500Y-8129000D02*
G75*
G03*
X6517500Y-8129000I-40000J0D01*
G01*
X6517500Y-8891000D02*
G75*
G03*
X6517500Y-8891000I-40000J0D01*
G01*
X6771000Y-9398000D02*
G75*
G03*
X6771000Y-9398000I-40000J0D01*
G01*
X6771000Y-9652000D02*
G75*
G03*
X6771000Y-9652000I-40000J0D01*
G01*
X6771000Y-10668000D02*
G75*
G03*
X6771000Y-10668000I-40000J0D01*
G01*
X6771000Y-10922000D02*
G75*
G03*
X6771000Y-10922000I-40000J0D01*
G01*
X6771000Y-11810500D02*
G75*
G03*
X6771000Y-11810500I-40000J0D01*
G01*
X6771000Y-12064500D02*
G75*
G03*
X6771000Y-12064500I-40000J0D01*
G01*
X6771000Y-12318500D02*
G75*
G03*
X6771000Y-12318500I-40000J0D01*
G01*
X6771000Y-12572500D02*
G75*
G03*
X6771000Y-12572500I-40000J0D01*
G01*
X6771000Y-12826500D02*
G75*
G03*
X6771000Y-12826500I-40000J0D01*
G01*
X6771000Y-13080500D02*
G75*
G03*
X6771000Y-13080500I-40000J0D01*
G01*
X6771000Y-13334500D02*
G75*
G03*
X6771000Y-13334500I-40000J0D01*
G01*
X6771500Y-8129000D02*
G75*
G03*
X6771500Y-8129000I-40000J0D01*
G01*
X6771500Y-8891000D02*
G75*
G03*
X6771500Y-8891000I-40000J0D01*
G01*
X7025000Y-9398000D02*
G75*
G03*
X7025000Y-9398000I-40000J0D01*
G01*
X7025000Y-9652000D02*
G75*
G03*
X7025000Y-9652000I-40000J0D01*
G01*
X7025000Y-9906000D02*
G75*
G03*
X7025000Y-9906000I-40000J0D01*
G01*
X7025000Y-10160000D02*
G75*
G03*
X7025000Y-10160000I-40000J0D01*
G01*
X7025000Y-10414000D02*
G75*
G03*
X7025000Y-10414000I-40000J0D01*
G01*
X7025000Y-10668000D02*
G75*
G03*
X7025000Y-10668000I-40000J0D01*
G01*
X7025000Y-10922000D02*
G75*
G03*
X7025000Y-10922000I-40000J0D01*
G01*
X7025500Y-8129000D02*
G75*
G03*
X7025500Y-8129000I-40000J0D01*
G01*
X7025500Y-8891000D02*
G75*
G03*
X7025500Y-8891000I-40000J0D01*
G01*
X7033000Y-11430000D02*
G75*
G03*
X7033000Y-11430000I-40000J0D01*
G01*
X7279000Y-9652000D02*
G75*
G03*
X7279000Y-9652000I-40000J0D01*
G01*
X7279000Y-9906000D02*
G75*
G03*
X7279000Y-9906000I-40000J0D01*
G01*
X7279000Y-10160000D02*
G75*
G03*
X7279000Y-10160000I-40000J0D01*
G01*
X7279000Y-10414000D02*
G75*
G03*
X7279000Y-10414000I-40000J0D01*
G01*
X7279000Y-10668000D02*
G75*
G03*
X7279000Y-10668000I-40000J0D01*
G01*
X7279500Y-8129000D02*
G75*
G03*
X7279500Y-8129000I-40000J0D01*
G01*
X7279500Y-8891000D02*
G75*
G03*
X7279500Y-8891000I-40000J0D01*
G01*
X7533000Y-11430000D02*
G75*
G03*
X7533000Y-11430000I-40000J0D01*
G01*
X7533000Y-11810500D02*
G75*
G03*
X7533000Y-11810500I-40000J0D01*
G01*
X7533000Y-12064500D02*
G75*
G03*
X7533000Y-12064500I-40000J0D01*
G01*
X7533000Y-12318500D02*
G75*
G03*
X7533000Y-12318500I-40000J0D01*
G01*
X7533000Y-12572500D02*
G75*
G03*
X7533000Y-12572500I-40000J0D01*
G01*
X7533000Y-12826500D02*
G75*
G03*
X7533000Y-12826500I-40000J0D01*
G01*
X7533000Y-13080500D02*
G75*
G03*
X7533000Y-13080500I-40000J0D01*
G01*
X7533000Y-13334500D02*
G75*
G03*
X7533000Y-13334500I-40000J0D01*
G01*
X7533500Y-8129000D02*
G75*
G03*
X7533500Y-8129000I-40000J0D01*
G01*
X7533500Y-8891000D02*
G75*
G03*
X7533500Y-8891000I-40000J0D01*
G01*
X7787500Y-8129000D02*
G75*
G03*
X7787500Y-8129000I-40000J0D01*
G01*
X7787500Y-8891000D02*
G75*
G03*
X7787500Y-8891000I-40000J0D01*
G01*
X7912500Y-9397500D02*
G75*
G03*
X7912500Y-9397500I-40000J0D01*
G01*
X7912500Y-10921500D02*
G75*
G03*
X7912500Y-10921500I-40000J0D01*
G01*
X7914000Y-11811000D02*
G75*
G03*
X7914000Y-11811000I-40000J0D01*
G01*
X7914000Y-12065000D02*
G75*
G03*
X7914000Y-12065000I-40000J0D01*
G01*
X7914000Y-12319000D02*
G75*
G03*
X7914000Y-12319000I-40000J0D01*
G01*
X7914000Y-12573000D02*
G75*
G03*
X7914000Y-12573000I-40000J0D01*
G01*
X7914000Y-12827000D02*
G75*
G03*
X7914000Y-12827000I-40000J0D01*
G01*
X7914000Y-13081000D02*
G75*
G03*
X7914000Y-13081000I-40000J0D01*
G01*
X7914000Y-13335000D02*
G75*
G03*
X7914000Y-13335000I-40000J0D01*
G01*
X8041500Y-8129000D02*
G75*
G03*
X8041500Y-8129000I-40000J0D01*
G01*
X8041500Y-8891000D02*
G75*
G03*
X8041500Y-8891000I-40000J0D01*
G01*
X8166500Y-9397500D02*
G75*
G03*
X8166500Y-9397500I-40000J0D01*
G01*
X8166500Y-10921500D02*
G75*
G03*
X8166500Y-10921500I-40000J0D01*
G01*
X8176000Y-11430000D02*
G75*
G03*
X8176000Y-11430000I-40000J0D01*
G01*
X8420500Y-9397500D02*
G75*
G03*
X8420500Y-9397500I-40000J0D01*
G01*
X8420500Y-10921500D02*
G75*
G03*
X8420500Y-10921500I-40000J0D01*
G01*
X8422000Y-8128000D02*
G75*
G03*
X8422000Y-8128000I-40000J0D01*
G01*
X8422000Y-8628000D02*
G75*
G03*
X8422000Y-8628000I-40000J0D01*
G01*
X8674500Y-9397500D02*
G75*
G03*
X8674500Y-9397500I-40000J0D01*
G01*
X8674500Y-10921500D02*
G75*
G03*
X8674500Y-10921500I-40000J0D01*
G01*
X8676000Y-11430000D02*
G75*
G03*
X8676000Y-11430000I-40000J0D01*
G01*
X8676000Y-11811000D02*
G75*
G03*
X8676000Y-11811000I-40000J0D01*
G01*
X8676000Y-12065000D02*
G75*
G03*
X8676000Y-12065000I-40000J0D01*
G01*
X8676000Y-12319000D02*
G75*
G03*
X8676000Y-12319000I-40000J0D01*
G01*
X8676000Y-12573000D02*
G75*
G03*
X8676000Y-12573000I-40000J0D01*
G01*
X8676000Y-12827000D02*
G75*
G03*
X8676000Y-12827000I-40000J0D01*
G01*
X8676000Y-13081000D02*
G75*
G03*
X8676000Y-13081000I-40000J0D01*
G01*
X8676000Y-13335000D02*
G75*
G03*
X8676000Y-13335000I-40000J0D01*
G01*
X8803500Y-8129000D02*
G75*
G03*
X8803500Y-8129000I-40000J0D01*
G01*
X8803500Y-8891000D02*
G75*
G03*
X8803500Y-8891000I-40000J0D01*
G01*
X8928500Y-9397500D02*
G75*
G03*
X8928500Y-9397500I-40000J0D01*
G01*
X8928500Y-10921500D02*
G75*
G03*
X8928500Y-10921500I-40000J0D01*
G01*
X9057000Y-11557000D02*
G75*
G03*
X9057000Y-11557000I-40000J0D01*
G01*
X9057000Y-11811000D02*
G75*
G03*
X9057000Y-11811000I-40000J0D01*
G01*
X9057000Y-12065000D02*
G75*
G03*
X9057000Y-12065000I-40000J0D01*
G01*
X9057000Y-12319000D02*
G75*
G03*
X9057000Y-12319000I-40000J0D01*
G01*
X9057000Y-12573000D02*
G75*
G03*
X9057000Y-12573000I-40000J0D01*
G01*
X9057000Y-12827000D02*
G75*
G03*
X9057000Y-12827000I-40000J0D01*
G01*
X9057000Y-13081000D02*
G75*
G03*
X9057000Y-13081000I-40000J0D01*
G01*
X9057000Y-13335000D02*
G75*
G03*
X9057000Y-13335000I-40000J0D01*
G01*
X9057500Y-8129000D02*
G75*
G03*
X9057500Y-8129000I-40000J0D01*
G01*
X9057500Y-8891000D02*
G75*
G03*
X9057500Y-8891000I-40000J0D01*
G01*
X9182500Y-9397500D02*
G75*
G03*
X9182500Y-9397500I-40000J0D01*
G01*
X9182500Y-10921500D02*
G75*
G03*
X9182500Y-10921500I-40000J0D01*
G01*
X9311500Y-8129000D02*
G75*
G03*
X9311500Y-8129000I-40000J0D01*
G01*
X9311500Y-8891000D02*
G75*
G03*
X9311500Y-8891000I-40000J0D01*
G01*
X9319000Y-11239500D02*
G75*
G03*
X9319000Y-11239500I-40000J0D01*
G01*
X9436500Y-9397500D02*
G75*
G03*
X9436500Y-9397500I-40000J0D01*
G01*
X9436500Y-10921500D02*
G75*
G03*
X9436500Y-10921500I-40000J0D01*
G01*
X9565500Y-8129000D02*
G75*
G03*
X9565500Y-8129000I-40000J0D01*
G01*
X9565500Y-8891000D02*
G75*
G03*
X9565500Y-8891000I-40000J0D01*
G01*
X9690500Y-9397500D02*
G75*
G03*
X9690500Y-9397500I-40000J0D01*
G01*
X9690500Y-10921500D02*
G75*
G03*
X9690500Y-10921500I-40000J0D01*
G01*
X9819000Y-11239500D02*
G75*
G03*
X9819000Y-11239500I-40000J0D01*
G01*
X9819000Y-11557000D02*
G75*
G03*
X9819000Y-11557000I-40000J0D01*
G01*
X9819000Y-11811000D02*
G75*
G03*
X9819000Y-11811000I-40000J0D01*
G01*
X9819000Y-12065000D02*
G75*
G03*
X9819000Y-12065000I-40000J0D01*
G01*
X9819000Y-12319000D02*
G75*
G03*
X9819000Y-12319000I-40000J0D01*
G01*
X9819000Y-12573000D02*
G75*
G03*
X9819000Y-12573000I-40000J0D01*
G01*
X9819000Y-12827000D02*
G75*
G03*
X9819000Y-12827000I-40000J0D01*
G01*
X9819000Y-13081000D02*
G75*
G03*
X9819000Y-13081000I-40000J0D01*
G01*
X9819000Y-13335000D02*
G75*
G03*
X9819000Y-13335000I-40000J0D01*
G01*
X9819500Y-8129000D02*
G75*
G03*
X9819500Y-8129000I-40000J0D01*
G01*
X9819500Y-8891000D02*
G75*
G03*
X9819500Y-8891000I-40000J0D01*
G01*
X9944500Y-9397500D02*
G75*
G03*
X9944500Y-9397500I-40000J0D01*
G01*
X9944500Y-10921500D02*
G75*
G03*
X9944500Y-10921500I-40000J0D01*
G01*
X10073500Y-8129000D02*
G75*
G03*
X10073500Y-8129000I-40000J0D01*
G01*
X10073500Y-8891000D02*
G75*
G03*
X10073500Y-8891000I-40000J0D01*
G01*
X10198500Y-9397500D02*
G75*
G03*
X10198500Y-9397500I-40000J0D01*
G01*
X10198500Y-10921500D02*
G75*
G03*
X10198500Y-10921500I-40000J0D01*
G01*
X10200000Y-11557000D02*
G75*
G03*
X10200000Y-11557000I-40000J0D01*
G01*
X10200000Y-11811000D02*
G75*
G03*
X10200000Y-11811000I-40000J0D01*
G01*
X10200000Y-12065000D02*
G75*
G03*
X10200000Y-12065000I-40000J0D01*
G01*
X10200000Y-12319000D02*
G75*
G03*
X10200000Y-12319000I-40000J0D01*
G01*
X10200000Y-12573000D02*
G75*
G03*
X10200000Y-12573000I-40000J0D01*
G01*
X10200000Y-12827000D02*
G75*
G03*
X10200000Y-12827000I-40000J0D01*
G01*
X10200000Y-13081000D02*
G75*
G03*
X10200000Y-13081000I-40000J0D01*
G01*
X10200000Y-13335000D02*
G75*
G03*
X10200000Y-13335000I-40000J0D01*
G01*
X10327500Y-8129000D02*
G75*
G03*
X10327500Y-8129000I-40000J0D01*
G01*
X10327500Y-8891000D02*
G75*
G03*
X10327500Y-8891000I-40000J0D01*
G01*
X10452500Y-9397500D02*
G75*
G03*
X10452500Y-9397500I-40000J0D01*
G01*
X10452500Y-10921500D02*
G75*
G03*
X10452500Y-10921500I-40000J0D01*
G01*
X10462000Y-11239500D02*
G75*
G03*
X10462000Y-11239500I-40000J0D01*
G01*
X10581500Y-8129000D02*
G75*
G03*
X10581500Y-8129000I-40000J0D01*
G01*
X10581500Y-8891000D02*
G75*
G03*
X10581500Y-8891000I-40000J0D01*
G01*
X10706500Y-9397500D02*
G75*
G03*
X10706500Y-9397500I-40000J0D01*
G01*
X10706500Y-10921500D02*
G75*
G03*
X10706500Y-10921500I-40000J0D01*
G01*
X10835500Y-8129000D02*
G75*
G03*
X10835500Y-8129000I-40000J0D01*
G01*
X10835500Y-8891000D02*
G75*
G03*
X10835500Y-8891000I-40000J0D01*
G01*
X10960500Y-9397500D02*
G75*
G03*
X10960500Y-9397500I-40000J0D01*
G01*
X10960500Y-10921500D02*
G75*
G03*
X10960500Y-10921500I-40000J0D01*
G01*
X10962000Y-11239500D02*
G75*
G03*
X10962000Y-11239500I-40000J0D01*
G01*
X10962000Y-11557000D02*
G75*
G03*
X10962000Y-11557000I-40000J0D01*
G01*
X10962000Y-11811000D02*
G75*
G03*
X10962000Y-11811000I-40000J0D01*
G01*
X10962000Y-12065000D02*
G75*
G03*
X10962000Y-12065000I-40000J0D01*
G01*
X10962000Y-12319000D02*
G75*
G03*
X10962000Y-12319000I-40000J0D01*
G01*
X10962000Y-12573000D02*
G75*
G03*
X10962000Y-12573000I-40000J0D01*
G01*
X10962000Y-12827000D02*
G75*
G03*
X10962000Y-12827000I-40000J0D01*
G01*
X10962000Y-13081000D02*
G75*
G03*
X10962000Y-13081000I-40000J0D01*
G01*
X10962000Y-13335000D02*
G75*
G03*
X10962000Y-13335000I-40000J0D01*
G01*
X11089500Y-8129000D02*
G75*
G03*
X11089500Y-8129000I-40000J0D01*
G01*
X11089500Y-8891000D02*
G75*
G03*
X11089500Y-8891000I-40000J0D01*
G01*
X11214500Y-9397500D02*
G75*
G03*
X11214500Y-9397500I-40000J0D01*
G01*
X11214500Y-10921500D02*
G75*
G03*
X11214500Y-10921500I-40000J0D01*
G01*
X11393800Y-6451600D02*
G75*
G03*
X11393800Y-6451600I-40000J0D01*
G01*
X11393800Y-7213600D02*
G75*
G03*
X11393800Y-7213600I-40000J0D01*
G01*
X11597000Y-8255000D02*
G75*
G03*
X11597000Y-8255000I-40000J0D01*
G01*
X11597000Y-8755000D02*
G75*
G03*
X11597000Y-8755000I-40000J0D01*
G01*
X11651800Y-9372600D02*
G75*
G03*
X11651800Y-9372600I-40000J0D01*
G01*
X11851000Y-6451600D02*
G75*
G03*
X11851000Y-6451600I-40000J0D01*
G01*
X11851000Y-7213600D02*
G75*
G03*
X11851000Y-7213600I-40000J0D01*
G01*
X11901800Y-9372600D02*
G75*
G03*
X11901800Y-9372600I-40000J0D01*
G01*
D14*
X11099300Y-5670000D02*
X11099300Y-5760000D01*
X11054300Y-5715000D02*
X11144300Y-5715000D01*
X11353300Y-5670000D02*
X11353300Y-5760000D01*
X11308300Y-5715000D02*
X11398300Y-5715000D01*
X11835900Y-5670000D02*
X11835900Y-5760000D01*
X11790900Y-5715000D02*
X11880900Y-5715000D01*
X12089900Y-5670000D02*
X12089900Y-5760000D01*
X12044900Y-5715000D02*
X12134900Y-5715000D01*
D15*
X6475156Y-5950106D02*
X6475156Y-5879394D01*
X6404444Y-5879394D01*
X6404444Y-5950106D01*
X6475156Y-5950106D01*
X6475156Y-7474106D02*
X6475156Y-7403394D01*
X6404444Y-7403394D01*
X6404444Y-7474106D01*
X6475156Y-7474106D01*
X6729156Y-5950106D02*
X6729156Y-5879394D01*
X6658444Y-5879394D01*
X6658444Y-5950106D01*
X6729156Y-5950106D01*
X6729156Y-7474106D02*
X6729156Y-7403394D01*
X6658444Y-7403394D01*
X6658444Y-7474106D01*
X6729156Y-7474106D01*
X6983156Y-5950106D02*
X6983156Y-5879394D01*
X6912444Y-5879394D01*
X6912444Y-5950106D01*
X6983156Y-5950106D01*
X6983156Y-7474106D02*
X6983156Y-7403394D01*
X6912444Y-7403394D01*
X6912444Y-7474106D01*
X6983156Y-7474106D01*
X7237156Y-5950106D02*
X7237156Y-5879394D01*
X7166444Y-5879394D01*
X7166444Y-5950106D01*
X7237156Y-5950106D01*
X7237156Y-7474106D02*
X7237156Y-7403394D01*
X7166444Y-7403394D01*
X7166444Y-7474106D01*
X7237156Y-7474106D01*
X7491156Y-5950106D02*
X7491156Y-5879394D01*
X7420444Y-5879394D01*
X7420444Y-5950106D01*
X7491156Y-5950106D01*
X7491156Y-7474106D02*
X7491156Y-7403394D01*
X7420444Y-7403394D01*
X7420444Y-7474106D01*
X7491156Y-7474106D01*
X7745156Y-5950106D02*
X7745156Y-5879394D01*
X7674444Y-5879394D01*
X7674444Y-5950106D01*
X7745156Y-5950106D01*
X7745156Y-7474106D02*
X7745156Y-7403394D01*
X7674444Y-7403394D01*
X7674444Y-7474106D01*
X7745156Y-7474106D01*
X7999156Y-5950106D02*
X7999156Y-5879394D01*
X7928444Y-5879394D01*
X7928444Y-5950106D01*
X7999156Y-5950106D01*
X7999156Y-7474106D02*
X7999156Y-7403394D01*
X7928444Y-7403394D01*
X7928444Y-7474106D01*
X7999156Y-7474106D01*
X8253156Y-5950106D02*
X8253156Y-5879394D01*
X8182444Y-5879394D01*
X8182444Y-5950106D01*
X8253156Y-5950106D01*
X8253156Y-7474106D02*
X8253156Y-7403394D01*
X8182444Y-7403394D01*
X8182444Y-7474106D01*
X8253156Y-7474106D01*
X8507156Y-5950106D02*
X8507156Y-5879394D01*
X8436444Y-5879394D01*
X8436444Y-5950106D01*
X8507156Y-5950106D01*
X8507156Y-7474106D02*
X8507156Y-7403394D01*
X8436444Y-7403394D01*
X8436444Y-7474106D01*
X8507156Y-7474106D01*
X8761156Y-5950106D02*
X8761156Y-5879394D01*
X8690444Y-5879394D01*
X8690444Y-5950106D01*
X8761156Y-5950106D01*
X8761156Y-7474106D02*
X8761156Y-7403394D01*
X8690444Y-7403394D01*
X8690444Y-7474106D01*
X8761156Y-7474106D01*
X9015156Y-5950106D02*
X9015156Y-5879394D01*
X8944444Y-5879394D01*
X8944444Y-5950106D01*
X9015156Y-5950106D01*
X9015156Y-7474106D02*
X9015156Y-7403394D01*
X8944444Y-7403394D01*
X8944444Y-7474106D01*
X9015156Y-7474106D01*
X9269156Y-5950106D02*
X9269156Y-5879394D01*
X9198444Y-5879394D01*
X9198444Y-5950106D01*
X9269156Y-5950106D01*
X9269156Y-7474106D02*
X9269156Y-7403394D01*
X9198444Y-7403394D01*
X9198444Y-7474106D01*
X9269156Y-7474106D01*
X9523156Y-5950106D02*
X9523156Y-5879394D01*
X9452444Y-5879394D01*
X9452444Y-5950106D01*
X9523156Y-5950106D01*
X9523156Y-7474106D02*
X9523156Y-7403394D01*
X9452444Y-7403394D01*
X9452444Y-7474106D01*
X9523156Y-7474106D01*
X9777156Y-5950106D02*
X9777156Y-5879394D01*
X9706444Y-5879394D01*
X9706444Y-5950106D01*
X9777156Y-5950106D01*
X9777156Y-7474106D02*
X9777156Y-7403394D01*
X9706444Y-7403394D01*
X9706444Y-7474106D01*
X9777156Y-7474106D01*
X10031156Y-5950106D02*
X10031156Y-5879394D01*
X9960444Y-5879394D01*
X9960444Y-5950106D01*
X10031156Y-5950106D01*
X10031156Y-7474106D02*
X10031156Y-7403394D01*
X9960444Y-7403394D01*
X9960444Y-7474106D01*
X10031156Y-7474106D01*
X10285156Y-5950106D02*
X10285156Y-5879394D01*
X10214444Y-5879394D01*
X10214444Y-5950106D01*
X10285156Y-5950106D01*
X10285156Y-7474106D02*
X10285156Y-7403394D01*
X10214444Y-7403394D01*
X10214444Y-7474106D01*
X10285156Y-7474106D01*
D11*
X4607919Y-15603776D02*
X4607919Y-15403776D01*
X4655538Y-15403776D01*
X4684110Y-15413300D01*
X4703157Y-15432348D01*
X4712681Y-15451395D01*
X4722205Y-15489490D01*
X4722205Y-15518062D01*
X4712681Y-15556157D01*
X4703157Y-15575205D01*
X4684110Y-15594252D01*
X4655538Y-15603776D01*
X4607919Y-15603776D01*
X4807919Y-15603776D02*
X4807919Y-15470443D01*
X4807919Y-15508538D02*
X4817443Y-15489490D01*
X4826967Y-15479967D01*
X4846014Y-15470443D01*
X4865062Y-15470443D01*
X4931729Y-15603776D02*
X4931729Y-15470443D01*
X4931729Y-15403776D02*
X4922205Y-15413300D01*
X4931729Y-15422824D01*
X4941252Y-15413300D01*
X4931729Y-15403776D01*
X4931729Y-15422824D01*
X5055538Y-15603776D02*
X5036490Y-15594252D01*
X5026967Y-15575205D01*
X5026967Y-15403776D01*
X5160300Y-15603776D02*
X5141252Y-15594252D01*
X5131729Y-15575205D01*
X5131729Y-15403776D01*
X5388871Y-15603776D02*
X5388871Y-15403776D01*
X5455538Y-15546633D01*
X5522205Y-15403776D01*
X5522205Y-15603776D01*
X5703157Y-15603776D02*
X5703157Y-15499014D01*
X5693633Y-15479967D01*
X5674586Y-15470443D01*
X5636490Y-15470443D01*
X5617443Y-15479967D01*
X5703157Y-15594252D02*
X5684109Y-15603776D01*
X5636490Y-15603776D01*
X5617443Y-15594252D01*
X5607919Y-15575205D01*
X5607919Y-15556157D01*
X5617443Y-15537109D01*
X5636490Y-15527586D01*
X5684109Y-15527586D01*
X5703157Y-15518062D01*
X5798395Y-15470443D02*
X5798395Y-15670443D01*
X5798395Y-15479967D02*
X5817443Y-15470443D01*
X5855538Y-15470443D01*
X5874586Y-15479967D01*
X5884109Y-15489490D01*
X5893633Y-15508538D01*
X5893633Y-15565681D01*
X5884109Y-15584728D01*
X5874586Y-15594252D01*
X5855538Y-15603776D01*
X5817443Y-15603776D01*
X5798395Y-15594252D01*
X5979348Y-15584728D02*
X5988871Y-15594252D01*
X5979348Y-15603776D01*
X5969824Y-15594252D01*
X5979348Y-15584728D01*
X5979348Y-15603776D01*
X5979348Y-15479967D02*
X5988871Y-15489490D01*
X5979348Y-15499014D01*
X5969824Y-15489490D01*
X5979348Y-15479967D01*
X5979348Y-15499014D01*
D12*
X4310300Y-15913300D02*
X4350300Y-15953300D01*
X4350300Y-15913300D02*
X4310300Y-15953300D01*
D11*
X4646014Y-15823776D02*
X4665062Y-15823776D01*
X4684110Y-15833300D01*
X4693633Y-15842824D01*
X4703157Y-15861871D01*
X4712681Y-15899967D01*
X4712681Y-15947586D01*
X4703157Y-15985681D01*
X4693633Y-16004728D01*
X4684110Y-16014252D01*
X4665062Y-16023776D01*
X4646014Y-16023776D01*
X4626967Y-16014252D01*
X4617443Y-16004728D01*
X4607919Y-15985681D01*
X4598395Y-15947586D01*
X4598395Y-15899967D01*
X4607919Y-15861871D01*
X4617443Y-15842824D01*
X4626967Y-15833300D01*
X4646014Y-15823776D01*
X4798395Y-16004728D02*
X4807919Y-16014252D01*
X4798395Y-16023776D01*
X4788871Y-16014252D01*
X4798395Y-16004728D01*
X4798395Y-16023776D01*
X4979348Y-15890443D02*
X4979348Y-16023776D01*
X4931729Y-15814252D02*
X4884110Y-15957109D01*
X5007919Y-15957109D01*
X5122205Y-15823776D02*
X5141252Y-15823776D01*
X5160300Y-15833300D01*
X5169824Y-15842824D01*
X5179348Y-15861871D01*
X5188871Y-15899967D01*
X5188871Y-15947586D01*
X5179348Y-15985681D01*
X5169824Y-16004728D01*
X5160300Y-16014252D01*
X5141252Y-16023776D01*
X5122205Y-16023776D01*
X5103157Y-16014252D01*
X5093633Y-16004728D01*
X5084110Y-15985681D01*
X5074586Y-15947586D01*
X5074586Y-15899967D01*
X5084110Y-15861871D01*
X5093633Y-15842824D01*
X5103157Y-15833300D01*
X5122205Y-15823776D01*
X5312681Y-15823776D02*
X5331729Y-15823776D01*
X5350776Y-15833300D01*
X5360300Y-15842824D01*
X5369824Y-15861871D01*
X5379348Y-15899967D01*
X5379348Y-15947586D01*
X5369824Y-15985681D01*
X5360300Y-16004728D01*
X5350776Y-16014252D01*
X5331729Y-16023776D01*
X5312681Y-16023776D01*
X5293633Y-16014252D01*
X5284110Y-16004728D01*
X5274586Y-15985681D01*
X5265062Y-15947586D01*
X5265062Y-15899967D01*
X5274586Y-15861871D01*
X5284110Y-15842824D01*
X5293633Y-15833300D01*
X5312681Y-15823776D01*
X5465062Y-16023776D02*
X5465062Y-15890443D01*
X5465062Y-15909490D02*
X5474586Y-15899967D01*
X5493633Y-15890443D01*
X5522205Y-15890443D01*
X5541252Y-15899967D01*
X5550776Y-15919014D01*
X5550776Y-16023776D01*
X5550776Y-15919014D02*
X5560300Y-15899967D01*
X5579348Y-15890443D01*
X5607919Y-15890443D01*
X5626967Y-15899967D01*
X5636490Y-15919014D01*
X5636490Y-16023776D01*
X5731728Y-16023776D02*
X5731728Y-15890443D01*
X5731728Y-15909490D02*
X5741252Y-15899967D01*
X5760300Y-15890443D01*
X5788871Y-15890443D01*
X5807919Y-15899967D01*
X5817443Y-15919014D01*
X5817443Y-16023776D01*
X5817443Y-15919014D02*
X5826967Y-15899967D01*
X5846014Y-15890443D01*
X5874586Y-15890443D01*
X5893633Y-15899967D01*
X5903157Y-15919014D01*
X5903157Y-16023776D01*
X6293633Y-15814252D02*
X6122205Y-16071395D01*
X6550776Y-15823776D02*
X6569824Y-15823776D01*
X6588871Y-15833300D01*
X6598395Y-15842824D01*
X6607919Y-15861871D01*
X6617443Y-15899967D01*
X6617443Y-15947586D01*
X6607919Y-15985681D01*
X6598395Y-16004728D01*
X6588871Y-16014252D01*
X6569824Y-16023776D01*
X6550776Y-16023776D01*
X6531728Y-16014252D01*
X6522205Y-16004728D01*
X6512681Y-15985681D01*
X6503157Y-15947586D01*
X6503157Y-15899967D01*
X6512681Y-15861871D01*
X6522205Y-15842824D01*
X6531728Y-15833300D01*
X6550776Y-15823776D01*
X6703157Y-16004728D02*
X6712681Y-16014252D01*
X6703157Y-16023776D01*
X6693633Y-16014252D01*
X6703157Y-16004728D01*
X6703157Y-16023776D01*
X6836490Y-15823776D02*
X6855538Y-15823776D01*
X6874586Y-15833300D01*
X6884109Y-15842824D01*
X6893633Y-15861871D01*
X6903157Y-15899967D01*
X6903157Y-15947586D01*
X6893633Y-15985681D01*
X6884109Y-16004728D01*
X6874586Y-16014252D01*
X6855538Y-16023776D01*
X6836490Y-16023776D01*
X6817443Y-16014252D01*
X6807919Y-16004728D01*
X6798395Y-15985681D01*
X6788871Y-15947586D01*
X6788871Y-15899967D01*
X6798395Y-15861871D01*
X6807919Y-15842824D01*
X6817443Y-15833300D01*
X6836490Y-15823776D01*
X7093633Y-16023776D02*
X6979348Y-16023776D01*
X7036490Y-16023776D02*
X7036490Y-15823776D01*
X7017443Y-15852348D01*
X6998395Y-15871395D01*
X6979348Y-15880919D01*
X7274586Y-15823776D02*
X7179348Y-15823776D01*
X7169824Y-15919014D01*
X7179348Y-15909490D01*
X7198395Y-15899967D01*
X7246014Y-15899967D01*
X7265062Y-15909490D01*
X7274586Y-15919014D01*
X7284109Y-15938062D01*
X7284109Y-15985681D01*
X7274586Y-16004728D01*
X7265062Y-16014252D01*
X7246014Y-16023776D01*
X7198395Y-16023776D01*
X7179348Y-16014252D01*
X7169824Y-16004728D01*
X7350776Y-15823776D02*
X7484109Y-15823776D01*
X7398395Y-16023776D01*
X7550776Y-15823776D02*
X7550776Y-15861871D01*
X7626967Y-15823776D02*
X7626967Y-15861871D01*
X7922205Y-16099967D02*
X7912681Y-16090443D01*
X7893633Y-16061871D01*
X7884109Y-16042824D01*
X7874586Y-16014252D01*
X7865062Y-15966633D01*
X7865062Y-15928538D01*
X7874586Y-15880919D01*
X7884109Y-15852348D01*
X7893633Y-15833300D01*
X7912681Y-15804728D01*
X7922205Y-15795205D01*
X7988871Y-15842824D02*
X7998395Y-15833300D01*
X8017443Y-15823776D01*
X8065062Y-15823776D01*
X8084109Y-15833300D01*
X8093633Y-15842824D01*
X8103157Y-15861871D01*
X8103157Y-15880919D01*
X8093633Y-15909490D01*
X7979348Y-16023776D01*
X8103157Y-16023776D01*
X8284109Y-15823776D02*
X8188871Y-15823776D01*
X8179348Y-15919014D01*
X8188871Y-15909490D01*
X8207919Y-15899967D01*
X8255538Y-15899967D01*
X8274586Y-15909490D01*
X8284109Y-15919014D01*
X8293633Y-15938062D01*
X8293633Y-15985681D01*
X8284109Y-16004728D01*
X8274586Y-16014252D01*
X8255538Y-16023776D01*
X8207919Y-16023776D01*
X8188871Y-16014252D01*
X8179348Y-16004728D01*
X8531729Y-16023776D02*
X8531729Y-15823776D01*
X8617443Y-16023776D02*
X8617443Y-15919014D01*
X8607919Y-15899967D01*
X8588871Y-15890443D01*
X8560300Y-15890443D01*
X8541252Y-15899967D01*
X8531729Y-15909490D01*
X8741252Y-16023776D02*
X8722205Y-16014252D01*
X8712681Y-16004728D01*
X8703157Y-15985681D01*
X8703157Y-15928538D01*
X8712681Y-15909490D01*
X8722205Y-15899967D01*
X8741252Y-15890443D01*
X8769824Y-15890443D01*
X8788871Y-15899967D01*
X8798395Y-15909490D01*
X8807919Y-15928538D01*
X8807919Y-15985681D01*
X8798395Y-16004728D01*
X8788871Y-16014252D01*
X8769824Y-16023776D01*
X8741252Y-16023776D01*
X8922205Y-16023776D02*
X8903157Y-16014252D01*
X8893633Y-15995205D01*
X8893633Y-15823776D01*
X9074586Y-16014252D02*
X9055538Y-16023776D01*
X9017443Y-16023776D01*
X8998395Y-16014252D01*
X8988871Y-15995205D01*
X8988871Y-15919014D01*
X8998395Y-15899967D01*
X9017443Y-15890443D01*
X9055538Y-15890443D01*
X9074586Y-15899967D01*
X9084110Y-15919014D01*
X9084110Y-15938062D01*
X8988871Y-15957109D01*
X9160300Y-16014252D02*
X9179348Y-16023776D01*
X9217443Y-16023776D01*
X9236490Y-16014252D01*
X9246014Y-15995205D01*
X9246014Y-15985681D01*
X9236490Y-15966633D01*
X9217443Y-15957109D01*
X9188871Y-15957109D01*
X9169824Y-15947586D01*
X9160300Y-15928538D01*
X9160300Y-15919014D01*
X9169824Y-15899967D01*
X9188871Y-15890443D01*
X9217443Y-15890443D01*
X9236490Y-15899967D01*
X9312681Y-16099967D02*
X9322205Y-16090443D01*
X9341252Y-16061871D01*
X9350776Y-16042824D01*
X9360300Y-16014252D01*
X9369824Y-15966633D01*
X9369824Y-15928538D01*
X9360300Y-15880919D01*
X9350776Y-15852348D01*
X9341252Y-15833300D01*
X9322205Y-15804728D01*
X9312681Y-15795205D01*
D13*
X4350300Y-16197300D02*
G75*
G03*
X4350300Y-16197300I-40000J0D01*
G01*
D11*
X4646014Y-16087776D02*
X4665062Y-16087776D01*
X4684110Y-16097300D01*
X4693633Y-16106824D01*
X4703157Y-16125871D01*
X4712681Y-16163967D01*
X4712681Y-16211586D01*
X4703157Y-16249681D01*
X4693633Y-16268728D01*
X4684110Y-16278252D01*
X4665062Y-16287776D01*
X4646014Y-16287776D01*
X4626967Y-16278252D01*
X4617443Y-16268728D01*
X4607919Y-16249681D01*
X4598395Y-16211586D01*
X4598395Y-16163967D01*
X4607919Y-16125871D01*
X4617443Y-16106824D01*
X4626967Y-16097300D01*
X4646014Y-16087776D01*
X4798395Y-16268728D02*
X4807919Y-16278252D01*
X4798395Y-16287776D01*
X4788871Y-16278252D01*
X4798395Y-16268728D01*
X4798395Y-16287776D01*
X4922205Y-16173490D02*
X4903157Y-16163967D01*
X4893633Y-16154443D01*
X4884110Y-16135395D01*
X4884110Y-16125871D01*
X4893633Y-16106824D01*
X4903157Y-16097300D01*
X4922205Y-16087776D01*
X4960300Y-16087776D01*
X4979348Y-16097300D01*
X4988871Y-16106824D01*
X4998395Y-16125871D01*
X4998395Y-16135395D01*
X4988871Y-16154443D01*
X4979348Y-16163967D01*
X4960300Y-16173490D01*
X4922205Y-16173490D01*
X4903157Y-16183014D01*
X4893633Y-16192538D01*
X4884110Y-16211586D01*
X4884110Y-16249681D01*
X4893633Y-16268728D01*
X4903157Y-16278252D01*
X4922205Y-16287776D01*
X4960300Y-16287776D01*
X4979348Y-16278252D01*
X4988871Y-16268728D01*
X4998395Y-16249681D01*
X4998395Y-16211586D01*
X4988871Y-16192538D01*
X4979348Y-16183014D01*
X4960300Y-16173490D01*
X5122205Y-16087776D02*
X5141252Y-16087776D01*
X5160300Y-16097300D01*
X5169824Y-16106824D01*
X5179348Y-16125871D01*
X5188871Y-16163967D01*
X5188871Y-16211586D01*
X5179348Y-16249681D01*
X5169824Y-16268728D01*
X5160300Y-16278252D01*
X5141252Y-16287776D01*
X5122205Y-16287776D01*
X5103157Y-16278252D01*
X5093633Y-16268728D01*
X5084110Y-16249681D01*
X5074586Y-16211586D01*
X5074586Y-16163967D01*
X5084110Y-16125871D01*
X5093633Y-16106824D01*
X5103157Y-16097300D01*
X5122205Y-16087776D01*
X5312681Y-16087776D02*
X5331729Y-16087776D01*
X5350776Y-16097300D01*
X5360300Y-16106824D01*
X5369824Y-16125871D01*
X5379348Y-16163967D01*
X5379348Y-16211586D01*
X5369824Y-16249681D01*
X5360300Y-16268728D01*
X5350776Y-16278252D01*
X5331729Y-16287776D01*
X5312681Y-16287776D01*
X5293633Y-16278252D01*
X5284110Y-16268728D01*
X5274586Y-16249681D01*
X5265062Y-16211586D01*
X5265062Y-16163967D01*
X5274586Y-16125871D01*
X5284110Y-16106824D01*
X5293633Y-16097300D01*
X5312681Y-16087776D01*
X5465062Y-16287776D02*
X5465062Y-16154443D01*
X5465062Y-16173490D02*
X5474586Y-16163967D01*
X5493633Y-16154443D01*
X5522205Y-16154443D01*
X5541252Y-16163967D01*
X5550776Y-16183014D01*
X5550776Y-16287776D01*
X5550776Y-16183014D02*
X5560300Y-16163967D01*
X5579348Y-16154443D01*
X5607919Y-16154443D01*
X5626967Y-16163967D01*
X5636490Y-16183014D01*
X5636490Y-16287776D01*
X5731728Y-16287776D02*
X5731728Y-16154443D01*
X5731728Y-16173490D02*
X5741252Y-16163967D01*
X5760300Y-16154443D01*
X5788871Y-16154443D01*
X5807919Y-16163967D01*
X5817443Y-16183014D01*
X5817443Y-16287776D01*
X5817443Y-16183014D02*
X5826967Y-16163967D01*
X5846014Y-16154443D01*
X5874586Y-16154443D01*
X5893633Y-16163967D01*
X5903157Y-16183014D01*
X5903157Y-16287776D01*
X6293633Y-16078252D02*
X6122205Y-16335395D01*
X6550776Y-16087776D02*
X6569824Y-16087776D01*
X6588871Y-16097300D01*
X6598395Y-16106824D01*
X6607919Y-16125871D01*
X6617443Y-16163967D01*
X6617443Y-16211586D01*
X6607919Y-16249681D01*
X6598395Y-16268728D01*
X6588871Y-16278252D01*
X6569824Y-16287776D01*
X6550776Y-16287776D01*
X6531728Y-16278252D01*
X6522205Y-16268728D01*
X6512681Y-16249681D01*
X6503157Y-16211586D01*
X6503157Y-16163967D01*
X6512681Y-16125871D01*
X6522205Y-16106824D01*
X6531728Y-16097300D01*
X6550776Y-16087776D01*
X6703157Y-16268728D02*
X6712681Y-16278252D01*
X6703157Y-16287776D01*
X6693633Y-16278252D01*
X6703157Y-16268728D01*
X6703157Y-16287776D01*
X6836490Y-16087776D02*
X6855538Y-16087776D01*
X6874586Y-16097300D01*
X6884109Y-16106824D01*
X6893633Y-16125871D01*
X6903157Y-16163967D01*
X6903157Y-16211586D01*
X6893633Y-16249681D01*
X6884109Y-16268728D01*
X6874586Y-16278252D01*
X6855538Y-16287776D01*
X6836490Y-16287776D01*
X6817443Y-16278252D01*
X6807919Y-16268728D01*
X6798395Y-16249681D01*
X6788871Y-16211586D01*
X6788871Y-16163967D01*
X6798395Y-16125871D01*
X6807919Y-16106824D01*
X6817443Y-16097300D01*
X6836490Y-16087776D01*
X6969824Y-16087776D02*
X7093633Y-16087776D01*
X7026967Y-16163967D01*
X7055538Y-16163967D01*
X7074586Y-16173490D01*
X7084109Y-16183014D01*
X7093633Y-16202062D01*
X7093633Y-16249681D01*
X7084109Y-16268728D01*
X7074586Y-16278252D01*
X7055538Y-16287776D01*
X6998395Y-16287776D01*
X6979348Y-16278252D01*
X6969824Y-16268728D01*
X7284109Y-16287776D02*
X7169824Y-16287776D01*
X7226967Y-16287776D02*
X7226967Y-16087776D01*
X7207919Y-16116348D01*
X7188871Y-16135395D01*
X7169824Y-16144919D01*
X7465062Y-16087776D02*
X7369824Y-16087776D01*
X7360300Y-16183014D01*
X7369824Y-16173490D01*
X7388871Y-16163967D01*
X7436490Y-16163967D01*
X7455538Y-16173490D01*
X7465062Y-16183014D01*
X7474586Y-16202062D01*
X7474586Y-16249681D01*
X7465062Y-16268728D01*
X7455538Y-16278252D01*
X7436490Y-16287776D01*
X7388871Y-16287776D01*
X7369824Y-16278252D01*
X7360300Y-16268728D01*
X7550776Y-16087776D02*
X7550776Y-16125871D01*
X7626967Y-16087776D02*
X7626967Y-16125871D01*
X7922205Y-16363967D02*
X7912681Y-16354443D01*
X7893633Y-16325871D01*
X7884109Y-16306824D01*
X7874586Y-16278252D01*
X7865062Y-16230633D01*
X7865062Y-16192538D01*
X7874586Y-16144919D01*
X7884109Y-16116348D01*
X7893633Y-16097300D01*
X7912681Y-16068728D01*
X7922205Y-16059205D01*
X7988871Y-16106824D02*
X7998395Y-16097300D01*
X8017443Y-16087776D01*
X8065062Y-16087776D01*
X8084109Y-16097300D01*
X8093633Y-16106824D01*
X8103157Y-16125871D01*
X8103157Y-16144919D01*
X8093633Y-16173490D01*
X7979348Y-16287776D01*
X8103157Y-16287776D01*
X8293633Y-16287776D02*
X8179348Y-16287776D01*
X8236490Y-16287776D02*
X8236490Y-16087776D01*
X8217443Y-16116348D01*
X8198395Y-16135395D01*
X8179348Y-16144919D01*
X8465062Y-16154443D02*
X8465062Y-16287776D01*
X8417443Y-16078252D02*
X8369824Y-16221109D01*
X8493633Y-16221109D01*
X8722205Y-16287776D02*
X8722205Y-16087776D01*
X8807919Y-16287776D02*
X8807919Y-16183014D01*
X8798395Y-16163967D01*
X8779348Y-16154443D01*
X8750776Y-16154443D01*
X8731729Y-16163967D01*
X8722205Y-16173490D01*
X8931729Y-16287776D02*
X8912681Y-16278252D01*
X8903157Y-16268728D01*
X8893633Y-16249681D01*
X8893633Y-16192538D01*
X8903157Y-16173490D01*
X8912681Y-16163967D01*
X8931729Y-16154443D01*
X8960300Y-16154443D01*
X8979348Y-16163967D01*
X8988871Y-16173490D01*
X8998395Y-16192538D01*
X8998395Y-16249681D01*
X8988871Y-16268728D01*
X8979348Y-16278252D01*
X8960300Y-16287776D01*
X8931729Y-16287776D01*
X9112681Y-16287776D02*
X9093633Y-16278252D01*
X9084110Y-16259205D01*
X9084110Y-16087776D01*
X9265062Y-16278252D02*
X9246014Y-16287776D01*
X9207919Y-16287776D01*
X9188871Y-16278252D01*
X9179348Y-16259205D01*
X9179348Y-16183014D01*
X9188871Y-16163967D01*
X9207919Y-16154443D01*
X9246014Y-16154443D01*
X9265062Y-16163967D01*
X9274586Y-16183014D01*
X9274586Y-16202062D01*
X9179348Y-16221109D01*
X9350776Y-16278252D02*
X9369824Y-16287776D01*
X9407919Y-16287776D01*
X9426967Y-16278252D01*
X9436490Y-16259205D01*
X9436490Y-16249681D01*
X9426967Y-16230633D01*
X9407919Y-16221109D01*
X9379348Y-16221109D01*
X9360300Y-16211586D01*
X9350776Y-16192538D01*
X9350776Y-16183014D01*
X9360300Y-16163967D01*
X9379348Y-16154443D01*
X9407919Y-16154443D01*
X9426967Y-16163967D01*
X9503157Y-16363967D02*
X9512681Y-16354443D01*
X9531729Y-16325871D01*
X9541252Y-16306824D01*
X9550776Y-16278252D01*
X9560300Y-16230633D01*
X9560300Y-16192538D01*
X9550776Y-16144919D01*
X9541252Y-16116348D01*
X9531729Y-16097300D01*
X9512681Y-16068728D01*
X9503157Y-16059205D01*
D14*
X4305300Y-16416300D02*
X4305300Y-16506300D01*
X4260300Y-16461300D02*
X4350300Y-16461300D01*
D11*
X4646014Y-16351776D02*
X4665062Y-16351776D01*
X4684110Y-16361300D01*
X4693633Y-16370824D01*
X4703157Y-16389871D01*
X4712681Y-16427967D01*
X4712681Y-16475586D01*
X4703157Y-16513681D01*
X4693633Y-16532728D01*
X4684110Y-16542252D01*
X4665062Y-16551776D01*
X4646014Y-16551776D01*
X4626967Y-16542252D01*
X4617443Y-16532728D01*
X4607919Y-16513681D01*
X4598395Y-16475586D01*
X4598395Y-16427967D01*
X4607919Y-16389871D01*
X4617443Y-16370824D01*
X4626967Y-16361300D01*
X4646014Y-16351776D01*
X4798395Y-16532728D02*
X4807919Y-16542252D01*
X4798395Y-16551776D01*
X4788871Y-16542252D01*
X4798395Y-16532728D01*
X4798395Y-16551776D01*
X4903157Y-16551776D02*
X4941252Y-16551776D01*
X4960300Y-16542252D01*
X4969824Y-16532728D01*
X4988871Y-16504157D01*
X4998395Y-16466062D01*
X4998395Y-16389871D01*
X4988871Y-16370824D01*
X4979348Y-16361300D01*
X4960300Y-16351776D01*
X4922205Y-16351776D01*
X4903157Y-16361300D01*
X4893633Y-16370824D01*
X4884110Y-16389871D01*
X4884110Y-16437490D01*
X4893633Y-16456538D01*
X4903157Y-16466062D01*
X4922205Y-16475586D01*
X4960300Y-16475586D01*
X4979348Y-16466062D01*
X4988871Y-16456538D01*
X4998395Y-16437490D01*
X5122205Y-16351776D02*
X5141252Y-16351776D01*
X5160300Y-16361300D01*
X5169824Y-16370824D01*
X5179348Y-16389871D01*
X5188871Y-16427967D01*
X5188871Y-16475586D01*
X5179348Y-16513681D01*
X5169824Y-16532728D01*
X5160300Y-16542252D01*
X5141252Y-16551776D01*
X5122205Y-16551776D01*
X5103157Y-16542252D01*
X5093633Y-16532728D01*
X5084110Y-16513681D01*
X5074586Y-16475586D01*
X5074586Y-16427967D01*
X5084110Y-16389871D01*
X5093633Y-16370824D01*
X5103157Y-16361300D01*
X5122205Y-16351776D01*
X5312681Y-16351776D02*
X5331729Y-16351776D01*
X5350776Y-16361300D01*
X5360300Y-16370824D01*
X5369824Y-16389871D01*
X5379348Y-16427967D01*
X5379348Y-16475586D01*
X5369824Y-16513681D01*
X5360300Y-16532728D01*
X5350776Y-16542252D01*
X5331729Y-16551776D01*
X5312681Y-16551776D01*
X5293633Y-16542252D01*
X5284110Y-16532728D01*
X5274586Y-16513681D01*
X5265062Y-16475586D01*
X5265062Y-16427967D01*
X5274586Y-16389871D01*
X5284110Y-16370824D01*
X5293633Y-16361300D01*
X5312681Y-16351776D01*
X5465062Y-16551776D02*
X5465062Y-16418443D01*
X5465062Y-16437490D02*
X5474586Y-16427967D01*
X5493633Y-16418443D01*
X5522205Y-16418443D01*
X5541252Y-16427967D01*
X5550776Y-16447014D01*
X5550776Y-16551776D01*
X5550776Y-16447014D02*
X5560300Y-16427967D01*
X5579348Y-16418443D01*
X5607919Y-16418443D01*
X5626967Y-16427967D01*
X5636490Y-16447014D01*
X5636490Y-16551776D01*
X5731728Y-16551776D02*
X5731728Y-16418443D01*
X5731728Y-16437490D02*
X5741252Y-16427967D01*
X5760300Y-16418443D01*
X5788871Y-16418443D01*
X5807919Y-16427967D01*
X5817443Y-16447014D01*
X5817443Y-16551776D01*
X5817443Y-16447014D02*
X5826967Y-16427967D01*
X5846014Y-16418443D01*
X5874586Y-16418443D01*
X5893633Y-16427967D01*
X5903157Y-16447014D01*
X5903157Y-16551776D01*
X6293633Y-16342252D02*
X6122205Y-16599395D01*
X6550776Y-16351776D02*
X6569824Y-16351776D01*
X6588871Y-16361300D01*
X6598395Y-16370824D01*
X6607919Y-16389871D01*
X6617443Y-16427967D01*
X6617443Y-16475586D01*
X6607919Y-16513681D01*
X6598395Y-16532728D01*
X6588871Y-16542252D01*
X6569824Y-16551776D01*
X6550776Y-16551776D01*
X6531728Y-16542252D01*
X6522205Y-16532728D01*
X6512681Y-16513681D01*
X6503157Y-16475586D01*
X6503157Y-16427967D01*
X6512681Y-16389871D01*
X6522205Y-16370824D01*
X6531728Y-16361300D01*
X6550776Y-16351776D01*
X6703157Y-16532728D02*
X6712681Y-16542252D01*
X6703157Y-16551776D01*
X6693633Y-16542252D01*
X6703157Y-16532728D01*
X6703157Y-16551776D01*
X6836490Y-16351776D02*
X6855538Y-16351776D01*
X6874586Y-16361300D01*
X6884109Y-16370824D01*
X6893633Y-16389871D01*
X6903157Y-16427967D01*
X6903157Y-16475586D01*
X6893633Y-16513681D01*
X6884109Y-16532728D01*
X6874586Y-16542252D01*
X6855538Y-16551776D01*
X6836490Y-16551776D01*
X6817443Y-16542252D01*
X6807919Y-16532728D01*
X6798395Y-16513681D01*
X6788871Y-16475586D01*
X6788871Y-16427967D01*
X6798395Y-16389871D01*
X6807919Y-16370824D01*
X6817443Y-16361300D01*
X6836490Y-16351776D01*
X6969824Y-16351776D02*
X7093633Y-16351776D01*
X7026967Y-16427967D01*
X7055538Y-16427967D01*
X7074586Y-16437490D01*
X7084109Y-16447014D01*
X7093633Y-16466062D01*
X7093633Y-16513681D01*
X7084109Y-16532728D01*
X7074586Y-16542252D01*
X7055538Y-16551776D01*
X6998395Y-16551776D01*
X6979348Y-16542252D01*
X6969824Y-16532728D01*
X7274586Y-16351776D02*
X7179348Y-16351776D01*
X7169824Y-16447014D01*
X7179348Y-16437490D01*
X7198395Y-16427967D01*
X7246014Y-16427967D01*
X7265062Y-16437490D01*
X7274586Y-16447014D01*
X7284109Y-16466062D01*
X7284109Y-16513681D01*
X7274586Y-16532728D01*
X7265062Y-16542252D01*
X7246014Y-16551776D01*
X7198395Y-16551776D01*
X7179348Y-16542252D01*
X7169824Y-16532728D01*
X7455538Y-16418443D02*
X7455538Y-16551776D01*
X7407919Y-16342252D02*
X7360300Y-16485109D01*
X7484109Y-16485109D01*
X7550776Y-16351776D02*
X7550776Y-16389871D01*
X7626967Y-16351776D02*
X7626967Y-16389871D01*
X7922205Y-16627967D02*
X7912681Y-16618443D01*
X7893633Y-16589871D01*
X7884109Y-16570824D01*
X7874586Y-16542252D01*
X7865062Y-16494633D01*
X7865062Y-16456538D01*
X7874586Y-16408919D01*
X7884109Y-16380348D01*
X7893633Y-16361300D01*
X7912681Y-16332728D01*
X7922205Y-16323205D01*
X8084109Y-16418443D02*
X8084109Y-16551776D01*
X8036490Y-16342252D02*
X7988871Y-16485109D01*
X8112681Y-16485109D01*
X8341252Y-16551776D02*
X8341252Y-16351776D01*
X8426967Y-16551776D02*
X8426967Y-16447014D01*
X8417443Y-16427967D01*
X8398395Y-16418443D01*
X8369824Y-16418443D01*
X8350776Y-16427967D01*
X8341252Y-16437490D01*
X8550776Y-16551776D02*
X8531729Y-16542252D01*
X8522205Y-16532728D01*
X8512681Y-16513681D01*
X8512681Y-16456538D01*
X8522205Y-16437490D01*
X8531729Y-16427967D01*
X8550776Y-16418443D01*
X8579348Y-16418443D01*
X8598395Y-16427967D01*
X8607919Y-16437490D01*
X8617443Y-16456538D01*
X8617443Y-16513681D01*
X8607919Y-16532728D01*
X8598395Y-16542252D01*
X8579348Y-16551776D01*
X8550776Y-16551776D01*
X8731729Y-16551776D02*
X8712681Y-16542252D01*
X8703157Y-16523205D01*
X8703157Y-16351776D01*
X8884110Y-16542252D02*
X8865062Y-16551776D01*
X8826967Y-16551776D01*
X8807919Y-16542252D01*
X8798395Y-16523205D01*
X8798395Y-16447014D01*
X8807919Y-16427967D01*
X8826967Y-16418443D01*
X8865062Y-16418443D01*
X8884110Y-16427967D01*
X8893633Y-16447014D01*
X8893633Y-16466062D01*
X8798395Y-16485109D01*
X8969824Y-16542252D02*
X8988871Y-16551776D01*
X9026967Y-16551776D01*
X9046014Y-16542252D01*
X9055538Y-16523205D01*
X9055538Y-16513681D01*
X9046014Y-16494633D01*
X9026967Y-16485109D01*
X8998395Y-16485109D01*
X8979348Y-16475586D01*
X8969824Y-16456538D01*
X8969824Y-16447014D01*
X8979348Y-16427967D01*
X8998395Y-16418443D01*
X9026967Y-16418443D01*
X9046014Y-16427967D01*
X9122205Y-16627967D02*
X9131729Y-16618443D01*
X9150776Y-16589871D01*
X9160300Y-16570824D01*
X9169824Y-16542252D01*
X9179348Y-16494633D01*
X9179348Y-16456538D01*
X9169824Y-16408919D01*
X9160300Y-16380348D01*
X9150776Y-16361300D01*
X9131729Y-16332728D01*
X9122205Y-16323205D01*
D15*
X4335656Y-16760656D02*
X4335656Y-16689944D01*
X4264944Y-16689944D01*
X4264944Y-16760656D01*
X4335656Y-16760656D01*
D11*
X4712681Y-16815776D02*
X4598395Y-16815776D01*
X4655538Y-16815776D02*
X4655538Y-16615776D01*
X4636490Y-16644348D01*
X4617443Y-16663395D01*
X4598395Y-16672919D01*
X4798395Y-16796729D02*
X4807919Y-16806252D01*
X4798395Y-16815776D01*
X4788871Y-16806252D01*
X4798395Y-16796729D01*
X4798395Y-16815776D01*
X4931729Y-16615776D02*
X4950776Y-16615776D01*
X4969824Y-16625300D01*
X4979348Y-16634824D01*
X4988871Y-16653871D01*
X4998395Y-16691967D01*
X4998395Y-16739586D01*
X4988871Y-16777681D01*
X4979348Y-16796729D01*
X4969824Y-16806252D01*
X4950776Y-16815776D01*
X4931729Y-16815776D01*
X4912681Y-16806252D01*
X4903157Y-16796729D01*
X4893633Y-16777681D01*
X4884110Y-16739586D01*
X4884110Y-16691967D01*
X4893633Y-16653871D01*
X4903157Y-16634824D01*
X4912681Y-16625300D01*
X4931729Y-16615776D01*
X5122205Y-16615776D02*
X5141252Y-16615776D01*
X5160300Y-16625300D01*
X5169824Y-16634824D01*
X5179348Y-16653871D01*
X5188871Y-16691967D01*
X5188871Y-16739586D01*
X5179348Y-16777681D01*
X5169824Y-16796729D01*
X5160300Y-16806252D01*
X5141252Y-16815776D01*
X5122205Y-16815776D01*
X5103157Y-16806252D01*
X5093633Y-16796729D01*
X5084110Y-16777681D01*
X5074586Y-16739586D01*
X5074586Y-16691967D01*
X5084110Y-16653871D01*
X5093633Y-16634824D01*
X5103157Y-16625300D01*
X5122205Y-16615776D01*
X5312681Y-16615776D02*
X5331729Y-16615776D01*
X5350776Y-16625300D01*
X5360300Y-16634824D01*
X5369824Y-16653871D01*
X5379348Y-16691967D01*
X5379348Y-16739586D01*
X5369824Y-16777681D01*
X5360300Y-16796729D01*
X5350776Y-16806252D01*
X5331729Y-16815776D01*
X5312681Y-16815776D01*
X5293633Y-16806252D01*
X5284110Y-16796729D01*
X5274586Y-16777681D01*
X5265062Y-16739586D01*
X5265062Y-16691967D01*
X5274586Y-16653871D01*
X5284110Y-16634824D01*
X5293633Y-16625300D01*
X5312681Y-16615776D01*
X5465062Y-16815776D02*
X5465062Y-16682443D01*
X5465062Y-16701490D02*
X5474586Y-16691967D01*
X5493633Y-16682443D01*
X5522205Y-16682443D01*
X5541252Y-16691967D01*
X5550776Y-16711014D01*
X5550776Y-16815776D01*
X5550776Y-16711014D02*
X5560300Y-16691967D01*
X5579348Y-16682443D01*
X5607919Y-16682443D01*
X5626967Y-16691967D01*
X5636490Y-16711014D01*
X5636490Y-16815776D01*
X5731728Y-16815776D02*
X5731728Y-16682443D01*
X5731728Y-16701490D02*
X5741252Y-16691967D01*
X5760300Y-16682443D01*
X5788871Y-16682443D01*
X5807919Y-16691967D01*
X5817443Y-16711014D01*
X5817443Y-16815776D01*
X5817443Y-16711014D02*
X5826967Y-16691967D01*
X5846014Y-16682443D01*
X5874586Y-16682443D01*
X5893633Y-16691967D01*
X5903157Y-16711014D01*
X5903157Y-16815776D01*
X6293633Y-16606252D02*
X6122205Y-16863395D01*
X6550776Y-16615776D02*
X6569824Y-16615776D01*
X6588871Y-16625300D01*
X6598395Y-16634824D01*
X6607919Y-16653871D01*
X6617443Y-16691967D01*
X6617443Y-16739586D01*
X6607919Y-16777681D01*
X6598395Y-16796729D01*
X6588871Y-16806252D01*
X6569824Y-16815776D01*
X6550776Y-16815776D01*
X6531728Y-16806252D01*
X6522205Y-16796729D01*
X6512681Y-16777681D01*
X6503157Y-16739586D01*
X6503157Y-16691967D01*
X6512681Y-16653871D01*
X6522205Y-16634824D01*
X6531728Y-16625300D01*
X6550776Y-16615776D01*
X6703157Y-16796729D02*
X6712681Y-16806252D01*
X6703157Y-16815776D01*
X6693633Y-16806252D01*
X6703157Y-16796729D01*
X6703157Y-16815776D01*
X6836490Y-16615776D02*
X6855538Y-16615776D01*
X6874586Y-16625300D01*
X6884109Y-16634824D01*
X6893633Y-16653871D01*
X6903157Y-16691967D01*
X6903157Y-16739586D01*
X6893633Y-16777681D01*
X6884109Y-16796729D01*
X6874586Y-16806252D01*
X6855538Y-16815776D01*
X6836490Y-16815776D01*
X6817443Y-16806252D01*
X6807919Y-16796729D01*
X6798395Y-16777681D01*
X6788871Y-16739586D01*
X6788871Y-16691967D01*
X6798395Y-16653871D01*
X6807919Y-16634824D01*
X6817443Y-16625300D01*
X6836490Y-16615776D01*
X6969824Y-16615776D02*
X7093633Y-16615776D01*
X7026967Y-16691967D01*
X7055538Y-16691967D01*
X7074586Y-16701490D01*
X7084109Y-16711014D01*
X7093633Y-16730062D01*
X7093633Y-16777681D01*
X7084109Y-16796729D01*
X7074586Y-16806252D01*
X7055538Y-16815776D01*
X6998395Y-16815776D01*
X6979348Y-16806252D01*
X6969824Y-16796729D01*
X7188871Y-16815776D02*
X7226967Y-16815776D01*
X7246014Y-16806252D01*
X7255538Y-16796729D01*
X7274586Y-16768157D01*
X7284109Y-16730062D01*
X7284109Y-16653871D01*
X7274586Y-16634824D01*
X7265062Y-16625300D01*
X7246014Y-16615776D01*
X7207919Y-16615776D01*
X7188871Y-16625300D01*
X7179348Y-16634824D01*
X7169824Y-16653871D01*
X7169824Y-16701490D01*
X7179348Y-16720538D01*
X7188871Y-16730062D01*
X7207919Y-16739586D01*
X7246014Y-16739586D01*
X7265062Y-16730062D01*
X7274586Y-16720538D01*
X7284109Y-16701490D01*
X7455538Y-16682443D02*
X7455538Y-16815776D01*
X7407919Y-16606252D02*
X7360300Y-16749109D01*
X7484109Y-16749109D01*
X7550776Y-16615776D02*
X7550776Y-16653871D01*
X7626967Y-16615776D02*
X7626967Y-16653871D01*
X7922205Y-16891967D02*
X7912681Y-16882443D01*
X7893633Y-16853871D01*
X7884109Y-16834824D01*
X7874586Y-16806252D01*
X7865062Y-16758633D01*
X7865062Y-16720538D01*
X7874586Y-16672919D01*
X7884109Y-16644348D01*
X7893633Y-16625300D01*
X7912681Y-16596728D01*
X7922205Y-16587205D01*
X7979348Y-16615776D02*
X8103157Y-16615776D01*
X8036490Y-16691967D01*
X8065062Y-16691967D01*
X8084109Y-16701490D01*
X8093633Y-16711014D01*
X8103157Y-16730062D01*
X8103157Y-16777681D01*
X8093633Y-16796729D01*
X8084109Y-16806252D01*
X8065062Y-16815776D01*
X8007919Y-16815776D01*
X7988871Y-16806252D01*
X7979348Y-16796729D01*
X8179348Y-16634824D02*
X8188871Y-16625300D01*
X8207919Y-16615776D01*
X8255538Y-16615776D01*
X8274586Y-16625300D01*
X8284109Y-16634824D01*
X8293633Y-16653871D01*
X8293633Y-16672919D01*
X8284109Y-16701490D01*
X8169824Y-16815776D01*
X8293633Y-16815776D01*
X8531729Y-16815776D02*
X8531729Y-16615776D01*
X8617443Y-16815776D02*
X8617443Y-16711014D01*
X8607919Y-16691967D01*
X8588871Y-16682443D01*
X8560300Y-16682443D01*
X8541252Y-16691967D01*
X8531729Y-16701490D01*
X8741252Y-16815776D02*
X8722205Y-16806252D01*
X8712681Y-16796729D01*
X8703157Y-16777681D01*
X8703157Y-16720538D01*
X8712681Y-16701490D01*
X8722205Y-16691967D01*
X8741252Y-16682443D01*
X8769824Y-16682443D01*
X8788871Y-16691967D01*
X8798395Y-16701490D01*
X8807919Y-16720538D01*
X8807919Y-16777681D01*
X8798395Y-16796729D01*
X8788871Y-16806252D01*
X8769824Y-16815776D01*
X8741252Y-16815776D01*
X8922205Y-16815776D02*
X8903157Y-16806252D01*
X8893633Y-16787205D01*
X8893633Y-16615776D01*
X9074586Y-16806252D02*
X9055538Y-16815776D01*
X9017443Y-16815776D01*
X8998395Y-16806252D01*
X8988871Y-16787205D01*
X8988871Y-16711014D01*
X8998395Y-16691967D01*
X9017443Y-16682443D01*
X9055538Y-16682443D01*
X9074586Y-16691967D01*
X9084110Y-16711014D01*
X9084110Y-16730062D01*
X8988871Y-16749109D01*
X9160300Y-16806252D02*
X9179348Y-16815776D01*
X9217443Y-16815776D01*
X9236490Y-16806252D01*
X9246014Y-16787205D01*
X9246014Y-16777681D01*
X9236490Y-16758633D01*
X9217443Y-16749109D01*
X9188871Y-16749109D01*
X9169824Y-16739586D01*
X9160300Y-16720538D01*
X9160300Y-16711014D01*
X9169824Y-16691967D01*
X9188871Y-16682443D01*
X9217443Y-16682443D01*
X9236490Y-16691967D01*
X9312681Y-16891967D02*
X9322205Y-16882443D01*
X9341252Y-16853871D01*
X9350776Y-16834824D01*
X9360300Y-16806252D01*
X9369824Y-16758633D01*
X9369824Y-16720538D01*
X9360300Y-16672919D01*
X9350776Y-16644348D01*
X9341252Y-16625300D01*
X9322205Y-16596728D01*
X9312681Y-16587205D01*
M02*
