%TF.GenerationSoftware,KiCad,Pcbnew,(6.0.9)*%
%TF.CreationDate,2023-10-12T08:19:30+02:00*%
%TF.ProjectId,p2000t-slot2-datacartridge,70323030-3074-42d7-936c-6f74322d6461,rev?*%
%TF.SameCoordinates,Original*%
%TF.FileFunction,Legend,Bot*%
%TF.FilePolarity,Positive*%
%FSLAX46Y46*%
G04 Gerber Fmt 4.6, Leading zero omitted, Abs format (unit mm)*
G04 Created by KiCad (PCBNEW (6.0.9)) date 2023-10-12 08:19:30*
%MOMM*%
%LPD*%
G01*
G04 APERTURE LIST*
%ADD10C,0.120000*%
%ADD11C,0.150000*%
%ADD12C,0.300000*%
G04 APERTURE END LIST*
D10*
X112291100Y-140696600D02*
X109878100Y-140696600D01*
X109878100Y-140696600D02*
X109878100Y-137140600D01*
X109878100Y-137140600D02*
X112291100Y-137140600D01*
X112291100Y-137140600D02*
X112291100Y-140696600D01*
X72768700Y-140627100D02*
X58671700Y-140627100D01*
X88582500Y-140639800D02*
X74483200Y-140639800D01*
X76200000Y-117157500D02*
X76835000Y-117157500D01*
X76835000Y-117157500D02*
X76835000Y-119062500D01*
X76835000Y-119062500D02*
X76200000Y-119062500D01*
X76200000Y-119062500D02*
X76200000Y-117157500D01*
G36*
X76200000Y-117157500D02*
G01*
X76835000Y-117157500D01*
X76835000Y-119062500D01*
X76200000Y-119062500D01*
X76200000Y-117157500D01*
G37*
X64770000Y-117157500D02*
X65405000Y-117157500D01*
X65405000Y-117157500D02*
X65405000Y-119062500D01*
X65405000Y-119062500D02*
X64770000Y-119062500D01*
X64770000Y-119062500D02*
X64770000Y-117157500D01*
G36*
X64770000Y-117157500D02*
G01*
X65405000Y-117157500D01*
X65405000Y-119062500D01*
X64770000Y-119062500D01*
X64770000Y-117157500D01*
G37*
X99060000Y-114617500D02*
X99695000Y-114617500D01*
X99695000Y-114617500D02*
X99695000Y-116522500D01*
X99695000Y-116522500D02*
X99060000Y-116522500D01*
X99060000Y-116522500D02*
X99060000Y-114617500D01*
G36*
X99060000Y-114617500D02*
G01*
X99695000Y-114617500D01*
X99695000Y-116522500D01*
X99060000Y-116522500D01*
X99060000Y-114617500D01*
G37*
X120967500Y-106641900D02*
X120967500Y-96494600D01*
X77787500Y-92710000D02*
X79692500Y-92710000D01*
X79692500Y-92710000D02*
X79692500Y-92075000D01*
X79692500Y-92075000D02*
X77787500Y-92075000D01*
X77787500Y-92075000D02*
X77787500Y-92710000D01*
G36*
X77787500Y-92710000D02*
G01*
X79692500Y-92710000D01*
X79692500Y-92075000D01*
X77787500Y-92075000D01*
X77787500Y-92710000D01*
G37*
X55645000Y-93720000D02*
X55010000Y-93720000D01*
X55010000Y-93720000D02*
X55010000Y-91815000D01*
X55010000Y-91815000D02*
X55645000Y-91815000D01*
X55645000Y-91815000D02*
X55645000Y-93720000D01*
G36*
X55645000Y-93720000D02*
G01*
X55010000Y-93720000D01*
X55010000Y-91815000D01*
X55645000Y-91815000D01*
X55645000Y-93720000D01*
G37*
X110490000Y-114617500D02*
X111125000Y-114617500D01*
X111125000Y-114617500D02*
X111125000Y-116522500D01*
X111125000Y-116522500D02*
X110490000Y-116522500D01*
X110490000Y-116522500D02*
X110490000Y-114617500D01*
G36*
X110490000Y-114617500D02*
G01*
X111125000Y-114617500D01*
X111125000Y-116522500D01*
X110490000Y-116522500D01*
X110490000Y-114617500D01*
G37*
X114096800Y-96545400D02*
X114096800Y-106641900D01*
X87630000Y-117157500D02*
X88265000Y-117157500D01*
X88265000Y-117157500D02*
X88265000Y-119062500D01*
X88265000Y-119062500D02*
X87630000Y-119062500D01*
X87630000Y-119062500D02*
X87630000Y-117157500D01*
G36*
X87630000Y-117157500D02*
G01*
X88265000Y-117157500D01*
X88265000Y-119062500D01*
X87630000Y-119062500D01*
X87630000Y-117157500D01*
G37*
X63500000Y-57785000D02*
X65405000Y-57785000D01*
X65405000Y-57785000D02*
X65405000Y-57150000D01*
X65405000Y-57150000D02*
X63500000Y-57150000D01*
X63500000Y-57150000D02*
X63500000Y-57785000D01*
G36*
X63500000Y-57785000D02*
G01*
X65405000Y-57785000D01*
X65405000Y-57150000D01*
X63500000Y-57150000D01*
X63500000Y-57785000D01*
G37*
X114096800Y-106641900D02*
X120967500Y-106641900D01*
X63817500Y-98425000D02*
X65722500Y-98425000D01*
X65722500Y-98425000D02*
X65722500Y-97790000D01*
X65722500Y-97790000D02*
X63817500Y-97790000D01*
X63817500Y-97790000D02*
X63817500Y-98425000D01*
G36*
X63817500Y-98425000D02*
G01*
X65722500Y-98425000D01*
X65722500Y-97790000D01*
X63817500Y-97790000D01*
X63817500Y-98425000D01*
G37*
X86677500Y-80010000D02*
X88582500Y-80010000D01*
X88582500Y-80010000D02*
X88582500Y-79375000D01*
X88582500Y-79375000D02*
X86677500Y-79375000D01*
X86677500Y-79375000D02*
X86677500Y-80010000D01*
G36*
X86677500Y-80010000D02*
G01*
X88582500Y-80010000D01*
X88582500Y-79375000D01*
X86677500Y-79375000D01*
X86677500Y-80010000D01*
G37*
X56197500Y-80010000D02*
X58102500Y-80010000D01*
X58102500Y-80010000D02*
X58102500Y-79375000D01*
X58102500Y-79375000D02*
X56197500Y-79375000D01*
X56197500Y-79375000D02*
X56197500Y-80010000D01*
G36*
X56197500Y-80010000D02*
G01*
X58102500Y-80010000D01*
X58102500Y-79375000D01*
X56197500Y-79375000D01*
X56197500Y-80010000D01*
G37*
D11*
X80221914Y-141235180D02*
X79555247Y-141235180D01*
X79983819Y-142235180D01*
X78745723Y-142235180D02*
X78745723Y-141711371D01*
X78793342Y-141616133D01*
X78888580Y-141568514D01*
X79079057Y-141568514D01*
X79174295Y-141616133D01*
X78745723Y-142187561D02*
X78840961Y-142235180D01*
X79079057Y-142235180D01*
X79174295Y-142187561D01*
X79221914Y-142092323D01*
X79221914Y-141997085D01*
X79174295Y-141901847D01*
X79079057Y-141854228D01*
X78840961Y-141854228D01*
X78745723Y-141806609D01*
X88080057Y-142235180D02*
X87889580Y-142235180D01*
X87794342Y-142187561D01*
X87746723Y-142139942D01*
X87651485Y-141997085D01*
X87603866Y-141806609D01*
X87603866Y-141425657D01*
X87651485Y-141330419D01*
X87699104Y-141282800D01*
X87794342Y-141235180D01*
X87984819Y-141235180D01*
X88080057Y-141282800D01*
X88127676Y-141330419D01*
X88175295Y-141425657D01*
X88175295Y-141663752D01*
X88127676Y-141758990D01*
X88080057Y-141806609D01*
X87984819Y-141854228D01*
X87794342Y-141854228D01*
X87699104Y-141806609D01*
X87651485Y-141758990D01*
X87603866Y-141663752D01*
X86746723Y-142235180D02*
X86746723Y-141711371D01*
X86794342Y-141616133D01*
X86889580Y-141568514D01*
X87080057Y-141568514D01*
X87175295Y-141616133D01*
X86746723Y-142187561D02*
X86841961Y-142235180D01*
X87080057Y-142235180D01*
X87175295Y-142187561D01*
X87222914Y-142092323D01*
X87222914Y-141997085D01*
X87175295Y-141901847D01*
X87080057Y-141854228D01*
X86841961Y-141854228D01*
X86746723Y-141806609D01*
X111790957Y-142285980D02*
X112362385Y-142285980D01*
X112076671Y-142285980D02*
X112076671Y-141285980D01*
X112171909Y-141428838D01*
X112267147Y-141524076D01*
X112362385Y-141571695D01*
X110886195Y-141285980D02*
X111362385Y-141285980D01*
X111410004Y-141762171D01*
X111362385Y-141714552D01*
X111267147Y-141666933D01*
X111029052Y-141666933D01*
X110933814Y-141714552D01*
X110886195Y-141762171D01*
X110838576Y-141857409D01*
X110838576Y-142095504D01*
X110886195Y-142190742D01*
X110933814Y-142238361D01*
X111029052Y-142285980D01*
X111267147Y-142285980D01*
X111362385Y-142238361D01*
X111410004Y-142190742D01*
X109981433Y-142285980D02*
X109981433Y-141762171D01*
X110029052Y-141666933D01*
X110124290Y-141619314D01*
X110314766Y-141619314D01*
X110410004Y-141666933D01*
X109981433Y-142238361D02*
X110076671Y-142285980D01*
X110314766Y-142285980D01*
X110410004Y-142238361D01*
X110457623Y-142143123D01*
X110457623Y-142047885D01*
X110410004Y-141952647D01*
X110314766Y-141905028D01*
X110076671Y-141905028D01*
X109981433Y-141857409D01*
X92017057Y-142235180D02*
X92588485Y-142235180D01*
X92302771Y-142235180D02*
X92302771Y-141235180D01*
X92398009Y-141378038D01*
X92493247Y-141473276D01*
X92588485Y-141520895D01*
X91398009Y-141235180D02*
X91302771Y-141235180D01*
X91207533Y-141282800D01*
X91159914Y-141330419D01*
X91112295Y-141425657D01*
X91064676Y-141616133D01*
X91064676Y-141854228D01*
X91112295Y-142044704D01*
X91159914Y-142139942D01*
X91207533Y-142187561D01*
X91302771Y-142235180D01*
X91398009Y-142235180D01*
X91493247Y-142187561D01*
X91540866Y-142139942D01*
X91588485Y-142044704D01*
X91636104Y-141854228D01*
X91636104Y-141616133D01*
X91588485Y-141425657D01*
X91540866Y-141330419D01*
X91493247Y-141282800D01*
X91398009Y-141235180D01*
X90207533Y-142235180D02*
X90207533Y-141711371D01*
X90255152Y-141616133D01*
X90350390Y-141568514D01*
X90540866Y-141568514D01*
X90636104Y-141616133D01*
X90207533Y-142187561D02*
X90302771Y-142235180D01*
X90540866Y-142235180D01*
X90636104Y-142187561D01*
X90683723Y-142092323D01*
X90683723Y-141997085D01*
X90636104Y-141901847D01*
X90540866Y-141854228D01*
X90302771Y-141854228D01*
X90207533Y-141806609D01*
X60425795Y-141317719D02*
X60378176Y-141270100D01*
X60282938Y-141222480D01*
X60044842Y-141222480D01*
X59949604Y-141270100D01*
X59901985Y-141317719D01*
X59854366Y-141412957D01*
X59854366Y-141508195D01*
X59901985Y-141651052D01*
X60473414Y-142222480D01*
X59854366Y-142222480D01*
X58997223Y-142222480D02*
X58997223Y-141698671D01*
X59044842Y-141603433D01*
X59140080Y-141555814D01*
X59330557Y-141555814D01*
X59425795Y-141603433D01*
X58997223Y-142174861D02*
X59092461Y-142222480D01*
X59330557Y-142222480D01*
X59425795Y-142174861D01*
X59473414Y-142079623D01*
X59473414Y-141984385D01*
X59425795Y-141889147D01*
X59330557Y-141841528D01*
X59092461Y-141841528D01*
X58997223Y-141793909D01*
X84918109Y-139676166D02*
X84441919Y-139676166D01*
X85013347Y-139961880D02*
X84680014Y-138961880D01*
X84346680Y-139961880D01*
X83727633Y-140295214D02*
X83965728Y-140295214D01*
X83965728Y-138866642D01*
X83727633Y-138866642D01*
X82918109Y-138961880D02*
X83108585Y-138961880D01*
X83203823Y-139009500D01*
X83251442Y-139057119D01*
X83346680Y-139199976D01*
X83394300Y-139390452D01*
X83394300Y-139771404D01*
X83346680Y-139866642D01*
X83299061Y-139914261D01*
X83203823Y-139961880D01*
X83013347Y-139961880D01*
X82918109Y-139914261D01*
X82870490Y-139866642D01*
X82822871Y-139771404D01*
X82822871Y-139533309D01*
X82870490Y-139438071D01*
X82918109Y-139390452D01*
X83013347Y-139342833D01*
X83203823Y-139342833D01*
X83299061Y-139390452D01*
X83346680Y-139438071D01*
X83394300Y-139533309D01*
X82346680Y-139914261D02*
X82346680Y-139961880D01*
X82394300Y-140057119D01*
X82441919Y-140104738D01*
X81489538Y-139295214D02*
X81489538Y-139961880D01*
X81727633Y-138914261D02*
X81965728Y-139628547D01*
X81346680Y-139628547D01*
X80918109Y-139914261D02*
X80918109Y-139961880D01*
X80965728Y-140057119D01*
X81013347Y-140104738D01*
X80537157Y-139057119D02*
X80489538Y-139009500D01*
X80394300Y-138961880D01*
X80156204Y-138961880D01*
X80060966Y-139009500D01*
X80013347Y-139057119D01*
X79965728Y-139152357D01*
X79965728Y-139247595D01*
X80013347Y-139390452D01*
X80584776Y-139961880D01*
X79965728Y-139961880D01*
X79489538Y-139914261D02*
X79489538Y-139961880D01*
X79537157Y-140057119D01*
X79584776Y-140104738D01*
X78870490Y-138961880D02*
X78775252Y-138961880D01*
X78680014Y-139009500D01*
X78632395Y-139057119D01*
X78584776Y-139152357D01*
X78537157Y-139342833D01*
X78537157Y-139580928D01*
X78584776Y-139771404D01*
X78632395Y-139866642D01*
X78680014Y-139914261D01*
X78775252Y-139961880D01*
X78870490Y-139961880D01*
X78965728Y-139914261D01*
X79013347Y-139866642D01*
X79060966Y-139771404D01*
X79108585Y-139580928D01*
X79108585Y-139342833D01*
X79060966Y-139152357D01*
X79013347Y-139057119D01*
X78965728Y-139009500D01*
X78870490Y-138961880D01*
X78203823Y-140295214D02*
X77965728Y-140295214D01*
X77965728Y-138866642D01*
X78203823Y-138866642D01*
X67950604Y-141555814D02*
X67950604Y-142222480D01*
X68188700Y-141174861D02*
X68426795Y-141889147D01*
X67807747Y-141889147D01*
X66998223Y-142222480D02*
X66998223Y-141698671D01*
X67045842Y-141603433D01*
X67141080Y-141555814D01*
X67331557Y-141555814D01*
X67426795Y-141603433D01*
X66998223Y-142174861D02*
X67093461Y-142222480D01*
X67331557Y-142222480D01*
X67426795Y-142174861D01*
X67474414Y-142079623D01*
X67474414Y-141984385D01*
X67426795Y-141889147D01*
X67331557Y-141841528D01*
X67093461Y-141841528D01*
X66998223Y-141793909D01*
X75761104Y-141235180D02*
X75951580Y-141235180D01*
X76046819Y-141282800D01*
X76094438Y-141330419D01*
X76189676Y-141473276D01*
X76237295Y-141663752D01*
X76237295Y-142044704D01*
X76189676Y-142139942D01*
X76142057Y-142187561D01*
X76046819Y-142235180D01*
X75856342Y-142235180D01*
X75761104Y-142187561D01*
X75713485Y-142139942D01*
X75665866Y-142044704D01*
X75665866Y-141806609D01*
X75713485Y-141711371D01*
X75761104Y-141663752D01*
X75856342Y-141616133D01*
X76046819Y-141616133D01*
X76142057Y-141663752D01*
X76189676Y-141711371D01*
X76237295Y-141806609D01*
X74808723Y-142235180D02*
X74808723Y-141711371D01*
X74856342Y-141616133D01*
X74951580Y-141568514D01*
X75142057Y-141568514D01*
X75237295Y-141616133D01*
X74808723Y-142187561D02*
X74903961Y-142235180D01*
X75142057Y-142235180D01*
X75237295Y-142187561D01*
X75284914Y-142092323D01*
X75284914Y-141997085D01*
X75237295Y-141901847D01*
X75142057Y-141854228D01*
X74903961Y-141854228D01*
X74808723Y-141806609D01*
X64537414Y-141222480D02*
X63918366Y-141222480D01*
X64251700Y-141603433D01*
X64108842Y-141603433D01*
X64013604Y-141651052D01*
X63965985Y-141698671D01*
X63918366Y-141793909D01*
X63918366Y-142032004D01*
X63965985Y-142127242D01*
X64013604Y-142174861D01*
X64108842Y-142222480D01*
X64394557Y-142222480D01*
X64489795Y-142174861D01*
X64537414Y-142127242D01*
X63061223Y-142222480D02*
X63061223Y-141698671D01*
X63108842Y-141603433D01*
X63204080Y-141555814D01*
X63394557Y-141555814D01*
X63489795Y-141603433D01*
X63061223Y-142174861D02*
X63156461Y-142222480D01*
X63394557Y-142222480D01*
X63489795Y-142174861D01*
X63537414Y-142079623D01*
X63537414Y-141984385D01*
X63489795Y-141889147D01*
X63394557Y-141841528D01*
X63156461Y-141841528D01*
X63061223Y-141793909D01*
X69331319Y-139936480D02*
X69331319Y-138936480D01*
X69093223Y-138936480D01*
X68950366Y-138984100D01*
X68855128Y-139079338D01*
X68807509Y-139174576D01*
X68759890Y-139365052D01*
X68759890Y-139507909D01*
X68807509Y-139698385D01*
X68855128Y-139793623D01*
X68950366Y-139888861D01*
X69093223Y-139936480D01*
X69331319Y-139936480D01*
X68045604Y-140269814D02*
X68283700Y-140269814D01*
X68283700Y-138841242D01*
X68045604Y-138841242D01*
X67236080Y-138936480D02*
X67426557Y-138936480D01*
X67521795Y-138984100D01*
X67569414Y-139031719D01*
X67664652Y-139174576D01*
X67712271Y-139365052D01*
X67712271Y-139746004D01*
X67664652Y-139841242D01*
X67617033Y-139888861D01*
X67521795Y-139936480D01*
X67331319Y-139936480D01*
X67236080Y-139888861D01*
X67188461Y-139841242D01*
X67140842Y-139746004D01*
X67140842Y-139507909D01*
X67188461Y-139412671D01*
X67236080Y-139365052D01*
X67331319Y-139317433D01*
X67521795Y-139317433D01*
X67617033Y-139365052D01*
X67664652Y-139412671D01*
X67712271Y-139507909D01*
X66664652Y-139888861D02*
X66664652Y-139936480D01*
X66712271Y-140031719D01*
X66759890Y-140079338D01*
X65807509Y-139269814D02*
X65807509Y-139936480D01*
X66045604Y-138888861D02*
X66283700Y-139603147D01*
X65664652Y-139603147D01*
X65236080Y-139888861D02*
X65236080Y-139936480D01*
X65283700Y-140031719D01*
X65331319Y-140079338D01*
X64855128Y-139031719D02*
X64807509Y-138984100D01*
X64712271Y-138936480D01*
X64474176Y-138936480D01*
X64378938Y-138984100D01*
X64331319Y-139031719D01*
X64283700Y-139126957D01*
X64283700Y-139222195D01*
X64331319Y-139365052D01*
X64902747Y-139936480D01*
X64283700Y-139936480D01*
X63807509Y-139888861D02*
X63807509Y-139936480D01*
X63855128Y-140031719D01*
X63902747Y-140079338D01*
X63188461Y-138936480D02*
X63093223Y-138936480D01*
X62997985Y-138984100D01*
X62950366Y-139031719D01*
X62902747Y-139126957D01*
X62855128Y-139317433D01*
X62855128Y-139555528D01*
X62902747Y-139746004D01*
X62950366Y-139841242D01*
X62997985Y-139888861D01*
X63093223Y-139936480D01*
X63188461Y-139936480D01*
X63283700Y-139888861D01*
X63331319Y-139841242D01*
X63378938Y-139746004D01*
X63426557Y-139555528D01*
X63426557Y-139317433D01*
X63378938Y-139126957D01*
X63331319Y-139031719D01*
X63283700Y-138984100D01*
X63188461Y-138936480D01*
X62521795Y-140269814D02*
X62283700Y-140269814D01*
X62283700Y-138841242D01*
X62521795Y-138841242D01*
X84047819Y-141663752D02*
X84143057Y-141616133D01*
X84190676Y-141568514D01*
X84238295Y-141473276D01*
X84238295Y-141425657D01*
X84190676Y-141330419D01*
X84143057Y-141282800D01*
X84047819Y-141235180D01*
X83857342Y-141235180D01*
X83762104Y-141282800D01*
X83714485Y-141330419D01*
X83666866Y-141425657D01*
X83666866Y-141473276D01*
X83714485Y-141568514D01*
X83762104Y-141616133D01*
X83857342Y-141663752D01*
X84047819Y-141663752D01*
X84143057Y-141711371D01*
X84190676Y-141758990D01*
X84238295Y-141854228D01*
X84238295Y-142044704D01*
X84190676Y-142139942D01*
X84143057Y-142187561D01*
X84047819Y-142235180D01*
X83857342Y-142235180D01*
X83762104Y-142187561D01*
X83714485Y-142139942D01*
X83666866Y-142044704D01*
X83666866Y-141854228D01*
X83714485Y-141758990D01*
X83762104Y-141711371D01*
X83857342Y-141663752D01*
X82809723Y-142235180D02*
X82809723Y-141711371D01*
X82857342Y-141616133D01*
X82952580Y-141568514D01*
X83143057Y-141568514D01*
X83238295Y-141616133D01*
X82809723Y-142187561D02*
X82904961Y-142235180D01*
X83143057Y-142235180D01*
X83238295Y-142187561D01*
X83285914Y-142092323D01*
X83285914Y-141997085D01*
X83238295Y-141901847D01*
X83143057Y-141854228D01*
X82904961Y-141854228D01*
X82809723Y-141806609D01*
X96081057Y-142235180D02*
X96652485Y-142235180D01*
X96366771Y-142235180D02*
X96366771Y-141235180D01*
X96462009Y-141378038D01*
X96557247Y-141473276D01*
X96652485Y-141520895D01*
X95128676Y-142235180D02*
X95700104Y-142235180D01*
X95414390Y-142235180D02*
X95414390Y-141235180D01*
X95509628Y-141378038D01*
X95604866Y-141473276D01*
X95700104Y-141520895D01*
X94271533Y-142235180D02*
X94271533Y-141711371D01*
X94319152Y-141616133D01*
X94414390Y-141568514D01*
X94604866Y-141568514D01*
X94700104Y-141616133D01*
X94271533Y-142187561D02*
X94366771Y-142235180D01*
X94604866Y-142235180D01*
X94700104Y-142187561D01*
X94747723Y-142092323D01*
X94747723Y-141997085D01*
X94700104Y-141901847D01*
X94604866Y-141854228D01*
X94366771Y-141854228D01*
X94271533Y-141806609D01*
X99916457Y-142158980D02*
X100487885Y-142158980D01*
X100202171Y-142158980D02*
X100202171Y-141158980D01*
X100297409Y-141301838D01*
X100392647Y-141397076D01*
X100487885Y-141444695D01*
X99535504Y-141254219D02*
X99487885Y-141206600D01*
X99392647Y-141158980D01*
X99154552Y-141158980D01*
X99059314Y-141206600D01*
X99011695Y-141254219D01*
X98964076Y-141349457D01*
X98964076Y-141444695D01*
X99011695Y-141587552D01*
X99583123Y-142158980D01*
X98964076Y-142158980D01*
X98106933Y-142158980D02*
X98106933Y-141635171D01*
X98154552Y-141539933D01*
X98249790Y-141492314D01*
X98440266Y-141492314D01*
X98535504Y-141539933D01*
X98106933Y-142111361D02*
X98202171Y-142158980D01*
X98440266Y-142158980D01*
X98535504Y-142111361D01*
X98583123Y-142016123D01*
X98583123Y-141920885D01*
X98535504Y-141825647D01*
X98440266Y-141778028D01*
X98202171Y-141778028D01*
X98106933Y-141730409D01*
X71839985Y-141222480D02*
X72316176Y-141222480D01*
X72363795Y-141698671D01*
X72316176Y-141651052D01*
X72220938Y-141603433D01*
X71982842Y-141603433D01*
X71887604Y-141651052D01*
X71839985Y-141698671D01*
X71792366Y-141793909D01*
X71792366Y-142032004D01*
X71839985Y-142127242D01*
X71887604Y-142174861D01*
X71982842Y-142222480D01*
X72220938Y-142222480D01*
X72316176Y-142174861D01*
X72363795Y-142127242D01*
X70935223Y-142222480D02*
X70935223Y-141698671D01*
X70982842Y-141603433D01*
X71078080Y-141555814D01*
X71268557Y-141555814D01*
X71363795Y-141603433D01*
X70935223Y-142174861D02*
X71030461Y-142222480D01*
X71268557Y-142222480D01*
X71363795Y-142174861D01*
X71411414Y-142079623D01*
X71411414Y-141984385D01*
X71363795Y-141889147D01*
X71268557Y-141841528D01*
X71030461Y-141841528D01*
X70935223Y-141793909D01*
X55194657Y-140162838D02*
X55147038Y-140210457D01*
X55099419Y-140353314D01*
X55099419Y-140448552D01*
X55147038Y-140591409D01*
X55242276Y-140686647D01*
X55337514Y-140734266D01*
X55527990Y-140781885D01*
X55670847Y-140781885D01*
X55861323Y-140734266D01*
X55956561Y-140686647D01*
X56051800Y-140591409D01*
X56099419Y-140448552D01*
X56099419Y-140353314D01*
X56051800Y-140210457D01*
X56004180Y-140162838D01*
X55099419Y-139258076D02*
X55099419Y-139734266D01*
X56099419Y-139734266D01*
X55099419Y-138924742D02*
X56099419Y-138924742D01*
X55099419Y-138353314D02*
X55670847Y-138781885D01*
X56099419Y-138353314D02*
X55527990Y-138924742D01*
D12*
X100142600Y-140585556D02*
X100142600Y-140014128D01*
X98603742Y-140299842D02*
X99803742Y-140299842D01*
X100142600Y-140014128D02*
X100142600Y-138756985D01*
X98603742Y-139728413D02*
X99803742Y-139728413D01*
X98603742Y-139042699D01*
X99803742Y-139042699D01*
X100142600Y-138756985D02*
X100142600Y-137842699D01*
X99803742Y-138642699D02*
X99803742Y-137956985D01*
X98603742Y-138299842D02*
X99803742Y-138299842D01*
D11*
X55815466Y-142412980D02*
X56386895Y-142412980D01*
X56101180Y-142412980D02*
X56101180Y-141412980D01*
X56196419Y-141555838D01*
X56291657Y-141651076D01*
X56386895Y-141698695D01*
X54958323Y-142412980D02*
X54958323Y-141889171D01*
X55005942Y-141793933D01*
X55101180Y-141746314D01*
X55291657Y-141746314D01*
X55386895Y-141793933D01*
X54958323Y-142365361D02*
X55053561Y-142412980D01*
X55291657Y-142412980D01*
X55386895Y-142365361D01*
X55434514Y-142270123D01*
X55434514Y-142174885D01*
X55386895Y-142079647D01*
X55291657Y-142032028D01*
X55053561Y-142032028D01*
X54958323Y-141984409D01*
X110648100Y-138156695D02*
X110600480Y-138061457D01*
X110600480Y-137918600D01*
X110648100Y-137775742D01*
X110743338Y-137680504D01*
X110838576Y-137632885D01*
X111029052Y-137585266D01*
X111171909Y-137585266D01*
X111362385Y-137632885D01*
X111457623Y-137680504D01*
X111552861Y-137775742D01*
X111600480Y-137918600D01*
X111600480Y-138013838D01*
X111552861Y-138156695D01*
X111505242Y-138204314D01*
X111171909Y-138204314D01*
X111171909Y-138013838D01*
X111600480Y-138632885D02*
X110600480Y-138632885D01*
X111600480Y-139204314D01*
X110600480Y-139204314D01*
X111600480Y-139680504D02*
X110600480Y-139680504D01*
X110600480Y-139918600D01*
X110648100Y-140061457D01*
X110743338Y-140156695D01*
X110838576Y-140204314D01*
X111029052Y-140251933D01*
X111171909Y-140251933D01*
X111362385Y-140204314D01*
X111457623Y-140156695D01*
X111552861Y-140061457D01*
X111600480Y-139918600D01*
X111600480Y-139680504D01*
D12*
X96117850Y-140585557D02*
X96117850Y-140014128D01*
X94578992Y-140299842D02*
X95778992Y-140299842D01*
X96117850Y-140014128D02*
X96117850Y-138756985D01*
X95778992Y-139499842D02*
X95778992Y-139271271D01*
X95721850Y-139156985D01*
X95607564Y-139042700D01*
X95378992Y-138985557D01*
X94978992Y-138985557D01*
X94750421Y-139042700D01*
X94636135Y-139156985D01*
X94578992Y-139271271D01*
X94578992Y-139499842D01*
X94636135Y-139614128D01*
X94750421Y-139728414D01*
X94978992Y-139785557D01*
X95378992Y-139785557D01*
X95607564Y-139728414D01*
X95721850Y-139614128D01*
X95778992Y-139499842D01*
X96117850Y-138756985D02*
X96117850Y-137556985D01*
X94578992Y-137785557D02*
X95150421Y-138185557D01*
X94578992Y-138471271D02*
X95778992Y-138471271D01*
X95778992Y-138014128D01*
X95721850Y-137899842D01*
X95664707Y-137842700D01*
X95550421Y-137785557D01*
X95378992Y-137785557D01*
X95264707Y-137842700D01*
X95207564Y-137899842D01*
X95150421Y-138014128D01*
X95150421Y-138471271D01*
X96117850Y-137556985D02*
X96117850Y-136299842D01*
X94464707Y-136471271D02*
X94521850Y-136585557D01*
X94636135Y-136699842D01*
X94807564Y-136871271D01*
X94864707Y-136985557D01*
X94864707Y-137099842D01*
X94578992Y-137042700D02*
X94636135Y-137156985D01*
X94750421Y-137271271D01*
X94978992Y-137328414D01*
X95378992Y-137328414D01*
X95607564Y-137271271D01*
X95721850Y-137156985D01*
X95778992Y-137042700D01*
X95778992Y-136814128D01*
X95721850Y-136699842D01*
X95607564Y-136585557D01*
X95378992Y-136528414D01*
X94978992Y-136528414D01*
X94750421Y-136585557D01*
X94636135Y-136699842D01*
X94578992Y-136814128D01*
X94578992Y-137042700D01*
X121933814Y-139072700D02*
X121219528Y-139072700D01*
X122076671Y-139501271D02*
X121576671Y-138001271D01*
X121076671Y-139501271D01*
X120576671Y-138929842D02*
X119433814Y-138929842D01*
X118790957Y-139429842D02*
X118576671Y-139501271D01*
X118219528Y-139501271D01*
X118076671Y-139429842D01*
X118005242Y-139358414D01*
X117933814Y-139215557D01*
X117933814Y-139072700D01*
X118005242Y-138929842D01*
X118076671Y-138858414D01*
X118219528Y-138786985D01*
X118505242Y-138715557D01*
X118648100Y-138644128D01*
X118719528Y-138572700D01*
X118790957Y-138429842D01*
X118790957Y-138286985D01*
X118719528Y-138144128D01*
X118648100Y-138072700D01*
X118505242Y-138001271D01*
X118148100Y-138001271D01*
X117933814Y-138072700D01*
X117290957Y-139501271D02*
X117290957Y-138001271D01*
X116576671Y-139501271D02*
X116576671Y-138001271D01*
X116219528Y-138001271D01*
X116005242Y-138072700D01*
X115862385Y-138215557D01*
X115790957Y-138358414D01*
X115719528Y-138644128D01*
X115719528Y-138858414D01*
X115790957Y-139144128D01*
X115862385Y-139286985D01*
X116005242Y-139429842D01*
X116219528Y-139501271D01*
X116576671Y-139501271D01*
X115076671Y-138715557D02*
X114576671Y-138715557D01*
X114362385Y-139501271D02*
X115076671Y-139501271D01*
X115076671Y-138001271D01*
X114362385Y-138001271D01*
X120183814Y-141130557D02*
X119969528Y-141201985D01*
X119898100Y-141273414D01*
X119826671Y-141416271D01*
X119826671Y-141630557D01*
X119898100Y-141773414D01*
X119969528Y-141844842D01*
X120112385Y-141916271D01*
X120683814Y-141916271D01*
X120683814Y-140416271D01*
X120183814Y-140416271D01*
X120040957Y-140487700D01*
X119969528Y-140559128D01*
X119898100Y-140701985D01*
X119898100Y-140844842D01*
X119969528Y-140987700D01*
X120040957Y-141059128D01*
X120183814Y-141130557D01*
X120683814Y-141130557D01*
X119255242Y-141487700D02*
X118540957Y-141487700D01*
X119398100Y-141916271D02*
X118898100Y-140416271D01*
X118398100Y-141916271D01*
X117040957Y-141773414D02*
X117112385Y-141844842D01*
X117326671Y-141916271D01*
X117469528Y-141916271D01*
X117683814Y-141844842D01*
X117826671Y-141701985D01*
X117898100Y-141559128D01*
X117969528Y-141273414D01*
X117969528Y-141059128D01*
X117898100Y-140773414D01*
X117826671Y-140630557D01*
X117683814Y-140487700D01*
X117469528Y-140416271D01*
X117326671Y-140416271D01*
X117112385Y-140487700D01*
X117040957Y-140559128D01*
X116398100Y-141916271D02*
X116398100Y-140416271D01*
X115540957Y-141916271D02*
X116183814Y-141059128D01*
X115540957Y-140416271D02*
X116398100Y-141273414D01*
X92093100Y-140585557D02*
X92093100Y-139385557D01*
X90554242Y-139614128D02*
X91125671Y-140014128D01*
X90554242Y-140299842D02*
X91754242Y-140299842D01*
X91754242Y-139842699D01*
X91697100Y-139728414D01*
X91639957Y-139671271D01*
X91525671Y-139614128D01*
X91354242Y-139614128D01*
X91239957Y-139671271D01*
X91182814Y-139728414D01*
X91125671Y-139842699D01*
X91125671Y-140299842D01*
X92093100Y-139385557D02*
X92093100Y-138185557D01*
X90554242Y-139099842D02*
X91754242Y-139099842D01*
X91754242Y-138814128D01*
X91697100Y-138642699D01*
X91582814Y-138528414D01*
X91468528Y-138471271D01*
X91239957Y-138414128D01*
X91068528Y-138414128D01*
X90839957Y-138471271D01*
X90725671Y-138528414D01*
X90611385Y-138642699D01*
X90554242Y-138814128D01*
X90554242Y-139099842D01*
D11*
%TO.C,U3*%
X94106904Y-135342380D02*
X94106904Y-136151904D01*
X94059285Y-136247142D01*
X94011666Y-136294761D01*
X93916428Y-136342380D01*
X93725952Y-136342380D01*
X93630714Y-136294761D01*
X93583095Y-136247142D01*
X93535476Y-136151904D01*
X93535476Y-135342380D01*
X93154523Y-135342380D02*
X92535476Y-135342380D01*
X92868809Y-135723333D01*
X92725952Y-135723333D01*
X92630714Y-135770952D01*
X92583095Y-135818571D01*
X92535476Y-135913809D01*
X92535476Y-136151904D01*
X92583095Y-136247142D01*
X92630714Y-136294761D01*
X92725952Y-136342380D01*
X93011666Y-136342380D01*
X93106904Y-136294761D01*
X93154523Y-136247142D01*
X93432380Y-121198095D02*
X93432380Y-121864761D01*
X94432380Y-121436190D01*
X93765714Y-122674285D02*
X94432380Y-122674285D01*
X93384761Y-122436190D02*
X94099047Y-122198095D01*
X94099047Y-122817142D01*
X94432380Y-123198095D02*
X93432380Y-123198095D01*
X93908571Y-123198095D02*
X93908571Y-123769523D01*
X94432380Y-123769523D02*
X93432380Y-123769523D01*
X94337142Y-124817142D02*
X94384761Y-124769523D01*
X94432380Y-124626666D01*
X94432380Y-124531428D01*
X94384761Y-124388571D01*
X94289523Y-124293333D01*
X94194285Y-124245714D01*
X94003809Y-124198095D01*
X93860952Y-124198095D01*
X93670476Y-124245714D01*
X93575238Y-124293333D01*
X93480000Y-124388571D01*
X93432380Y-124531428D01*
X93432380Y-124626666D01*
X93480000Y-124769523D01*
X93527619Y-124817142D01*
X94432380Y-125769523D02*
X94432380Y-125198095D01*
X94432380Y-125483809D02*
X93432380Y-125483809D01*
X93575238Y-125388571D01*
X93670476Y-125293333D01*
X93718095Y-125198095D01*
X93432380Y-126102857D02*
X93432380Y-126721904D01*
X93813333Y-126388571D01*
X93813333Y-126531428D01*
X93860952Y-126626666D01*
X93908571Y-126674285D01*
X94003809Y-126721904D01*
X94241904Y-126721904D01*
X94337142Y-126674285D01*
X94384761Y-126626666D01*
X94432380Y-126531428D01*
X94432380Y-126245714D01*
X94384761Y-126150476D01*
X94337142Y-126102857D01*
X93860952Y-127293333D02*
X93813333Y-127198095D01*
X93765714Y-127150476D01*
X93670476Y-127102857D01*
X93622857Y-127102857D01*
X93527619Y-127150476D01*
X93480000Y-127198095D01*
X93432380Y-127293333D01*
X93432380Y-127483809D01*
X93480000Y-127579047D01*
X93527619Y-127626666D01*
X93622857Y-127674285D01*
X93670476Y-127674285D01*
X93765714Y-127626666D01*
X93813333Y-127579047D01*
X93860952Y-127483809D01*
X93860952Y-127293333D01*
X93908571Y-127198095D01*
X93956190Y-127150476D01*
X94051428Y-127102857D01*
X94241904Y-127102857D01*
X94337142Y-127150476D01*
X94384761Y-127198095D01*
X94432380Y-127293333D01*
X94432380Y-127483809D01*
X94384761Y-127579047D01*
X94337142Y-127626666D01*
X94241904Y-127674285D01*
X94051428Y-127674285D01*
X93956190Y-127626666D01*
X93908571Y-127579047D01*
X93860952Y-127483809D01*
%TO.C,U2*%
X83311904Y-135342380D02*
X83311904Y-136151904D01*
X83264285Y-136247142D01*
X83216666Y-136294761D01*
X83121428Y-136342380D01*
X82930952Y-136342380D01*
X82835714Y-136294761D01*
X82788095Y-136247142D01*
X82740476Y-136151904D01*
X82740476Y-135342380D01*
X82311904Y-135437619D02*
X82264285Y-135390000D01*
X82169047Y-135342380D01*
X81930952Y-135342380D01*
X81835714Y-135390000D01*
X81788095Y-135437619D01*
X81740476Y-135532857D01*
X81740476Y-135628095D01*
X81788095Y-135770952D01*
X82359523Y-136342380D01*
X81740476Y-136342380D01*
X82002380Y-122944285D02*
X82002380Y-123610952D01*
X83002380Y-123182380D01*
X82335714Y-124420476D02*
X83002380Y-124420476D01*
X81954761Y-124182380D02*
X82669047Y-123944285D01*
X82669047Y-124563333D01*
X83002380Y-124944285D02*
X82002380Y-124944285D01*
X82478571Y-124944285D02*
X82478571Y-125515714D01*
X83002380Y-125515714D02*
X82002380Y-125515714D01*
X82907142Y-126563333D02*
X82954761Y-126515714D01*
X83002380Y-126372857D01*
X83002380Y-126277619D01*
X82954761Y-126134761D01*
X82859523Y-126039523D01*
X82764285Y-125991904D01*
X82573809Y-125944285D01*
X82430952Y-125944285D01*
X82240476Y-125991904D01*
X82145238Y-126039523D01*
X82050000Y-126134761D01*
X82002380Y-126277619D01*
X82002380Y-126372857D01*
X82050000Y-126515714D01*
X82097619Y-126563333D01*
X82002380Y-127182380D02*
X82002380Y-127277619D01*
X82050000Y-127372857D01*
X82097619Y-127420476D01*
X82192857Y-127468095D01*
X82383333Y-127515714D01*
X82621428Y-127515714D01*
X82811904Y-127468095D01*
X82907142Y-127420476D01*
X82954761Y-127372857D01*
X83002380Y-127277619D01*
X83002380Y-127182380D01*
X82954761Y-127087142D01*
X82907142Y-127039523D01*
X82811904Y-126991904D01*
X82621428Y-126944285D01*
X82383333Y-126944285D01*
X82192857Y-126991904D01*
X82097619Y-127039523D01*
X82050000Y-127087142D01*
X82002380Y-127182380D01*
X82335714Y-128372857D02*
X83002380Y-128372857D01*
X81954761Y-128134761D02*
X82669047Y-127896666D01*
X82669047Y-128515714D01*
%TO.C,U1*%
X71881904Y-135342380D02*
X71881904Y-136151904D01*
X71834285Y-136247142D01*
X71786666Y-136294761D01*
X71691428Y-136342380D01*
X71500952Y-136342380D01*
X71405714Y-136294761D01*
X71358095Y-136247142D01*
X71310476Y-136151904D01*
X71310476Y-135342380D01*
X70310476Y-136342380D02*
X70881904Y-136342380D01*
X70596190Y-136342380D02*
X70596190Y-135342380D01*
X70691428Y-135485238D01*
X70786666Y-135580476D01*
X70881904Y-135628095D01*
X70572380Y-122944285D02*
X70572380Y-123610952D01*
X71572380Y-123182380D01*
X70905714Y-124420476D02*
X71572380Y-124420476D01*
X70524761Y-124182380D02*
X71239047Y-123944285D01*
X71239047Y-124563333D01*
X71572380Y-124944285D02*
X70572380Y-124944285D01*
X71048571Y-124944285D02*
X71048571Y-125515714D01*
X71572380Y-125515714D02*
X70572380Y-125515714D01*
X71477142Y-126563333D02*
X71524761Y-126515714D01*
X71572380Y-126372857D01*
X71572380Y-126277619D01*
X71524761Y-126134761D01*
X71429523Y-126039523D01*
X71334285Y-125991904D01*
X71143809Y-125944285D01*
X71000952Y-125944285D01*
X70810476Y-125991904D01*
X70715238Y-126039523D01*
X70620000Y-126134761D01*
X70572380Y-126277619D01*
X70572380Y-126372857D01*
X70620000Y-126515714D01*
X70667619Y-126563333D01*
X70572380Y-127182380D02*
X70572380Y-127277619D01*
X70620000Y-127372857D01*
X70667619Y-127420476D01*
X70762857Y-127468095D01*
X70953333Y-127515714D01*
X71191428Y-127515714D01*
X71381904Y-127468095D01*
X71477142Y-127420476D01*
X71524761Y-127372857D01*
X71572380Y-127277619D01*
X71572380Y-127182380D01*
X71524761Y-127087142D01*
X71477142Y-127039523D01*
X71381904Y-126991904D01*
X71191428Y-126944285D01*
X70953333Y-126944285D01*
X70762857Y-126991904D01*
X70667619Y-127039523D01*
X70620000Y-127087142D01*
X70572380Y-127182380D01*
X70667619Y-127896666D02*
X70620000Y-127944285D01*
X70572380Y-128039523D01*
X70572380Y-128277619D01*
X70620000Y-128372857D01*
X70667619Y-128420476D01*
X70762857Y-128468095D01*
X70858095Y-128468095D01*
X71000952Y-128420476D01*
X71572380Y-127849047D01*
X71572380Y-128468095D01*
%TO.C,U4*%
X60451904Y-135342380D02*
X60451904Y-136151904D01*
X60404285Y-136247142D01*
X60356666Y-136294761D01*
X60261428Y-136342380D01*
X60070952Y-136342380D01*
X59975714Y-136294761D01*
X59928095Y-136247142D01*
X59880476Y-136151904D01*
X59880476Y-135342380D01*
X58975714Y-135675714D02*
X58975714Y-136342380D01*
X59213809Y-135294761D02*
X59451904Y-136009047D01*
X58832857Y-136009047D01*
X59142380Y-122944285D02*
X59142380Y-123610952D01*
X60142380Y-123182380D01*
X59475714Y-124420476D02*
X60142380Y-124420476D01*
X59094761Y-124182380D02*
X59809047Y-123944285D01*
X59809047Y-124563333D01*
X60142380Y-124944285D02*
X59142380Y-124944285D01*
X59618571Y-124944285D02*
X59618571Y-125515714D01*
X60142380Y-125515714D02*
X59142380Y-125515714D01*
X60047142Y-126563333D02*
X60094761Y-126515714D01*
X60142380Y-126372857D01*
X60142380Y-126277619D01*
X60094761Y-126134761D01*
X59999523Y-126039523D01*
X59904285Y-125991904D01*
X59713809Y-125944285D01*
X59570952Y-125944285D01*
X59380476Y-125991904D01*
X59285238Y-126039523D01*
X59190000Y-126134761D01*
X59142380Y-126277619D01*
X59142380Y-126372857D01*
X59190000Y-126515714D01*
X59237619Y-126563333D01*
X59237619Y-126944285D02*
X59190000Y-126991904D01*
X59142380Y-127087142D01*
X59142380Y-127325238D01*
X59190000Y-127420476D01*
X59237619Y-127468095D01*
X59332857Y-127515714D01*
X59428095Y-127515714D01*
X59570952Y-127468095D01*
X60142380Y-126896666D01*
X60142380Y-127515714D01*
X60142380Y-128468095D02*
X60142380Y-127896666D01*
X60142380Y-128182380D02*
X59142380Y-128182380D01*
X59285238Y-128087142D01*
X59380476Y-127991904D01*
X59428095Y-127896666D01*
%TO.C,U5*%
X111251904Y-90892380D02*
X111251904Y-91701904D01*
X111204285Y-91797142D01*
X111156666Y-91844761D01*
X111061428Y-91892380D01*
X110870952Y-91892380D01*
X110775714Y-91844761D01*
X110728095Y-91797142D01*
X110680476Y-91701904D01*
X110680476Y-90892380D01*
X109728095Y-90892380D02*
X110204285Y-90892380D01*
X110251904Y-91368571D01*
X110204285Y-91320952D01*
X110109047Y-91273333D01*
X109870952Y-91273333D01*
X109775714Y-91320952D01*
X109728095Y-91368571D01*
X109680476Y-91463809D01*
X109680476Y-91701904D01*
X109728095Y-91797142D01*
X109775714Y-91844761D01*
X109870952Y-91892380D01*
X110109047Y-91892380D01*
X110204285Y-91844761D01*
X110251904Y-91797142D01*
X102321904Y-84552380D02*
X101655238Y-84552380D01*
X102083809Y-85552380D01*
X100845714Y-84885714D02*
X100845714Y-85552380D01*
X101083809Y-84504761D02*
X101321904Y-85219047D01*
X100702857Y-85219047D01*
X100321904Y-85552380D02*
X100321904Y-84552380D01*
X100321904Y-85028571D02*
X99750476Y-85028571D01*
X99750476Y-85552380D02*
X99750476Y-84552380D01*
X98702857Y-85457142D02*
X98750476Y-85504761D01*
X98893333Y-85552380D01*
X98988571Y-85552380D01*
X99131428Y-85504761D01*
X99226666Y-85409523D01*
X99274285Y-85314285D01*
X99321904Y-85123809D01*
X99321904Y-84980952D01*
X99274285Y-84790476D01*
X99226666Y-84695238D01*
X99131428Y-84600000D01*
X98988571Y-84552380D01*
X98893333Y-84552380D01*
X98750476Y-84600000D01*
X98702857Y-84647619D01*
X98321904Y-84647619D02*
X98274285Y-84600000D01*
X98179047Y-84552380D01*
X97940952Y-84552380D01*
X97845714Y-84600000D01*
X97798095Y-84647619D01*
X97750476Y-84742857D01*
X97750476Y-84838095D01*
X97798095Y-84980952D01*
X98369523Y-85552380D01*
X97750476Y-85552380D01*
X97417142Y-84552380D02*
X96750476Y-84552380D01*
X97179047Y-85552380D01*
X96464761Y-84552380D02*
X95845714Y-84552380D01*
X96179047Y-84933333D01*
X96036190Y-84933333D01*
X95940952Y-84980952D01*
X95893333Y-85028571D01*
X95845714Y-85123809D01*
X95845714Y-85361904D01*
X95893333Y-85457142D01*
X95940952Y-85504761D01*
X96036190Y-85552380D01*
X96321904Y-85552380D01*
X96417142Y-85504761D01*
X96464761Y-85457142D01*
%TO.C,U6*%
X82002380Y-88138095D02*
X82811904Y-88138095D01*
X82907142Y-88185714D01*
X82954761Y-88233333D01*
X83002380Y-88328571D01*
X83002380Y-88519047D01*
X82954761Y-88614285D01*
X82907142Y-88661904D01*
X82811904Y-88709523D01*
X82002380Y-88709523D01*
X82002380Y-89614285D02*
X82002380Y-89423809D01*
X82050000Y-89328571D01*
X82097619Y-89280952D01*
X82240476Y-89185714D01*
X82430952Y-89138095D01*
X82811904Y-89138095D01*
X82907142Y-89185714D01*
X82954761Y-89233333D01*
X83002380Y-89328571D01*
X83002380Y-89519047D01*
X82954761Y-89614285D01*
X82907142Y-89661904D01*
X82811904Y-89709523D01*
X82573809Y-89709523D01*
X82478571Y-89661904D01*
X82430952Y-89614285D01*
X82383333Y-89519047D01*
X82383333Y-89328571D01*
X82430952Y-89233333D01*
X82478571Y-89185714D01*
X82573809Y-89138095D01*
X71841904Y-84552380D02*
X71175238Y-84552380D01*
X71603809Y-85552380D01*
X70365714Y-84885714D02*
X70365714Y-85552380D01*
X70603809Y-84504761D02*
X70841904Y-85219047D01*
X70222857Y-85219047D01*
X69841904Y-85552380D02*
X69841904Y-84552380D01*
X69841904Y-85028571D02*
X69270476Y-85028571D01*
X69270476Y-85552380D02*
X69270476Y-84552380D01*
X68222857Y-85457142D02*
X68270476Y-85504761D01*
X68413333Y-85552380D01*
X68508571Y-85552380D01*
X68651428Y-85504761D01*
X68746666Y-85409523D01*
X68794285Y-85314285D01*
X68841904Y-85123809D01*
X68841904Y-84980952D01*
X68794285Y-84790476D01*
X68746666Y-84695238D01*
X68651428Y-84600000D01*
X68508571Y-84552380D01*
X68413333Y-84552380D01*
X68270476Y-84600000D01*
X68222857Y-84647619D01*
X67841904Y-84647619D02*
X67794285Y-84600000D01*
X67699047Y-84552380D01*
X67460952Y-84552380D01*
X67365714Y-84600000D01*
X67318095Y-84647619D01*
X67270476Y-84742857D01*
X67270476Y-84838095D01*
X67318095Y-84980952D01*
X67889523Y-85552380D01*
X67270476Y-85552380D01*
X66937142Y-84552380D02*
X66270476Y-84552380D01*
X66699047Y-85552380D01*
X65984761Y-84552380D02*
X65365714Y-84552380D01*
X65699047Y-84933333D01*
X65556190Y-84933333D01*
X65460952Y-84980952D01*
X65413333Y-85028571D01*
X65365714Y-85123809D01*
X65365714Y-85361904D01*
X65413333Y-85457142D01*
X65460952Y-85504761D01*
X65556190Y-85552380D01*
X65841904Y-85552380D01*
X65937142Y-85504761D01*
X65984761Y-85457142D01*
%TO.C,C1*%
X61126666Y-114657142D02*
X61174285Y-114704761D01*
X61317142Y-114752380D01*
X61412380Y-114752380D01*
X61555238Y-114704761D01*
X61650476Y-114609523D01*
X61698095Y-114514285D01*
X61745714Y-114323809D01*
X61745714Y-114180952D01*
X61698095Y-113990476D01*
X61650476Y-113895238D01*
X61555238Y-113800000D01*
X61412380Y-113752380D01*
X61317142Y-113752380D01*
X61174285Y-113800000D01*
X61126666Y-113847619D01*
X60174285Y-114752380D02*
X60745714Y-114752380D01*
X60460000Y-114752380D02*
X60460000Y-113752380D01*
X60555238Y-113895238D01*
X60650476Y-113990476D01*
X60745714Y-114038095D01*
%TO.C,C2*%
X72556666Y-114657142D02*
X72604285Y-114704761D01*
X72747142Y-114752380D01*
X72842380Y-114752380D01*
X72985238Y-114704761D01*
X73080476Y-114609523D01*
X73128095Y-114514285D01*
X73175714Y-114323809D01*
X73175714Y-114180952D01*
X73128095Y-113990476D01*
X73080476Y-113895238D01*
X72985238Y-113800000D01*
X72842380Y-113752380D01*
X72747142Y-113752380D01*
X72604285Y-113800000D01*
X72556666Y-113847619D01*
X72175714Y-113847619D02*
X72128095Y-113800000D01*
X72032857Y-113752380D01*
X71794761Y-113752380D01*
X71699523Y-113800000D01*
X71651904Y-113847619D01*
X71604285Y-113942857D01*
X71604285Y-114038095D01*
X71651904Y-114180952D01*
X72223333Y-114752380D01*
X71604285Y-114752380D01*
%TO.C,C3*%
X83986666Y-114657142D02*
X84034285Y-114704761D01*
X84177142Y-114752380D01*
X84272380Y-114752380D01*
X84415238Y-114704761D01*
X84510476Y-114609523D01*
X84558095Y-114514285D01*
X84605714Y-114323809D01*
X84605714Y-114180952D01*
X84558095Y-113990476D01*
X84510476Y-113895238D01*
X84415238Y-113800000D01*
X84272380Y-113752380D01*
X84177142Y-113752380D01*
X84034285Y-113800000D01*
X83986666Y-113847619D01*
X83653333Y-113752380D02*
X83034285Y-113752380D01*
X83367619Y-114133333D01*
X83224761Y-114133333D01*
X83129523Y-114180952D01*
X83081904Y-114228571D01*
X83034285Y-114323809D01*
X83034285Y-114561904D01*
X83081904Y-114657142D01*
X83129523Y-114704761D01*
X83224761Y-114752380D01*
X83510476Y-114752380D01*
X83605714Y-114704761D01*
X83653333Y-114657142D01*
%TO.C,C4*%
X106846666Y-112752142D02*
X106894285Y-112799761D01*
X107037142Y-112847380D01*
X107132380Y-112847380D01*
X107275238Y-112799761D01*
X107370476Y-112704523D01*
X107418095Y-112609285D01*
X107465714Y-112418809D01*
X107465714Y-112275952D01*
X107418095Y-112085476D01*
X107370476Y-111990238D01*
X107275238Y-111895000D01*
X107132380Y-111847380D01*
X107037142Y-111847380D01*
X106894285Y-111895000D01*
X106846666Y-111942619D01*
X105989523Y-112180714D02*
X105989523Y-112847380D01*
X106227619Y-111799761D02*
X106465714Y-112514047D01*
X105846666Y-112514047D01*
%TO.C,C5*%
X53697142Y-83623333D02*
X53744761Y-83575714D01*
X53792380Y-83432857D01*
X53792380Y-83337619D01*
X53744761Y-83194761D01*
X53649523Y-83099523D01*
X53554285Y-83051904D01*
X53363809Y-83004285D01*
X53220952Y-83004285D01*
X53030476Y-83051904D01*
X52935238Y-83099523D01*
X52840000Y-83194761D01*
X52792380Y-83337619D01*
X52792380Y-83432857D01*
X52840000Y-83575714D01*
X52887619Y-83623333D01*
X52792380Y-84528095D02*
X52792380Y-84051904D01*
X53268571Y-84004285D01*
X53220952Y-84051904D01*
X53173333Y-84147142D01*
X53173333Y-84385238D01*
X53220952Y-84480476D01*
X53268571Y-84528095D01*
X53363809Y-84575714D01*
X53601904Y-84575714D01*
X53697142Y-84528095D01*
X53744761Y-84480476D01*
X53792380Y-84385238D01*
X53792380Y-84147142D01*
X53744761Y-84051904D01*
X53697142Y-84004285D01*
%TO.C,C6*%
X51326666Y-89632142D02*
X51374285Y-89679761D01*
X51517142Y-89727380D01*
X51612380Y-89727380D01*
X51755238Y-89679761D01*
X51850476Y-89584523D01*
X51898095Y-89489285D01*
X51945714Y-89298809D01*
X51945714Y-89155952D01*
X51898095Y-88965476D01*
X51850476Y-88870238D01*
X51755238Y-88775000D01*
X51612380Y-88727380D01*
X51517142Y-88727380D01*
X51374285Y-88775000D01*
X51326666Y-88822619D01*
X50469523Y-88727380D02*
X50660000Y-88727380D01*
X50755238Y-88775000D01*
X50802857Y-88822619D01*
X50898095Y-88965476D01*
X50945714Y-89155952D01*
X50945714Y-89536904D01*
X50898095Y-89632142D01*
X50850476Y-89679761D01*
X50755238Y-89727380D01*
X50564761Y-89727380D01*
X50469523Y-89679761D01*
X50421904Y-89632142D01*
X50374285Y-89536904D01*
X50374285Y-89298809D01*
X50421904Y-89203571D01*
X50469523Y-89155952D01*
X50564761Y-89108333D01*
X50755238Y-89108333D01*
X50850476Y-89155952D01*
X50898095Y-89203571D01*
X50945714Y-89298809D01*
%TO.C,C8*%
X115927142Y-84883333D02*
X115974761Y-84835714D01*
X116022380Y-84692857D01*
X116022380Y-84597619D01*
X115974761Y-84454761D01*
X115879523Y-84359523D01*
X115784285Y-84311904D01*
X115593809Y-84264285D01*
X115450952Y-84264285D01*
X115260476Y-84311904D01*
X115165238Y-84359523D01*
X115070000Y-84454761D01*
X115022380Y-84597619D01*
X115022380Y-84692857D01*
X115070000Y-84835714D01*
X115117619Y-84883333D01*
X115450952Y-85454761D02*
X115403333Y-85359523D01*
X115355714Y-85311904D01*
X115260476Y-85264285D01*
X115212857Y-85264285D01*
X115117619Y-85311904D01*
X115070000Y-85359523D01*
X115022380Y-85454761D01*
X115022380Y-85645238D01*
X115070000Y-85740476D01*
X115117619Y-85788095D01*
X115212857Y-85835714D01*
X115260476Y-85835714D01*
X115355714Y-85788095D01*
X115403333Y-85740476D01*
X115450952Y-85645238D01*
X115450952Y-85454761D01*
X115498571Y-85359523D01*
X115546190Y-85311904D01*
X115641428Y-85264285D01*
X115831904Y-85264285D01*
X115927142Y-85311904D01*
X115974761Y-85359523D01*
X116022380Y-85454761D01*
X116022380Y-85645238D01*
X115974761Y-85740476D01*
X115927142Y-85788095D01*
X115831904Y-85835714D01*
X115641428Y-85835714D01*
X115546190Y-85788095D01*
X115498571Y-85740476D01*
X115450952Y-85645238D01*
%TO.C,C9*%
X49887142Y-66508333D02*
X49934761Y-66460714D01*
X49982380Y-66317857D01*
X49982380Y-66222619D01*
X49934761Y-66079761D01*
X49839523Y-65984523D01*
X49744285Y-65936904D01*
X49553809Y-65889285D01*
X49410952Y-65889285D01*
X49220476Y-65936904D01*
X49125238Y-65984523D01*
X49030000Y-66079761D01*
X48982380Y-66222619D01*
X48982380Y-66317857D01*
X49030000Y-66460714D01*
X49077619Y-66508333D01*
X49982380Y-66984523D02*
X49982380Y-67175000D01*
X49934761Y-67270238D01*
X49887142Y-67317857D01*
X49744285Y-67413095D01*
X49553809Y-67460714D01*
X49172857Y-67460714D01*
X49077619Y-67413095D01*
X49030000Y-67365476D01*
X48982380Y-67270238D01*
X48982380Y-67079761D01*
X49030000Y-66984523D01*
X49077619Y-66936904D01*
X49172857Y-66889285D01*
X49410952Y-66889285D01*
X49506190Y-66936904D01*
X49553809Y-66984523D01*
X49601428Y-67079761D01*
X49601428Y-67270238D01*
X49553809Y-67365476D01*
X49506190Y-67413095D01*
X49410952Y-67460714D01*
%TO.C,U8*%
X73151904Y-92162380D02*
X73151904Y-92971904D01*
X73104285Y-93067142D01*
X73056666Y-93114761D01*
X72961428Y-93162380D01*
X72770952Y-93162380D01*
X72675714Y-93114761D01*
X72628095Y-93067142D01*
X72580476Y-92971904D01*
X72580476Y-92162380D01*
X71961428Y-92590952D02*
X72056666Y-92543333D01*
X72104285Y-92495714D01*
X72151904Y-92400476D01*
X72151904Y-92352857D01*
X72104285Y-92257619D01*
X72056666Y-92210000D01*
X71961428Y-92162380D01*
X71770952Y-92162380D01*
X71675714Y-92210000D01*
X71628095Y-92257619D01*
X71580476Y-92352857D01*
X71580476Y-92400476D01*
X71628095Y-92495714D01*
X71675714Y-92543333D01*
X71770952Y-92590952D01*
X71961428Y-92590952D01*
X72056666Y-92638571D01*
X72104285Y-92686190D01*
X72151904Y-92781428D01*
X72151904Y-92971904D01*
X72104285Y-93067142D01*
X72056666Y-93114761D01*
X71961428Y-93162380D01*
X71770952Y-93162380D01*
X71675714Y-93114761D01*
X71628095Y-93067142D01*
X71580476Y-92971904D01*
X71580476Y-92781428D01*
X71628095Y-92686190D01*
X71675714Y-92638571D01*
X71770952Y-92590952D01*
X66658571Y-93114761D02*
X66515714Y-93162380D01*
X66277619Y-93162380D01*
X66182380Y-93114761D01*
X66134761Y-93067142D01*
X66087142Y-92971904D01*
X66087142Y-92876666D01*
X66134761Y-92781428D01*
X66182380Y-92733809D01*
X66277619Y-92686190D01*
X66468095Y-92638571D01*
X66563333Y-92590952D01*
X66610952Y-92543333D01*
X66658571Y-92448095D01*
X66658571Y-92352857D01*
X66610952Y-92257619D01*
X66563333Y-92210000D01*
X66468095Y-92162380D01*
X66230000Y-92162380D01*
X66087142Y-92210000D01*
X65706190Y-93114761D02*
X65563333Y-93162380D01*
X65325238Y-93162380D01*
X65230000Y-93114761D01*
X65182380Y-93067142D01*
X65134761Y-92971904D01*
X65134761Y-92876666D01*
X65182380Y-92781428D01*
X65230000Y-92733809D01*
X65325238Y-92686190D01*
X65515714Y-92638571D01*
X65610952Y-92590952D01*
X65658571Y-92543333D01*
X65706190Y-92448095D01*
X65706190Y-92352857D01*
X65658571Y-92257619D01*
X65610952Y-92210000D01*
X65515714Y-92162380D01*
X65277619Y-92162380D01*
X65134761Y-92210000D01*
X64849047Y-92162380D02*
X64277619Y-92162380D01*
X64563333Y-93162380D02*
X64563333Y-92162380D01*
X64039523Y-92162380D02*
X63420476Y-92162380D01*
X63753809Y-92543333D01*
X63610952Y-92543333D01*
X63515714Y-92590952D01*
X63468095Y-92638571D01*
X63420476Y-92733809D01*
X63420476Y-92971904D01*
X63468095Y-93067142D01*
X63515714Y-93114761D01*
X63610952Y-93162380D01*
X63896666Y-93162380D01*
X63991904Y-93114761D01*
X64039523Y-93067142D01*
X62944285Y-93162380D02*
X62753809Y-93162380D01*
X62658571Y-93114761D01*
X62610952Y-93067142D01*
X62515714Y-92924285D01*
X62468095Y-92733809D01*
X62468095Y-92352857D01*
X62515714Y-92257619D01*
X62563333Y-92210000D01*
X62658571Y-92162380D01*
X62849047Y-92162380D01*
X62944285Y-92210000D01*
X62991904Y-92257619D01*
X63039523Y-92352857D01*
X63039523Y-92590952D01*
X62991904Y-92686190D01*
X62944285Y-92733809D01*
X62849047Y-92781428D01*
X62658571Y-92781428D01*
X62563333Y-92733809D01*
X62515714Y-92686190D01*
X62468095Y-92590952D01*
X62087142Y-93114761D02*
X61944285Y-93162380D01*
X61706190Y-93162380D01*
X61610952Y-93114761D01*
X61563333Y-93067142D01*
X61515714Y-92971904D01*
X61515714Y-92876666D01*
X61563333Y-92781428D01*
X61610952Y-92733809D01*
X61706190Y-92686190D01*
X61896666Y-92638571D01*
X61991904Y-92590952D01*
X62039523Y-92543333D01*
X62087142Y-92448095D01*
X62087142Y-92352857D01*
X62039523Y-92257619D01*
X61991904Y-92210000D01*
X61896666Y-92162380D01*
X61658571Y-92162380D01*
X61515714Y-92210000D01*
X60753809Y-92638571D02*
X61087142Y-92638571D01*
X61087142Y-93162380D02*
X61087142Y-92162380D01*
X60610952Y-92162380D01*
X60039523Y-92162380D02*
X59944285Y-92162380D01*
X59849047Y-92210000D01*
X59801428Y-92257619D01*
X59753809Y-92352857D01*
X59706190Y-92543333D01*
X59706190Y-92781428D01*
X59753809Y-92971904D01*
X59801428Y-93067142D01*
X59849047Y-93114761D01*
X59944285Y-93162380D01*
X60039523Y-93162380D01*
X60134761Y-93114761D01*
X60182380Y-93067142D01*
X60230000Y-92971904D01*
X60277619Y-92781428D01*
X60277619Y-92543333D01*
X60230000Y-92352857D01*
X60182380Y-92257619D01*
X60134761Y-92210000D01*
X60039523Y-92162380D01*
X58849047Y-92495714D02*
X58849047Y-93162380D01*
X59087142Y-92114761D02*
X59325238Y-92829047D01*
X58706190Y-92829047D01*
X58134761Y-92162380D02*
X58039523Y-92162380D01*
X57944285Y-92210000D01*
X57896666Y-92257619D01*
X57849047Y-92352857D01*
X57801428Y-92543333D01*
X57801428Y-92781428D01*
X57849047Y-92971904D01*
X57896666Y-93067142D01*
X57944285Y-93114761D01*
X58039523Y-93162380D01*
X58134761Y-93162380D01*
X58230000Y-93114761D01*
X58277619Y-93067142D01*
X58325238Y-92971904D01*
X58372857Y-92781428D01*
X58372857Y-92543333D01*
X58325238Y-92352857D01*
X58277619Y-92257619D01*
X58230000Y-92210000D01*
X58134761Y-92162380D01*
%TO.C,U7*%
X106171904Y-135342380D02*
X106171904Y-136151904D01*
X106124285Y-136247142D01*
X106076666Y-136294761D01*
X105981428Y-136342380D01*
X105790952Y-136342380D01*
X105695714Y-136294761D01*
X105648095Y-136247142D01*
X105600476Y-136151904D01*
X105600476Y-135342380D01*
X105219523Y-135342380D02*
X104552857Y-135342380D01*
X104981428Y-136342380D01*
X104862380Y-121198095D02*
X104862380Y-121864761D01*
X105862380Y-121436190D01*
X105195714Y-122674285D02*
X105862380Y-122674285D01*
X104814761Y-122436190D02*
X105529047Y-122198095D01*
X105529047Y-122817142D01*
X105862380Y-123198095D02*
X104862380Y-123198095D01*
X105338571Y-123198095D02*
X105338571Y-123769523D01*
X105862380Y-123769523D02*
X104862380Y-123769523D01*
X105767142Y-124817142D02*
X105814761Y-124769523D01*
X105862380Y-124626666D01*
X105862380Y-124531428D01*
X105814761Y-124388571D01*
X105719523Y-124293333D01*
X105624285Y-124245714D01*
X105433809Y-124198095D01*
X105290952Y-124198095D01*
X105100476Y-124245714D01*
X105005238Y-124293333D01*
X104910000Y-124388571D01*
X104862380Y-124531428D01*
X104862380Y-124626666D01*
X104910000Y-124769523D01*
X104957619Y-124817142D01*
X105862380Y-125769523D02*
X105862380Y-125198095D01*
X105862380Y-125483809D02*
X104862380Y-125483809D01*
X105005238Y-125388571D01*
X105100476Y-125293333D01*
X105148095Y-125198095D01*
X104862380Y-126102857D02*
X104862380Y-126769523D01*
X105862380Y-126340952D01*
X104862380Y-127055238D02*
X104862380Y-127674285D01*
X105243333Y-127340952D01*
X105243333Y-127483809D01*
X105290952Y-127579047D01*
X105338571Y-127626666D01*
X105433809Y-127674285D01*
X105671904Y-127674285D01*
X105767142Y-127626666D01*
X105814761Y-127579047D01*
X105862380Y-127483809D01*
X105862380Y-127198095D01*
X105814761Y-127102857D01*
X105767142Y-127055238D01*
%TO.C,C7*%
X84177142Y-83653333D02*
X84224761Y-83605714D01*
X84272380Y-83462857D01*
X84272380Y-83367619D01*
X84224761Y-83224761D01*
X84129523Y-83129523D01*
X84034285Y-83081904D01*
X83843809Y-83034285D01*
X83700952Y-83034285D01*
X83510476Y-83081904D01*
X83415238Y-83129523D01*
X83320000Y-83224761D01*
X83272380Y-83367619D01*
X83272380Y-83462857D01*
X83320000Y-83605714D01*
X83367619Y-83653333D01*
X83272380Y-83986666D02*
X83272380Y-84653333D01*
X84272380Y-84224761D01*
%TO.C,C10*%
X95972857Y-112752142D02*
X96020476Y-112799761D01*
X96163333Y-112847380D01*
X96258571Y-112847380D01*
X96401428Y-112799761D01*
X96496666Y-112704523D01*
X96544285Y-112609285D01*
X96591904Y-112418809D01*
X96591904Y-112275952D01*
X96544285Y-112085476D01*
X96496666Y-111990238D01*
X96401428Y-111895000D01*
X96258571Y-111847380D01*
X96163333Y-111847380D01*
X96020476Y-111895000D01*
X95972857Y-111942619D01*
X95020476Y-112847380D02*
X95591904Y-112847380D01*
X95306190Y-112847380D02*
X95306190Y-111847380D01*
X95401428Y-111990238D01*
X95496666Y-112085476D01*
X95591904Y-112133095D01*
X94401428Y-111847380D02*
X94306190Y-111847380D01*
X94210952Y-111895000D01*
X94163333Y-111942619D01*
X94115714Y-112037857D01*
X94068095Y-112228333D01*
X94068095Y-112466428D01*
X94115714Y-112656904D01*
X94163333Y-112752142D01*
X94210952Y-112799761D01*
X94306190Y-112847380D01*
X94401428Y-112847380D01*
X94496666Y-112799761D01*
X94544285Y-112752142D01*
X94591904Y-112656904D01*
X94639523Y-112466428D01*
X94639523Y-112228333D01*
X94591904Y-112037857D01*
X94544285Y-111942619D01*
X94496666Y-111895000D01*
X94401428Y-111847380D01*
%TO.C,C11*%
X118010857Y-89683142D02*
X118058476Y-89730761D01*
X118201333Y-89778380D01*
X118296571Y-89778380D01*
X118439428Y-89730761D01*
X118534666Y-89635523D01*
X118582285Y-89540285D01*
X118629904Y-89349809D01*
X118629904Y-89206952D01*
X118582285Y-89016476D01*
X118534666Y-88921238D01*
X118439428Y-88826000D01*
X118296571Y-88778380D01*
X118201333Y-88778380D01*
X118058476Y-88826000D01*
X118010857Y-88873619D01*
X117058476Y-89778380D02*
X117629904Y-89778380D01*
X117344190Y-89778380D02*
X117344190Y-88778380D01*
X117439428Y-88921238D01*
X117534666Y-89016476D01*
X117629904Y-89064095D01*
X116106095Y-89778380D02*
X116677523Y-89778380D01*
X116391809Y-89778380D02*
X116391809Y-88778380D01*
X116487047Y-88921238D01*
X116582285Y-89016476D01*
X116677523Y-89064095D01*
X118915619Y-98578380D02*
X119487047Y-98578380D01*
X119201333Y-98578380D02*
X119201333Y-97578380D01*
X119296571Y-97721238D01*
X119391809Y-97816476D01*
X119487047Y-97864095D01*
X118296571Y-97578380D02*
X118201333Y-97578380D01*
X118106095Y-97626000D01*
X118058476Y-97673619D01*
X118010857Y-97768857D01*
X117963238Y-97959333D01*
X117963238Y-98197428D01*
X118010857Y-98387904D01*
X118058476Y-98483142D01*
X118106095Y-98530761D01*
X118201333Y-98578380D01*
X118296571Y-98578380D01*
X118391809Y-98530761D01*
X118439428Y-98483142D01*
X118487047Y-98387904D01*
X118534666Y-98197428D01*
X118534666Y-97959333D01*
X118487047Y-97768857D01*
X118439428Y-97673619D01*
X118391809Y-97626000D01*
X118296571Y-97578380D01*
X117344190Y-97578380D02*
X117248952Y-97578380D01*
X117153714Y-97626000D01*
X117106095Y-97673619D01*
X117058476Y-97768857D01*
X117010857Y-97959333D01*
X117010857Y-98197428D01*
X117058476Y-98387904D01*
X117106095Y-98483142D01*
X117153714Y-98530761D01*
X117248952Y-98578380D01*
X117344190Y-98578380D01*
X117439428Y-98530761D01*
X117487047Y-98483142D01*
X117534666Y-98387904D01*
X117582285Y-98197428D01*
X117582285Y-97959333D01*
X117534666Y-97768857D01*
X117487047Y-97673619D01*
X117439428Y-97626000D01*
X117344190Y-97578380D01*
X116153714Y-97911714D02*
X116153714Y-98578380D01*
X116582285Y-97911714D02*
X116582285Y-98435523D01*
X116534666Y-98530761D01*
X116439428Y-98578380D01*
X116296571Y-98578380D01*
X116201333Y-98530761D01*
X116153714Y-98483142D01*
X115344190Y-98054571D02*
X115677523Y-98054571D01*
X115677523Y-98578380D02*
X115677523Y-97578380D01*
X115201333Y-97578380D01*
%TO.C,U9*%
X46881904Y-89997380D02*
X46881904Y-90806904D01*
X46834285Y-90902142D01*
X46786666Y-90949761D01*
X46691428Y-90997380D01*
X46500952Y-90997380D01*
X46405714Y-90949761D01*
X46358095Y-90902142D01*
X46310476Y-90806904D01*
X46310476Y-89997380D01*
X45786666Y-90997380D02*
X45596190Y-90997380D01*
X45500952Y-90949761D01*
X45453333Y-90902142D01*
X45358095Y-90759285D01*
X45310476Y-90568809D01*
X45310476Y-90187857D01*
X45358095Y-90092619D01*
X45405714Y-90045000D01*
X45500952Y-89997380D01*
X45691428Y-89997380D01*
X45786666Y-90045000D01*
X45834285Y-90092619D01*
X45881904Y-90187857D01*
X45881904Y-90425952D01*
X45834285Y-90521190D01*
X45786666Y-90568809D01*
X45691428Y-90616428D01*
X45500952Y-90616428D01*
X45405714Y-90568809D01*
X45358095Y-90521190D01*
X45310476Y-90425952D01*
X49372380Y-98713095D02*
X49372380Y-99379761D01*
X50372380Y-98951190D01*
X49705714Y-100189285D02*
X50372380Y-100189285D01*
X49324761Y-99951190D02*
X50039047Y-99713095D01*
X50039047Y-100332142D01*
X50372380Y-100713095D02*
X49372380Y-100713095D01*
X49848571Y-100713095D02*
X49848571Y-101284523D01*
X50372380Y-101284523D02*
X49372380Y-101284523D01*
X50277142Y-102332142D02*
X50324761Y-102284523D01*
X50372380Y-102141666D01*
X50372380Y-102046428D01*
X50324761Y-101903571D01*
X50229523Y-101808333D01*
X50134285Y-101760714D01*
X49943809Y-101713095D01*
X49800952Y-101713095D01*
X49610476Y-101760714D01*
X49515238Y-101808333D01*
X49420000Y-101903571D01*
X49372380Y-102046428D01*
X49372380Y-102141666D01*
X49420000Y-102284523D01*
X49467619Y-102332142D01*
X50372380Y-103284523D02*
X50372380Y-102713095D01*
X50372380Y-102998809D02*
X49372380Y-102998809D01*
X49515238Y-102903571D01*
X49610476Y-102808333D01*
X49658095Y-102713095D01*
X49372380Y-103617857D02*
X49372380Y-104284523D01*
X50372380Y-103855952D01*
X49372380Y-104570238D02*
X49372380Y-105189285D01*
X49753333Y-104855952D01*
X49753333Y-104998809D01*
X49800952Y-105094047D01*
X49848571Y-105141666D01*
X49943809Y-105189285D01*
X50181904Y-105189285D01*
X50277142Y-105141666D01*
X50324761Y-105094047D01*
X50372380Y-104998809D01*
X50372380Y-104713095D01*
X50324761Y-104617857D01*
X50277142Y-104570238D01*
%TO.C,U10*%
X52290380Y-65529404D02*
X53099904Y-65529404D01*
X53195142Y-65577023D01*
X53242761Y-65624642D01*
X53290380Y-65719880D01*
X53290380Y-65910357D01*
X53242761Y-66005595D01*
X53195142Y-66053214D01*
X53099904Y-66100833D01*
X52290380Y-66100833D01*
X53290380Y-67100833D02*
X53290380Y-66529404D01*
X53290380Y-66815119D02*
X52290380Y-66815119D01*
X52433238Y-66719880D01*
X52528476Y-66624642D01*
X52576095Y-66529404D01*
X52290380Y-67719880D02*
X52290380Y-67815119D01*
X52338000Y-67910357D01*
X52385619Y-67957976D01*
X52480857Y-68005595D01*
X52671333Y-68053214D01*
X52909428Y-68053214D01*
X53099904Y-68005595D01*
X53195142Y-67957976D01*
X53242761Y-67910357D01*
X53290380Y-67815119D01*
X53290380Y-67719880D01*
X53242761Y-67624642D01*
X53195142Y-67577023D01*
X53099904Y-67529404D01*
X52909428Y-67481785D01*
X52671333Y-67481785D01*
X52480857Y-67529404D01*
X52385619Y-67577023D01*
X52338000Y-67624642D01*
X52290380Y-67719880D01*
%TO.C,U11*%
X75847380Y-100356904D02*
X76656904Y-100356904D01*
X76752142Y-100404523D01*
X76799761Y-100452142D01*
X76847380Y-100547380D01*
X76847380Y-100737857D01*
X76799761Y-100833095D01*
X76752142Y-100880714D01*
X76656904Y-100928333D01*
X75847380Y-100928333D01*
X76847380Y-101928333D02*
X76847380Y-101356904D01*
X76847380Y-101642619D02*
X75847380Y-101642619D01*
X75990238Y-101547380D01*
X76085476Y-101452142D01*
X76133095Y-101356904D01*
X76847380Y-102880714D02*
X76847380Y-102309285D01*
X76847380Y-102595000D02*
X75847380Y-102595000D01*
X75990238Y-102499761D01*
X76085476Y-102404523D01*
X76133095Y-102309285D01*
X100306428Y-101957142D02*
X100354047Y-102004761D01*
X100496904Y-102052380D01*
X100592142Y-102052380D01*
X100735000Y-102004761D01*
X100830238Y-101909523D01*
X100877857Y-101814285D01*
X100925476Y-101623809D01*
X100925476Y-101480952D01*
X100877857Y-101290476D01*
X100830238Y-101195238D01*
X100735000Y-101100000D01*
X100592142Y-101052380D01*
X100496904Y-101052380D01*
X100354047Y-101100000D01*
X100306428Y-101147619D01*
X99687380Y-101576190D02*
X99687380Y-102052380D01*
X100020714Y-101052380D02*
X99687380Y-101576190D01*
X99354047Y-101052380D01*
X98592142Y-101052380D02*
X98782619Y-101052380D01*
X98877857Y-101100000D01*
X98925476Y-101147619D01*
X99020714Y-101290476D01*
X99068333Y-101480952D01*
X99068333Y-101861904D01*
X99020714Y-101957142D01*
X98973095Y-102004761D01*
X98877857Y-102052380D01*
X98687380Y-102052380D01*
X98592142Y-102004761D01*
X98544523Y-101957142D01*
X98496904Y-101861904D01*
X98496904Y-101623809D01*
X98544523Y-101528571D01*
X98592142Y-101480952D01*
X98687380Y-101433333D01*
X98877857Y-101433333D01*
X98973095Y-101480952D01*
X99020714Y-101528571D01*
X99068333Y-101623809D01*
X98115952Y-101147619D02*
X98068333Y-101100000D01*
X97973095Y-101052380D01*
X97735000Y-101052380D01*
X97639761Y-101100000D01*
X97592142Y-101147619D01*
X97544523Y-101242857D01*
X97544523Y-101338095D01*
X97592142Y-101480952D01*
X98163571Y-102052380D01*
X97544523Y-102052380D01*
X97163571Y-101147619D02*
X97115952Y-101100000D01*
X97020714Y-101052380D01*
X96782619Y-101052380D01*
X96687380Y-101100000D01*
X96639761Y-101147619D01*
X96592142Y-101242857D01*
X96592142Y-101338095D01*
X96639761Y-101480952D01*
X97211190Y-102052380D01*
X96592142Y-102052380D01*
X95687380Y-101052380D02*
X96163571Y-101052380D01*
X96211190Y-101528571D01*
X96163571Y-101480952D01*
X96068333Y-101433333D01*
X95830238Y-101433333D01*
X95735000Y-101480952D01*
X95687380Y-101528571D01*
X95639761Y-101623809D01*
X95639761Y-101861904D01*
X95687380Y-101957142D01*
X95735000Y-102004761D01*
X95830238Y-102052380D01*
X96068333Y-102052380D01*
X96163571Y-102004761D01*
X96211190Y-101957142D01*
X94782619Y-101052380D02*
X94973095Y-101052380D01*
X95068333Y-101100000D01*
X95115952Y-101147619D01*
X95211190Y-101290476D01*
X95258809Y-101480952D01*
X95258809Y-101861904D01*
X95211190Y-101957142D01*
X95163571Y-102004761D01*
X95068333Y-102052380D01*
X94877857Y-102052380D01*
X94782619Y-102004761D01*
X94735000Y-101957142D01*
X94687380Y-101861904D01*
X94687380Y-101623809D01*
X94735000Y-101528571D01*
X94782619Y-101480952D01*
X94877857Y-101433333D01*
X95068333Y-101433333D01*
X95163571Y-101480952D01*
X95211190Y-101528571D01*
X95258809Y-101623809D01*
X94258809Y-101671428D02*
X93496904Y-101671428D01*
X93115952Y-101052380D02*
X92449285Y-101052380D01*
X92877857Y-102052380D01*
X91877857Y-101052380D02*
X91782619Y-101052380D01*
X91687380Y-101100000D01*
X91639761Y-101147619D01*
X91592142Y-101242857D01*
X91544523Y-101433333D01*
X91544523Y-101671428D01*
X91592142Y-101861904D01*
X91639761Y-101957142D01*
X91687380Y-102004761D01*
X91782619Y-102052380D01*
X91877857Y-102052380D01*
X91973095Y-102004761D01*
X92020714Y-101957142D01*
X92068333Y-101861904D01*
X92115952Y-101671428D01*
X92115952Y-101433333D01*
X92068333Y-101242857D01*
X92020714Y-101147619D01*
X91973095Y-101100000D01*
X91877857Y-101052380D01*
X91115952Y-102052380D02*
X91115952Y-101052380D01*
X90735000Y-101052380D01*
X90639761Y-101100000D01*
X90592142Y-101147619D01*
X90544523Y-101242857D01*
X90544523Y-101385714D01*
X90592142Y-101480952D01*
X90639761Y-101528571D01*
X90735000Y-101576190D01*
X91115952Y-101576190D01*
X89544523Y-101957142D02*
X89592142Y-102004761D01*
X89735000Y-102052380D01*
X89830238Y-102052380D01*
X89973095Y-102004761D01*
X90068333Y-101909523D01*
X90115952Y-101814285D01*
X90163571Y-101623809D01*
X90163571Y-101480952D01*
X90115952Y-101290476D01*
X90068333Y-101195238D01*
X89973095Y-101100000D01*
X89830238Y-101052380D01*
X89735000Y-101052380D01*
X89592142Y-101100000D01*
X89544523Y-101147619D01*
D10*
%TO.C,U3*%
X91330000Y-114240000D02*
X92980000Y-114240000D01*
X99120000Y-114180000D02*
X99120000Y-134740000D01*
X99120000Y-134740000D02*
X88840000Y-134740000D01*
X88840000Y-114180000D02*
X99120000Y-114180000D01*
X96630000Y-114240000D02*
X96630000Y-134680000D01*
X94980000Y-114240000D02*
X96630000Y-114240000D01*
X96630000Y-134680000D02*
X91330000Y-134680000D01*
X91330000Y-134680000D02*
X91330000Y-114240000D01*
X88840000Y-134740000D02*
X88840000Y-114180000D01*
X92980000Y-114240000D02*
G75*
G03*
X94980000Y-114240000I1000000J0D01*
G01*
%TO.C,U2*%
X83550000Y-116780000D02*
X85200000Y-116780000D01*
X79900000Y-116780000D02*
X81550000Y-116780000D01*
X85200000Y-134680000D02*
X79900000Y-134680000D01*
X79900000Y-134680000D02*
X79900000Y-116780000D01*
X77410000Y-134740000D02*
X77410000Y-116720000D01*
X87690000Y-134740000D02*
X77410000Y-134740000D01*
X77410000Y-116720000D02*
X87690000Y-116720000D01*
X87690000Y-116720000D02*
X87690000Y-134740000D01*
X85200000Y-116780000D02*
X85200000Y-134680000D01*
X81550000Y-116780000D02*
G75*
G03*
X83550000Y-116780000I1000000J0D01*
G01*
%TO.C,U1*%
X73770000Y-116775000D02*
X73770000Y-134675000D01*
X72120000Y-116775000D02*
X73770000Y-116775000D01*
X76260000Y-134735000D02*
X65980000Y-134735000D01*
X68470000Y-134675000D02*
X68470000Y-116775000D01*
X65980000Y-116715000D02*
X76260000Y-116715000D01*
X65980000Y-134735000D02*
X65980000Y-116715000D01*
X76260000Y-116715000D02*
X76260000Y-134735000D01*
X73770000Y-134675000D02*
X68470000Y-134675000D01*
X68470000Y-116775000D02*
X70120000Y-116775000D01*
X70120000Y-116775000D02*
G75*
G03*
X72120000Y-116775000I1000000J0D01*
G01*
%TO.C,U4*%
X62340000Y-116775000D02*
X62340000Y-134675000D01*
X60690000Y-116775000D02*
X62340000Y-116775000D01*
X54550000Y-116715000D02*
X64830000Y-116715000D01*
X54550000Y-134735000D02*
X54550000Y-116715000D01*
X57040000Y-116775000D02*
X58690000Y-116775000D01*
X64830000Y-116715000D02*
X64830000Y-134735000D01*
X62340000Y-134675000D02*
X57040000Y-134675000D01*
X64830000Y-134735000D02*
X54550000Y-134735000D01*
X57040000Y-134675000D02*
X57040000Y-116775000D01*
X58690000Y-116775000D02*
G75*
G03*
X60690000Y-116775000I1000000J0D01*
G01*
%TO.C,U5*%
X86305000Y-84100000D02*
X86305000Y-82450000D01*
X111825000Y-82450000D02*
X111825000Y-87750000D01*
X86305000Y-87750000D02*
X86305000Y-86100000D01*
X86245000Y-79960000D02*
X111885000Y-79960000D01*
X86305000Y-82450000D02*
X111825000Y-82450000D01*
X86245000Y-90240000D02*
X86245000Y-79960000D01*
X111885000Y-79960000D02*
X111885000Y-90240000D01*
X111825000Y-87750000D02*
X86305000Y-87750000D01*
X111885000Y-90240000D02*
X86245000Y-90240000D01*
X86305000Y-86100000D02*
G75*
G03*
X86305000Y-84100000I0J1000000D01*
G01*
%TO.C,U6*%
X55825000Y-87750000D02*
X55825000Y-86100000D01*
X55765000Y-90240000D02*
X55765000Y-79960000D01*
X81405000Y-90240000D02*
X55765000Y-90240000D01*
X55825000Y-82450000D02*
X81345000Y-82450000D01*
X81345000Y-82450000D02*
X81345000Y-87750000D01*
X81405000Y-79960000D02*
X81405000Y-90240000D01*
X81345000Y-87750000D02*
X55825000Y-87750000D01*
X55765000Y-79960000D02*
X81405000Y-79960000D01*
X55825000Y-84100000D02*
X55825000Y-82450000D01*
X55825000Y-86100000D02*
G75*
G03*
X55825000Y-84100000I0J1000000D01*
G01*
%TO.C,C1*%
X63620000Y-115670000D02*
X63620000Y-115355000D01*
X58380000Y-115670000D02*
X63620000Y-115670000D01*
X63620000Y-113245000D02*
X63620000Y-112930000D01*
X58380000Y-113245000D02*
X58380000Y-112930000D01*
X58380000Y-115670000D02*
X58380000Y-115355000D01*
X58380000Y-112930000D02*
X63620000Y-112930000D01*
%TO.C,C2*%
X69810000Y-115670000D02*
X69810000Y-115355000D01*
X75050000Y-115670000D02*
X75050000Y-115355000D01*
X75050000Y-113245000D02*
X75050000Y-112930000D01*
X69810000Y-115670000D02*
X75050000Y-115670000D01*
X69810000Y-112930000D02*
X75050000Y-112930000D01*
X69810000Y-113245000D02*
X69810000Y-112930000D01*
%TO.C,C3*%
X81240000Y-113245000D02*
X81240000Y-112930000D01*
X81240000Y-115670000D02*
X86480000Y-115670000D01*
X81240000Y-112930000D02*
X86480000Y-112930000D01*
X81240000Y-115670000D02*
X81240000Y-115355000D01*
X86480000Y-115670000D02*
X86480000Y-115355000D01*
X86480000Y-113245000D02*
X86480000Y-112930000D01*
%TO.C,C4*%
X104100000Y-111340000D02*
X104100000Y-111025000D01*
X104100000Y-113765000D02*
X104100000Y-113450000D01*
X104100000Y-111025000D02*
X109340000Y-111025000D01*
X104100000Y-113765000D02*
X109340000Y-113765000D01*
X109340000Y-111340000D02*
X109340000Y-111025000D01*
X109340000Y-113765000D02*
X109340000Y-113450000D01*
%TO.C,C5*%
X51970000Y-86410000D02*
X51970000Y-81170000D01*
X54710000Y-86410000D02*
X54710000Y-81170000D01*
X54710000Y-81170000D02*
X54395000Y-81170000D01*
X52285000Y-81170000D02*
X51970000Y-81170000D01*
X52285000Y-86410000D02*
X51970000Y-86410000D01*
X54710000Y-86410000D02*
X54395000Y-86410000D01*
%TO.C,C6*%
X53780000Y-90645000D02*
X53780000Y-90330000D01*
X48540000Y-90645000D02*
X48540000Y-90330000D01*
X48540000Y-90645000D02*
X53780000Y-90645000D01*
X53780000Y-88220000D02*
X53780000Y-87905000D01*
X48540000Y-88220000D02*
X48540000Y-87905000D01*
X48540000Y-87905000D02*
X53780000Y-87905000D01*
%TO.C,C8*%
X114200000Y-82430000D02*
X114200000Y-87670000D01*
X116625000Y-87670000D02*
X116940000Y-87670000D01*
X116940000Y-82430000D02*
X116940000Y-87670000D01*
X116625000Y-82430000D02*
X116940000Y-82430000D01*
X114200000Y-82430000D02*
X114515000Y-82430000D01*
X114200000Y-87670000D02*
X114515000Y-87670000D01*
%TO.C,C9*%
X50900000Y-64055000D02*
X50585000Y-64055000D01*
X50900000Y-69295000D02*
X50900000Y-64055000D01*
X48475000Y-69295000D02*
X48160000Y-69295000D01*
X48160000Y-69295000D02*
X48160000Y-64055000D01*
X50900000Y-69295000D02*
X50585000Y-69295000D01*
X48475000Y-64055000D02*
X48160000Y-64055000D01*
%TO.C,U8*%
X56915000Y-91200000D02*
X65040000Y-91200000D01*
X56915000Y-112000000D02*
X56915000Y-91200000D01*
X67040000Y-91200000D02*
X74165000Y-91200000D01*
X74165000Y-91200000D02*
X75165000Y-92200000D01*
X75165000Y-112000000D02*
X56915000Y-112000000D01*
X75165000Y-92200000D02*
X75165000Y-112000000D01*
%TO.C,U7*%
X110550000Y-134740000D02*
X100270000Y-134740000D01*
X110550000Y-114180000D02*
X110550000Y-134740000D01*
X102760000Y-134680000D02*
X102760000Y-114240000D01*
X108060000Y-134680000D02*
X102760000Y-134680000D01*
X100270000Y-134740000D02*
X100270000Y-114180000D01*
X100270000Y-114180000D02*
X110550000Y-114180000D01*
X106410000Y-114240000D02*
X108060000Y-114240000D01*
X102760000Y-114240000D02*
X104410000Y-114240000D01*
X108060000Y-114240000D02*
X108060000Y-134680000D01*
X104410000Y-114240000D02*
G75*
G03*
X106410000Y-114240000I1000000J0D01*
G01*
%TO.C,C7*%
X82450000Y-86400000D02*
X82450000Y-81160000D01*
X82765000Y-86400000D02*
X82450000Y-86400000D01*
X85190000Y-86400000D02*
X85190000Y-81160000D01*
X82765000Y-81160000D02*
X82450000Y-81160000D01*
X85190000Y-86400000D02*
X84875000Y-86400000D01*
X85190000Y-81160000D02*
X84875000Y-81160000D01*
%TO.C,C10*%
X97910000Y-113765000D02*
X97910000Y-113450000D01*
X97910000Y-111340000D02*
X97910000Y-111025000D01*
X92670000Y-113765000D02*
X97910000Y-113765000D01*
X92670000Y-111025000D02*
X97910000Y-111025000D01*
X92670000Y-111340000D02*
X92670000Y-111025000D01*
X92670000Y-113765000D02*
X92670000Y-113450000D01*
%TO.C,C11*%
X116447000Y-94766000D02*
X116447000Y-96824000D01*
X116928000Y-90525000D02*
X116928000Y-92686000D01*
X116367000Y-94766000D02*
X116367000Y-96800000D01*
X116287000Y-94766000D02*
X116287000Y-96773000D01*
X115607000Y-91010000D02*
X115607000Y-92686000D01*
X114767000Y-91782000D02*
X114767000Y-95670000D01*
X115527000Y-91062000D02*
X115527000Y-92686000D01*
X114127000Y-93324000D02*
X114127000Y-94128000D01*
X115447000Y-94766000D02*
X115447000Y-96333000D01*
X115287000Y-94766000D02*
X115287000Y-96210000D01*
X116087000Y-94766000D02*
X116087000Y-96696000D01*
X115927000Y-90830000D02*
X115927000Y-92686000D01*
X116407000Y-90640000D02*
X116407000Y-92686000D01*
X114167000Y-93093000D02*
X114167000Y-94359000D01*
X116087000Y-90756000D02*
X116087000Y-92686000D01*
X116808000Y-90544000D02*
X116808000Y-92686000D01*
X116607000Y-90585000D02*
X116607000Y-92686000D01*
X117168000Y-90502000D02*
X117168000Y-96950000D01*
X115647000Y-94766000D02*
X115647000Y-96468000D01*
X116167000Y-90724000D02*
X116167000Y-92686000D01*
X116127000Y-94766000D02*
X116127000Y-96712000D01*
X115767000Y-94766000D02*
X115767000Y-96538000D01*
X117088000Y-90508000D02*
X117088000Y-92686000D01*
X116647000Y-94766000D02*
X116647000Y-96876000D01*
X115327000Y-94766000D02*
X115327000Y-96242000D01*
X114807000Y-91731000D02*
X114807000Y-95721000D01*
X115887000Y-90850000D02*
X115887000Y-92686000D01*
X116768000Y-94766000D02*
X116768000Y-96901000D01*
X115087000Y-91421000D02*
X115087000Y-92686000D01*
X115127000Y-91383000D02*
X115127000Y-92686000D01*
X116527000Y-94766000D02*
X116527000Y-96847000D01*
X116728000Y-94766000D02*
X116728000Y-96893000D01*
X115847000Y-90870000D02*
X115847000Y-92686000D01*
X114927000Y-91589000D02*
X114927000Y-95863000D01*
X116688000Y-94766000D02*
X116688000Y-96885000D01*
X117128000Y-94766000D02*
X117128000Y-96948000D01*
X116327000Y-90665000D02*
X116327000Y-92686000D01*
X115727000Y-90936000D02*
X115727000Y-92686000D01*
X115927000Y-94766000D02*
X115927000Y-96622000D01*
X114687000Y-91892000D02*
X114687000Y-95560000D01*
X114887000Y-91634000D02*
X114887000Y-95818000D01*
X115807000Y-90892000D02*
X115807000Y-92686000D01*
X115007000Y-91502000D02*
X115007000Y-95950000D01*
X114847000Y-91682000D02*
X114847000Y-95770000D01*
X115127000Y-94766000D02*
X115127000Y-96069000D01*
X116367000Y-90652000D02*
X116367000Y-92686000D01*
X115767000Y-90914000D02*
X115767000Y-92686000D01*
X114447000Y-92294000D02*
X114447000Y-95158000D01*
X116647000Y-90576000D02*
X116647000Y-92686000D01*
X120553241Y-91572000D02*
X120553241Y-92202000D01*
X115167000Y-94766000D02*
X115167000Y-96106000D01*
X116567000Y-94766000D02*
X116567000Y-96857000D01*
X117008000Y-94766000D02*
X117008000Y-96937000D01*
X117208000Y-90499000D02*
X117208000Y-96953000D01*
X115287000Y-91242000D02*
X115287000Y-92686000D01*
X116287000Y-90679000D02*
X116287000Y-92686000D01*
X115167000Y-91346000D02*
X115167000Y-92686000D01*
X114607000Y-92012000D02*
X114607000Y-95440000D01*
X116447000Y-90628000D02*
X116447000Y-92686000D01*
X115967000Y-94766000D02*
X115967000Y-96642000D01*
X116047000Y-94766000D02*
X116047000Y-96678000D01*
X115487000Y-94766000D02*
X115487000Y-96362000D01*
X115247000Y-94766000D02*
X115247000Y-96176000D01*
X116007000Y-90792000D02*
X116007000Y-92686000D01*
X114967000Y-91544000D02*
X114967000Y-95908000D01*
X115527000Y-94766000D02*
X115527000Y-96390000D01*
X116808000Y-94766000D02*
X116808000Y-96908000D01*
X115087000Y-94766000D02*
X115087000Y-96031000D01*
X116247000Y-94766000D02*
X116247000Y-96759000D01*
X114367000Y-92464000D02*
X114367000Y-94988000D01*
X115967000Y-90810000D02*
X115967000Y-92686000D01*
X117048000Y-90511000D02*
X117048000Y-92686000D01*
X114407000Y-92376000D02*
X114407000Y-95076000D01*
X115407000Y-94766000D02*
X115407000Y-96304000D01*
X117328000Y-90496000D02*
X117328000Y-96956000D01*
X115487000Y-91090000D02*
X115487000Y-92686000D01*
X116928000Y-94766000D02*
X116928000Y-96927000D01*
X116207000Y-90708000D02*
X116207000Y-92686000D01*
X115847000Y-94766000D02*
X115847000Y-96582000D01*
X116127000Y-90740000D02*
X116127000Y-92686000D01*
X114247000Y-92786000D02*
X114247000Y-94666000D01*
X115687000Y-90960000D02*
X115687000Y-92686000D01*
X116768000Y-90551000D02*
X116768000Y-92686000D01*
X116407000Y-94766000D02*
X116407000Y-96812000D01*
X116167000Y-94766000D02*
X116167000Y-96728000D01*
X117368000Y-90496000D02*
X117368000Y-96956000D01*
X115687000Y-94766000D02*
X115687000Y-96492000D01*
X116487000Y-94766000D02*
X116487000Y-96836000D01*
X114647000Y-91950000D02*
X114647000Y-95502000D01*
X117248000Y-90498000D02*
X117248000Y-96954000D01*
X115327000Y-91210000D02*
X115327000Y-92686000D01*
X116607000Y-94766000D02*
X116607000Y-96867000D01*
X116567000Y-90595000D02*
X116567000Y-92686000D01*
X117288000Y-90496000D02*
X117288000Y-96956000D01*
X114567000Y-92076000D02*
X114567000Y-95376000D01*
X117048000Y-94766000D02*
X117048000Y-96941000D01*
X114527000Y-92145000D02*
X114527000Y-95307000D01*
X116688000Y-90567000D02*
X116688000Y-92686000D01*
X116007000Y-94766000D02*
X116007000Y-96660000D01*
X116888000Y-94766000D02*
X116888000Y-96921000D01*
X115447000Y-91119000D02*
X115447000Y-92686000D01*
X116888000Y-90531000D02*
X116888000Y-92686000D01*
X116848000Y-90537000D02*
X116848000Y-92686000D01*
X116968000Y-94766000D02*
X116968000Y-96932000D01*
X120868241Y-91887000D02*
X120238241Y-91887000D01*
X115647000Y-90984000D02*
X115647000Y-92686000D01*
X116848000Y-94766000D02*
X116848000Y-96915000D01*
X115207000Y-94766000D02*
X115207000Y-96142000D01*
X117008000Y-90515000D02*
X117008000Y-92686000D01*
X114487000Y-92217000D02*
X114487000Y-95235000D01*
X115727000Y-94766000D02*
X115727000Y-96516000D01*
X116247000Y-90693000D02*
X116247000Y-92686000D01*
X115367000Y-91178000D02*
X115367000Y-92686000D01*
X114287000Y-92667000D02*
X114287000Y-94785000D01*
X114207000Y-92924000D02*
X114207000Y-94528000D01*
X115567000Y-94766000D02*
X115567000Y-96416000D01*
X114727000Y-91836000D02*
X114727000Y-95616000D01*
X115887000Y-94766000D02*
X115887000Y-96602000D01*
X116207000Y-94766000D02*
X116207000Y-96744000D01*
X116487000Y-90616000D02*
X116487000Y-92686000D01*
X115567000Y-91036000D02*
X115567000Y-92686000D01*
X115367000Y-94766000D02*
X115367000Y-96274000D01*
X115407000Y-91148000D02*
X115407000Y-92686000D01*
X117088000Y-94766000D02*
X117088000Y-96944000D01*
X116728000Y-90559000D02*
X116728000Y-92686000D01*
X116527000Y-90605000D02*
X116527000Y-92686000D01*
X114327000Y-92561000D02*
X114327000Y-94891000D01*
X116047000Y-90774000D02*
X116047000Y-92686000D01*
X115047000Y-91461000D02*
X115047000Y-95991000D01*
X115607000Y-94766000D02*
X115607000Y-96442000D01*
X115247000Y-91276000D02*
X115247000Y-92686000D01*
X116327000Y-94766000D02*
X116327000Y-96787000D01*
X115207000Y-91310000D02*
X115207000Y-92686000D01*
X115807000Y-94766000D02*
X115807000Y-96560000D01*
X117128000Y-90504000D02*
X117128000Y-92686000D01*
X116968000Y-90520000D02*
X116968000Y-92686000D01*
X120638000Y-93726000D02*
G75*
G03*
X120638000Y-93726000I-3270000J0D01*
G01*
%TO.C,U9*%
X52570000Y-112185000D02*
X47270000Y-112185000D01*
X55060000Y-112245000D02*
X44780000Y-112245000D01*
X44780000Y-91685000D02*
X55060000Y-91685000D01*
X50920000Y-91745000D02*
X52570000Y-91745000D01*
X44780000Y-112245000D02*
X44780000Y-91685000D01*
X52570000Y-91745000D02*
X52570000Y-112185000D01*
X55060000Y-91685000D02*
X55060000Y-112245000D01*
X47270000Y-112185000D02*
X47270000Y-91745000D01*
X47270000Y-91745000D02*
X48920000Y-91745000D01*
X48920000Y-91745000D02*
G75*
G03*
X50920000Y-91745000I1000000J0D01*
G01*
%TO.C,U10*%
X109438000Y-78317500D02*
X53738000Y-78317500D01*
X65668000Y-54197500D02*
X63128000Y-54197500D01*
X53738000Y-57497500D02*
X55998000Y-57497500D01*
X53738000Y-55217500D02*
X55598000Y-55217500D01*
X53738000Y-78317500D02*
X53738000Y-55217500D01*
X60498000Y-55217500D02*
X109438000Y-55217500D01*
X109438000Y-55217500D02*
X109438000Y-78317500D01*
X60598000Y-55947500D02*
G75*
G03*
X60598000Y-55947500I-2550000J0D01*
G01*
X58948000Y-55947500D02*
G75*
G03*
X58948000Y-55947500I-900000J0D01*
G01*
%TO.C,U11*%
X113135000Y-92645000D02*
X113135000Y-110545000D01*
X113075000Y-95135000D02*
X113075000Y-108055000D01*
X113075000Y-108055000D02*
X77395000Y-108055000D01*
X77335000Y-110545000D02*
X77335000Y-92645000D01*
X113135000Y-110545000D02*
X77335000Y-110545000D01*
X77395000Y-108055000D02*
X77395000Y-102595000D01*
X77395000Y-95135000D02*
X113075000Y-95135000D01*
X77335000Y-92645000D02*
X113135000Y-92645000D01*
X77395000Y-100595000D02*
X77395000Y-95135000D01*
X77395000Y-102595000D02*
G75*
G03*
X77395000Y-100595000I0J1000000D01*
G01*
%TD*%
M02*
