%TF.GenerationSoftware,KiCad,Pcbnew,(6.0.9)*%
%TF.CreationDate,2023-10-12T08:19:30+02:00*%
%TF.ProjectId,p2000t-slot2-datacartridge,70323030-3074-42d7-936c-6f74322d6461,rev?*%
%TF.SameCoordinates,Original*%
%TF.FileFunction,Copper,L1,Top*%
%TF.FilePolarity,Positive*%
%FSLAX46Y46*%
G04 Gerber Fmt 4.6, Leading zero omitted, Abs format (unit mm)*
G04 Created by KiCad (PCBNEW (6.0.9)) date 2023-10-12 08:19:30*
%MOMM*%
%LPD*%
G01*
G04 APERTURE LIST*
%TA.AperFunction,ComponentPad*%
%ADD10R,1.800000X1.800000*%
%TD*%
%TA.AperFunction,ComponentPad*%
%ADD11C,1.800000*%
%TD*%
%TA.AperFunction,ComponentPad*%
%ADD12C,1.600000*%
%TD*%
%TA.AperFunction,ComponentPad*%
%ADD13O,1.600000X1.600000*%
%TD*%
%TA.AperFunction,ComponentPad*%
%ADD14R,1.600000X1.600000*%
%TD*%
%TA.AperFunction,SMDPad,CuDef*%
%ADD15R,2.000000X10.000000*%
%TD*%
%TA.AperFunction,ComponentPad*%
%ADD16R,1.422400X1.422400*%
%TD*%
%TA.AperFunction,ComponentPad*%
%ADD17C,1.422400*%
%TD*%
%TA.AperFunction,ComponentPad*%
%ADD18R,1.440000X2.000000*%
%TD*%
%TA.AperFunction,ComponentPad*%
%ADD19O,1.440000X2.000000*%
%TD*%
%TA.AperFunction,ViaPad*%
%ADD20C,0.800000*%
%TD*%
%TA.AperFunction,Conductor*%
%ADD21C,0.250000*%
%TD*%
%TA.AperFunction,Conductor*%
%ADD22C,0.500000*%
%TD*%
G04 APERTURE END LIST*
D10*
%TO.P,D2,1,K*%
%TO.N,GND*%
X118359000Y-57150000D03*
D11*
%TO.P,D2,2,A*%
%TO.N,Net-(D2-Pad2)*%
X120899000Y-57150000D03*
%TD*%
D12*
%TO.P,R1,1*%
%TO.N,Net-(R1-Pad1)*%
X113538000Y-72136000D03*
D13*
%TO.P,R1,2*%
%TO.N,Net-(D1-Pad2)*%
X113538000Y-64516000D03*
%TD*%
D10*
%TO.P,D1,1,K*%
%TO.N,GND*%
X110993000Y-57150000D03*
D11*
%TO.P,D1,2,A*%
%TO.N,Net-(D1-Pad2)*%
X113533000Y-57150000D03*
%TD*%
D12*
%TO.P,R2,1*%
%TO.N,Net-(R2-Pad1)*%
X118110000Y-72136000D03*
D13*
%TO.P,R2,2*%
%TO.N,Net-(D2-Pad2)*%
X118110000Y-64516000D03*
%TD*%
D14*
%TO.P,U3,1,A0*%
%TO.N,A0*%
X97790000Y-115570000D03*
D13*
%TO.P,U3,2,A1*%
%TO.N,A1*%
X97790000Y-118110000D03*
%TO.P,U3,3,A2*%
%TO.N,A2*%
X97790000Y-120650000D03*
%TO.P,U3,4,E1*%
%TO.N,Net-(U2-Pad6)*%
X97790000Y-123190000D03*
%TO.P,U3,5,E2*%
%TO.N,~{IORQ}*%
X97790000Y-125730000D03*
%TO.P,U3,6,E3*%
%TO.N,Net-(U3-Pad6)*%
X97790000Y-128270000D03*
%TO.P,U3,7,O7*%
%TO.N,unconnected-(U3-Pad7)*%
X97790000Y-130810000D03*
%TO.P,U3,8,GND*%
%TO.N,GND*%
X97790000Y-133350000D03*
%TO.P,U3,9,O6*%
%TO.N,SO6*%
X90170000Y-133350000D03*
%TO.P,U3,10,O5*%
%TO.N,SO5*%
X90170000Y-130810000D03*
%TO.P,U3,11,O4*%
%TO.N,SO4*%
X90170000Y-128270000D03*
%TO.P,U3,12,O3*%
%TO.N,Net-(U3-Pad12)*%
X90170000Y-125730000D03*
%TO.P,U3,13,O2*%
%TO.N,SO2*%
X90170000Y-123190000D03*
%TO.P,U3,14,O1*%
%TO.N,Net-(U3-Pad14)*%
X90170000Y-120650000D03*
%TO.P,U3,15,O0*%
%TO.N,Net-(U3-Pad15)*%
X90170000Y-118110000D03*
%TO.P,U3,16,VCC*%
%TO.N,VCC*%
X90170000Y-115570000D03*
%TD*%
D14*
%TO.P,U2,1*%
%TO.N,A7*%
X86360000Y-118110000D03*
D13*
%TO.P,U2,2*%
%TO.N,Net-(U2-Pad2)*%
X86360000Y-120650000D03*
%TO.P,U2,3*%
%TO.N,A4*%
X86360000Y-123190000D03*
%TO.P,U2,4*%
%TO.N,Net-(U2-Pad4)*%
X86360000Y-125730000D03*
%TO.P,U2,5*%
%TO.N,M1*%
X86360000Y-128270000D03*
%TO.P,U2,6*%
%TO.N,Net-(U2-Pad6)*%
X86360000Y-130810000D03*
%TO.P,U2,7,GND*%
%TO.N,GND*%
X86360000Y-133350000D03*
%TO.P,U2,8*%
%TO.N,Net-(U2-Pad8)*%
X78740000Y-133350000D03*
%TO.P,U2,9*%
%TO.N,~{RES}*%
X78740000Y-130810000D03*
%TO.P,U2,10*%
%TO.N,unconnected-(U2-Pad10)*%
X78740000Y-128270000D03*
%TO.P,U2,11*%
%TO.N,VCC*%
X78740000Y-125730000D03*
%TO.P,U2,12*%
%TO.N,N/C*%
X78740000Y-123190000D03*
%TO.P,U2,13*%
X78740000Y-120650000D03*
%TO.P,U2,14,VCC*%
%TO.N,VCC*%
X78740000Y-118110000D03*
%TD*%
D14*
%TO.P,U1,1*%
%TO.N,Net-(U1-Pad1)*%
X74930000Y-118105000D03*
D13*
%TO.P,U1,2*%
%TO.N,Net-(U3-Pad15)*%
X74930000Y-120645000D03*
%TO.P,U1,3*%
%TO.N,~{WR}*%
X74930000Y-123185000D03*
%TO.P,U1,4*%
%TO.N,Net-(U1-Pad4)*%
X74930000Y-125725000D03*
%TO.P,U1,5*%
%TO.N,Net-(U3-Pad14)*%
X74930000Y-128265000D03*
%TO.P,U1,6*%
%TO.N,~{WR}*%
X74930000Y-130805000D03*
%TO.P,U1,7,GND*%
%TO.N,GND*%
X74930000Y-133345000D03*
%TO.P,U1,8*%
%TO.N,SO6*%
X67310000Y-133345000D03*
%TO.P,U1,9*%
%TO.N,~{WR}*%
X67310000Y-130805000D03*
%TO.P,U1,10*%
%TO.N,Net-(U9-Pad7)*%
X67310000Y-128265000D03*
%TO.P,U1,11*%
%TO.N,Net-(U3-Pad12)*%
X67310000Y-125725000D03*
%TO.P,U1,12*%
%TO.N,~{WR}*%
X67310000Y-123185000D03*
%TO.P,U1,13*%
%TO.N,Net-(U7-Pad7)*%
X67310000Y-120645000D03*
%TO.P,U1,14,VCC*%
%TO.N,VCC*%
X67310000Y-118105000D03*
%TD*%
D14*
%TO.P,U4,1*%
%TO.N,Net-(U2-Pad4)*%
X63500000Y-118105000D03*
D13*
%TO.P,U4,2*%
%TO.N,A6*%
X63500000Y-120645000D03*
%TO.P,U4,3*%
%TO.N,N/C*%
X63500000Y-123185000D03*
%TO.P,U4,4*%
%TO.N,A5*%
X63500000Y-125725000D03*
%TO.P,U4,5*%
%TO.N,Net-(U2-Pad2)*%
X63500000Y-128265000D03*
%TO.P,U4,6*%
%TO.N,Net-(U3-Pad6)*%
X63500000Y-130805000D03*
%TO.P,U4,7,GND*%
%TO.N,GND*%
X63500000Y-133345000D03*
%TO.P,U4,8*%
%TO.N,unconnected-(U4-Pad8)*%
X55880000Y-133345000D03*
%TO.P,U4,9*%
%TO.N,GND*%
X55880000Y-130805000D03*
%TO.P,U4,10*%
X55880000Y-128265000D03*
%TO.P,U4,11*%
%TO.N,N/C*%
X55880000Y-125725000D03*
%TO.P,U4,12*%
%TO.N,GND*%
X55880000Y-123185000D03*
%TO.P,U4,13*%
X55880000Y-120645000D03*
%TO.P,U4,14,VCC*%
%TO.N,VCC*%
X55880000Y-118105000D03*
%TD*%
D14*
%TO.P,U5,1,~{Mr}*%
%TO.N,~{RES}*%
X87635000Y-81290000D03*
D13*
%TO.P,U5,2,Q0*%
%TO.N,CA8*%
X90175000Y-81290000D03*
%TO.P,U5,3,D0*%
%TO.N,D0*%
X92715000Y-81290000D03*
%TO.P,U5,4,D1*%
%TO.N,D1*%
X95255000Y-81290000D03*
%TO.P,U5,5,Q1*%
%TO.N,CA9*%
X97795000Y-81290000D03*
%TO.P,U5,6,Q2*%
%TO.N,CA10*%
X100335000Y-81290000D03*
%TO.P,U5,7,D2*%
%TO.N,D2*%
X102875000Y-81290000D03*
%TO.P,U5,8,D3*%
%TO.N,D3*%
X105415000Y-81290000D03*
%TO.P,U5,9,Q3*%
%TO.N,CA11*%
X107955000Y-81290000D03*
%TO.P,U5,10,GND*%
%TO.N,GND*%
X110495000Y-81290000D03*
%TO.P,U5,11,Cp*%
%TO.N,Net-(U1-Pad4)*%
X110495000Y-88910000D03*
%TO.P,U5,12,Q4*%
%TO.N,CA12*%
X107955000Y-88910000D03*
%TO.P,U5,13,D4*%
%TO.N,D4*%
X105415000Y-88910000D03*
%TO.P,U5,14,D5*%
%TO.N,D5*%
X102875000Y-88910000D03*
%TO.P,U5,15,Q5*%
%TO.N,CA13*%
X100335000Y-88910000D03*
%TO.P,U5,16,Q6*%
%TO.N,CA14*%
X97795000Y-88910000D03*
%TO.P,U5,17,D6*%
%TO.N,D6*%
X95255000Y-88910000D03*
%TO.P,U5,18,D7*%
%TO.N,D7*%
X92715000Y-88910000D03*
%TO.P,U5,19,Q7*%
%TO.N,CA15*%
X90175000Y-88910000D03*
%TO.P,U5,20,VCC*%
%TO.N,VCC*%
X87635000Y-88910000D03*
%TD*%
D15*
%TO.P,J1,1b,Pin_1b*%
%TO.N,VCC*%
X55742000Y-147828000D03*
%TO.P,J1,2b,Pin_2b*%
%TO.N,D1*%
X59702000Y-147828000D03*
%TO.P,J1,3b,Pin_3b*%
%TO.N,D3*%
X63662000Y-147828000D03*
%TO.P,J1,4b,Pin_4b*%
%TO.N,D5*%
X67622000Y-147828000D03*
%TO.P,J1,5b,Pin_5b*%
%TO.N,D7*%
X71582000Y-147828000D03*
%TO.P,J1,6b,Pin_6b*%
%TO.N,A1*%
X75542000Y-147828000D03*
%TO.P,J1,7b,Pin_7b*%
%TO.N,unconnected-(J1-Pad7b)*%
X79502000Y-147828000D03*
%TO.P,J1,8b,Pin_8b*%
%TO.N,A5*%
X83462000Y-147828000D03*
%TO.P,J1,9b,Pin_9b*%
%TO.N,A7*%
X87422000Y-147828000D03*
%TO.P,J1,10b,Pin_10b*%
%TO.N,~{RES}*%
X91382000Y-147828000D03*
%TO.P,J1,11b,Pin_11b*%
%TO.N,M1*%
X95342000Y-147828000D03*
%TO.P,J1,12b,Pin_12b*%
%TO.N,GND*%
X99302000Y-147828000D03*
%TO.P,J1,14b,Pin_14b*%
%TO.N,~{WR}*%
X107236400Y-147828000D03*
%TO.P,J1,15b,Pin_15b*%
%TO.N,GND*%
X111182000Y-147828000D03*
%TD*%
D14*
%TO.P,U6,1,~{Mr}*%
%TO.N,~{RES}*%
X57155000Y-81290000D03*
D13*
%TO.P,U6,2,Q0*%
%TO.N,CA0*%
X59695000Y-81290000D03*
%TO.P,U6,3,D0*%
%TO.N,D0*%
X62235000Y-81290000D03*
%TO.P,U6,4,D1*%
%TO.N,D1*%
X64775000Y-81290000D03*
%TO.P,U6,5,Q1*%
%TO.N,CA1*%
X67315000Y-81290000D03*
%TO.P,U6,6,Q2*%
%TO.N,CA2*%
X69855000Y-81290000D03*
%TO.P,U6,7,D2*%
%TO.N,D2*%
X72395000Y-81290000D03*
%TO.P,U6,8,D3*%
%TO.N,D3*%
X74935000Y-81290000D03*
%TO.P,U6,9,Q3*%
%TO.N,CA3*%
X77475000Y-81290000D03*
%TO.P,U6,10,GND*%
%TO.N,GND*%
X80015000Y-81290000D03*
%TO.P,U6,11,Cp*%
%TO.N,Net-(U1-Pad1)*%
X80015000Y-88910000D03*
%TO.P,U6,12,Q4*%
%TO.N,CA4*%
X77475000Y-88910000D03*
%TO.P,U6,13,D4*%
%TO.N,D4*%
X74935000Y-88910000D03*
%TO.P,U6,14,D5*%
%TO.N,D5*%
X72395000Y-88910000D03*
%TO.P,U6,15,Q5*%
%TO.N,CA5*%
X69855000Y-88910000D03*
%TO.P,U6,16,Q6*%
%TO.N,CA6*%
X67315000Y-88910000D03*
%TO.P,U6,17,D6*%
%TO.N,D6*%
X64775000Y-88910000D03*
%TO.P,U6,18,D7*%
%TO.N,D7*%
X62235000Y-88910000D03*
%TO.P,U6,19,Q7*%
%TO.N,CA7*%
X59695000Y-88910000D03*
%TO.P,U6,20,VCC*%
%TO.N,VCC*%
X57155000Y-88910000D03*
%TD*%
D12*
%TO.P,C1,1*%
%TO.N,VCC*%
X58500000Y-114300000D03*
%TO.P,C1,2*%
%TO.N,GND*%
X63500000Y-114300000D03*
%TD*%
%TO.P,C2,1*%
%TO.N,VCC*%
X69930000Y-114300000D03*
%TO.P,C2,2*%
%TO.N,GND*%
X74930000Y-114300000D03*
%TD*%
%TO.P,C3,1*%
%TO.N,VCC*%
X81360000Y-114300000D03*
%TO.P,C3,2*%
%TO.N,GND*%
X86360000Y-114300000D03*
%TD*%
%TO.P,C4,1*%
%TO.N,VCC*%
X104220000Y-112395000D03*
%TO.P,C4,2*%
%TO.N,GND*%
X109220000Y-112395000D03*
%TD*%
%TO.P,C5,1*%
%TO.N,VCC*%
X53340000Y-86290000D03*
%TO.P,C5,2*%
%TO.N,GND*%
X53340000Y-81290000D03*
%TD*%
%TO.P,C6,1*%
%TO.N,VCC*%
X48660000Y-89275000D03*
%TO.P,C6,2*%
%TO.N,GND*%
X53660000Y-89275000D03*
%TD*%
%TO.P,C8,1*%
%TO.N,VCC*%
X115570000Y-82550000D03*
%TO.P,C8,2*%
%TO.N,GND*%
X115570000Y-87550000D03*
%TD*%
%TO.P,C9,1*%
%TO.N,VCC*%
X49530000Y-69175000D03*
%TO.P,C9,2*%
%TO.N,GND*%
X49530000Y-64175000D03*
%TD*%
D16*
%TO.P,U8,1,A18*%
%TO.N,CA18*%
X64770000Y-96520000D03*
D17*
%TO.P,U8,2,A16*%
%TO.N,CA16*%
X67310000Y-93980000D03*
%TO.P,U8,3,A15*%
%TO.N,CA15*%
X67310000Y-96520000D03*
%TO.P,U8,4,A12*%
%TO.N,CA12*%
X69850000Y-93980000D03*
%TO.P,U8,5,A7*%
%TO.N,CA7*%
X72390000Y-96520000D03*
%TO.P,U8,6,A6*%
%TO.N,CA6*%
X69850000Y-96520000D03*
%TO.P,U8,7,A5*%
%TO.N,CA5*%
X72390000Y-99060000D03*
%TO.P,U8,8,A4*%
%TO.N,CA4*%
X69850000Y-99060000D03*
%TO.P,U8,9,A3*%
%TO.N,CA3*%
X72390000Y-101600000D03*
%TO.P,U8,10,A2*%
%TO.N,CA2*%
X69850000Y-101600000D03*
%TO.P,U8,11,A1*%
%TO.N,CA1*%
X72390000Y-104140000D03*
%TO.P,U8,12,A0*%
%TO.N,CA0*%
X69850000Y-104140000D03*
%TO.P,U8,13,D0*%
%TO.N,D0*%
X72390000Y-106680000D03*
%TO.P,U8,14,D1*%
%TO.N,D1*%
X69850000Y-109220000D03*
%TO.P,U8,15,D2*%
%TO.N,D2*%
X69850000Y-106680000D03*
%TO.P,U8,16,GND*%
%TO.N,GND*%
X67310000Y-109220000D03*
%TO.P,U8,17,D3*%
%TO.N,D3*%
X67310000Y-106680000D03*
%TO.P,U8,18,D4*%
%TO.N,D4*%
X64770000Y-109220000D03*
%TO.P,U8,19,D5*%
%TO.N,D5*%
X64770000Y-106680000D03*
%TO.P,U8,20,D6*%
%TO.N,D6*%
X62230000Y-109220000D03*
%TO.P,U8,21,D7*%
%TO.N,D7*%
X59690000Y-106680000D03*
%TO.P,U8,22,CE*%
%TO.N,SO2*%
X62230000Y-106680000D03*
%TO.P,U8,23,A10*%
%TO.N,CA10*%
X59690000Y-104140000D03*
%TO.P,U8,24,OE*%
%TO.N,~{RD}*%
X62230000Y-104140000D03*
%TO.P,U8,25,A11*%
%TO.N,CA11*%
X59690000Y-101600000D03*
%TO.P,U8,26,A9*%
%TO.N,CA9*%
X62230000Y-101600000D03*
%TO.P,U8,27,A8*%
%TO.N,CA8*%
X59690000Y-99060000D03*
%TO.P,U8,28,A13*%
%TO.N,CA13*%
X62230000Y-99060000D03*
%TO.P,U8,29,A14*%
%TO.N,CA14*%
X59690000Y-96520000D03*
%TO.P,U8,30,A17*%
%TO.N,CA17*%
X62230000Y-93980000D03*
%TO.P,U8,31,PGM*%
%TO.N,~{WR}*%
X62230000Y-96520000D03*
%TO.P,U8,32,VCC*%
%TO.N,VCC*%
X64770000Y-93980000D03*
%TD*%
D14*
%TO.P,U7,1,Oe1*%
%TO.N,GND*%
X109220000Y-115570000D03*
D13*
%TO.P,U7,2,Oe2*%
X109220000Y-118110000D03*
%TO.P,U7,3,Q0*%
%TO.N,CA16*%
X109220000Y-120650000D03*
%TO.P,U7,4,Q1*%
%TO.N,CA17*%
X109220000Y-123190000D03*
%TO.P,U7,5,Q2*%
%TO.N,CA18*%
X109220000Y-125730000D03*
%TO.P,U7,6,Q3*%
%TO.N,unconnected-(U7-Pad6)*%
X109220000Y-128270000D03*
%TO.P,U7,7,Cp*%
%TO.N,Net-(U7-Pad7)*%
X109220000Y-130810000D03*
%TO.P,U7,8,GND*%
%TO.N,GND*%
X109220000Y-133350000D03*
%TO.P,U7,9,E1*%
X101600000Y-133350000D03*
%TO.P,U7,10,E2*%
X101600000Y-130810000D03*
%TO.P,U7,11,D3*%
X101600000Y-128270000D03*
%TO.P,U7,12,D2*%
%TO.N,D2*%
X101600000Y-125730000D03*
%TO.P,U7,13,D1*%
%TO.N,D1*%
X101600000Y-123190000D03*
%TO.P,U7,14,D0*%
%TO.N,D0*%
X101600000Y-120650000D03*
%TO.P,U7,15,Mr*%
%TO.N,Net-(U2-Pad8)*%
X101600000Y-118110000D03*
%TO.P,U7,16,VCC*%
%TO.N,VCC*%
X101600000Y-115570000D03*
%TD*%
D12*
%TO.P,C7,1*%
%TO.N,VCC*%
X83820000Y-86280000D03*
%TO.P,C7,2*%
%TO.N,GND*%
X83820000Y-81280000D03*
%TD*%
%TO.P,C10,1*%
%TO.N,VCC*%
X92790000Y-112395000D03*
%TO.P,C10,2*%
%TO.N,GND*%
X97790000Y-112395000D03*
%TD*%
D14*
%TO.P,C11,1*%
%TO.N,VCC*%
X118618000Y-93726000D03*
D12*
%TO.P,C11,2*%
%TO.N,GND*%
X116118000Y-93726000D03*
%TD*%
D14*
%TO.P,U9,1,Oe1*%
%TO.N,GND*%
X53730000Y-93075000D03*
D13*
%TO.P,U9,2,Oe2*%
X53730000Y-95615000D03*
%TO.P,U9,3,Q0*%
%TO.N,Net-(R1-Pad1)*%
X53730000Y-98155000D03*
%TO.P,U9,4,Q1*%
%TO.N,Net-(R2-Pad1)*%
X53730000Y-100695000D03*
%TO.P,U9,5,Q2*%
%TO.N,unconnected-(U9-Pad5)*%
X53730000Y-103235000D03*
%TO.P,U9,6,Q3*%
%TO.N,unconnected-(U9-Pad6)*%
X53730000Y-105775000D03*
%TO.P,U9,7,Cp*%
%TO.N,Net-(U9-Pad7)*%
X53730000Y-108315000D03*
%TO.P,U9,8,GND*%
%TO.N,GND*%
X53730000Y-110855000D03*
%TO.P,U9,9,E1*%
X46110000Y-110855000D03*
%TO.P,U9,10,E2*%
X46110000Y-108315000D03*
%TO.P,U9,11,D3*%
%TO.N,D3*%
X46110000Y-105775000D03*
%TO.P,U9,12,D2*%
%TO.N,D2*%
X46110000Y-103235000D03*
%TO.P,U9,13,D1*%
%TO.N,D1*%
X46110000Y-100695000D03*
%TO.P,U9,14,D0*%
%TO.N,D0*%
X46110000Y-98155000D03*
%TO.P,U9,15,Mr*%
%TO.N,~{RES}*%
X46110000Y-95615000D03*
%TO.P,U9,16,VCC*%
%TO.N,VCC*%
X46110000Y-93075000D03*
%TD*%
D18*
%TO.P,U10,1,A18*%
%TO.N,CA18*%
X64398000Y-59147500D03*
D19*
%TO.P,U10,2,A16*%
%TO.N,CA16*%
X66938000Y-59147500D03*
%TO.P,U10,3,A15*%
%TO.N,CA15*%
X69478000Y-59147500D03*
%TO.P,U10,4,A12*%
%TO.N,CA12*%
X72018000Y-59147500D03*
%TO.P,U10,5,A7*%
%TO.N,CA7*%
X74558000Y-59147500D03*
%TO.P,U10,6,A6*%
%TO.N,CA6*%
X77098000Y-59147500D03*
%TO.P,U10,7,A5*%
%TO.N,CA5*%
X79638000Y-59147500D03*
%TO.P,U10,8,A4*%
%TO.N,CA4*%
X82178000Y-59147500D03*
%TO.P,U10,9,A3*%
%TO.N,CA3*%
X84718000Y-59147500D03*
%TO.P,U10,10,A2*%
%TO.N,CA2*%
X87258000Y-59147500D03*
%TO.P,U10,11,A1*%
%TO.N,CA1*%
X89798000Y-59147500D03*
%TO.P,U10,12,A0*%
%TO.N,CA0*%
X92338000Y-59147500D03*
%TO.P,U10,13,D0*%
%TO.N,D0*%
X94878000Y-59147500D03*
%TO.P,U10,14,D1*%
%TO.N,D1*%
X97418000Y-59147500D03*
%TO.P,U10,15,D2*%
%TO.N,D2*%
X99958000Y-59147500D03*
%TO.P,U10,16,GND*%
%TO.N,GND*%
X102498000Y-59147500D03*
%TO.P,U10,17,D3*%
%TO.N,D3*%
X102498000Y-74387500D03*
%TO.P,U10,18,D4*%
%TO.N,D4*%
X99958000Y-74387500D03*
%TO.P,U10,19,D5*%
%TO.N,D5*%
X97418000Y-74387500D03*
%TO.P,U10,20,D6*%
%TO.N,D6*%
X94878000Y-74387500D03*
%TO.P,U10,21,D7*%
%TO.N,D7*%
X92338000Y-74387500D03*
%TO.P,U10,22,CE*%
%TO.N,SO5*%
X89798000Y-74387500D03*
%TO.P,U10,23,A10*%
%TO.N,CA10*%
X87258000Y-74387500D03*
%TO.P,U10,24,OE*%
%TO.N,~{RD}*%
X84718000Y-74387500D03*
%TO.P,U10,25,A11*%
%TO.N,CA11*%
X82178000Y-74387500D03*
%TO.P,U10,26,A9*%
%TO.N,CA9*%
X79638000Y-74387500D03*
%TO.P,U10,27,A8*%
%TO.N,CA8*%
X77098000Y-74387500D03*
%TO.P,U10,28,A13*%
%TO.N,CA13*%
X74558000Y-74387500D03*
%TO.P,U10,29,A14*%
%TO.N,CA14*%
X72018000Y-74387500D03*
%TO.P,U10,30,A17*%
%TO.N,CA17*%
X69478000Y-74387500D03*
%TO.P,U10,31,PGM*%
%TO.N,~{WR}*%
X66938000Y-74387500D03*
%TO.P,U10,32,VCC*%
%TO.N,VCC*%
X64398000Y-74387500D03*
%TD*%
D14*
%TO.P,U11,1,A14*%
%TO.N,CA14*%
X78725000Y-93975000D03*
D13*
%TO.P,U11,2,A12*%
%TO.N,CA12*%
X81265000Y-93975000D03*
%TO.P,U11,3,A7*%
%TO.N,CA7*%
X83805000Y-93975000D03*
%TO.P,U11,4,A6*%
%TO.N,CA6*%
X86345000Y-93975000D03*
%TO.P,U11,5,A5*%
%TO.N,CA5*%
X88885000Y-93975000D03*
%TO.P,U11,6,A4*%
%TO.N,CA4*%
X91425000Y-93975000D03*
%TO.P,U11,7,A3*%
%TO.N,CA3*%
X93965000Y-93975000D03*
%TO.P,U11,8,A2*%
%TO.N,CA2*%
X96505000Y-93975000D03*
%TO.P,U11,9,A1*%
%TO.N,CA1*%
X99045000Y-93975000D03*
%TO.P,U11,10,A0*%
%TO.N,CA0*%
X101585000Y-93975000D03*
%TO.P,U11,11,Q0*%
%TO.N,D0*%
X104125000Y-93975000D03*
%TO.P,U11,12,Q1*%
%TO.N,D1*%
X106665000Y-93975000D03*
%TO.P,U11,13,Q2*%
%TO.N,D2*%
X109205000Y-93975000D03*
%TO.P,U11,14,GND*%
%TO.N,GND*%
X111745000Y-93975000D03*
%TO.P,U11,15,Q3*%
%TO.N,D3*%
X111745000Y-109215000D03*
%TO.P,U11,16,Q4*%
%TO.N,D4*%
X109205000Y-109215000D03*
%TO.P,U11,17,Q5*%
%TO.N,D5*%
X106665000Y-109215000D03*
%TO.P,U11,18,Q6*%
%TO.N,D6*%
X104125000Y-109215000D03*
%TO.P,U11,19,Q7*%
%TO.N,D7*%
X101585000Y-109215000D03*
%TO.P,U11,20,~{CS}*%
%TO.N,SO4*%
X99045000Y-109215000D03*
%TO.P,U11,21,A10*%
%TO.N,CA10*%
X96505000Y-109215000D03*
%TO.P,U11,22,~{OE}*%
%TO.N,~{RD}*%
X93965000Y-109215000D03*
%TO.P,U11,23,A11*%
%TO.N,CA11*%
X91425000Y-109215000D03*
%TO.P,U11,24,A9*%
%TO.N,CA9*%
X88885000Y-109215000D03*
%TO.P,U11,25,A8*%
%TO.N,CA8*%
X86345000Y-109215000D03*
%TO.P,U11,26,A13*%
%TO.N,CA13*%
X83805000Y-109215000D03*
%TO.P,U11,27,~{WE}*%
%TO.N,~{WR}*%
X81265000Y-109215000D03*
%TO.P,U11,28,VCC*%
%TO.N,VCC*%
X78725000Y-109215000D03*
%TD*%
D20*
%TO.N,GND*%
X116205000Y-135255000D03*
%TO.N,VCC*%
X55880000Y-135890000D03*
X118618000Y-101092000D03*
X118110000Y-133350000D03*
%TO.N,D0*%
X59681400Y-93827400D03*
X93647700Y-86266700D03*
X98276000Y-107113500D03*
%TO.N,D2*%
X104385000Y-82649800D03*
X67679400Y-105348200D03*
%TO.N,D4*%
X66543300Y-139227800D03*
%TO.N,D6*%
X95255400Y-101957300D03*
X70999400Y-117648400D03*
X71048500Y-139541400D03*
%TO.N,A0*%
X92666300Y-138596400D03*
%TO.N,A2*%
X91663700Y-138724200D03*
X93531600Y-125338900D03*
%TO.N,A4*%
X91575300Y-139728800D03*
%TO.N,A6*%
X65757300Y-137995600D03*
%TO.N,~{RD}*%
X95287800Y-139713200D03*
X82833400Y-110992100D03*
%TO.N,~{IORQ}*%
X96038500Y-138361300D03*
%TO.N,~{RES}*%
X49186200Y-105691200D03*
X85635900Y-132080000D03*
X72775000Y-120542500D03*
%TO.N,A5*%
X73324700Y-135030300D03*
%TO.N,A1*%
X81888700Y-127751900D03*
%TO.N,D7*%
X92715000Y-101955900D03*
X76390300Y-117496900D03*
X79910000Y-105863100D03*
X70273400Y-118424600D03*
%TO.N,D3*%
X48730200Y-86084000D03*
X74935000Y-85183400D03*
X61036900Y-134689200D03*
%TO.N,D1*%
X72219100Y-111589100D03*
X47988600Y-64245700D03*
X99193100Y-90723500D03*
X50285600Y-84385100D03*
%TO.N,~{WR}*%
X104187300Y-139718000D03*
X58756900Y-112196100D03*
X68864200Y-136743100D03*
%TO.N,CA2*%
X77778000Y-62949000D03*
%TO.N,CA4*%
X77216800Y-98353400D03*
%TO.N,CA1*%
X72678900Y-79881800D03*
X78843700Y-100768800D03*
%TO.N,CA3*%
X78801100Y-98453100D03*
%TO.N,CA0*%
X105583900Y-78451200D03*
X59939700Y-63440600D03*
%TO.N,CA12*%
X65107500Y-77896400D03*
X79855900Y-78482800D03*
%TO.N,CA11*%
X90870800Y-82646900D03*
X79118300Y-76694700D03*
X56936400Y-98908900D03*
X55855700Y-79300700D03*
%TO.N,CA8*%
X85292100Y-78808700D03*
X85021800Y-99171100D03*
%TO.N,CA14*%
X71721400Y-92634900D03*
%TO.N,CA13*%
X96578900Y-79977800D03*
X82925700Y-96253700D03*
X91701000Y-106068300D03*
%TO.N,CA7*%
X82684200Y-85431700D03*
%TO.N,CA6*%
X69263000Y-90473400D03*
%TO.N,CA15*%
X66182300Y-82948500D03*
X63391900Y-79209300D03*
X67189000Y-92253100D03*
X90175000Y-91633900D03*
%TO.N,Net-(U1-Pad4)*%
X76056900Y-106129200D03*
X110495000Y-92186900D03*
%TO.N,Net-(U9-Pad7)*%
X65871200Y-115032100D03*
%TO.N,Net-(U7-Pad7)*%
X91470300Y-132234100D03*
X67708300Y-113749800D03*
X84209100Y-118717400D03*
%TO.N,SO4*%
X94278100Y-111891000D03*
%TO.N,CA17*%
X57097800Y-78581300D03*
X56363100Y-90133500D03*
%TO.N,CA16*%
X85751100Y-87453000D03*
X67251800Y-65277400D03*
X85789300Y-69879600D03*
%TO.N,CA18*%
X58770200Y-95550900D03*
%TO.N,Net-(U3-Pad6)*%
X95467200Y-137200800D03*
X60838800Y-131403300D03*
%TO.N,Net-(U2-Pad4)*%
X83941400Y-121858400D03*
%TD*%
D21*
%TO.N,GND*%
X53340000Y-81290000D02*
X53340000Y-67985000D01*
X55880000Y-123185000D02*
X57006900Y-123185000D01*
X54470600Y-82420600D02*
X54470600Y-88464400D01*
X52202500Y-90420600D02*
X53730000Y-91948100D01*
D22*
X116205000Y-97790000D02*
X116118000Y-97703000D01*
D21*
X59690000Y-129237500D02*
X59690000Y-132080000D01*
X53730000Y-95615000D02*
X53730000Y-93075000D01*
X109220000Y-112395000D02*
X108267500Y-112395000D01*
X72390000Y-133350000D02*
X72395000Y-133345000D01*
X74930000Y-114300000D02*
X73025000Y-114300000D01*
X102002100Y-138662900D02*
X102002100Y-134879000D01*
X94615000Y-113030000D02*
X94615000Y-132715000D01*
X49930000Y-91815000D02*
X49930000Y-110230000D01*
X49930000Y-110230000D02*
X50565000Y-110865000D01*
X84455000Y-114300000D02*
X83185000Y-115570000D01*
X52202500Y-89542500D02*
X49930000Y-91815000D01*
D22*
X116118000Y-97703000D02*
X116118000Y-93726000D01*
D21*
X71755000Y-132715000D02*
X72390000Y-133350000D01*
X60960000Y-114300000D02*
X59690000Y-115570000D01*
D22*
X99302000Y-147828000D02*
X99302000Y-141363000D01*
D21*
X55880000Y-129237500D02*
X55880000Y-128265000D01*
X53340000Y-81290000D02*
X54470600Y-82420600D01*
X86360000Y-114300000D02*
X84455000Y-114300000D01*
X54470600Y-88464400D02*
X53660000Y-89275000D01*
D22*
X106946000Y-137160000D02*
X114300000Y-137160000D01*
D21*
X63500000Y-114300000D02*
X60960000Y-114300000D01*
X50565000Y-110865000D02*
X50575000Y-110855000D01*
X59690000Y-132080000D02*
X60960000Y-133350000D01*
D22*
X103505000Y-137160000D02*
X106946000Y-137160000D01*
D21*
X115570000Y-90150000D02*
X113733900Y-91986100D01*
X59690000Y-115570000D02*
X59690000Y-121915000D01*
X114378100Y-91986100D02*
X116118000Y-93726000D01*
X50575000Y-110855000D02*
X53730000Y-110855000D01*
X46110000Y-108315000D02*
X46110000Y-110855000D01*
X59690000Y-121915000D02*
X58276900Y-121915000D01*
X108267500Y-112395000D02*
X107315000Y-112395000D01*
D22*
X116205000Y-135255000D02*
X116205000Y-97790000D01*
D21*
X109220000Y-115570000D02*
X109220000Y-118110000D01*
X55880000Y-130805000D02*
X55880000Y-129237500D01*
X83185000Y-115570000D02*
X83185000Y-132715000D01*
X115570000Y-87550000D02*
X115570000Y-90150000D01*
X71755000Y-115570000D02*
X71755000Y-132715000D01*
X58276900Y-121915000D02*
X57006900Y-123185000D01*
X101600000Y-133350000D02*
X101600000Y-134476900D01*
X109220000Y-113347500D02*
X109220000Y-115570000D01*
X94615000Y-132715000D02*
X95250000Y-133350000D01*
X59690000Y-121915000D02*
X59690000Y-129237500D01*
X106946000Y-133350000D02*
X109220000Y-133350000D01*
X101600000Y-133350000D02*
X101600000Y-130810000D01*
X55880000Y-123185000D02*
X55880000Y-120645000D01*
X83820000Y-133350000D02*
X86360000Y-133350000D01*
X52470000Y-89275000D02*
X52202500Y-89542500D01*
X101600000Y-130810000D02*
X101600000Y-128270000D01*
X106045000Y-132715000D02*
X106680000Y-133350000D01*
D22*
X111182000Y-147828000D02*
X111182000Y-140278000D01*
D21*
X73025000Y-114300000D02*
X71755000Y-115570000D01*
X107315000Y-112395000D02*
X106045000Y-113665000D01*
X115570000Y-87550000D02*
X115570000Y-87491900D01*
X53660000Y-89275000D02*
X52470000Y-89275000D01*
D22*
X111182000Y-140278000D02*
X114300000Y-137160000D01*
D21*
X53730000Y-93075000D02*
X53730000Y-91948100D01*
X52202500Y-89542500D02*
X52202500Y-90420600D01*
X72390000Y-114300000D02*
X73025000Y-114300000D01*
X106680000Y-133350000D02*
X106946000Y-133350000D01*
X72395000Y-133345000D02*
X74930000Y-133345000D01*
D22*
X114300000Y-137160000D02*
X116205000Y-135255000D01*
X102002100Y-138662900D02*
X103505000Y-137160000D01*
D21*
X106946000Y-137160000D02*
X106946000Y-133350000D01*
X60965000Y-133345000D02*
X63500000Y-133345000D01*
X59690000Y-129237500D02*
X55880000Y-129237500D01*
D22*
X99302000Y-141363000D02*
X102002100Y-138662900D01*
D21*
X60960000Y-133350000D02*
X60965000Y-133345000D01*
X106045000Y-113665000D02*
X106045000Y-132715000D01*
X110495000Y-81290000D02*
X110495000Y-82416900D01*
X53340000Y-67985000D02*
X49530000Y-64175000D01*
X113733900Y-91986100D02*
X111745000Y-93975000D01*
X67310000Y-109220000D02*
X72390000Y-114300000D01*
X73025000Y-114300000D02*
X74930000Y-114300000D01*
X95250000Y-112395000D02*
X94615000Y-113030000D01*
X102002100Y-134879000D02*
X101600000Y-134476900D01*
X83185000Y-132715000D02*
X83820000Y-133350000D01*
X95250000Y-133350000D02*
X97790000Y-133350000D01*
X113733900Y-91986100D02*
X114378100Y-91986100D01*
X97790000Y-112395000D02*
X95250000Y-112395000D01*
X108267500Y-112395000D02*
X109220000Y-113347500D01*
X115570000Y-87491900D02*
X110495000Y-82416900D01*
%TO.N,VCC*%
X48660000Y-92450000D02*
X48025000Y-93085000D01*
X92790000Y-114855000D02*
X92790000Y-112395000D01*
X80142600Y-118110000D02*
X80645000Y-118110000D01*
X78725000Y-111665000D02*
X81360000Y-114300000D01*
X101600000Y-115570000D02*
X103505000Y-115570000D01*
X53340000Y-86290000D02*
X52492500Y-85442500D01*
X48015000Y-93075000D02*
X46110000Y-93075000D01*
X90170000Y-115570000D02*
X92075000Y-115570000D01*
X118618000Y-85598000D02*
X118618000Y-93726000D01*
X67310000Y-118105000D02*
X69220000Y-118105000D01*
D22*
X118110000Y-104775000D02*
X118745000Y-104140000D01*
D21*
X57155000Y-88910000D02*
X57155000Y-90036900D01*
X57790000Y-118105000D02*
X58500000Y-117395000D01*
X57155000Y-90036900D02*
X57719900Y-90601800D01*
X78973500Y-124603100D02*
X78740000Y-124603100D01*
X69220000Y-118105000D02*
X69930000Y-117395000D01*
X103505000Y-115570000D02*
X104220000Y-114855000D01*
X52492500Y-85442500D02*
X48660000Y-89275000D01*
X57719900Y-113519900D02*
X58500000Y-114300000D01*
X48025000Y-93085000D02*
X48015000Y-93075000D01*
X78725000Y-109215000D02*
X78725000Y-111665000D01*
X48660000Y-89275000D02*
X48660000Y-92450000D01*
X55880000Y-118105000D02*
X57790000Y-118105000D01*
X57719900Y-90601800D02*
X57719900Y-113519900D01*
X104220000Y-114855000D02*
X104220000Y-112395000D01*
D22*
X118745000Y-104140000D02*
X118618000Y-104013000D01*
D21*
X52492500Y-85442500D02*
X49530000Y-82480000D01*
X49530000Y-82480000D02*
X49530000Y-69175000D01*
X80142600Y-118110000D02*
X80142600Y-123434000D01*
X58500000Y-117395000D02*
X58500000Y-114300000D01*
X69930000Y-117395000D02*
X69930000Y-114300000D01*
X80645000Y-118110000D02*
X81360000Y-117395000D01*
X115570000Y-82550000D02*
X118618000Y-85598000D01*
D22*
X118618000Y-101092000D02*
X118618000Y-93726000D01*
D21*
X80142600Y-123434000D02*
X78973500Y-124603100D01*
D22*
X55742000Y-147828000D02*
X55742000Y-136028000D01*
D21*
X78740000Y-125730000D02*
X78740000Y-124603100D01*
X78740000Y-118110000D02*
X80142600Y-118110000D01*
D22*
X118110000Y-133350000D02*
X118110000Y-104775000D01*
X55742000Y-136028000D02*
X55880000Y-135890000D01*
X118618000Y-104013000D02*
X118618000Y-101092000D01*
D21*
X92075000Y-115570000D02*
X92790000Y-114855000D01*
X81360000Y-117395000D02*
X81360000Y-114300000D01*
%TO.N,D0*%
X100458100Y-107113500D02*
X98276000Y-107113500D01*
X93831100Y-59147500D02*
X93831100Y-74860400D01*
X93647700Y-83349600D02*
X92715000Y-82416900D01*
X100458100Y-107113500D02*
X100458100Y-118561800D01*
X93647700Y-86266700D02*
X93647700Y-83349600D01*
X59681400Y-93827400D02*
X59681400Y-91459700D01*
X92715000Y-81290000D02*
X92715000Y-82416900D01*
X93831100Y-74860400D02*
X92715000Y-75976500D01*
X101600000Y-120650000D02*
X101600000Y-119523100D01*
X62235000Y-86821900D02*
X62235000Y-81290000D01*
X60965000Y-88091900D02*
X62235000Y-86821900D01*
X92715000Y-75976500D02*
X92715000Y-81290000D01*
X60965000Y-90176100D02*
X60965000Y-88091900D01*
X94878000Y-59147500D02*
X93831100Y-59147500D01*
X104125000Y-103446600D02*
X100458100Y-107113500D01*
X59681400Y-91459700D02*
X60965000Y-90176100D01*
X101419400Y-119523100D02*
X101600000Y-119523100D01*
X100458100Y-118561800D02*
X101419400Y-119523100D01*
X104125000Y-93975000D02*
X104125000Y-103446600D01*
%TO.N,D2*%
X112881500Y-109681200D02*
X112881500Y-108564900D01*
X104696600Y-82961400D02*
X104385000Y-82649800D01*
X106589500Y-68740700D02*
X99958000Y-62109200D01*
X73764200Y-87639600D02*
X73764200Y-94283100D01*
X69986700Y-105498100D02*
X69850000Y-105498100D01*
X101600000Y-125166500D02*
X101600000Y-125190600D01*
X106589500Y-81774200D02*
X106589500Y-68740700D01*
X71120000Y-104364800D02*
X69986700Y-105498100D01*
X72139600Y-102870000D02*
X71120000Y-103889600D01*
X109205000Y-86764100D02*
X109205000Y-93975000D01*
X111356400Y-111206300D02*
X112881500Y-109681200D01*
X109205000Y-104888400D02*
X109205000Y-93975000D01*
X67829300Y-105498100D02*
X67679400Y-105348200D01*
X72395000Y-86270400D02*
X73764200Y-87639600D01*
X69850000Y-105498100D02*
X69850000Y-106680000D01*
X73764200Y-94283100D02*
X73914000Y-94432900D01*
X101881700Y-124603100D02*
X105352900Y-121131900D01*
X101600000Y-124603100D02*
X101881700Y-124603100D01*
X101600000Y-125730000D02*
X101600000Y-125190600D01*
X72617300Y-102870000D02*
X72139600Y-102870000D01*
X69850000Y-105498100D02*
X67829300Y-105498100D01*
X73914000Y-94432900D02*
X73914000Y-101573300D01*
X112881500Y-108564900D02*
X109205000Y-104888400D01*
X105352900Y-121131900D02*
X105352900Y-113686500D01*
X71120000Y-103889600D02*
X71120000Y-104364800D01*
X105402300Y-82961400D02*
X106589500Y-81774200D01*
X105352900Y-113686500D02*
X107833100Y-111206300D01*
X99958000Y-62109200D02*
X99958000Y-59147500D01*
X105402300Y-82961400D02*
X104696600Y-82961400D01*
X73914000Y-101573300D02*
X72617300Y-102870000D01*
X72395000Y-81290000D02*
X72395000Y-86270400D01*
X101600000Y-125166500D02*
X101600000Y-124603100D01*
X105402300Y-82961400D02*
X109205000Y-86764100D01*
X107833100Y-111206300D02*
X111356400Y-111206300D01*
%TO.N,D4*%
X105415000Y-87783100D02*
X101585000Y-83953100D01*
X70077100Y-107950000D02*
X66411200Y-107950000D01*
X71120000Y-106907100D02*
X70077100Y-107950000D01*
X71120000Y-106421400D02*
X71120000Y-106907100D01*
X74935000Y-103117100D02*
X72490100Y-105562000D01*
X109205000Y-108088100D02*
X105415100Y-104298200D01*
X109205000Y-109215000D02*
X109205000Y-108088100D01*
X105415100Y-104298200D02*
X105415100Y-90036900D01*
X101004900Y-75434400D02*
X101004900Y-74387500D01*
X66543300Y-134531000D02*
X66543300Y-139227800D01*
X105415000Y-88910000D02*
X105415000Y-90036900D01*
X101585000Y-83953100D02*
X101585000Y-76014500D01*
X105415100Y-90036900D02*
X105415000Y-90036900D01*
X65666400Y-133654100D02*
X66543300Y-134531000D01*
X71979400Y-105562000D02*
X71120000Y-106421400D01*
X101585000Y-76014500D02*
X101004900Y-75434400D01*
X72490100Y-105562000D02*
X71979400Y-105562000D01*
X65141200Y-109220000D02*
X64770000Y-109220000D01*
X105415000Y-88910000D02*
X105415000Y-87783100D01*
X66411200Y-107950000D02*
X65141200Y-109220000D01*
X65666400Y-121918200D02*
X65666400Y-133654100D01*
X65141200Y-121393000D02*
X65666400Y-121918200D01*
X65141200Y-109220000D02*
X65141200Y-121393000D01*
X99958000Y-74387500D02*
X101004900Y-74387500D01*
X74935000Y-88910000D02*
X74935000Y-103117100D01*
%TO.N,D6*%
X94099600Y-76492800D02*
X94878000Y-75714400D01*
X71048500Y-139541400D02*
X71048500Y-117697500D01*
X95255000Y-101956900D02*
X95255400Y-101957300D01*
X95255000Y-88346500D02*
X95255000Y-88910000D01*
X95255000Y-86810500D02*
X94099600Y-85655100D01*
X95255000Y-88346500D02*
X95255000Y-87783100D01*
X64775000Y-88910000D02*
X64775000Y-90036900D01*
X63500000Y-107269800D02*
X62230000Y-108539800D01*
X63500000Y-91311900D02*
X63500000Y-107269800D01*
X71048500Y-117697500D02*
X70999400Y-117648400D01*
X62230000Y-108539800D02*
X62230000Y-109220000D01*
X64775000Y-90036900D02*
X63500000Y-91311900D01*
X95255000Y-87783100D02*
X95255000Y-86810500D01*
X94878000Y-74387500D02*
X94878000Y-75714400D01*
X95255000Y-88910000D02*
X95255000Y-101956900D01*
X94099600Y-85655100D02*
X94099600Y-76492800D01*
%TO.N,A0*%
X97552400Y-129672200D02*
X98276000Y-129672200D01*
X98916900Y-133867400D02*
X96346200Y-136438100D01*
X96346200Y-136438100D02*
X94824600Y-136438100D01*
X98276000Y-129672200D02*
X98916900Y-130313100D01*
X97508300Y-116696900D02*
X96632800Y-117572400D01*
X97790000Y-115570000D02*
X97790000Y-116696900D01*
X98916900Y-130313100D02*
X98916900Y-133867400D01*
X94824600Y-136438100D02*
X92666300Y-138596400D01*
X96632800Y-117572400D02*
X96632800Y-128752600D01*
X96632800Y-128752600D02*
X97552400Y-129672200D01*
X97790000Y-116696900D02*
X97508300Y-116696900D01*
%TO.N,A2*%
X93531600Y-125338900D02*
X93531600Y-136703200D01*
X93531600Y-136703200D02*
X91663700Y-138571100D01*
X91663700Y-138571100D02*
X91663700Y-138724200D01*
%TO.N,A4*%
X88631200Y-136784700D02*
X91575300Y-139728800D01*
X88536400Y-130428500D02*
X88536400Y-131837100D01*
X87503300Y-124333300D02*
X87503300Y-129395400D01*
X87503300Y-129395400D02*
X88536400Y-130428500D01*
X88536400Y-131837100D02*
X88631200Y-131931900D01*
X86360000Y-123190000D02*
X87503300Y-124333300D01*
X88631200Y-131931900D02*
X88631200Y-136784700D01*
%TO.N,A6*%
X65188400Y-137426700D02*
X65757300Y-137995600D01*
X65188400Y-123178500D02*
X65188400Y-137426700D01*
X63500000Y-121771900D02*
X63781800Y-121771900D01*
X63500000Y-120645000D02*
X63500000Y-121771900D01*
X63781800Y-121771900D02*
X65188400Y-123178500D01*
%TO.N,~{RD}*%
X82393900Y-90767900D02*
X82393900Y-95578000D01*
X93965000Y-109215000D02*
X95091900Y-109215000D01*
X82467600Y-96844700D02*
X82467600Y-110626300D01*
X81939500Y-77166000D02*
X81939500Y-90313500D01*
X99836400Y-112837900D02*
X99836400Y-126483600D01*
X82172300Y-95799600D02*
X82172300Y-96549400D01*
X95937000Y-110341900D02*
X97340400Y-110341900D01*
X95756200Y-139713200D02*
X95287800Y-139713200D01*
X84718000Y-74387500D02*
X81939500Y-77166000D01*
X95091900Y-109215000D02*
X95091900Y-109496800D01*
X97340400Y-110341900D02*
X99836400Y-112837900D01*
X99836400Y-126483600D02*
X100298500Y-126945700D01*
X82467600Y-110626300D02*
X82833400Y-110992100D01*
X82172300Y-96549400D02*
X82467600Y-96844700D01*
X81939500Y-90313500D02*
X82393900Y-90767900D01*
X100298500Y-126945700D02*
X100298500Y-135170900D01*
X95091900Y-109496800D02*
X95937000Y-110341900D01*
X100298500Y-135170900D02*
X95756200Y-139713200D01*
X82393900Y-95578000D02*
X82172300Y-95799600D01*
%TO.N,~{IORQ}*%
X99833700Y-134566100D02*
X99833700Y-128667100D01*
X99833700Y-128667100D02*
X98023500Y-126856900D01*
X98023500Y-126856900D02*
X97790000Y-126856900D01*
X97790000Y-125730000D02*
X97790000Y-126856900D01*
X96038500Y-138361300D02*
X99833700Y-134566100D01*
%TO.N,~{RES}*%
X78740000Y-130810000D02*
X77613100Y-130810000D01*
X72775000Y-127759700D02*
X72775000Y-120542500D01*
X49186200Y-99584600D02*
X46343500Y-96741900D01*
X87603300Y-137519600D02*
X91382000Y-141298300D01*
X91382000Y-147828000D02*
X91382000Y-142501100D01*
X76338100Y-129535000D02*
X74550300Y-129535000D01*
X46110000Y-95615000D02*
X46110000Y-96741900D01*
X74550300Y-129535000D02*
X72775000Y-127759700D01*
X49186200Y-105691200D02*
X49186200Y-99584600D01*
X86733100Y-132080000D02*
X87603300Y-132950200D01*
X85635900Y-132080000D02*
X86733100Y-132080000D01*
X46343500Y-96741900D02*
X46110000Y-96741900D01*
X87603300Y-132950200D02*
X87603300Y-137519600D01*
X77613100Y-130810000D02*
X76338100Y-129535000D01*
X91382000Y-141298300D02*
X91382000Y-142501100D01*
%TO.N,A7*%
X87422000Y-147828000D02*
X87422000Y-138685400D01*
X82681100Y-115422800D02*
X84974700Y-113129200D01*
X86788800Y-113129200D02*
X87486900Y-113827300D01*
X87486900Y-115856200D02*
X86360000Y-116983100D01*
X84974700Y-113129200D02*
X86788800Y-113129200D01*
X86360000Y-118110000D02*
X86360000Y-116983100D01*
X87486900Y-113827300D02*
X87486900Y-115856200D01*
X87422000Y-138685400D02*
X82681100Y-133944500D01*
X82681100Y-133944500D02*
X82681100Y-115422800D01*
%TO.N,A5*%
X80795500Y-142501100D02*
X73324700Y-135030300D01*
X83462000Y-147828000D02*
X83462000Y-142501100D01*
X83462000Y-142501100D02*
X80795500Y-142501100D01*
%TO.N,A1*%
X75542000Y-142501100D02*
X72554800Y-139513900D01*
X75542000Y-147828000D02*
X75542000Y-142501100D01*
X79183000Y-134527900D02*
X81888700Y-131822200D01*
X73684200Y-134281300D02*
X73930800Y-134527900D01*
X72554800Y-134740600D02*
X73014100Y-134281300D01*
X72554800Y-139513900D02*
X72554800Y-134740600D01*
X73014100Y-134281300D02*
X73684200Y-134281300D01*
X73930800Y-134527900D02*
X79183000Y-134527900D01*
X81888700Y-131822200D02*
X81888700Y-127751900D01*
%TO.N,D7*%
X92338000Y-74387500D02*
X92338000Y-75714400D01*
X71582000Y-142501100D02*
X70273400Y-141192500D01*
X70273400Y-141192500D02*
X70273400Y-118424600D01*
X62235000Y-88910000D02*
X62235000Y-90036900D01*
X79910000Y-105863100D02*
X79789000Y-105863100D01*
X60729400Y-105640600D02*
X59690000Y-106680000D01*
X71582000Y-147828000D02*
X71582000Y-142501100D01*
X92715000Y-90036900D02*
X92715000Y-101955900D01*
X77134900Y-108517200D02*
X77134900Y-116752300D01*
X92715000Y-88910000D02*
X92715000Y-87783100D01*
X77134900Y-116752300D02*
X76390300Y-117496900D01*
X79789000Y-105863100D02*
X77134900Y-108517200D01*
X91566500Y-82314600D02*
X91566500Y-76485900D01*
X91566500Y-76485900D02*
X92338000Y-75714400D01*
X92715000Y-87783100D02*
X92715000Y-83463100D01*
X92715000Y-88910000D02*
X92715000Y-90036900D01*
X62235000Y-90036900D02*
X60729400Y-91542500D01*
X92715000Y-83463100D02*
X91566500Y-82314600D01*
X60729400Y-91542500D02*
X60729400Y-105640600D01*
%TO.N,D5*%
X64770000Y-106680000D02*
X63731900Y-107718100D01*
X64686100Y-112035600D02*
X64686100Y-114760300D01*
X71120000Y-101850400D02*
X70273100Y-102697300D01*
X99120200Y-84028300D02*
X99120200Y-76089600D01*
X63129200Y-124455000D02*
X63877300Y-124455000D01*
X102875000Y-87783100D02*
X99120200Y-84028300D01*
X97418000Y-74387500D02*
X98464900Y-74387500D01*
X63877300Y-124455000D02*
X64635300Y-125213000D01*
X73292100Y-90934000D02*
X73292100Y-94592900D01*
X70273100Y-102697300D02*
X68752700Y-102697300D01*
X99120200Y-76089600D02*
X98464900Y-75434300D01*
X72395000Y-90036900D02*
X73292100Y-90934000D01*
X73445500Y-99532700D02*
X72416300Y-100561900D01*
X71120000Y-101357300D02*
X71120000Y-101850400D01*
X72395000Y-88910000D02*
X72395000Y-90036900D01*
X68752700Y-102697300D02*
X64770000Y-106680000D01*
X73445500Y-94746300D02*
X73445500Y-99532700D01*
X67622000Y-147828000D02*
X67622000Y-142501100D01*
X63731900Y-107718100D02*
X63731900Y-111081400D01*
X71915400Y-100561900D02*
X71120000Y-101357300D01*
X62323500Y-117122900D02*
X62323500Y-123649300D01*
X64635300Y-139514400D02*
X67622000Y-142501100D01*
X64686100Y-114760300D02*
X62323500Y-117122900D01*
X62323500Y-123649300D02*
X63129200Y-124455000D01*
X63731900Y-111081400D02*
X64686100Y-112035600D01*
X72416300Y-100561900D02*
X71915400Y-100561900D01*
X102875000Y-88910000D02*
X102875000Y-87783100D01*
X64635300Y-125213000D02*
X64635300Y-139514400D01*
X73292100Y-94592900D02*
X73445500Y-94746300D01*
X98464900Y-75434300D02*
X98464900Y-74387500D01*
%TO.N,D3*%
X45876500Y-104648100D02*
X46110000Y-104648100D01*
X46110000Y-105775000D02*
X46110000Y-104648100D01*
X44478500Y-103250100D02*
X45876500Y-104648100D01*
X61036900Y-134689200D02*
X61036900Y-139876000D01*
X74935000Y-81290000D02*
X74935000Y-82416900D01*
X111745000Y-109215000D02*
X111745000Y-108088100D01*
X61036900Y-139876000D02*
X63662000Y-142501100D01*
X48730200Y-86084000D02*
X44478500Y-90335700D01*
X104288100Y-81290000D02*
X104288100Y-81718800D01*
X102498000Y-74387500D02*
X103544900Y-74387500D01*
X105415000Y-81290000D02*
X105415000Y-80163100D01*
X106785600Y-88514600D02*
X106785600Y-90543100D01*
X108007400Y-91764900D02*
X108007400Y-104350500D01*
X63662000Y-147828000D02*
X63662000Y-142501100D01*
X74935000Y-82416900D02*
X74935000Y-85183400D01*
X44478500Y-90335700D02*
X44478500Y-103250100D01*
X106785600Y-90543100D02*
X108007400Y-91764900D01*
X103658100Y-82348800D02*
X103658100Y-85387100D01*
X103544900Y-74387500D02*
X103544900Y-78293000D01*
X108007400Y-104350500D02*
X111745000Y-108088100D01*
X103658100Y-85387100D02*
X106785600Y-88514600D01*
X104288100Y-81718800D02*
X103658100Y-82348800D01*
X105415000Y-81290000D02*
X104288100Y-81290000D01*
X103544900Y-78293000D02*
X105415000Y-80163100D01*
%TO.N,D1*%
X110371100Y-108580900D02*
X110371100Y-109692700D01*
X45876500Y-99568100D02*
X44957500Y-98649100D01*
X44957500Y-98649100D02*
X44957500Y-91339400D01*
X59702000Y-135559400D02*
X59702000Y-147828000D01*
X47524600Y-124053500D02*
X55546100Y-132075000D01*
X101833500Y-122063100D02*
X101600000Y-122063100D01*
X99193100Y-90723500D02*
X99193100Y-88687800D01*
X46343500Y-101821900D02*
X47524600Y-103003000D01*
X107670900Y-110707400D02*
X104843400Y-113534900D01*
X46110000Y-100695000D02*
X46110000Y-99568100D01*
X97418000Y-59147500D02*
X96371100Y-59147500D01*
X95255000Y-81290000D02*
X95255000Y-79920800D01*
X101600000Y-123190000D02*
X101600000Y-122063100D01*
X50285600Y-84385100D02*
X48403100Y-82502600D01*
X104843400Y-119053200D02*
X101833500Y-122063100D01*
X96371100Y-78804700D02*
X96371100Y-59147500D01*
X44957500Y-91339400D02*
X50285600Y-86011300D01*
X46110000Y-99568100D02*
X45876500Y-99568100D01*
X50285600Y-86011300D02*
X50285600Y-84385100D01*
X46110000Y-100695000D02*
X46110000Y-101821900D01*
X95255000Y-79920800D02*
X96371100Y-78804700D01*
X109356400Y-110707400D02*
X107670900Y-110707400D01*
X72219100Y-111589100D02*
X69850000Y-109220000D01*
X47524600Y-103003000D02*
X47524600Y-124053500D01*
X48403100Y-64660200D02*
X47988600Y-64245700D01*
X106665000Y-93975000D02*
X106665000Y-104874800D01*
X46110000Y-101821900D02*
X46343500Y-101821900D01*
X55546100Y-132075000D02*
X56217600Y-132075000D01*
X106665000Y-104874800D02*
X110371100Y-108580900D01*
X56217600Y-132075000D02*
X59702000Y-135559400D01*
X99193100Y-88687800D02*
X95255000Y-84749700D01*
X104843400Y-113534900D02*
X104843400Y-119053200D01*
X95255000Y-84749700D02*
X95255000Y-81290000D01*
X110371100Y-109692700D02*
X109356400Y-110707400D01*
X48403100Y-82502600D02*
X48403100Y-64660200D01*
%TO.N,Net-(U1-Pad1)*%
X80015000Y-104720200D02*
X76682900Y-108052300D01*
X80015000Y-90036900D02*
X80015000Y-104720200D01*
X76682900Y-115225200D02*
X74930000Y-116978100D01*
X76682900Y-108052300D02*
X76682900Y-115225200D01*
X74930000Y-118105000D02*
X74930000Y-116978100D01*
X80015000Y-88910000D02*
X80015000Y-90036900D01*
%TO.N,~{WR}*%
X61188100Y-95478100D02*
X61188100Y-92379900D01*
X80138100Y-108933300D02*
X80138100Y-109215000D01*
X77597900Y-119623700D02*
X77597900Y-108694400D01*
X104187300Y-139718000D02*
X106970400Y-142501100D01*
X79270900Y-108066100D02*
X80138100Y-108933300D01*
X67310000Y-130241500D02*
X67310000Y-129678100D01*
X107236400Y-147828000D02*
X107236400Y-142501100D01*
X106970400Y-142501100D02*
X107236400Y-142501100D01*
X63495600Y-90072400D02*
X63495600Y-80725300D01*
X67310000Y-130241500D02*
X68864200Y-131795700D01*
X66143000Y-125197200D02*
X67028300Y-124311900D01*
X61187500Y-109765500D02*
X58756900Y-112196100D01*
X74930000Y-122058100D02*
X75163500Y-122058100D01*
X62230000Y-96520000D02*
X61188100Y-95478100D01*
X66938000Y-74387500D02*
X65891100Y-74387500D01*
X67115600Y-129678100D02*
X66143000Y-128705500D01*
X75163500Y-122058100D02*
X77597900Y-119623700D01*
X65891100Y-78329800D02*
X65891100Y-74387500D01*
X66143000Y-128705500D02*
X66143000Y-125197200D01*
X67310000Y-130805000D02*
X67310000Y-130241500D01*
X62230000Y-96520000D02*
X61187500Y-97562500D01*
X74930000Y-123185000D02*
X74930000Y-122058100D01*
X61187500Y-97562500D02*
X61187500Y-109765500D01*
X63495600Y-80725300D02*
X65891100Y-78329800D01*
X67028300Y-124311900D02*
X67310000Y-124311900D01*
X68864200Y-131795700D02*
X68864200Y-136743100D01*
X78226200Y-108066100D02*
X79270900Y-108066100D01*
X77597900Y-108694400D02*
X78226200Y-108066100D01*
X61188100Y-92379900D02*
X63495600Y-90072400D01*
X81265000Y-109215000D02*
X80138100Y-109215000D01*
X67310000Y-129678100D02*
X67115600Y-129678100D01*
X67310000Y-123185000D02*
X67310000Y-124311900D01*
%TO.N,CA2*%
X77778000Y-62949000D02*
X70746600Y-69980400D01*
X69855000Y-81290000D02*
X69855000Y-80163100D01*
X68536100Y-100286100D02*
X69850000Y-101600000D01*
X68536100Y-83735800D02*
X68536100Y-100286100D01*
X70746600Y-79271500D02*
X69855000Y-80163100D01*
X69855000Y-81290000D02*
X69855000Y-82416900D01*
X69855000Y-82416900D02*
X68536100Y-83735800D01*
X70746600Y-69980400D02*
X70746600Y-79271500D01*
%TO.N,CA4*%
X76317900Y-86626000D02*
X77475000Y-87783100D01*
X76317900Y-77087800D02*
X76317900Y-86626000D01*
X77475000Y-88910000D02*
X77475000Y-87783100D01*
X82178000Y-59147500D02*
X82178000Y-68269300D01*
X77109900Y-90402000D02*
X77109900Y-98246500D01*
X77475000Y-88910000D02*
X77475000Y-90036900D01*
X77475000Y-90036900D02*
X77109900Y-90402000D01*
X78527300Y-74878400D02*
X76317900Y-77087800D01*
X78527300Y-71920000D02*
X78527300Y-74878400D01*
X82178000Y-68269300D02*
X78527300Y-71920000D01*
X77109900Y-98246500D02*
X77216800Y-98353400D01*
%TO.N,CA1*%
X88751100Y-58879800D02*
X88751100Y-59147500D01*
X75828000Y-65927000D02*
X80908000Y-60847000D01*
X78843700Y-100768800D02*
X78561500Y-100768800D01*
X76205000Y-88580400D02*
X73665000Y-86040400D01*
X73665000Y-80867900D02*
X72678900Y-79881800D01*
X78561500Y-100768800D02*
X76205000Y-98412300D01*
X80908000Y-60847000D02*
X80908000Y-58640100D01*
X73665000Y-86040400D02*
X73665000Y-80867900D01*
X75828000Y-76732700D02*
X75828000Y-65927000D01*
X80908000Y-58640100D02*
X81737400Y-57810700D01*
X87682000Y-57810700D02*
X88751100Y-58879800D01*
X81737400Y-57810700D02*
X87682000Y-57810700D01*
X72678900Y-79881800D02*
X75828000Y-76732700D01*
X89798000Y-59147500D02*
X88751100Y-59147500D01*
X76205000Y-98412300D02*
X76205000Y-88580400D01*
%TO.N,CA3*%
X80612800Y-77755900D02*
X79554900Y-77755900D01*
X83671100Y-74697600D02*
X80612800Y-77755900D01*
X77475000Y-79835800D02*
X77475000Y-80163100D01*
X84718000Y-59147500D02*
X83671100Y-59147500D01*
X78629400Y-91149900D02*
X78629400Y-83571300D01*
X83671100Y-59147500D02*
X83671100Y-74697600D01*
X77598100Y-97250100D02*
X77598100Y-92181200D01*
X77475000Y-81290000D02*
X77475000Y-82416900D01*
X77475000Y-81290000D02*
X77475000Y-80163100D01*
X77598100Y-92181200D02*
X78629400Y-91149900D01*
X78801100Y-98453100D02*
X77598100Y-97250100D01*
X79554900Y-77755900D02*
X77475000Y-79835800D01*
X78629400Y-83571300D02*
X77475000Y-82416900D01*
%TO.N,CA0*%
X93670900Y-57814600D02*
X92338000Y-59147500D01*
X98688000Y-58642100D02*
X97860500Y-57814600D01*
X105583900Y-78451200D02*
X105583900Y-68599500D01*
X98688000Y-61703600D02*
X98688000Y-58642100D01*
X97860500Y-57814600D02*
X93670900Y-57814600D01*
X59695000Y-81290000D02*
X59695000Y-63685300D01*
X59695000Y-63685300D02*
X59939700Y-63440600D01*
X105583900Y-68599500D02*
X98688000Y-61703600D01*
%TO.N,CA10*%
X96505000Y-108088100D02*
X96505000Y-107856600D01*
X96505000Y-107856600D02*
X102782600Y-101579000D01*
X96505000Y-109215000D02*
X96505000Y-108088100D01*
X102782600Y-92396700D02*
X104072700Y-91106600D01*
X104072700Y-91106600D02*
X104072700Y-87571600D01*
X104072700Y-87571600D02*
X100335000Y-83833900D01*
X102782600Y-101579000D02*
X102782600Y-92396700D01*
X100335000Y-83833900D02*
X100335000Y-81290000D01*
%TO.N,CA12*%
X72018000Y-62569900D02*
X72018000Y-59147500D01*
X63340200Y-71247700D02*
X72018000Y-62569900D01*
X81265000Y-93975000D02*
X81265000Y-92848100D01*
X63340200Y-76129100D02*
X63340200Y-71247700D01*
X81265000Y-92848100D02*
X81265000Y-79891900D01*
X65107500Y-77896400D02*
X63340200Y-76129100D01*
X81265000Y-79891900D02*
X79855900Y-78482800D01*
%TO.N,CA9*%
X92695000Y-107230500D02*
X100428500Y-99497000D01*
X90011900Y-109496700D02*
X90872200Y-110357000D01*
X101462600Y-90320700D02*
X101462600Y-87642200D01*
X88885000Y-109215000D02*
X90011900Y-109215000D01*
X90011900Y-109215000D02*
X90011900Y-109496700D01*
X90872200Y-110357000D02*
X91924000Y-110357000D01*
X100428500Y-99497000D02*
X100428500Y-91354800D01*
X101462600Y-87642200D02*
X97795000Y-83974600D01*
X97795000Y-83974600D02*
X97795000Y-81290000D01*
X91924000Y-110357000D02*
X92695000Y-109586000D01*
X100428500Y-91354800D02*
X101462600Y-90320700D01*
X92695000Y-109586000D02*
X92695000Y-107230500D01*
%TO.N,CA11*%
X91342800Y-83118900D02*
X91342800Y-91658100D01*
X55574300Y-79582100D02*
X55855700Y-79300700D01*
X56936400Y-98908900D02*
X55574300Y-97546800D01*
X81131100Y-74681900D02*
X79118300Y-76694700D01*
X91342800Y-91658100D02*
X90289400Y-92711500D01*
X90289400Y-106952500D02*
X91425000Y-108088100D01*
X82178000Y-74387500D02*
X81131100Y-74387500D01*
X55574300Y-97546800D02*
X55574300Y-79582100D01*
X91425000Y-109215000D02*
X91425000Y-108088100D01*
X90870800Y-82646900D02*
X91342800Y-83118900D01*
X90289400Y-92711500D02*
X90289400Y-106952500D01*
X81131100Y-74387500D02*
X81131100Y-74681900D01*
%TO.N,CA8*%
X85021800Y-106764900D02*
X85021800Y-99171100D01*
X86345000Y-109215000D02*
X86345000Y-108088100D01*
X85021800Y-79079000D02*
X85021800Y-99171100D01*
X85292100Y-78808700D02*
X85021800Y-79079000D01*
X86345000Y-108088100D02*
X85021800Y-106764900D01*
%TO.N,CA14*%
X72018000Y-74387500D02*
X72018000Y-75714400D01*
X72018000Y-75714400D02*
X71264300Y-76468100D01*
X71264300Y-92177800D02*
X71721400Y-92634900D01*
X71264300Y-76468100D02*
X71264300Y-92177800D01*
%TO.N,CA13*%
X82925700Y-107208800D02*
X82925700Y-96253700D01*
X100335000Y-90809100D02*
X100335000Y-90036900D01*
X83805000Y-109215000D02*
X83805000Y-108088100D01*
X83805000Y-108088100D02*
X82925700Y-107208800D01*
X97775000Y-100527900D02*
X97775000Y-93369100D01*
X97775000Y-93369100D02*
X100335000Y-90809100D01*
X100335000Y-88910000D02*
X100335000Y-87970300D01*
X96578900Y-79977800D02*
X96578900Y-84214200D01*
X91701000Y-106068300D02*
X92234600Y-106068300D01*
X96578900Y-84214200D02*
X100335000Y-87970300D01*
X92234600Y-106068300D02*
X97775000Y-100527900D01*
X100335000Y-88910000D02*
X100335000Y-90036900D01*
%TO.N,CA5*%
X79638000Y-59147500D02*
X81436500Y-57349000D01*
X88885000Y-93975000D02*
X88885000Y-92848100D01*
X81436500Y-57349000D02*
X89820500Y-57349000D01*
X71318800Y-97988800D02*
X71318800Y-95534600D01*
X90870600Y-76549300D02*
X88885000Y-78534900D01*
X88885000Y-78534900D02*
X88885000Y-92848100D01*
X71370000Y-93366900D02*
X70321900Y-92318800D01*
X72390000Y-99060000D02*
X71318800Y-97988800D01*
X90870600Y-58399100D02*
X90870600Y-76549300D01*
X70321900Y-92318800D02*
X70321900Y-90503800D01*
X70321900Y-90503800D02*
X69855000Y-90036900D01*
X89820500Y-57349000D02*
X90870600Y-58399100D01*
X71318800Y-95534600D02*
X71370000Y-95483400D01*
X71370000Y-95483400D02*
X71370000Y-93366900D01*
X69855000Y-88910000D02*
X69855000Y-90036900D01*
%TO.N,CA7*%
X60821900Y-86656200D02*
X59695000Y-87783100D01*
X65508700Y-60753400D02*
X60821900Y-65440200D01*
X60821900Y-65440200D02*
X60821900Y-86656200D01*
X82684200Y-87047000D02*
X82684200Y-85431700D01*
X59695000Y-88910000D02*
X59695000Y-87783100D01*
X72425700Y-57794400D02*
X66489800Y-57794400D01*
X83805000Y-93975000D02*
X83805000Y-88167800D01*
X66489800Y-57794400D02*
X65508700Y-58775500D01*
X83805000Y-88167800D02*
X82684200Y-87047000D01*
X73511100Y-59147500D02*
X73511100Y-58879800D01*
X74558000Y-59147500D02*
X73511100Y-59147500D01*
X65508700Y-58775500D02*
X65508700Y-60753400D01*
X73511100Y-58879800D02*
X72425700Y-57794400D01*
%TO.N,CA6*%
X76051100Y-61290600D02*
X76051100Y-59147500D01*
X69263000Y-90473400D02*
X69263000Y-91904500D01*
X70918100Y-94812800D02*
X69850000Y-95880900D01*
X66182000Y-78876500D02*
X68383600Y-76674900D01*
X69850000Y-95880900D02*
X69850000Y-96520000D01*
X77098000Y-59147500D02*
X76051100Y-59147500D01*
X67315000Y-82989300D02*
X66182000Y-81856300D01*
X67315000Y-88910000D02*
X67315000Y-87783100D01*
X69263000Y-91904500D02*
X70918100Y-93559600D01*
X68383600Y-68958100D02*
X76051100Y-61290600D01*
X70918100Y-93559600D02*
X70918100Y-94812800D01*
X66182000Y-81856300D02*
X66182000Y-78876500D01*
X68383600Y-76674900D02*
X68383600Y-68958100D01*
X67315000Y-87783100D02*
X67315000Y-82989300D01*
%TO.N,CA15*%
X62888300Y-78705700D02*
X62888300Y-70668900D01*
X67189000Y-92253100D02*
X66182300Y-91246400D01*
X63391900Y-79209300D02*
X62888300Y-78705700D01*
X66182300Y-91246400D02*
X66182300Y-82948500D01*
X69478000Y-64079200D02*
X69478000Y-59147500D01*
X66252800Y-93189300D02*
X67189000Y-92253100D01*
X66252800Y-95462800D02*
X66252800Y-93189300D01*
X90175000Y-88910000D02*
X90175000Y-91633900D01*
X67310000Y-96520000D02*
X66252800Y-95462800D01*
X62888300Y-70668900D02*
X69478000Y-64079200D01*
%TO.N,Net-(U1-Pad4)*%
X110495000Y-88910000D02*
X110495000Y-92186900D01*
X74648300Y-124598100D02*
X73795000Y-123744800D01*
X73795000Y-117028700D02*
X76056900Y-114766800D01*
X74930000Y-124598100D02*
X74648300Y-124598100D01*
X73795000Y-123744800D02*
X73795000Y-117028700D01*
X76056900Y-114766800D02*
X76056900Y-106129200D01*
X74930000Y-125725000D02*
X74930000Y-124598100D01*
%TO.N,M1*%
X87634100Y-130441600D02*
X87634100Y-131799200D01*
X86589400Y-129396900D02*
X87634100Y-130441600D01*
X86360000Y-128270000D02*
X86360000Y-129396900D01*
X95342000Y-147828000D02*
X95342000Y-142501100D01*
X87634100Y-131799200D02*
X88086000Y-132251100D01*
X86360000Y-129396900D02*
X86589400Y-129396900D01*
X93319700Y-142501100D02*
X95342000Y-142501100D01*
X88086000Y-132251100D02*
X88086000Y-137267400D01*
X88086000Y-137267400D02*
X93319700Y-142501100D01*
%TO.N,Net-(U9-Pad7)*%
X67310000Y-128265000D02*
X67310000Y-127138100D01*
X68456700Y-126273100D02*
X67591700Y-127138100D01*
X65871200Y-115032100D02*
X65729700Y-115173600D01*
X66950800Y-121915000D02*
X67664000Y-121915000D01*
X67591700Y-127138100D02*
X67310000Y-127138100D01*
X68456700Y-122707700D02*
X68456700Y-126273100D01*
X67664000Y-121915000D02*
X68456700Y-122707700D01*
X65729700Y-115173600D02*
X65729700Y-120693900D01*
X65729700Y-120693900D02*
X66950800Y-121915000D01*
%TO.N,Net-(D1-Pad2)*%
X113533000Y-57150000D02*
X113533000Y-63384100D01*
X113533000Y-63384100D02*
X113538000Y-63389100D01*
X113538000Y-64516000D02*
X113538000Y-63389100D01*
%TO.N,Net-(U7-Pad7)*%
X91316200Y-132080000D02*
X89799200Y-132080000D01*
X66183100Y-116592200D02*
X66183100Y-118624700D01*
X88498700Y-129383900D02*
X88498700Y-123701500D01*
X85893200Y-121776900D02*
X84209100Y-120092800D01*
X67708300Y-115067000D02*
X66183100Y-116592200D01*
X84209100Y-120092800D02*
X84209100Y-118717400D01*
X88498700Y-123701500D02*
X86574100Y-121776900D01*
X66183100Y-118624700D02*
X67076500Y-119518100D01*
X89043100Y-131323900D02*
X89043100Y-129928300D01*
X67310000Y-120645000D02*
X67310000Y-119518100D01*
X67076500Y-119518100D02*
X67310000Y-119518100D01*
X86574100Y-121776900D02*
X85893200Y-121776900D01*
X67708300Y-113749800D02*
X67708300Y-115067000D01*
X91470300Y-132234100D02*
X91316200Y-132080000D01*
X89043100Y-129928300D02*
X88498700Y-129383900D01*
X89799200Y-132080000D02*
X89043100Y-131323900D01*
%TO.N,Net-(D2-Pad2)*%
X118110000Y-59939000D02*
X120899000Y-57150000D01*
X118110000Y-64516000D02*
X118110000Y-59939000D01*
%TO.N,Net-(R2-Pad1)*%
X118110000Y-72136000D02*
X102398000Y-56424000D01*
X54951400Y-98580200D02*
X53963500Y-99568100D01*
X64931600Y-56424000D02*
X54951400Y-66404200D01*
X54951400Y-66404200D02*
X54951400Y-98580200D01*
X53963500Y-99568100D02*
X53730000Y-99568100D01*
X102398000Y-56424000D02*
X64931600Y-56424000D01*
X53730000Y-100695000D02*
X53730000Y-99568100D01*
%TO.N,SO5*%
X86478100Y-80302700D02*
X89798000Y-76982800D01*
X87687400Y-92358900D02*
X86478100Y-91149600D01*
X86478100Y-91149600D02*
X86478100Y-80302700D01*
X89798000Y-76982800D02*
X89798000Y-74387500D01*
X89989400Y-129683100D02*
X89043100Y-128736800D01*
X90170000Y-129683100D02*
X89989400Y-129683100D01*
X87687400Y-111725300D02*
X87687400Y-92358900D01*
X89043100Y-113081000D02*
X87687400Y-111725300D01*
X89043100Y-128736800D02*
X89043100Y-113081000D01*
X90170000Y-130810000D02*
X90170000Y-129683100D01*
%TO.N,SO4*%
X94278100Y-111891000D02*
X94278100Y-112500600D01*
X94278100Y-112500600D02*
X93861800Y-112916900D01*
X90170000Y-128270000D02*
X90170000Y-127143100D01*
X93861800Y-123684800D02*
X90403500Y-127143100D01*
X90403500Y-127143100D02*
X90170000Y-127143100D01*
X93861800Y-112916900D02*
X93861800Y-123684800D01*
%TO.N,CA17*%
X57097800Y-79121200D02*
X57097800Y-78581300D01*
X56028100Y-80190900D02*
X57097800Y-79121200D01*
X56028100Y-89798500D02*
X56028100Y-80190900D01*
X56363100Y-90133500D02*
X56028100Y-89798500D01*
%TO.N,CA16*%
X66938000Y-64963600D02*
X66938000Y-59147500D01*
X86033700Y-70124000D02*
X86033700Y-79264900D01*
X85789300Y-69879600D02*
X86033700Y-70124000D01*
X85751100Y-79547500D02*
X85751100Y-87453000D01*
X67251800Y-65277400D02*
X66938000Y-64963600D01*
X86033700Y-79264900D02*
X85751100Y-79547500D01*
%TO.N,CA18*%
X63194400Y-59147500D02*
X58526700Y-63815200D01*
X101228000Y-58641600D02*
X101228000Y-62047500D01*
X64398000Y-59147500D02*
X66659000Y-56886500D01*
X113335500Y-99191000D02*
X113335500Y-120721100D01*
X109453500Y-124603100D02*
X109220000Y-124603100D01*
X101228000Y-62047500D02*
X109081900Y-69901400D01*
X113335500Y-120721100D02*
X109453500Y-124603100D01*
X111622900Y-92123400D02*
X110614500Y-93131800D01*
X99472900Y-56886500D02*
X101228000Y-58641600D01*
X109220000Y-125730000D02*
X109220000Y-124603100D01*
X58526700Y-95307400D02*
X58770200Y-95550900D01*
X109081900Y-85266700D02*
X111622900Y-87807700D01*
X109081900Y-69901400D02*
X109081900Y-85266700D01*
X110614500Y-93131800D02*
X110614500Y-96470000D01*
X64398000Y-59147500D02*
X63194400Y-59147500D01*
X58526700Y-63815200D02*
X58526700Y-95307400D01*
X66659000Y-56886500D02*
X99472900Y-56886500D01*
X111622900Y-87807700D02*
X111622900Y-92123400D01*
X110614500Y-96470000D02*
X113335500Y-99191000D01*
%TO.N,Net-(U3-Pad6)*%
X61437100Y-130805000D02*
X60838800Y-131403300D01*
X98506600Y-129209700D02*
X97790000Y-129209700D01*
X97790000Y-128270000D02*
X97790000Y-129209700D01*
X99378300Y-134097600D02*
X99378300Y-130081400D01*
X63500000Y-130805000D02*
X61437100Y-130805000D01*
X95467200Y-137200800D02*
X96275100Y-137200800D01*
X96275100Y-137200800D02*
X99378300Y-134097600D01*
X99378300Y-130081400D02*
X98506600Y-129209700D01*
%TO.N,Net-(U2-Pad4)*%
X86360000Y-125730000D02*
X86360000Y-124603100D01*
X86078300Y-124603100D02*
X83941400Y-122466200D01*
X86360000Y-124603100D02*
X86078300Y-124603100D01*
X83941400Y-122466200D02*
X83941400Y-121858400D01*
%TD*%
M02*
