M48
; DRILL file {KiCad (6.0.9)} date Wed Aug 23 21:47:31 2023
; FORMAT={-:-/ absolute / inch / decimal}
; #@! TF.CreationDate,2023-08-23T21:47:31+02:00
; #@! TF.GenerationSoftware,Kicad,Pcbnew,(6.0.9)
; #@! TF.FileFunction,Plated,1,4,PTH
FMAT,2
INCH
; #@! TA.AperFunction,Plated,PTH,ViaDrill
T1C0.0157
; #@! TA.AperFunction,Plated,PTH,ComponentDrill
T2C0.0315
; #@! TA.AperFunction,Plated,PTH,ComponentDrill
T3C0.0354
; #@! TA.AperFunction,Plated,PTH,ComponentDrill
T4C0.0394
%
G90
G05
T1
X2.0857Y-5.3201
X2.3Y-5.35
X2.3538Y-3.6212
X2.4Y-5.35
X2.5286Y-4.0125
X2.6531Y-5.3356
X2.7262Y-5.1699
X2.7332Y-5.3509
X2.7557Y-5.0645
X2.7976Y-4.721
X2.9002Y-3.5936
X3.004Y-5.3511
X3.025Y-4.4218
X3.071Y-5.3276
X3.3Y-4.5585
X3.3158Y-5.25
X3.3446Y-3.0304
X3.3755Y-5.3499
X3.3853Y-3.3278
X3.45Y-3.425
X3.461Y-5.3418
X3.5692Y-5.35
X3.9622Y-5.3506
X4.025Y-2.75
X4.3655Y-5.3282
T2
X1.8216Y-3.6378
X1.8216Y-3.7378
X1.8216Y-3.8378
X1.8216Y-3.9378
X1.8216Y-4.0378
X1.8216Y-4.1378
X1.8216Y-4.2378
X1.9248Y-3.5
X1.95Y-2.5266
X1.95Y-2.7234
X2.1Y-3.2004
X2.1Y-3.3972
X2.1216Y-3.5
X2.1216Y-3.6378
X2.1216Y-3.7378
X2.1216Y-3.8378
X2.1216Y-3.9378
X2.1216Y-4.0378
X2.1216Y-4.1378
X2.1216Y-4.2378
X2.2Y-4.6498
X2.2Y-4.7498
X2.2Y-4.8498
X2.2Y-4.9498
X2.2Y-5.0498
X2.2Y-5.1498
X2.2Y-5.2498
X2.2502Y-3.2004
X2.2502Y-3.5004
X2.3031Y-4.5
X2.35Y-3.8
X2.35Y-3.9
X2.35Y-4.0
X2.35Y-4.1
X2.35Y-4.2
X2.3502Y-3.2004
X2.3502Y-3.5004
X2.45Y-3.7
X2.45Y-3.8
X2.45Y-3.9
X2.45Y-4.0
X2.45Y-4.1
X2.45Y-4.2
X2.45Y-4.3
X2.4502Y-3.2004
X2.4502Y-3.5004
X2.5Y-4.5
X2.5Y-4.6498
X2.5Y-4.7498
X2.5Y-4.8498
X2.5Y-4.9498
X2.5Y-5.0498
X2.5Y-5.1498
X2.5Y-5.2498
X2.55Y-3.7
X2.55Y-3.8
X2.55Y-4.2
X2.55Y-4.3
X2.5502Y-3.2004
X2.5502Y-3.5004
X2.65Y-3.7
X2.65Y-3.8
X2.65Y-4.2
X2.65Y-4.3
X2.65Y-4.6498
X2.65Y-4.7498
X2.65Y-4.8498
X2.65Y-4.9498
X2.65Y-5.0498
X2.65Y-5.1498
X2.65Y-5.2498
X2.6502Y-3.2004
X2.6502Y-3.5004
X2.75Y-3.7
X2.75Y-3.8
X2.75Y-3.9
X2.75Y-4.0
X2.75Y-4.1
X2.75Y-4.2
X2.75Y-4.3
X2.7502Y-3.2004
X2.7502Y-3.5004
X2.7531Y-4.5
X2.85Y-3.8
X2.85Y-3.9
X2.85Y-4.0
X2.85Y-4.1
X2.85Y-4.2
X2.8502Y-3.2004
X2.8502Y-3.5004
X2.95Y-4.5
X2.95Y-4.6498
X2.95Y-4.7498
X2.95Y-4.8498
X2.95Y-4.9498
X2.95Y-5.0498
X2.95Y-5.1498
X2.95Y-5.2498
X2.9502Y-3.2004
X2.9502Y-3.5004
X3.0502Y-3.2004
X3.0502Y-3.5004
X3.0994Y-3.6998
X3.0994Y-4.2998
X3.1Y-4.65
X3.1Y-4.75
X3.1Y-4.85
X3.1Y-4.95
X3.1Y-5.05
X3.1Y-5.15
X3.1Y-5.25
X3.1502Y-3.2004
X3.1502Y-3.5004
X3.1994Y-3.6998
X3.1994Y-4.2998
X3.2031Y-4.5
X3.2994Y-3.6998
X3.2994Y-4.2998
X3.3Y-3.2
X3.3Y-3.3969
X3.3994Y-3.6998
X3.3994Y-4.2998
X3.4Y-4.5
X3.4Y-4.65
X3.4Y-4.75
X3.4Y-4.85
X3.4Y-4.95
X3.4Y-5.05
X3.4Y-5.15
X3.4Y-5.25
X3.4502Y-3.2004
X3.4502Y-3.5004
X3.4994Y-3.6998
X3.4994Y-4.2998
X3.55Y-4.55
X3.55Y-4.65
X3.55Y-4.75
X3.55Y-4.85
X3.55Y-4.95
X3.55Y-5.05
X3.55Y-5.15
X3.55Y-5.25
X3.5502Y-3.2004
X3.5502Y-3.5004
X3.5994Y-3.6998
X3.5994Y-4.2998
X3.6502Y-3.2004
X3.6502Y-3.5004
X3.6531Y-4.425
X3.6994Y-3.6998
X3.6994Y-4.2998
X3.7502Y-3.2004
X3.7502Y-3.5004
X3.7994Y-3.6998
X3.7994Y-4.2998
X3.85Y-4.425
X3.85Y-4.55
X3.85Y-4.65
X3.85Y-4.75
X3.85Y-4.85
X3.85Y-4.95
X3.85Y-5.05
X3.85Y-5.15
X3.85Y-5.25
X3.8502Y-3.2004
X3.8502Y-3.5004
X3.8994Y-3.6998
X3.8994Y-4.2998
X3.9502Y-3.2004
X3.9502Y-3.5004
X3.9994Y-3.6998
X3.9994Y-4.2998
X4.0Y-4.55
X4.0Y-4.65
X4.0Y-4.75
X4.0Y-4.85
X4.0Y-4.95
X4.0Y-5.05
X4.0Y-5.15
X4.0Y-5.25
X4.0502Y-3.2004
X4.0502Y-3.5004
X4.0994Y-3.6998
X4.0994Y-4.2998
X4.1031Y-4.425
X4.1502Y-3.2004
X4.1502Y-3.5004
X4.1994Y-3.6998
X4.1994Y-4.2998
X4.2502Y-3.2004
X4.2502Y-3.5004
X4.2994Y-3.6998
X4.2994Y-4.2998
X4.3Y-4.425
X4.3Y-4.55
X4.3Y-4.65
X4.3Y-4.75
X4.3Y-4.85
X4.3Y-4.95
X4.3Y-5.05
X4.3Y-5.15
X4.3Y-5.25
X4.3502Y-3.2004
X4.3502Y-3.5004
X4.3994Y-3.6998
X4.3994Y-4.2998
X4.47Y-2.54
X4.47Y-2.84
X4.55Y-3.25
X4.55Y-3.4469
X4.5716Y-3.69
X4.65Y-2.54
X4.65Y-2.84
X4.67Y-3.69
T3
X4.3698Y-2.25
X4.4698Y-2.25
X4.6598Y-2.25
X4.7598Y-2.25
T4
X2.5354Y-2.3286
X2.5354Y-2.9286
X2.6354Y-2.3286
X2.6354Y-2.9286
X2.7354Y-2.3286
X2.7354Y-2.9286
X2.8354Y-2.3286
X2.8354Y-2.9286
X2.9354Y-2.3286
X2.9354Y-2.9286
X3.0354Y-2.3286
X3.0354Y-2.9286
X3.1354Y-2.3286
X3.1354Y-2.9286
X3.2354Y-2.3286
X3.2354Y-2.9286
X3.3354Y-2.3286
X3.3354Y-2.9286
X3.4354Y-2.3286
X3.4354Y-2.9286
X3.5354Y-2.3286
X3.5354Y-2.9286
X3.6354Y-2.3286
X3.6354Y-2.9286
X3.7354Y-2.3286
X3.7354Y-2.9286
X3.8354Y-2.3286
X3.8354Y-2.9286
X3.9354Y-2.3286
X3.9354Y-2.9286
X4.0354Y-2.3286
X4.0354Y-2.9286
T0
M30
