%TF.GenerationSoftware,KiCad,Pcbnew,(6.0.9)*%
%TF.CreationDate,2023-08-23T21:47:28+02:00*%
%TF.ProjectId,p2000t-slot2-datacartridge,70323030-3074-42d7-936c-6f74322d6461,rev?*%
%TF.SameCoordinates,Original*%
%TF.FileFunction,Profile,NP*%
%FSLAX46Y46*%
G04 Gerber Fmt 4.6, Leading zero omitted, Abs format (unit mm)*
G04 Created by KiCad (PCBNEW (6.0.9)) date 2023-08-23 21:47:28*
%MOMM*%
%LPD*%
G01*
G04 APERTURE LIST*
%TA.AperFunction,Profile*%
%ADD10C,0.050000*%
%TD*%
G04 APERTURE END LIST*
D10*
X115189000Y-142908000D02*
X115528000Y-142908000D01*
X43528000Y-117908000D02*
X43528000Y-122408000D01*
X123528000Y-124408000D02*
G75*
G03*
X123528000Y-133408000I0J-4500000D01*
G01*
X43528000Y-52908000D02*
X43528000Y-67908000D01*
X83528000Y-52908000D02*
X123528000Y-52908000D01*
X43528000Y-142908000D02*
X43528000Y-135908000D01*
X123528000Y-74408000D02*
G75*
G03*
X123528000Y-83408000I0J-4500000D01*
G01*
X123528001Y-92208001D02*
X123528001Y-103608000D01*
X43528000Y-117908000D02*
X43528000Y-83408000D01*
X123528001Y-92208001D02*
X123528000Y-86608000D01*
X123528000Y-83508000D02*
X123528000Y-86608000D01*
X43528000Y-135908000D02*
X43528000Y-133408000D01*
X123528000Y-142908000D02*
X123528000Y-135908000D01*
X123528000Y-72208000D02*
X123528000Y-66608000D01*
X123528000Y-118808000D02*
X123528000Y-109220000D01*
X43528000Y-72408000D02*
X43528000Y-67908000D01*
X51816000Y-142908000D02*
X51528000Y-142908000D01*
X115189000Y-152908000D02*
X51816000Y-152908000D01*
X123528000Y-124408000D02*
X123528000Y-118808000D01*
X123528000Y-83508000D02*
X123528000Y-83408000D01*
X43528000Y-74408000D02*
X43528000Y-72408000D01*
X51816000Y-152908000D02*
X51816000Y-142908000D01*
X43528000Y-124408000D02*
X43528000Y-122908000D01*
X115528000Y-142908000D02*
X123528000Y-142908000D01*
X123528000Y-109220000D02*
X123528001Y-103608000D01*
X123528000Y-74408000D02*
X123528000Y-72208000D01*
X123528000Y-135908000D02*
X123528000Y-133408000D01*
X43528000Y-122908000D02*
X43528000Y-122408000D01*
X43528000Y-83408000D02*
G75*
G03*
X43528000Y-74408000I0J4500000D01*
G01*
X83528000Y-52908000D02*
X43528000Y-52908000D01*
X51528000Y-142908000D02*
X43528000Y-142908000D01*
X115189000Y-152908000D02*
X115189000Y-142908000D01*
X123528000Y-64908000D02*
X123528000Y-52908000D01*
X43528000Y-133408000D02*
G75*
G03*
X43528000Y-124408000I0J4500000D01*
G01*
X123528000Y-64908000D02*
X123528000Y-66608000D01*
M02*
