M48
; DRILL file {KiCad (6.0.9)} date Thu Oct 12 08:19:33 2023
; FORMAT={-:-/ absolute / inch / decimal}
; #@! TF.CreationDate,2023-10-12T08:19:33+02:00
; #@! TF.GenerationSoftware,Kicad,Pcbnew,(6.0.9)
; #@! TF.FileFunction,Plated,1,2,PTH
FMAT,2
INCH
; #@! TA.AperFunction,Plated,PTH,ViaDrill
T1C0.0157
; #@! TA.AperFunction,Plated,PTH,ComponentDrill
T2C0.0315
; #@! TA.AperFunction,Plated,PTH,ComponentDrill
T3C0.0354
; #@! TA.AperFunction,Plated,PTH,ComponentDrill
T4C0.0394
%
G90
G05
T1
X1.8893Y-2.5294
X1.9185Y-3.3891
X1.9365Y-4.1611
X1.9797Y-3.3222
X2.199Y-3.1221
X2.2Y-5.35
X2.219Y-3.5486
X2.2416Y-3.8941
X2.2479Y-3.0938
X2.3133Y-4.4172
X2.3138Y-3.7618
X2.3497Y-3.694
X2.3598Y-2.4977
X2.3952Y-5.1734
X2.403Y-5.3027
X2.4957Y-3.1185
X2.5633Y-3.0668
X2.5889Y-5.4329
X2.5934Y-4.5288
X2.6056Y-3.2657
X2.6198Y-5.4814
X2.6452Y-3.632
X2.6477Y-2.57
X2.6645Y-4.1476
X2.6657Y-4.4783
X2.7112Y-5.3836
X2.7269Y-3.5619
X2.7667Y-4.6624
X2.7953Y-4.6318
X2.7972Y-5.4938
X2.8237Y-3.647
X2.8433Y-4.3933
X2.8614Y-3.145
X2.8652Y-4.7458
X2.8868Y-5.3162
X2.9502Y-3.3537
X2.9944Y-4.1783
X3.0075Y-4.6259
X3.04Y-3.8722
X3.0621Y-2.4783
X3.1024Y-3.8761
X3.1041Y-3.9673
X3.1149Y-3.0195
X3.1439Y-3.0899
X3.1461Y-4.1678
X3.224Y-5.0296
X3.2553Y-3.3635
X3.2612Y-4.3698
X3.2648Y-3.7895
X3.3048Y-4.7976
X3.3153Y-4.6739
X3.3473Y-3.9044
X3.358Y-3.1027
X3.3715Y-5.2
X3.376Y-3.443
X3.3775Y-2.7512
X3.5502Y-3.6076
X3.5776Y-3.2538
X3.6012Y-5.2061
X3.6053Y-5.5011
X3.6088Y-5.4616
X3.6103Y-4.1759
X3.6483Y-5.4566
X3.6502Y-4.014
X3.6823Y-4.9346
X3.6869Y-3.3963
X3.7117Y-4.4052
X3.7502Y-4.0141
X3.7515Y-5.5005
X3.7586Y-5.4016
X3.781Y-5.4473
X3.8023Y-3.1487
X3.8691Y-4.2171
X3.9052Y-3.5718
X4.1019Y-5.5007
X4.1096Y-3.2539
X4.1568Y-3.0886
X4.3502Y-3.6294
X4.575Y-5.325
X4.65Y-5.25
X4.67Y-3.98
T2
X1.8154Y-3.6644
X1.8154Y-3.7644
X1.8154Y-3.8644
X1.8154Y-3.9644
X1.8154Y-4.0644
X1.8154Y-4.1644
X1.8154Y-4.2644
X1.8154Y-4.3644
X1.9157Y-3.5148
X1.95Y-2.5266
X1.95Y-2.7234
X2.1Y-3.2004
X2.1Y-3.3972
X2.1126Y-3.5148
X2.1154Y-3.6644
X2.1154Y-3.7644
X2.1154Y-3.8644
X2.1154Y-3.9644
X2.1154Y-4.0644
X2.1154Y-4.1644
X2.1154Y-4.2644
X2.1154Y-4.3644
X2.2Y-4.6498
X2.2Y-4.7498
X2.2Y-4.8498
X2.2Y-4.9498
X2.2Y-5.0498
X2.2Y-5.1498
X2.2Y-5.2498
X2.2502Y-3.2004
X2.2502Y-3.5004
X2.3031Y-4.5
X2.35Y-3.8
X2.35Y-3.9
X2.35Y-4.0
X2.35Y-4.1
X2.35Y-4.2
X2.3502Y-3.2004
X2.3502Y-3.5004
X2.45Y-3.7
X2.45Y-3.8
X2.45Y-3.9
X2.45Y-4.0
X2.45Y-4.1
X2.45Y-4.2
X2.45Y-4.3
X2.4502Y-3.2004
X2.4502Y-3.5004
X2.5Y-4.5
X2.5Y-4.6498
X2.5Y-4.7498
X2.5Y-4.8498
X2.5Y-4.9498
X2.5Y-5.0498
X2.5Y-5.1498
X2.5Y-5.2498
X2.55Y-3.7
X2.55Y-3.8
X2.55Y-4.2
X2.55Y-4.3
X2.5502Y-3.2004
X2.5502Y-3.5004
X2.65Y-3.7
X2.65Y-3.8
X2.65Y-4.2
X2.65Y-4.3
X2.65Y-4.6498
X2.65Y-4.7498
X2.65Y-4.8498
X2.65Y-4.9498
X2.65Y-5.0498
X2.65Y-5.1498
X2.65Y-5.2498
X2.6502Y-3.2004
X2.6502Y-3.5004
X2.75Y-3.7
X2.75Y-3.8
X2.75Y-3.9
X2.75Y-4.0
X2.75Y-4.1
X2.75Y-4.2
X2.75Y-4.3
X2.7502Y-3.2004
X2.7502Y-3.5004
X2.7531Y-4.5
X2.85Y-3.8
X2.85Y-3.9
X2.85Y-4.0
X2.85Y-4.1
X2.85Y-4.2
X2.8502Y-3.2004
X2.8502Y-3.5004
X2.95Y-4.5
X2.95Y-4.6498
X2.95Y-4.7498
X2.95Y-4.8498
X2.95Y-4.9498
X2.95Y-5.0498
X2.95Y-5.1498
X2.95Y-5.2498
X2.9502Y-3.2004
X2.9502Y-3.5004
X3.0502Y-3.2004
X3.0502Y-3.5004
X3.0994Y-3.6998
X3.0994Y-4.2998
X3.1Y-4.65
X3.1Y-4.75
X3.1Y-4.85
X3.1Y-4.95
X3.1Y-5.05
X3.1Y-5.15
X3.1Y-5.25
X3.1502Y-3.2004
X3.1502Y-3.5004
X3.1994Y-3.6998
X3.1994Y-4.2998
X3.2031Y-4.5
X3.2994Y-3.6998
X3.2994Y-4.2998
X3.3Y-3.2
X3.3Y-3.3969
X3.3994Y-3.6998
X3.3994Y-4.2998
X3.4Y-4.5
X3.4Y-4.65
X3.4Y-4.75
X3.4Y-4.85
X3.4Y-4.95
X3.4Y-5.05
X3.4Y-5.15
X3.4Y-5.25
X3.4502Y-3.2004
X3.4502Y-3.5004
X3.4994Y-3.6998
X3.4994Y-4.2998
X3.55Y-4.55
X3.55Y-4.65
X3.55Y-4.75
X3.55Y-4.85
X3.55Y-4.95
X3.55Y-5.05
X3.55Y-5.15
X3.55Y-5.25
X3.5502Y-3.2004
X3.5502Y-3.5004
X3.5994Y-3.6998
X3.5994Y-4.2998
X3.6502Y-3.2004
X3.6502Y-3.5004
X3.6531Y-4.425
X3.6994Y-3.6998
X3.6994Y-4.2998
X3.7502Y-3.2004
X3.7502Y-3.5004
X3.7994Y-3.6998
X3.7994Y-4.2998
X3.85Y-4.425
X3.85Y-4.55
X3.85Y-4.65
X3.85Y-4.75
X3.85Y-4.85
X3.85Y-4.95
X3.85Y-5.05
X3.85Y-5.15
X3.85Y-5.25
X3.8502Y-3.2004
X3.8502Y-3.5004
X3.8994Y-3.6998
X3.8994Y-4.2998
X3.9502Y-3.2004
X3.9502Y-3.5004
X3.9994Y-3.6998
X3.9994Y-4.2998
X4.0Y-4.55
X4.0Y-4.65
X4.0Y-4.75
X4.0Y-4.85
X4.0Y-4.95
X4.0Y-5.05
X4.0Y-5.15
X4.0Y-5.25
X4.0502Y-3.2004
X4.0502Y-3.5004
X4.0994Y-3.6998
X4.0994Y-4.2998
X4.1031Y-4.425
X4.1502Y-3.2004
X4.1502Y-3.5004
X4.1994Y-3.6998
X4.1994Y-4.2998
X4.2502Y-3.2004
X4.2502Y-3.5004
X4.2994Y-3.6998
X4.2994Y-4.2998
X4.3Y-4.425
X4.3Y-4.55
X4.3Y-4.65
X4.3Y-4.75
X4.3Y-4.85
X4.3Y-4.95
X4.3Y-5.05
X4.3Y-5.15
X4.3Y-5.25
X4.3502Y-3.2004
X4.3502Y-3.5004
X4.3994Y-3.6998
X4.3994Y-4.2998
X4.47Y-2.54
X4.47Y-2.84
X4.55Y-3.25
X4.55Y-3.4469
X4.5716Y-3.69
X4.65Y-2.54
X4.65Y-2.84
X4.67Y-3.69
T3
X4.3698Y-2.25
X4.4698Y-2.25
X4.6598Y-2.25
X4.7598Y-2.25
T4
X2.5354Y-2.3286
X2.5354Y-2.9286
X2.6354Y-2.3286
X2.6354Y-2.9286
X2.7354Y-2.3286
X2.7354Y-2.9286
X2.8354Y-2.3286
X2.8354Y-2.9286
X2.9354Y-2.3286
X2.9354Y-2.9286
X3.0354Y-2.3286
X3.0354Y-2.9286
X3.1354Y-2.3286
X3.1354Y-2.9286
X3.2354Y-2.3286
X3.2354Y-2.9286
X3.3354Y-2.3286
X3.3354Y-2.9286
X3.4354Y-2.3286
X3.4354Y-2.9286
X3.5354Y-2.3286
X3.5354Y-2.9286
X3.6354Y-2.3286
X3.6354Y-2.9286
X3.7354Y-2.3286
X3.7354Y-2.9286
X3.8354Y-2.3286
X3.8354Y-2.9286
X3.9354Y-2.3286
X3.9354Y-2.9286
X4.0354Y-2.3286
X4.0354Y-2.9286
T0
M30
