%TF.GenerationSoftware,KiCad,Pcbnew,(6.0.9)*%
%TF.CreationDate,2023-10-29T11:11:52+01:00*%
%TF.ProjectId,p2000t-slot2-datacartridge,70323030-3074-42d7-936c-6f74322d6461,rev?*%
%TF.SameCoordinates,Original*%
%TF.FileFunction,Soldermask,Bot*%
%TF.FilePolarity,Negative*%
%FSLAX46Y46*%
G04 Gerber Fmt 4.6, Leading zero omitted, Abs format (unit mm)*
G04 Created by KiCad (PCBNEW (6.0.9)) date 2023-10-29 11:11:52*
%MOMM*%
%LPD*%
G01*
G04 APERTURE LIST*
%ADD10C,1.800000*%
%ADD11R,1.800000X1.800000*%
%ADD12O,1.600000X1.600000*%
%ADD13C,1.600000*%
%ADD14R,1.600000X1.600000*%
%ADD15R,2.000000X10.000000*%
%ADD16C,1.422400*%
%ADD17R,1.422400X1.422400*%
%ADD18O,1.440000X2.000000*%
%ADD19R,1.440000X2.000000*%
G04 APERTURE END LIST*
D10*
%TO.C,D2*%
X120899000Y-57150000D03*
D11*
X118359000Y-57150000D03*
%TD*%
D12*
%TO.C,R1*%
X113538000Y-64516000D03*
D13*
X113538000Y-72136000D03*
%TD*%
D10*
%TO.C,D1*%
X113533000Y-57150000D03*
D11*
X110993000Y-57150000D03*
%TD*%
D12*
%TO.C,R2*%
X118110000Y-64516000D03*
D13*
X118110000Y-72136000D03*
%TD*%
D12*
%TO.C,U3*%
X45710000Y-92700000D03*
X45710000Y-95240000D03*
X45710000Y-97780000D03*
X45710000Y-100320000D03*
X45710000Y-102860000D03*
X45710000Y-105400000D03*
X45710000Y-107940000D03*
X45710000Y-110480000D03*
X53330000Y-110480000D03*
X53330000Y-107940000D03*
X53330000Y-105400000D03*
X53330000Y-102860000D03*
X53330000Y-100320000D03*
X53330000Y-97780000D03*
X53330000Y-95240000D03*
D14*
X53330000Y-92700000D03*
%TD*%
D12*
%TO.C,U2*%
X78740000Y-118110000D03*
X78740000Y-120650000D03*
X78740000Y-123190000D03*
X78740000Y-125730000D03*
X78740000Y-128270000D03*
X78740000Y-130810000D03*
X78740000Y-133350000D03*
X86360000Y-133350000D03*
X86360000Y-130810000D03*
X86360000Y-128270000D03*
X86360000Y-125730000D03*
X86360000Y-123190000D03*
X86360000Y-120650000D03*
D14*
X86360000Y-118110000D03*
%TD*%
D12*
%TO.C,U1*%
X67310000Y-118105000D03*
X67310000Y-120645000D03*
X67310000Y-123185000D03*
X67310000Y-125725000D03*
X67310000Y-128265000D03*
X67310000Y-130805000D03*
X67310000Y-133345000D03*
X74930000Y-133345000D03*
X74930000Y-130805000D03*
X74930000Y-128265000D03*
X74930000Y-125725000D03*
X74930000Y-123185000D03*
X74930000Y-120645000D03*
D14*
X74930000Y-118105000D03*
%TD*%
D12*
%TO.C,U4*%
X55880000Y-118105000D03*
X55880000Y-120645000D03*
X55880000Y-123185000D03*
X55880000Y-125725000D03*
X55880000Y-128265000D03*
X55880000Y-130805000D03*
X55880000Y-133345000D03*
X63500000Y-133345000D03*
X63500000Y-130805000D03*
X63500000Y-128265000D03*
X63500000Y-125725000D03*
X63500000Y-123185000D03*
X63500000Y-120645000D03*
D14*
X63500000Y-118105000D03*
%TD*%
D12*
%TO.C,U5*%
X87635000Y-88910000D03*
X90175000Y-88910000D03*
X92715000Y-88910000D03*
X95255000Y-88910000D03*
X97795000Y-88910000D03*
X100335000Y-88910000D03*
X102875000Y-88910000D03*
X105415000Y-88910000D03*
X107955000Y-88910000D03*
X110495000Y-88910000D03*
X110495000Y-81290000D03*
X107955000Y-81290000D03*
X105415000Y-81290000D03*
X102875000Y-81290000D03*
X100335000Y-81290000D03*
X97795000Y-81290000D03*
X95255000Y-81290000D03*
X92715000Y-81290000D03*
X90175000Y-81290000D03*
D14*
X87635000Y-81290000D03*
%TD*%
D15*
%TO.C,J1*%
X111182000Y-147828000D03*
X99302000Y-147828000D03*
X95342000Y-147828000D03*
X91382000Y-147828000D03*
X87422000Y-147828000D03*
X83462000Y-147828000D03*
X79502000Y-147828000D03*
X75542000Y-147828000D03*
X71582000Y-147828000D03*
X67622000Y-147828000D03*
X63662000Y-147828000D03*
X59702000Y-147828000D03*
X55742000Y-147828000D03*
%TD*%
D12*
%TO.C,U6*%
X57155000Y-88910000D03*
X59695000Y-88910000D03*
X62235000Y-88910000D03*
X64775000Y-88910000D03*
X67315000Y-88910000D03*
X69855000Y-88910000D03*
X72395000Y-88910000D03*
X74935000Y-88910000D03*
X77475000Y-88910000D03*
X80015000Y-88910000D03*
X80015000Y-81290000D03*
X77475000Y-81290000D03*
X74935000Y-81290000D03*
X72395000Y-81290000D03*
X69855000Y-81290000D03*
X67315000Y-81290000D03*
X64775000Y-81290000D03*
X62235000Y-81290000D03*
X59695000Y-81290000D03*
D14*
X57155000Y-81290000D03*
%TD*%
D13*
%TO.C,C1*%
X63500000Y-114300000D03*
X58500000Y-114300000D03*
%TD*%
%TO.C,C2*%
X74930000Y-114300000D03*
X69930000Y-114300000D03*
%TD*%
%TO.C,C3*%
X86360000Y-114300000D03*
X81360000Y-114300000D03*
%TD*%
%TO.C,C4*%
X109220000Y-112395000D03*
X104220000Y-112395000D03*
%TD*%
%TO.C,C5*%
X53340000Y-81290000D03*
X53340000Y-86290000D03*
%TD*%
%TO.C,C6*%
X53660000Y-89275000D03*
X48660000Y-89275000D03*
%TD*%
%TO.C,C8*%
X115570000Y-87550000D03*
X115570000Y-82550000D03*
%TD*%
%TO.C,C9*%
X49530000Y-64175000D03*
X49530000Y-69175000D03*
%TD*%
D16*
%TO.C,U8*%
X64770000Y-93980000D03*
X62230000Y-96520000D03*
X62230000Y-93980000D03*
X59690000Y-96520000D03*
X62230000Y-99060000D03*
X59690000Y-99060000D03*
X62230000Y-101600000D03*
X59690000Y-101600000D03*
X62230000Y-104140000D03*
X59690000Y-104140000D03*
X62230000Y-106680000D03*
X59690000Y-106680000D03*
X62230000Y-109220000D03*
X64770000Y-106680000D03*
X64770000Y-109220000D03*
X67310000Y-106680000D03*
X67310000Y-109220000D03*
X69850000Y-106680000D03*
X69850000Y-109220000D03*
X72390000Y-106680000D03*
X69850000Y-104140000D03*
X72390000Y-104140000D03*
X69850000Y-101600000D03*
X72390000Y-101600000D03*
X69850000Y-99060000D03*
X72390000Y-99060000D03*
X69850000Y-96520000D03*
X72390000Y-96520000D03*
X69850000Y-93980000D03*
X67310000Y-96520000D03*
X67310000Y-93980000D03*
D17*
X64770000Y-96520000D03*
%TD*%
D12*
%TO.C,U7*%
X101600000Y-115570000D03*
X101600000Y-118110000D03*
X101600000Y-120650000D03*
X101600000Y-123190000D03*
X101600000Y-125730000D03*
X101600000Y-128270000D03*
X101600000Y-130810000D03*
X101600000Y-133350000D03*
X109220000Y-133350000D03*
X109220000Y-130810000D03*
X109220000Y-128270000D03*
X109220000Y-125730000D03*
X109220000Y-123190000D03*
X109220000Y-120650000D03*
X109220000Y-118110000D03*
D14*
X109220000Y-115570000D03*
%TD*%
D13*
%TO.C,C7*%
X83820000Y-81280000D03*
X83820000Y-86280000D03*
%TD*%
%TO.C,C10*%
X97790000Y-112395000D03*
X92790000Y-112395000D03*
%TD*%
%TO.C,C11*%
X116118000Y-93726000D03*
D14*
X118618000Y-93726000D03*
%TD*%
D12*
%TO.C,U9*%
X90160000Y-115560000D03*
X90160000Y-118100000D03*
X90160000Y-120640000D03*
X90160000Y-123180000D03*
X90160000Y-125720000D03*
X90160000Y-128260000D03*
X90160000Y-130800000D03*
X90160000Y-133340000D03*
X97780000Y-133340000D03*
X97780000Y-130800000D03*
X97780000Y-128260000D03*
X97780000Y-125720000D03*
X97780000Y-123180000D03*
X97780000Y-120640000D03*
X97780000Y-118100000D03*
D14*
X97780000Y-115560000D03*
%TD*%
D18*
%TO.C,U10*%
X64398000Y-74387500D03*
X66938000Y-74387500D03*
X69478000Y-74387500D03*
X72018000Y-74387500D03*
X74558000Y-74387500D03*
X77098000Y-74387500D03*
X79638000Y-74387500D03*
X82178000Y-74387500D03*
X84718000Y-74387500D03*
X87258000Y-74387500D03*
X89798000Y-74387500D03*
X92338000Y-74387500D03*
X94878000Y-74387500D03*
X97418000Y-74387500D03*
X99958000Y-74387500D03*
X102498000Y-74387500D03*
X102498000Y-59147500D03*
X99958000Y-59147500D03*
X97418000Y-59147500D03*
X94878000Y-59147500D03*
X92338000Y-59147500D03*
X89798000Y-59147500D03*
X87258000Y-59147500D03*
X84718000Y-59147500D03*
X82178000Y-59147500D03*
X79638000Y-59147500D03*
X77098000Y-59147500D03*
X74558000Y-59147500D03*
X72018000Y-59147500D03*
X69478000Y-59147500D03*
X66938000Y-59147500D03*
D19*
X64398000Y-59147500D03*
%TD*%
D12*
%TO.C,U11*%
X78725000Y-109215000D03*
X81265000Y-109215000D03*
X83805000Y-109215000D03*
X86345000Y-109215000D03*
X88885000Y-109215000D03*
X91425000Y-109215000D03*
X93965000Y-109215000D03*
X96505000Y-109215000D03*
X99045000Y-109215000D03*
X101585000Y-109215000D03*
X104125000Y-109215000D03*
X106665000Y-109215000D03*
X109205000Y-109215000D03*
X111745000Y-109215000D03*
X111745000Y-93975000D03*
X109205000Y-93975000D03*
X106665000Y-93975000D03*
X104125000Y-93975000D03*
X101585000Y-93975000D03*
X99045000Y-93975000D03*
X96505000Y-93975000D03*
X93965000Y-93975000D03*
X91425000Y-93975000D03*
X88885000Y-93975000D03*
X86345000Y-93975000D03*
X83805000Y-93975000D03*
X81265000Y-93975000D03*
D14*
X78725000Y-93975000D03*
%TD*%
M02*
