%TF.GenerationSoftware,KiCad,Pcbnew,(6.0.9)*%
%TF.CreationDate,2023-08-23T21:47:27+02:00*%
%TF.ProjectId,p2000t-slot2-datacartridge,70323030-3074-42d7-936c-6f74322d6461,rev?*%
%TF.SameCoordinates,Original*%
%TF.FileFunction,Copper,L2,Inr*%
%TF.FilePolarity,Positive*%
%FSLAX46Y46*%
G04 Gerber Fmt 4.6, Leading zero omitted, Abs format (unit mm)*
G04 Created by KiCad (PCBNEW (6.0.9)) date 2023-08-23 21:47:27*
%MOMM*%
%LPD*%
G01*
G04 APERTURE LIST*
%TA.AperFunction,ComponentPad*%
%ADD10O,1.440000X2.000000*%
%TD*%
%TA.AperFunction,ComponentPad*%
%ADD11R,1.440000X2.000000*%
%TD*%
%TA.AperFunction,ComponentPad*%
%ADD12R,1.422400X1.422400*%
%TD*%
%TA.AperFunction,ComponentPad*%
%ADD13C,1.422400*%
%TD*%
%TA.AperFunction,ComponentPad*%
%ADD14R,1.600000X1.600000*%
%TD*%
%TA.AperFunction,ComponentPad*%
%ADD15O,1.600000X1.600000*%
%TD*%
%TA.AperFunction,ComponentPad*%
%ADD16C,1.600000*%
%TD*%
%TA.AperFunction,ComponentPad*%
%ADD17R,1.800000X1.800000*%
%TD*%
%TA.AperFunction,ComponentPad*%
%ADD18C,1.800000*%
%TD*%
%TA.AperFunction,ViaPad*%
%ADD19C,0.800000*%
%TD*%
%TA.AperFunction,Conductor*%
%ADD20C,0.250000*%
%TD*%
G04 APERTURE END LIST*
D10*
%TO.N,VCC*%
%TO.C,U14*%
X64398000Y-74387500D03*
%TO.N,~{WR}*%
X66938000Y-74387500D03*
%TO.N,CA17*%
X69478000Y-74387500D03*
%TO.N,CA14*%
X72018000Y-74387500D03*
%TO.N,CA13*%
X74558000Y-74387500D03*
%TO.N,CA8*%
X77098000Y-74387500D03*
%TO.N,CA9*%
X79638000Y-74387500D03*
%TO.N,CA11*%
X82178000Y-74387500D03*
%TO.N,~{RD}*%
X84718000Y-74387500D03*
%TO.N,CA10*%
X87258000Y-74387500D03*
%TO.N,SO5*%
X89798000Y-74387500D03*
%TO.N,D7*%
X92338000Y-74387500D03*
%TO.N,D6*%
X94878000Y-74387500D03*
%TO.N,D5*%
X97418000Y-74387500D03*
%TO.N,D4*%
X99958000Y-74387500D03*
%TO.N,D3*%
X102498000Y-74387500D03*
%TO.N,GND*%
X102498000Y-59147500D03*
%TO.N,D2*%
X99958000Y-59147500D03*
%TO.N,D1*%
X97418000Y-59147500D03*
%TO.N,D0*%
X94878000Y-59147500D03*
%TO.N,CA0*%
X92338000Y-59147500D03*
%TO.N,CA1*%
X89798000Y-59147500D03*
%TO.N,CA2*%
X87258000Y-59147500D03*
%TO.N,CA3*%
X84718000Y-59147500D03*
%TO.N,CA4*%
X82178000Y-59147500D03*
%TO.N,CA5*%
X79638000Y-59147500D03*
%TO.N,CA6*%
X77098000Y-59147500D03*
%TO.N,CA7*%
X74558000Y-59147500D03*
%TO.N,CA12*%
X72018000Y-59147500D03*
%TO.N,CA15*%
X69478000Y-59147500D03*
%TO.N,CA16*%
X66938000Y-59147500D03*
D11*
%TO.N,CA18*%
X64398000Y-59147500D03*
%TD*%
D12*
%TO.N,CA18*%
%TO.C,U5*%
X64770000Y-96520000D03*
D13*
%TO.N,CA16*%
X67310000Y-93980000D03*
%TO.N,CA15*%
X67310000Y-96520000D03*
%TO.N,CA12*%
X69850000Y-93980000D03*
%TO.N,CA7*%
X72390000Y-96520000D03*
%TO.N,CA6*%
X69850000Y-96520000D03*
%TO.N,CA5*%
X72390000Y-99060000D03*
%TO.N,CA4*%
X69850000Y-99060000D03*
%TO.N,CA3*%
X72390000Y-101600000D03*
%TO.N,CA2*%
X69850000Y-101600000D03*
%TO.N,CA1*%
X72390000Y-104140000D03*
%TO.N,CA0*%
X69850000Y-104140000D03*
%TO.N,D0*%
X72390000Y-106680000D03*
%TO.N,D1*%
X69850000Y-109220000D03*
%TO.N,D2*%
X69850000Y-106680000D03*
%TO.N,GND*%
X67310000Y-109220000D03*
%TO.N,D3*%
X67310000Y-106680000D03*
%TO.N,D4*%
X64770000Y-109220000D03*
%TO.N,D5*%
X64770000Y-106680000D03*
%TO.N,D6*%
X62230000Y-109220000D03*
%TO.N,D7*%
X59690000Y-106680000D03*
%TO.N,SO2*%
X62230000Y-106680000D03*
%TO.N,CA10*%
X59690000Y-104140000D03*
%TO.N,~{RD}*%
X62230000Y-104140000D03*
%TO.N,CA11*%
X59690000Y-101600000D03*
%TO.N,CA9*%
X62230000Y-101600000D03*
%TO.N,CA8*%
X59690000Y-99060000D03*
%TO.N,CA13*%
X62230000Y-99060000D03*
%TO.N,CA14*%
X59690000Y-96520000D03*
%TO.N,CA17*%
X62230000Y-93980000D03*
%TO.N,~{WR}*%
X62230000Y-96520000D03*
%TO.N,VCC*%
X64770000Y-93980000D03*
%TD*%
D14*
%TO.N,Net-(R1-Pad1)*%
%TO.C,U15*%
X53888800Y-92400200D03*
D15*
%TO.N,~{RD}*%
X53888800Y-94940200D03*
%TO.N,SO5*%
X53888800Y-97480200D03*
%TO.N,unconnected-(U15-Pad4)*%
X53888800Y-100020200D03*
%TO.N,VCC*%
X53888800Y-102560200D03*
X53888800Y-105100200D03*
%TO.N,GND*%
X53888800Y-107640200D03*
%TO.N,N/C*%
X46268800Y-107640200D03*
X46268800Y-105100200D03*
X46268800Y-102560200D03*
%TO.N,~{WR}*%
X46268800Y-100020200D03*
%TO.N,SO5*%
X46268800Y-97480200D03*
%TO.N,Net-(R2-Pad1)*%
X46268800Y-94940200D03*
%TO.N,VCC*%
X46268800Y-92400200D03*
%TD*%
%TO.N,Net-(D2-Pad2)*%
%TO.C,R2*%
X118110000Y-64516000D03*
D16*
%TO.N,Net-(R2-Pad1)*%
X118110000Y-72136000D03*
%TD*%
%TO.N,Net-(R1-Pad1)*%
%TO.C,R1*%
X113538000Y-72136000D03*
D15*
%TO.N,Net-(D1-Pad2)*%
X113538000Y-64516000D03*
%TD*%
D17*
%TO.N,GND*%
%TO.C,D2*%
X118359000Y-57150000D03*
D18*
%TO.N,Net-(D2-Pad2)*%
X120899000Y-57150000D03*
%TD*%
D17*
%TO.N,GND*%
%TO.C,D1*%
X110993000Y-57150000D03*
D18*
%TO.N,Net-(D1-Pad2)*%
X113533000Y-57150000D03*
%TD*%
D14*
%TO.N,A0*%
%TO.C,U3*%
X97790000Y-115570000D03*
D15*
%TO.N,A1*%
X97790000Y-118110000D03*
%TO.N,A2*%
X97790000Y-120650000D03*
%TO.N,Net-(U1-Pad6)*%
X97790000Y-123190000D03*
%TO.N,~{IORQ}*%
X97790000Y-125730000D03*
%TO.N,Net-(U3-Pad6)*%
X97790000Y-128270000D03*
%TO.N,unconnected-(U3-Pad7)*%
X97790000Y-130810000D03*
%TO.N,GND*%
X97790000Y-133350000D03*
%TO.N,unconnected-(U3-Pad9)*%
X90170000Y-133350000D03*
%TO.N,SO5*%
X90170000Y-130810000D03*
%TO.N,SO4*%
X90170000Y-128270000D03*
%TO.N,Net-(U3-Pad12)*%
X90170000Y-125730000D03*
%TO.N,SO2*%
X90170000Y-123190000D03*
%TO.N,Net-(U3-Pad14)*%
X90170000Y-120650000D03*
%TO.N,Net-(U3-Pad15)*%
X90170000Y-118110000D03*
%TO.N,VCC*%
X90170000Y-115570000D03*
%TD*%
D14*
%TO.N,A7*%
%TO.C,U1*%
X86360000Y-118110000D03*
D15*
%TO.N,Net-(U1-Pad2)*%
X86360000Y-120650000D03*
%TO.N,A4*%
X86360000Y-123190000D03*
%TO.N,Net-(U1-Pad4)*%
X86360000Y-125730000D03*
%TO.N,M1*%
X86360000Y-128270000D03*
%TO.N,Net-(U1-Pad6)*%
X86360000Y-130810000D03*
%TO.N,GND*%
X86360000Y-133350000D03*
%TO.N,Net-(U1-Pad8)*%
X78740000Y-133350000D03*
%TO.N,~{RES}*%
X78740000Y-130810000D03*
%TO.N,unconnected-(U1-Pad10)*%
X78740000Y-128270000D03*
%TO.N,VCC*%
X78740000Y-125730000D03*
%TO.N,unconnected-(U1-Pad12)*%
X78740000Y-123190000D03*
%TO.N,VCC*%
X78740000Y-120650000D03*
X78740000Y-118110000D03*
%TD*%
D14*
%TO.N,Net-(U6-Pad1)*%
%TO.C,U6*%
X74930000Y-118105000D03*
D15*
%TO.N,Net-(U3-Pad15)*%
X74930000Y-120645000D03*
%TO.N,~{WR}*%
X74930000Y-123185000D03*
%TO.N,Net-(U6-Pad4)*%
X74930000Y-125725000D03*
%TO.N,Net-(U3-Pad14)*%
X74930000Y-128265000D03*
%TO.N,~{WR}*%
X74930000Y-130805000D03*
%TO.N,GND*%
X74930000Y-133345000D03*
%TO.N,VCC*%
X67310000Y-133345000D03*
X67310000Y-130805000D03*
%TO.N,unconnected-(U6-Pad10)*%
X67310000Y-128265000D03*
%TO.N,Net-(U3-Pad12)*%
X67310000Y-125725000D03*
%TO.N,~{WR}*%
X67310000Y-123185000D03*
%TO.N,Net-(U6-Pad13)*%
X67310000Y-120645000D03*
%TO.N,VCC*%
X67310000Y-118105000D03*
%TD*%
D14*
%TO.N,Net-(U1-Pad4)*%
%TO.C,U4*%
X63500000Y-118105000D03*
D15*
%TO.N,A6*%
X63500000Y-120645000D03*
%TO.N,N/C*%
X63500000Y-123185000D03*
%TO.N,A5*%
X63500000Y-125725000D03*
%TO.N,Net-(U1-Pad2)*%
X63500000Y-128265000D03*
%TO.N,Net-(U3-Pad6)*%
X63500000Y-130805000D03*
%TO.N,GND*%
X63500000Y-133345000D03*
%TO.N,unconnected-(U4-Pad8)*%
X55880000Y-133345000D03*
%TO.N,GND*%
X55880000Y-130805000D03*
X55880000Y-128265000D03*
%TO.N,N/C*%
X55880000Y-125725000D03*
%TO.N,GND*%
X55880000Y-123185000D03*
X55880000Y-120645000D03*
%TO.N,VCC*%
X55880000Y-118105000D03*
%TD*%
D14*
%TO.N,~{RES}*%
%TO.C,U8*%
X87635000Y-81290000D03*
D15*
%TO.N,CA8*%
X90175000Y-81290000D03*
%TO.N,D0*%
X92715000Y-81290000D03*
%TO.N,D1*%
X95255000Y-81290000D03*
%TO.N,CA9*%
X97795000Y-81290000D03*
%TO.N,CA10*%
X100335000Y-81290000D03*
%TO.N,D2*%
X102875000Y-81290000D03*
%TO.N,D3*%
X105415000Y-81290000D03*
%TO.N,CA11*%
X107955000Y-81290000D03*
%TO.N,GND*%
X110495000Y-81290000D03*
%TO.N,Net-(U6-Pad4)*%
X110495000Y-88910000D03*
%TO.N,CA12*%
X107955000Y-88910000D03*
%TO.N,D4*%
X105415000Y-88910000D03*
%TO.N,D5*%
X102875000Y-88910000D03*
%TO.N,CA13*%
X100335000Y-88910000D03*
%TO.N,CA14*%
X97795000Y-88910000D03*
%TO.N,D6*%
X95255000Y-88910000D03*
%TO.N,D7*%
X92715000Y-88910000D03*
%TO.N,CA15*%
X90175000Y-88910000D03*
%TO.N,VCC*%
X87635000Y-88910000D03*
%TD*%
D14*
%TO.N,~{RES}*%
%TO.C,U9*%
X57155000Y-81290000D03*
D15*
%TO.N,CA0*%
X59695000Y-81290000D03*
%TO.N,D0*%
X62235000Y-81290000D03*
%TO.N,D1*%
X64775000Y-81290000D03*
%TO.N,CA1*%
X67315000Y-81290000D03*
%TO.N,CA2*%
X69855000Y-81290000D03*
%TO.N,D2*%
X72395000Y-81290000D03*
%TO.N,D3*%
X74935000Y-81290000D03*
%TO.N,CA3*%
X77475000Y-81290000D03*
%TO.N,GND*%
X80015000Y-81290000D03*
%TO.N,Net-(U6-Pad1)*%
X80015000Y-88910000D03*
%TO.N,CA4*%
X77475000Y-88910000D03*
%TO.N,D4*%
X74935000Y-88910000D03*
%TO.N,D5*%
X72395000Y-88910000D03*
%TO.N,CA5*%
X69855000Y-88910000D03*
%TO.N,CA6*%
X67315000Y-88910000D03*
%TO.N,D6*%
X64775000Y-88910000D03*
%TO.N,D7*%
X62235000Y-88910000D03*
%TO.N,CA7*%
X59695000Y-88910000D03*
%TO.N,VCC*%
X57155000Y-88910000D03*
%TD*%
D16*
%TO.N,VCC*%
%TO.C,C1*%
X58500000Y-114300000D03*
%TO.N,GND*%
X63500000Y-114300000D03*
%TD*%
%TO.N,VCC*%
%TO.C,C2*%
X69930000Y-114300000D03*
%TO.N,GND*%
X74930000Y-114300000D03*
%TD*%
%TO.N,VCC*%
%TO.C,C3*%
X81360000Y-114300000D03*
%TO.N,GND*%
X86360000Y-114300000D03*
%TD*%
%TO.N,VCC*%
%TO.C,C4*%
X104220000Y-112395000D03*
%TO.N,GND*%
X109220000Y-112395000D03*
%TD*%
%TO.N,VCC*%
%TO.C,C5*%
X53340000Y-86290000D03*
%TO.N,GND*%
X53340000Y-81290000D03*
%TD*%
%TO.N,GND*%
%TO.C,C6*%
X48888800Y-88900000D03*
%TO.N,VCC*%
X53888800Y-88900000D03*
%TD*%
%TO.N,VCC*%
%TO.C,C8*%
X115570000Y-82550000D03*
%TO.N,GND*%
X115570000Y-87550000D03*
%TD*%
%TO.N,VCC*%
%TO.C,C9*%
X49530000Y-69175000D03*
%TO.N,GND*%
X49530000Y-64175000D03*
%TD*%
D14*
%TO.N,GND*%
%TO.C,U13*%
X109220000Y-115570000D03*
D15*
X109220000Y-118110000D03*
%TO.N,CA16*%
X109220000Y-120650000D03*
%TO.N,CA17*%
X109220000Y-123190000D03*
%TO.N,CA18*%
X109220000Y-125730000D03*
%TO.N,unconnected-(U13-Pad6)*%
X109220000Y-128270000D03*
%TO.N,Net-(U6-Pad13)*%
X109220000Y-130810000D03*
%TO.N,GND*%
X109220000Y-133350000D03*
X101600000Y-133350000D03*
X101600000Y-130810000D03*
X101600000Y-128270000D03*
%TO.N,D2*%
X101600000Y-125730000D03*
%TO.N,D1*%
X101600000Y-123190000D03*
%TO.N,D0*%
X101600000Y-120650000D03*
%TO.N,Net-(U1-Pad8)*%
X101600000Y-118110000D03*
%TO.N,VCC*%
X101600000Y-115570000D03*
%TD*%
D16*
%TO.N,VCC*%
%TO.C,C7*%
X83820000Y-86280000D03*
%TO.N,GND*%
X83820000Y-81280000D03*
%TD*%
%TO.N,VCC*%
%TO.C,C10*%
X97790000Y-112395000D03*
%TO.N,GND*%
X92790000Y-112395000D03*
%TD*%
D14*
%TO.N,VCC*%
%TO.C,C11*%
X118618000Y-93726000D03*
D16*
%TO.N,GND*%
X116118000Y-93726000D03*
%TD*%
D14*
%TO.N,CA14*%
%TO.C,U11*%
X78725000Y-93975000D03*
D15*
%TO.N,CA12*%
X81265000Y-93975000D03*
%TO.N,CA7*%
X83805000Y-93975000D03*
%TO.N,CA6*%
X86345000Y-93975000D03*
%TO.N,CA5*%
X88885000Y-93975000D03*
%TO.N,CA4*%
X91425000Y-93975000D03*
%TO.N,CA3*%
X93965000Y-93975000D03*
%TO.N,CA2*%
X96505000Y-93975000D03*
%TO.N,CA1*%
X99045000Y-93975000D03*
%TO.N,CA0*%
X101585000Y-93975000D03*
%TO.N,D0*%
X104125000Y-93975000D03*
%TO.N,D1*%
X106665000Y-93975000D03*
%TO.N,D2*%
X109205000Y-93975000D03*
%TO.N,GND*%
X111745000Y-93975000D03*
%TO.N,D3*%
X111745000Y-109215000D03*
%TO.N,D4*%
X109205000Y-109215000D03*
%TO.N,D5*%
X106665000Y-109215000D03*
%TO.N,D6*%
X104125000Y-109215000D03*
%TO.N,D7*%
X101585000Y-109215000D03*
%TO.N,SO4*%
X99045000Y-109215000D03*
%TO.N,CA10*%
X96505000Y-109215000D03*
%TO.N,~{RD}*%
X93965000Y-109215000D03*
%TO.N,CA11*%
X91425000Y-109215000D03*
%TO.N,CA9*%
X88885000Y-109215000D03*
%TO.N,CA8*%
X86345000Y-109215000D03*
%TO.N,CA13*%
X83805000Y-109215000D03*
%TO.N,~{WR}*%
X81265000Y-109215000D03*
%TO.N,VCC*%
X78725000Y-109215000D03*
%TD*%
D19*
%TO.N,VCC*%
X87630000Y-86995000D03*
%TO.N,GND*%
X78002666Y-135320765D03*
X84220900Y-133350000D03*
X90657500Y-135890000D03*
X102235000Y-69850000D03*
X84952801Y-76972199D03*
%TO.N,VCC*%
X59786849Y-91978151D03*
X76835000Y-112313700D03*
X83820000Y-115785300D03*
%TO.N,GND*%
X58420000Y-135890000D03*
X60960000Y-135890000D03*
%TO.N,SO5*%
X85987700Y-84526900D03*
%TO.N,CA1*%
X73665000Y-91278400D03*
%TO.N,~{WR}*%
X100638800Y-135905100D03*
%TO.N,D1*%
X64226300Y-101917200D03*
%TO.N,D5*%
X67389100Y-135524300D03*
%TO.N,D7*%
X71059100Y-119913400D03*
%TO.N,A5*%
X76300700Y-135918200D03*
%TO.N,~{RES}*%
X87909100Y-135682600D03*
%TO.N,A6*%
X85737100Y-135888300D03*
%TO.N,D4*%
X69423400Y-135912600D03*
%TO.N,D2*%
X69995600Y-128638700D03*
%TO.N,D0*%
X69245700Y-131315200D03*
%TO.N,VCC*%
X52975800Y-135131700D03*
%TO.N,GND*%
X110883200Y-135337500D03*
%TD*%
D20*
%TO.N,Net-(U6-Pad13)*%
X65589700Y-120645000D02*
X67310000Y-120645000D01*
X64456500Y-119511800D02*
X65589700Y-120645000D01*
X62979400Y-119511800D02*
X64456500Y-119511800D01*
X61400600Y-121090600D02*
X62979400Y-119511800D01*
X61400600Y-133580700D02*
X61400600Y-121090600D01*
X64929000Y-137109100D02*
X61400600Y-133580700D01*
X101795600Y-137109100D02*
X64929000Y-137109100D01*
X108094700Y-130810000D02*
X101795600Y-137109100D01*
X109220000Y-130810000D02*
X108094700Y-130810000D01*
%TO.N,Net-(U3-Pad12)*%
X87919400Y-126855300D02*
X89044700Y-125730000D01*
X69565600Y-126855300D02*
X87919400Y-126855300D01*
X68435300Y-125725000D02*
X69565600Y-126855300D01*
X67310000Y-125725000D02*
X68435300Y-125725000D01*
X90170000Y-125730000D02*
X89044700Y-125730000D01*
%TO.N,Net-(U3-Pad6)*%
X63500000Y-130805000D02*
X64625300Y-130805000D01*
X97790000Y-128270000D02*
X96664700Y-128270000D01*
X66011600Y-129418700D02*
X64625300Y-130805000D01*
X66011600Y-129418600D02*
X66011600Y-129418700D01*
X95516100Y-129418600D02*
X66011600Y-129418600D01*
X96664700Y-128270000D02*
X95516100Y-129418600D01*
%TO.N,CA16*%
X68580000Y-95250000D02*
X67310000Y-93980000D01*
X70061900Y-95250000D02*
X68580000Y-95250000D01*
X71120000Y-96308100D02*
X70061900Y-95250000D01*
X71120000Y-96729200D02*
X71120000Y-96308100D01*
X71947300Y-97556500D02*
X71120000Y-96729200D01*
X89042800Y-97556500D02*
X71947300Y-97556500D01*
X100315000Y-108828700D02*
X89042800Y-97556500D01*
X100315000Y-110852900D02*
X100315000Y-108828700D01*
X108986800Y-119524700D02*
X100315000Y-110852900D01*
X109220000Y-119524700D02*
X108986800Y-119524700D01*
X109220000Y-120650000D02*
X109220000Y-119524700D01*
%TO.N,CA17*%
X63283100Y-95033100D02*
X62230000Y-93980000D01*
X65171000Y-95033100D02*
X63283100Y-95033100D01*
X65880700Y-95742800D02*
X65171000Y-95033100D01*
X65880700Y-96569700D02*
X65880700Y-95742800D01*
X67334500Y-98023500D02*
X65880700Y-96569700D01*
X86942600Y-98023500D02*
X67334500Y-98023500D01*
X97775000Y-108855900D02*
X86942600Y-98023500D01*
X97775000Y-110133100D02*
X97775000Y-108855900D01*
X108094700Y-120452800D02*
X97775000Y-110133100D01*
X108094700Y-121220800D02*
X108094700Y-120452800D01*
X108938600Y-122064700D02*
X108094700Y-121220800D01*
X109220000Y-122064700D02*
X108938600Y-122064700D01*
X109220000Y-123190000D02*
X109220000Y-122064700D01*
%TO.N,SO2*%
X89888600Y-122064700D02*
X90170000Y-122064700D01*
X89044700Y-121220800D02*
X89888600Y-122064700D01*
X89044700Y-118667100D02*
X89044700Y-121220800D01*
X86887400Y-116509800D02*
X89044700Y-118667100D01*
X79042900Y-116509800D02*
X86887400Y-116509800D01*
X70483100Y-107950000D02*
X79042900Y-116509800D01*
X63500000Y-107950000D02*
X70483100Y-107950000D01*
X62230000Y-106680000D02*
X63500000Y-107950000D01*
X90170000Y-123190000D02*
X90170000Y-122064700D01*
%TO.N,SO5*%
X53888800Y-97480200D02*
X53888800Y-96917500D01*
X53888800Y-96917500D02*
X53888800Y-96354900D01*
X47956800Y-96917500D02*
X47394100Y-97480200D01*
X53888800Y-96917500D02*
X47956800Y-96917500D01*
X46268800Y-97480200D02*
X47394100Y-97480200D01*
X62460600Y-84526900D02*
X85987700Y-84526900D01*
X58425000Y-88562500D02*
X62460600Y-84526900D01*
X58425000Y-92100000D02*
X58425000Y-88562500D01*
X54170100Y-96354900D02*
X58425000Y-92100000D01*
X53888800Y-96354900D02*
X54170100Y-96354900D01*
%TO.N,Net-(R2-Pad1)*%
X46550100Y-93814900D02*
X46268800Y-93814900D01*
X50173600Y-90191400D02*
X46550100Y-93814900D01*
X50173600Y-86767300D02*
X50173600Y-90191400D01*
X54563600Y-82377300D02*
X50173600Y-86767300D01*
X54563600Y-81128800D02*
X54563600Y-82377300D01*
X70814600Y-64877800D02*
X54563600Y-81128800D01*
X78207600Y-64877800D02*
X70814600Y-64877800D01*
X83448000Y-59637400D02*
X78207600Y-64877800D01*
X83448000Y-58642000D02*
X83448000Y-59637400D01*
X84736300Y-57353700D02*
X83448000Y-58642000D01*
X103327700Y-57353700D02*
X84736300Y-57353700D01*
X118110000Y-72136000D02*
X103327700Y-57353700D01*
X46268800Y-94940200D02*
X46268800Y-93814900D01*
%TO.N,Net-(R1-Pad1)*%
X53888800Y-92400200D02*
X53888800Y-91274900D01*
X101228000Y-59826000D02*
X113538000Y-72136000D01*
X101228000Y-58651800D02*
X101228000Y-59826000D01*
X100387300Y-57811100D02*
X101228000Y-58651800D01*
X86832500Y-57811100D02*
X100387300Y-57811100D01*
X86147300Y-58496300D02*
X86832500Y-57811100D01*
X86147300Y-59480800D02*
X86147300Y-58496300D01*
X73988500Y-71639600D02*
X86147300Y-59480800D01*
X64689700Y-71639600D02*
X73988500Y-71639600D01*
X55014100Y-81315200D02*
X64689700Y-71639600D01*
X55014100Y-90149600D02*
X55014100Y-81315200D01*
X53888800Y-91274900D02*
X55014100Y-90149600D01*
%TO.N,Net-(U1-Pad8)*%
X80990600Y-132224700D02*
X79865300Y-133350000D01*
X94427500Y-132224700D02*
X80990600Y-132224700D01*
X97008500Y-129643700D02*
X94427500Y-132224700D01*
X98571800Y-129643700D02*
X97008500Y-129643700D01*
X101141600Y-127073900D02*
X98571800Y-129643700D01*
X101878000Y-127073900D02*
X101141600Y-127073900D01*
X102728200Y-126223700D02*
X101878000Y-127073900D01*
X102728200Y-120082200D02*
X102728200Y-126223700D01*
X101881300Y-119235300D02*
X102728200Y-120082200D01*
X101600000Y-119235300D02*
X101881300Y-119235300D01*
X101600000Y-118110000D02*
X101600000Y-119235300D01*
X78740000Y-133350000D02*
X79865300Y-133350000D01*
%TO.N,Net-(U1-Pad2)*%
X81429700Y-124455000D02*
X85234700Y-120650000D01*
X66979800Y-124455000D02*
X81429700Y-124455000D01*
X63500000Y-127934800D02*
X66979800Y-124455000D01*
X63500000Y-128265000D02*
X63500000Y-127934800D01*
X86360000Y-120650000D02*
X85234700Y-120650000D01*
%TO.N,Net-(U1-Pad4)*%
X86641400Y-124604700D02*
X86360000Y-124604700D01*
X87485300Y-123760800D02*
X86641400Y-124604700D01*
X87485300Y-120110400D02*
X87485300Y-123760800D01*
X86874600Y-119499700D02*
X87485300Y-120110400D01*
X73078100Y-119499700D02*
X86874600Y-119499700D01*
X71922800Y-120655000D02*
X73078100Y-119499700D01*
X70215000Y-120655000D02*
X71922800Y-120655000D01*
X68790300Y-119230300D02*
X70215000Y-120655000D01*
X65750600Y-119230300D02*
X68790300Y-119230300D01*
X64625300Y-118105000D02*
X65750600Y-119230300D01*
X63500000Y-118105000D02*
X64625300Y-118105000D01*
X86360000Y-125730000D02*
X86360000Y-124604700D01*
%TO.N,CA7*%
X83805000Y-93975000D02*
X82679700Y-93975000D01*
X59695000Y-88910000D02*
X60820300Y-88910000D01*
X72777000Y-96133000D02*
X72390000Y-96520000D01*
X72777000Y-96132900D02*
X72777000Y-96133000D01*
X80700900Y-96132900D02*
X72777000Y-96132900D01*
X82679700Y-94154100D02*
X80700900Y-96132900D01*
X82679700Y-93975000D02*
X82679700Y-94154100D01*
X82679700Y-93755600D02*
X82679700Y-93975000D01*
X80966900Y-92042800D02*
X82679700Y-93755600D01*
X63671800Y-92042800D02*
X80966900Y-92042800D01*
X60820300Y-89191300D02*
X63671800Y-92042800D01*
X60820300Y-88910000D02*
X60820300Y-89191300D01*
%TO.N,CA5*%
X70980300Y-89191300D02*
X70980300Y-88910000D01*
X72339300Y-90550300D02*
X70980300Y-89191300D01*
X84616300Y-90550300D02*
X72339300Y-90550300D01*
X87759700Y-93693700D02*
X84616300Y-90550300D01*
X87759700Y-93975000D02*
X87759700Y-93693700D01*
X88885000Y-93975000D02*
X87759700Y-93975000D01*
X69855000Y-88910000D02*
X70980300Y-88910000D01*
%TO.N,CA14*%
X59690000Y-95027400D02*
X59690000Y-96520000D01*
X61775100Y-92942300D02*
X59690000Y-95027400D01*
X76567000Y-92942300D02*
X61775100Y-92942300D01*
X77599700Y-93975000D02*
X76567000Y-92942300D01*
X78725000Y-93975000D02*
X77599700Y-93975000D01*
%TO.N,CA8*%
X78143300Y-74681500D02*
X78143300Y-74387500D01*
X80077900Y-76616100D02*
X78143300Y-74681500D01*
X81981000Y-76616100D02*
X80077900Y-76616100D01*
X85529600Y-80164700D02*
X81981000Y-76616100D01*
X88627800Y-80164700D02*
X85529600Y-80164700D01*
X89049700Y-80586600D02*
X88627800Y-80164700D01*
X89049700Y-81290000D02*
X89049700Y-80586600D01*
X90175000Y-81290000D02*
X89049700Y-81290000D01*
X77098000Y-74387500D02*
X78143300Y-74387500D01*
X60960000Y-100330000D02*
X59690000Y-99060000D01*
X76616000Y-100330000D02*
X60960000Y-100330000D01*
X85219700Y-108933700D02*
X76616000Y-100330000D01*
X85219700Y-109215000D02*
X85219700Y-108933700D01*
X86345000Y-109215000D02*
X85219700Y-109215000D01*
%TO.N,CA11*%
X91425000Y-109215000D02*
X90299700Y-109215000D01*
X61193400Y-103103400D02*
X59690000Y-101600000D01*
X74259700Y-103103400D02*
X61193400Y-103103400D01*
X79995000Y-108838700D02*
X74259700Y-103103400D01*
X79995000Y-109564200D02*
X79995000Y-108838700D01*
X81223600Y-110792800D02*
X79995000Y-109564200D01*
X89003200Y-110792800D02*
X81223600Y-110792800D01*
X90299700Y-109496300D02*
X89003200Y-110792800D01*
X90299700Y-109215000D02*
X90299700Y-109496300D01*
X106829700Y-80485700D02*
X106829700Y-81290000D01*
X101228000Y-74884000D02*
X106829700Y-80485700D01*
X101228000Y-73868100D02*
X101228000Y-74884000D01*
X100422000Y-73062100D02*
X101228000Y-73868100D01*
X84254700Y-73062100D02*
X100422000Y-73062100D01*
X83223300Y-74093500D02*
X84254700Y-73062100D01*
X83223300Y-74387500D02*
X83223300Y-74093500D01*
X82178000Y-74387500D02*
X83223300Y-74387500D01*
X107955000Y-81290000D02*
X106829700Y-81290000D01*
%TO.N,CA9*%
X97795000Y-81290000D02*
X96669700Y-81290000D01*
X79638000Y-74387500D02*
X80683300Y-74387500D01*
X80683300Y-74681500D02*
X80683300Y-74387500D01*
X85077400Y-79075600D02*
X80683300Y-74681500D01*
X94693800Y-79075600D02*
X85077400Y-79075600D01*
X96669700Y-81051500D02*
X94693800Y-79075600D01*
X96669700Y-81290000D02*
X96669700Y-81051500D01*
X63283000Y-102653000D02*
X62230000Y-101600000D01*
X76306500Y-102653000D02*
X63283000Y-102653000D01*
X82535000Y-108881500D02*
X76306500Y-102653000D01*
X82535000Y-109542500D02*
X82535000Y-108881500D01*
X83332900Y-110340400D02*
X82535000Y-109542500D01*
X86915600Y-110340400D02*
X83332900Y-110340400D01*
X87759700Y-109496300D02*
X86915600Y-110340400D01*
X87759700Y-109215000D02*
X87759700Y-109496300D01*
X88885000Y-109215000D02*
X87759700Y-109215000D01*
%TO.N,CA12*%
X81265000Y-93975000D02*
X80139700Y-93975000D01*
X70970400Y-95100400D02*
X69850000Y-93980000D01*
X79717600Y-95100400D02*
X70970400Y-95100400D01*
X80139700Y-94678300D02*
X79717600Y-95100400D01*
X80139700Y-93975000D02*
X80139700Y-94678300D01*
%TO.N,CA10*%
X88303300Y-74681500D02*
X88303300Y-74387500D01*
X90643900Y-77022100D02*
X88303300Y-74681500D01*
X95223100Y-77022100D02*
X90643900Y-77022100D01*
X99209700Y-81008700D02*
X95223100Y-77022100D01*
X99209700Y-81290000D02*
X99209700Y-81008700D01*
X100335000Y-81290000D02*
X99209700Y-81290000D01*
X87258000Y-74387500D02*
X88303300Y-74387500D01*
X96505000Y-109215000D02*
X95379700Y-109215000D01*
X61193400Y-105643400D02*
X59690000Y-104140000D01*
X72873200Y-105643400D02*
X61193400Y-105643400D01*
X78948900Y-111719100D02*
X72873200Y-105643400D01*
X91644300Y-111719100D02*
X78948900Y-111719100D01*
X93023100Y-110340300D02*
X91644300Y-111719100D01*
X94535800Y-110340300D02*
X93023100Y-110340300D01*
X95379700Y-109496400D02*
X94535800Y-110340300D01*
X95379700Y-109215000D02*
X95379700Y-109496400D01*
%TO.N,CA0*%
X101585000Y-93975000D02*
X100459700Y-93975000D01*
X59695000Y-81290000D02*
X60820300Y-81290000D01*
X100459700Y-93247600D02*
X100459700Y-93975000D01*
X96525000Y-89312900D02*
X100459700Y-93247600D01*
X96525000Y-88548800D02*
X96525000Y-89312900D01*
X91777800Y-83801600D02*
X96525000Y-88548800D01*
X63050600Y-83801600D02*
X91777800Y-83801600D01*
X60820300Y-81571300D02*
X63050600Y-83801600D01*
X60820300Y-81290000D02*
X60820300Y-81571300D01*
%TO.N,CA1*%
X82778600Y-91278400D02*
X73665000Y-91278400D01*
X85075000Y-93574800D02*
X82778600Y-91278400D01*
X85075000Y-94299900D02*
X85075000Y-93574800D01*
X85889400Y-95114300D02*
X85075000Y-94299900D01*
X97061700Y-95114300D02*
X85889400Y-95114300D01*
X97919700Y-94256300D02*
X97061700Y-95114300D01*
X97919700Y-93975000D02*
X97919700Y-94256300D01*
X99045000Y-93975000D02*
X97919700Y-93975000D01*
%TO.N,CA4*%
X78600300Y-89191400D02*
X78600300Y-88910000D01*
X79444200Y-90035300D02*
X78600300Y-89191400D01*
X86641300Y-90035300D02*
X79444200Y-90035300D01*
X90299700Y-93693700D02*
X86641300Y-90035300D01*
X90299700Y-93975000D02*
X90299700Y-93693700D01*
X91425000Y-93975000D02*
X90299700Y-93975000D01*
X77475000Y-88910000D02*
X78600300Y-88910000D01*
%TO.N,CA2*%
X73288000Y-73117500D02*
X87258000Y-59147500D01*
X73288000Y-76731700D02*
X73288000Y-73117500D01*
X69855000Y-80164700D02*
X73288000Y-76731700D01*
X69855000Y-81290000D02*
X69855000Y-80164700D01*
%TO.N,~{WR}*%
X48519400Y-98894900D02*
X47394100Y-100020200D01*
X56323900Y-98894900D02*
X48519400Y-98894900D01*
X57340900Y-97877900D02*
X56323900Y-98894900D01*
X60872100Y-97877900D02*
X57340900Y-97877900D01*
X62230000Y-96520000D02*
X60872100Y-97877900D01*
X46268800Y-100020200D02*
X47394100Y-100020200D01*
X99681300Y-134947600D02*
X100638800Y-135905100D01*
X78654100Y-134947600D02*
X99681300Y-134947600D01*
X75636800Y-131930300D02*
X78654100Y-134947600D01*
X74930000Y-131930300D02*
X75636800Y-131930300D01*
X74930000Y-130805000D02*
X74930000Y-131930300D01*
%TO.N,D1*%
X95536300Y-82415300D02*
X95255000Y-82415300D01*
X101605000Y-88484000D02*
X95536300Y-82415300D01*
X101605000Y-89298600D02*
X101605000Y-88484000D01*
X105539700Y-93233300D02*
X101605000Y-89298600D01*
X105539700Y-93975000D02*
X105539700Y-93233300D01*
X106665000Y-93975000D02*
X105539700Y-93975000D01*
X95255000Y-81290000D02*
X95255000Y-81852600D01*
X95255000Y-81852600D02*
X95255000Y-82415300D01*
X93555800Y-80153400D02*
X95255000Y-81852600D01*
X92209500Y-80153400D02*
X93555800Y-80153400D01*
X91445000Y-80917900D02*
X92209500Y-80153400D01*
X91445000Y-81633500D02*
X91445000Y-80917900D01*
X90212900Y-82865600D02*
X91445000Y-81633500D01*
X66350600Y-82865600D02*
X90212900Y-82865600D01*
X64775000Y-81290000D02*
X66350600Y-82865600D01*
%TO.N,D5*%
X98463300Y-75432800D02*
X98463300Y-74387500D01*
X101749700Y-78719200D02*
X98463300Y-75432800D01*
X101749700Y-86659400D02*
X101749700Y-78719200D01*
X102875000Y-87784700D02*
X101749700Y-86659400D01*
X102875000Y-88910000D02*
X102875000Y-87784700D01*
X97418000Y-74387500D02*
X98463300Y-74387500D01*
%TO.N,D7*%
X62235000Y-88910000D02*
X63360300Y-88910000D01*
X92715000Y-88910000D02*
X91589700Y-88910000D01*
X63360300Y-89191300D02*
X63360300Y-88910000D01*
X64226400Y-90057400D02*
X63360300Y-89191300D01*
X67769200Y-90057400D02*
X64226400Y-90057400D01*
X68585000Y-89241600D02*
X67769200Y-90057400D01*
X68585000Y-88564100D02*
X68585000Y-89241600D01*
X69364400Y-87784700D02*
X68585000Y-88564100D01*
X90745800Y-87784700D02*
X69364400Y-87784700D01*
X91589700Y-88628600D02*
X90745800Y-87784700D01*
X91589700Y-88910000D02*
X91589700Y-88628600D01*
X59690000Y-108544300D02*
X71059100Y-119913400D01*
X59690000Y-106680000D02*
X59690000Y-108544300D01*
%TO.N,A5*%
X75857300Y-135918200D02*
X76300700Y-135918200D01*
X72014100Y-132075000D02*
X75857300Y-135918200D01*
X63102900Y-132075000D02*
X72014100Y-132075000D01*
X62351500Y-131323600D02*
X63102900Y-132075000D01*
X62351500Y-127717500D02*
X62351500Y-131323600D01*
X63218700Y-126850300D02*
X62351500Y-127717500D01*
X63500000Y-126850300D02*
X63218700Y-126850300D01*
X63500000Y-125725000D02*
X63500000Y-126850300D01*
%TO.N,~{RES}*%
X85384400Y-82415300D02*
X86509700Y-81290000D01*
X66793200Y-82415300D02*
X85384400Y-82415300D01*
X66045000Y-81667100D02*
X66793200Y-82415300D01*
X66045000Y-80965700D02*
X66045000Y-81667100D01*
X65210100Y-80130800D02*
X66045000Y-80965700D01*
X59158200Y-80130800D02*
X65210100Y-80130800D01*
X58280300Y-81008700D02*
X59158200Y-80130800D01*
X58280300Y-81290000D02*
X58280300Y-81008700D01*
X57155000Y-81290000D02*
X58280300Y-81290000D01*
X87635000Y-81290000D02*
X86509700Y-81290000D01*
%TO.N,~{RD}*%
X93965000Y-109215000D02*
X92839700Y-109215000D01*
X63266600Y-105176600D02*
X62230000Y-104140000D01*
X73043300Y-105176600D02*
X63266600Y-105176600D01*
X79115100Y-111248400D02*
X73043300Y-105176600D01*
X90997500Y-111248400D02*
X79115100Y-111248400D01*
X92839700Y-109406200D02*
X90997500Y-111248400D01*
X92839700Y-109215000D02*
X92839700Y-109406200D01*
%TO.N,A6*%
X63500000Y-120645000D02*
X63500000Y-121770300D01*
X84980800Y-136644600D02*
X85737100Y-135888300D01*
X65147600Y-136644600D02*
X84980800Y-136644600D01*
X61851000Y-133348000D02*
X65147600Y-136644600D01*
X61851000Y-123138000D02*
X61851000Y-133348000D01*
X63218700Y-121770300D02*
X61851000Y-123138000D01*
X63500000Y-121770300D02*
X63218700Y-121770300D01*
%TO.N,D6*%
X64775000Y-88910000D02*
X65900300Y-88910000D01*
X95255000Y-88910000D02*
X94129700Y-88910000D01*
X94129700Y-88628700D02*
X94129700Y-88910000D01*
X90792700Y-85291700D02*
X94129700Y-88628700D01*
X85672700Y-85291700D02*
X90792700Y-85291700D01*
X85515500Y-85134500D02*
X85672700Y-85291700D01*
X69490300Y-85134500D02*
X85515500Y-85134500D01*
X65900300Y-88724500D02*
X69490300Y-85134500D01*
X65900300Y-88910000D02*
X65900300Y-88724500D01*
%TO.N,D2*%
X104000300Y-83540600D02*
X102875000Y-82415300D01*
X104000300Y-89152100D02*
X104000300Y-83540600D01*
X108079700Y-93231500D02*
X104000300Y-89152100D01*
X108079700Y-93975000D02*
X108079700Y-93231500D01*
X109205000Y-93975000D02*
X108079700Y-93975000D01*
X102875000Y-81290000D02*
X102875000Y-82415300D01*
X101600000Y-125730000D02*
X101600000Y-124604700D01*
X76208200Y-113038200D02*
X69850000Y-106680000D01*
X89303400Y-113038200D02*
X76208200Y-113038200D01*
X92145200Y-115880000D02*
X89303400Y-113038200D01*
X92145200Y-116620900D02*
X92145200Y-115880000D01*
X97589000Y-122064700D02*
X92145200Y-116620900D01*
X98322100Y-122064700D02*
X97589000Y-122064700D01*
X100862100Y-124604700D02*
X98322100Y-122064700D01*
X101600000Y-124604700D02*
X100862100Y-124604700D01*
X75782400Y-76777300D02*
X72395000Y-80164700D01*
X75782400Y-73898900D02*
X75782400Y-76777300D01*
X77076500Y-72604800D02*
X75782400Y-73898900D01*
X85749400Y-72604800D02*
X77076500Y-72604800D01*
X98912700Y-59441500D02*
X85749400Y-72604800D01*
X98912700Y-59147500D02*
X98912700Y-59441500D01*
X99958000Y-59147500D02*
X98912700Y-59147500D01*
X72395000Y-81290000D02*
X72395000Y-80164700D01*
%TO.N,D0*%
X92996300Y-82415300D02*
X92715000Y-82415300D01*
X99065000Y-88484000D02*
X92996300Y-82415300D01*
X99065000Y-89312900D02*
X99065000Y-88484000D01*
X102999700Y-93247600D02*
X99065000Y-89312900D01*
X102999700Y-93975000D02*
X102999700Y-93247600D01*
X104125000Y-93975000D02*
X102999700Y-93975000D01*
X92715000Y-81290000D02*
X92715000Y-82415300D01*
X62235000Y-81290000D02*
X63360300Y-81290000D01*
X101600000Y-120650000D02*
X100474700Y-120650000D01*
X91814400Y-83315900D02*
X92715000Y-82415300D01*
X65104800Y-83315900D02*
X91814400Y-83315900D01*
X63360300Y-81571400D02*
X65104800Y-83315900D01*
X63360300Y-81290000D02*
X63360300Y-81571400D01*
X78072800Y-112362800D02*
X72390000Y-106680000D01*
X89920700Y-112362800D02*
X78072800Y-112362800D01*
X97082600Y-119524700D02*
X89920700Y-112362800D01*
X99349400Y-119524700D02*
X97082600Y-119524700D01*
X100474700Y-120650000D02*
X99349400Y-119524700D01*
%TD*%
M02*
